%TF.GenerationSoftware,KiCad,Pcbnew,7.0.6*%
%TF.CreationDate,2023-08-06T04:21:24+10:00*%
%TF.ProjectId,controller,636f6e74-726f-46c6-9c65-722e6b696361,rev?*%
%TF.SameCoordinates,Original*%
%TF.FileFunction,Legend,Bot*%
%TF.FilePolarity,Positive*%
%FSLAX46Y46*%
G04 Gerber Fmt 4.6, Leading zero omitted, Abs format (unit mm)*
G04 Created by KiCad (PCBNEW 7.0.6) date 2023-08-06 04:21:24*
%MOMM*%
%LPD*%
G01*
G04 APERTURE LIST*
G04 Aperture macros list*
%AMRoundRect*
0 Rectangle with rounded corners*
0 $1 Rounding radius*
0 $2 $3 $4 $5 $6 $7 $8 $9 X,Y pos of 4 corners*
0 Add a 4 corners polygon primitive as box body*
4,1,4,$2,$3,$4,$5,$6,$7,$8,$9,$2,$3,0*
0 Add four circle primitives for the rounded corners*
1,1,$1+$1,$2,$3*
1,1,$1+$1,$4,$5*
1,1,$1+$1,$6,$7*
1,1,$1+$1,$8,$9*
0 Add four rect primitives between the rounded corners*
20,1,$1+$1,$2,$3,$4,$5,0*
20,1,$1+$1,$4,$5,$6,$7,0*
20,1,$1+$1,$6,$7,$8,$9,0*
20,1,$1+$1,$8,$9,$2,$3,0*%
G04 Aperture macros list end*
%ADD10C,0.080000*%
%ADD11C,0.254000*%
%ADD12C,0.085344*%
%ADD13C,0.114300*%
%ADD14C,0.072000*%
%ADD15C,0.200000*%
%ADD16C,0.127000*%
%ADD17C,0.050000*%
%ADD18R,0.700000X1.550000*%
%ADD19C,1.151600*%
%ADD20C,4.700000*%
%ADD21C,3.101600*%
%ADD22C,1.976600*%
%ADD23RoundRect,0.050800X-0.800000X0.450000X-0.800000X-0.450000X0.800000X-0.450000X0.800000X0.450000X0*%
%ADD24RoundRect,0.050800X-0.500000X-1.750000X0.500000X-1.750000X0.500000X1.750000X-0.500000X1.750000X0*%
%ADD25RoundRect,0.050800X-0.750000X-1.700000X0.750000X-1.700000X0.750000X1.700000X-0.750000X1.700000X0*%
%ADD26RoundRect,0.050800X0.425000X-3.500000X0.425000X3.500000X-0.425000X3.500000X-0.425000X-3.500000X0*%
G04 APERTURE END LIST*
D10*
X140234183Y-121961325D02*
X140577040Y-121961325D01*
X140577040Y-121961325D02*
X140577040Y-121241325D01*
X137369545Y-86993373D02*
X137335260Y-87027659D01*
X137335260Y-87027659D02*
X137300974Y-87130516D01*
X137300974Y-87130516D02*
X137300974Y-87199088D01*
X137300974Y-87199088D02*
X137335260Y-87301945D01*
X137335260Y-87301945D02*
X137403831Y-87370516D01*
X137403831Y-87370516D02*
X137472402Y-87404802D01*
X137472402Y-87404802D02*
X137609545Y-87439088D01*
X137609545Y-87439088D02*
X137712402Y-87439088D01*
X137712402Y-87439088D02*
X137849545Y-87404802D01*
X137849545Y-87404802D02*
X137918117Y-87370516D01*
X137918117Y-87370516D02*
X137986688Y-87301945D01*
X137986688Y-87301945D02*
X138020974Y-87199088D01*
X138020974Y-87199088D02*
X138020974Y-87130516D01*
X138020974Y-87130516D02*
X137986688Y-87027659D01*
X137986688Y-87027659D02*
X137952402Y-86993373D01*
X138199897Y-121275611D02*
X138268469Y-121241325D01*
X138268469Y-121241325D02*
X138371326Y-121241325D01*
X138371326Y-121241325D02*
X138474183Y-121275611D01*
X138474183Y-121275611D02*
X138542754Y-121344182D01*
X138542754Y-121344182D02*
X138577040Y-121412754D01*
X138577040Y-121412754D02*
X138611326Y-121549897D01*
X138611326Y-121549897D02*
X138611326Y-121652754D01*
X138611326Y-121652754D02*
X138577040Y-121789897D01*
X138577040Y-121789897D02*
X138542754Y-121858468D01*
X138542754Y-121858468D02*
X138474183Y-121927040D01*
X138474183Y-121927040D02*
X138371326Y-121961325D01*
X138371326Y-121961325D02*
X138302754Y-121961325D01*
X138302754Y-121961325D02*
X138199897Y-121927040D01*
X138199897Y-121927040D02*
X138165611Y-121892754D01*
X138165611Y-121892754D02*
X138165611Y-121652754D01*
X138165611Y-121652754D02*
X138302754Y-121652754D01*
X139486688Y-87027659D02*
X139520974Y-87096231D01*
X139520974Y-87096231D02*
X139520974Y-87199088D01*
X139520974Y-87199088D02*
X139486688Y-87301945D01*
X139486688Y-87301945D02*
X139418117Y-87370516D01*
X139418117Y-87370516D02*
X139349545Y-87404802D01*
X139349545Y-87404802D02*
X139212402Y-87439088D01*
X139212402Y-87439088D02*
X139109545Y-87439088D01*
X139109545Y-87439088D02*
X138972402Y-87404802D01*
X138972402Y-87404802D02*
X138903831Y-87370516D01*
X138903831Y-87370516D02*
X138835260Y-87301945D01*
X138835260Y-87301945D02*
X138800974Y-87199088D01*
X138800974Y-87199088D02*
X138800974Y-87130516D01*
X138800974Y-87130516D02*
X138835260Y-87027659D01*
X138835260Y-87027659D02*
X138869545Y-86993373D01*
X138869545Y-86993373D02*
X139109545Y-86993373D01*
X139109545Y-86993373D02*
X139109545Y-87130516D01*
X156184183Y-121961325D02*
X156527040Y-121961325D01*
X156527040Y-121961325D02*
X156527040Y-121241325D01*
X154149897Y-121275611D02*
X154218469Y-121241325D01*
X154218469Y-121241325D02*
X154321326Y-121241325D01*
X154321326Y-121241325D02*
X154424183Y-121275611D01*
X154424183Y-121275611D02*
X154492754Y-121344182D01*
X154492754Y-121344182D02*
X154527040Y-121412754D01*
X154527040Y-121412754D02*
X154561326Y-121549897D01*
X154561326Y-121549897D02*
X154561326Y-121652754D01*
X154561326Y-121652754D02*
X154527040Y-121789897D01*
X154527040Y-121789897D02*
X154492754Y-121858468D01*
X154492754Y-121858468D02*
X154424183Y-121927040D01*
X154424183Y-121927040D02*
X154321326Y-121961325D01*
X154321326Y-121961325D02*
X154252754Y-121961325D01*
X154252754Y-121961325D02*
X154149897Y-121927040D01*
X154149897Y-121927040D02*
X154115611Y-121892754D01*
X154115611Y-121892754D02*
X154115611Y-121652754D01*
X154115611Y-121652754D02*
X154252754Y-121652754D01*
X142577040Y-121961325D02*
X142577040Y-121241325D01*
X142577040Y-121584182D02*
X142165611Y-121584182D01*
X142165611Y-121961325D02*
X142165611Y-121241325D01*
D11*
X149955502Y-96499053D02*
X148685502Y-96499053D01*
X149834549Y-97829530D02*
X149895026Y-97769054D01*
X149895026Y-97769054D02*
X149955502Y-97587625D01*
X149955502Y-97587625D02*
X149955502Y-97466673D01*
X149955502Y-97466673D02*
X149895026Y-97285244D01*
X149895026Y-97285244D02*
X149774073Y-97164292D01*
X149774073Y-97164292D02*
X149653121Y-97103815D01*
X149653121Y-97103815D02*
X149411216Y-97043339D01*
X149411216Y-97043339D02*
X149229787Y-97043339D01*
X149229787Y-97043339D02*
X148987883Y-97103815D01*
X148987883Y-97103815D02*
X148866930Y-97164292D01*
X148866930Y-97164292D02*
X148745978Y-97285244D01*
X148745978Y-97285244D02*
X148685502Y-97466673D01*
X148685502Y-97466673D02*
X148685502Y-97587625D01*
X148685502Y-97587625D02*
X148745978Y-97769054D01*
X148745978Y-97769054D02*
X148806454Y-97829530D01*
X149108835Y-98918101D02*
X149955502Y-98918101D01*
X148625026Y-98615720D02*
X149532168Y-98313339D01*
X149532168Y-98313339D02*
X149532168Y-99099530D01*
D12*
X152089264Y-102434144D02*
X152114229Y-102409180D01*
X152114229Y-102409180D02*
X152139193Y-102334286D01*
X152139193Y-102334286D02*
X152139193Y-102284357D01*
X152139193Y-102284357D02*
X152114229Y-102209463D01*
X152114229Y-102209463D02*
X152064299Y-102159534D01*
X152064299Y-102159534D02*
X152014370Y-102134569D01*
X152014370Y-102134569D02*
X151914512Y-102109605D01*
X151914512Y-102109605D02*
X151839618Y-102109605D01*
X151839618Y-102109605D02*
X151739760Y-102134569D01*
X151739760Y-102134569D02*
X151689831Y-102159534D01*
X151689831Y-102159534D02*
X151639902Y-102209463D01*
X151639902Y-102209463D02*
X151614937Y-102284357D01*
X151614937Y-102284357D02*
X151614937Y-102334286D01*
X151614937Y-102334286D02*
X151639902Y-102409180D01*
X151639902Y-102409180D02*
X151664866Y-102434144D01*
X151789689Y-102883507D02*
X152139193Y-102883507D01*
X151589973Y-102758684D02*
X151964441Y-102633861D01*
X151964441Y-102633861D02*
X151964441Y-102958400D01*
X151614937Y-103108187D02*
X151614937Y-103457691D01*
X151614937Y-103457691D02*
X152139193Y-103233010D01*
D13*
X135920545Y-120399127D02*
X135962722Y-120356951D01*
X135962722Y-120356951D02*
X136004898Y-120230422D01*
X136004898Y-120230422D02*
X136004898Y-120146070D01*
X136004898Y-120146070D02*
X135962722Y-120019541D01*
X135962722Y-120019541D02*
X135878369Y-119935189D01*
X135878369Y-119935189D02*
X135794017Y-119893012D01*
X135794017Y-119893012D02*
X135625312Y-119850836D01*
X135625312Y-119850836D02*
X135498783Y-119850836D01*
X135498783Y-119850836D02*
X135330079Y-119893012D01*
X135330079Y-119893012D02*
X135245726Y-119935189D01*
X135245726Y-119935189D02*
X135161374Y-120019541D01*
X135161374Y-120019541D02*
X135119198Y-120146070D01*
X135119198Y-120146070D02*
X135119198Y-120230422D01*
X135119198Y-120230422D02*
X135161374Y-120356951D01*
X135161374Y-120356951D02*
X135203550Y-120399127D01*
X135751841Y-120736536D02*
X135751841Y-121158298D01*
X136004898Y-120652184D02*
X135119198Y-120947417D01*
X135119198Y-120947417D02*
X136004898Y-121242651D01*
X136004898Y-121537883D02*
X135119198Y-121537883D01*
X135119198Y-121537883D02*
X136004898Y-122043998D01*
X136004898Y-122043998D02*
X135119198Y-122043998D01*
X136004898Y-122929698D02*
X136004898Y-122423583D01*
X136004898Y-122676640D02*
X135119198Y-122676640D01*
X135119198Y-122676640D02*
X135245726Y-122592288D01*
X135245726Y-122592288D02*
X135330079Y-122507936D01*
X135330079Y-122507936D02*
X135372255Y-122423583D01*
D12*
X160539264Y-102434144D02*
X160564229Y-102409180D01*
X160564229Y-102409180D02*
X160589193Y-102334286D01*
X160589193Y-102334286D02*
X160589193Y-102284357D01*
X160589193Y-102284357D02*
X160564229Y-102209463D01*
X160564229Y-102209463D02*
X160514299Y-102159534D01*
X160514299Y-102159534D02*
X160464370Y-102134569D01*
X160464370Y-102134569D02*
X160364512Y-102109605D01*
X160364512Y-102109605D02*
X160289618Y-102109605D01*
X160289618Y-102109605D02*
X160189760Y-102134569D01*
X160189760Y-102134569D02*
X160139831Y-102159534D01*
X160139831Y-102159534D02*
X160089902Y-102209463D01*
X160089902Y-102209463D02*
X160064937Y-102284357D01*
X160064937Y-102284357D02*
X160064937Y-102334286D01*
X160064937Y-102334286D02*
X160089902Y-102409180D01*
X160089902Y-102409180D02*
X160114866Y-102434144D01*
X160239689Y-102883507D02*
X160589193Y-102883507D01*
X160039973Y-102758684D02*
X160414441Y-102633861D01*
X160414441Y-102633861D02*
X160414441Y-102958400D01*
X160064937Y-103108187D02*
X160064937Y-103432727D01*
X160064937Y-103432727D02*
X160264654Y-103257975D01*
X160264654Y-103257975D02*
X160264654Y-103332868D01*
X160264654Y-103332868D02*
X160289618Y-103382798D01*
X160289618Y-103382798D02*
X160314583Y-103407762D01*
X160314583Y-103407762D02*
X160364512Y-103432727D01*
X160364512Y-103432727D02*
X160489335Y-103432727D01*
X160489335Y-103432727D02*
X160539264Y-103407762D01*
X160539264Y-103407762D02*
X160564229Y-103382798D01*
X160564229Y-103382798D02*
X160589193Y-103332868D01*
X160589193Y-103332868D02*
X160589193Y-103183081D01*
X160589193Y-103183081D02*
X160564229Y-103133152D01*
X160564229Y-103133152D02*
X160539264Y-103108187D01*
X166939264Y-102434144D02*
X166964229Y-102409180D01*
X166964229Y-102409180D02*
X166989193Y-102334286D01*
X166989193Y-102334286D02*
X166989193Y-102284357D01*
X166989193Y-102284357D02*
X166964229Y-102209463D01*
X166964229Y-102209463D02*
X166914299Y-102159534D01*
X166914299Y-102159534D02*
X166864370Y-102134569D01*
X166864370Y-102134569D02*
X166764512Y-102109605D01*
X166764512Y-102109605D02*
X166689618Y-102109605D01*
X166689618Y-102109605D02*
X166589760Y-102134569D01*
X166589760Y-102134569D02*
X166539831Y-102159534D01*
X166539831Y-102159534D02*
X166489902Y-102209463D01*
X166489902Y-102209463D02*
X166464937Y-102284357D01*
X166464937Y-102284357D02*
X166464937Y-102334286D01*
X166464937Y-102334286D02*
X166489902Y-102409180D01*
X166489902Y-102409180D02*
X166514866Y-102434144D01*
X166639689Y-102883507D02*
X166989193Y-102883507D01*
X166439973Y-102758684D02*
X166814441Y-102633861D01*
X166814441Y-102633861D02*
X166814441Y-102958400D01*
X166464937Y-103257975D02*
X166464937Y-103307904D01*
X166464937Y-103307904D02*
X166489902Y-103357833D01*
X166489902Y-103357833D02*
X166514866Y-103382798D01*
X166514866Y-103382798D02*
X166564795Y-103407762D01*
X166564795Y-103407762D02*
X166664654Y-103432727D01*
X166664654Y-103432727D02*
X166789477Y-103432727D01*
X166789477Y-103432727D02*
X166889335Y-103407762D01*
X166889335Y-103407762D02*
X166939264Y-103382798D01*
X166939264Y-103382798D02*
X166964229Y-103357833D01*
X166964229Y-103357833D02*
X166989193Y-103307904D01*
X166989193Y-103307904D02*
X166989193Y-103257975D01*
X166989193Y-103257975D02*
X166964229Y-103208046D01*
X166964229Y-103208046D02*
X166939264Y-103183081D01*
X166939264Y-103183081D02*
X166889335Y-103158116D01*
X166889335Y-103158116D02*
X166789477Y-103133152D01*
X166789477Y-103133152D02*
X166664654Y-103133152D01*
X166664654Y-103133152D02*
X166564795Y-103158116D01*
X166564795Y-103158116D02*
X166514866Y-103183081D01*
X166514866Y-103183081D02*
X166489902Y-103208046D01*
X166489902Y-103208046D02*
X166464937Y-103257975D01*
D14*
X134280398Y-84155309D02*
X134037732Y-84155309D01*
X133933732Y-84536642D02*
X134280398Y-84536642D01*
X134280398Y-84536642D02*
X134280398Y-83808642D01*
X134280398Y-83808642D02*
X133933732Y-83808642D01*
X133621731Y-84536642D02*
X133621731Y-83808642D01*
X133621731Y-83808642D02*
X133205731Y-84536642D01*
X133205731Y-84536642D02*
X133205731Y-83808642D01*
X132443064Y-84467309D02*
X132477731Y-84501976D01*
X132477731Y-84501976D02*
X132581731Y-84536642D01*
X132581731Y-84536642D02*
X132651064Y-84536642D01*
X132651064Y-84536642D02*
X132755064Y-84501976D01*
X132755064Y-84501976D02*
X132824398Y-84432642D01*
X132824398Y-84432642D02*
X132859064Y-84363309D01*
X132859064Y-84363309D02*
X132893731Y-84224642D01*
X132893731Y-84224642D02*
X132893731Y-84120642D01*
X132893731Y-84120642D02*
X132859064Y-83981976D01*
X132859064Y-83981976D02*
X132824398Y-83912642D01*
X132824398Y-83912642D02*
X132755064Y-83843309D01*
X132755064Y-83843309D02*
X132651064Y-83808642D01*
X132651064Y-83808642D02*
X132581731Y-83808642D01*
X132581731Y-83808642D02*
X132477731Y-83843309D01*
X132477731Y-83843309D02*
X132443064Y-83877976D01*
X131992398Y-83808642D02*
X131923064Y-83808642D01*
X131923064Y-83808642D02*
X131853731Y-83843309D01*
X131853731Y-83843309D02*
X131819064Y-83877976D01*
X131819064Y-83877976D02*
X131784398Y-83947309D01*
X131784398Y-83947309D02*
X131749731Y-84085976D01*
X131749731Y-84085976D02*
X131749731Y-84259309D01*
X131749731Y-84259309D02*
X131784398Y-84397976D01*
X131784398Y-84397976D02*
X131819064Y-84467309D01*
X131819064Y-84467309D02*
X131853731Y-84501976D01*
X131853731Y-84501976D02*
X131923064Y-84536642D01*
X131923064Y-84536642D02*
X131992398Y-84536642D01*
X131992398Y-84536642D02*
X132061731Y-84501976D01*
X132061731Y-84501976D02*
X132096398Y-84467309D01*
X132096398Y-84467309D02*
X132131064Y-84397976D01*
X132131064Y-84397976D02*
X132165731Y-84259309D01*
X132165731Y-84259309D02*
X132165731Y-84085976D01*
X132165731Y-84085976D02*
X132131064Y-83947309D01*
X132131064Y-83947309D02*
X132096398Y-83877976D01*
X132096398Y-83877976D02*
X132061731Y-83843309D01*
X132061731Y-83843309D02*
X131992398Y-83808642D01*
D12*
X148539264Y-102434144D02*
X148564229Y-102409180D01*
X148564229Y-102409180D02*
X148589193Y-102334286D01*
X148589193Y-102334286D02*
X148589193Y-102284357D01*
X148589193Y-102284357D02*
X148564229Y-102209463D01*
X148564229Y-102209463D02*
X148514299Y-102159534D01*
X148514299Y-102159534D02*
X148464370Y-102134569D01*
X148464370Y-102134569D02*
X148364512Y-102109605D01*
X148364512Y-102109605D02*
X148289618Y-102109605D01*
X148289618Y-102109605D02*
X148189760Y-102134569D01*
X148189760Y-102134569D02*
X148139831Y-102159534D01*
X148139831Y-102159534D02*
X148089902Y-102209463D01*
X148089902Y-102209463D02*
X148064937Y-102284357D01*
X148064937Y-102284357D02*
X148064937Y-102334286D01*
X148064937Y-102334286D02*
X148089902Y-102409180D01*
X148089902Y-102409180D02*
X148114866Y-102434144D01*
X148239689Y-102883507D02*
X148589193Y-102883507D01*
X148039973Y-102758684D02*
X148414441Y-102633861D01*
X148414441Y-102633861D02*
X148414441Y-102958400D01*
X148289618Y-103233010D02*
X148264654Y-103183081D01*
X148264654Y-103183081D02*
X148239689Y-103158116D01*
X148239689Y-103158116D02*
X148189760Y-103133152D01*
X148189760Y-103133152D02*
X148164795Y-103133152D01*
X148164795Y-103133152D02*
X148114866Y-103158116D01*
X148114866Y-103158116D02*
X148089902Y-103183081D01*
X148089902Y-103183081D02*
X148064937Y-103233010D01*
X148064937Y-103233010D02*
X148064937Y-103332868D01*
X148064937Y-103332868D02*
X148089902Y-103382798D01*
X148089902Y-103382798D02*
X148114866Y-103407762D01*
X148114866Y-103407762D02*
X148164795Y-103432727D01*
X148164795Y-103432727D02*
X148189760Y-103432727D01*
X148189760Y-103432727D02*
X148239689Y-103407762D01*
X148239689Y-103407762D02*
X148264654Y-103382798D01*
X148264654Y-103382798D02*
X148289618Y-103332868D01*
X148289618Y-103332868D02*
X148289618Y-103233010D01*
X148289618Y-103233010D02*
X148314583Y-103183081D01*
X148314583Y-103183081D02*
X148339547Y-103158116D01*
X148339547Y-103158116D02*
X148389477Y-103133152D01*
X148389477Y-103133152D02*
X148489335Y-103133152D01*
X148489335Y-103133152D02*
X148539264Y-103158116D01*
X148539264Y-103158116D02*
X148564229Y-103183081D01*
X148564229Y-103183081D02*
X148589193Y-103233010D01*
X148589193Y-103233010D02*
X148589193Y-103332868D01*
X148589193Y-103332868D02*
X148564229Y-103382798D01*
X148564229Y-103382798D02*
X148539264Y-103407762D01*
X148539264Y-103407762D02*
X148489335Y-103432727D01*
X148489335Y-103432727D02*
X148389477Y-103432727D01*
X148389477Y-103432727D02*
X148339547Y-103407762D01*
X148339547Y-103407762D02*
X148314583Y-103382798D01*
X148314583Y-103382798D02*
X148289618Y-103332868D01*
D13*
X161620545Y-127725792D02*
X161662722Y-127683616D01*
X161662722Y-127683616D02*
X161704898Y-127557087D01*
X161704898Y-127557087D02*
X161704898Y-127472735D01*
X161704898Y-127472735D02*
X161662722Y-127346206D01*
X161662722Y-127346206D02*
X161578369Y-127261854D01*
X161578369Y-127261854D02*
X161494017Y-127219677D01*
X161494017Y-127219677D02*
X161325312Y-127177501D01*
X161325312Y-127177501D02*
X161198783Y-127177501D01*
X161198783Y-127177501D02*
X161030079Y-127219677D01*
X161030079Y-127219677D02*
X160945726Y-127261854D01*
X160945726Y-127261854D02*
X160861374Y-127346206D01*
X160861374Y-127346206D02*
X160819198Y-127472735D01*
X160819198Y-127472735D02*
X160819198Y-127557087D01*
X160819198Y-127557087D02*
X160861374Y-127683616D01*
X160861374Y-127683616D02*
X160903550Y-127725792D01*
X161451841Y-128063201D02*
X161451841Y-128484963D01*
X161704898Y-127978849D02*
X160819198Y-128274082D01*
X160819198Y-128274082D02*
X161704898Y-128569316D01*
X161704898Y-128864548D02*
X160819198Y-128864548D01*
X160819198Y-128864548D02*
X161704898Y-129370663D01*
X161704898Y-129370663D02*
X160819198Y-129370663D01*
X160903550Y-129750248D02*
X160861374Y-129792424D01*
X160861374Y-129792424D02*
X160819198Y-129876777D01*
X160819198Y-129876777D02*
X160819198Y-130087658D01*
X160819198Y-130087658D02*
X160861374Y-130172010D01*
X160861374Y-130172010D02*
X160903550Y-130214186D01*
X160903550Y-130214186D02*
X160987902Y-130256363D01*
X160987902Y-130256363D02*
X161072255Y-130256363D01*
X161072255Y-130256363D02*
X161198783Y-130214186D01*
X161198783Y-130214186D02*
X161704898Y-129708072D01*
X161704898Y-129708072D02*
X161704898Y-130256363D01*
D12*
X132570555Y-102141764D02*
X132595519Y-102166729D01*
X132595519Y-102166729D02*
X132670413Y-102191693D01*
X132670413Y-102191693D02*
X132720342Y-102191693D01*
X132720342Y-102191693D02*
X132795236Y-102166729D01*
X132795236Y-102166729D02*
X132845165Y-102116799D01*
X132845165Y-102116799D02*
X132870130Y-102066870D01*
X132870130Y-102066870D02*
X132895094Y-101967012D01*
X132895094Y-101967012D02*
X132895094Y-101892118D01*
X132895094Y-101892118D02*
X132870130Y-101792260D01*
X132870130Y-101792260D02*
X132845165Y-101742331D01*
X132845165Y-101742331D02*
X132795236Y-101692402D01*
X132795236Y-101692402D02*
X132720342Y-101667437D01*
X132720342Y-101667437D02*
X132670413Y-101667437D01*
X132670413Y-101667437D02*
X132595519Y-101692402D01*
X132595519Y-101692402D02*
X132570555Y-101717366D01*
X132096228Y-101667437D02*
X132345874Y-101667437D01*
X132345874Y-101667437D02*
X132370838Y-101917083D01*
X132370838Y-101917083D02*
X132345874Y-101892118D01*
X132345874Y-101892118D02*
X132295945Y-101867154D01*
X132295945Y-101867154D02*
X132171122Y-101867154D01*
X132171122Y-101867154D02*
X132121193Y-101892118D01*
X132121193Y-101892118D02*
X132096228Y-101917083D01*
X132096228Y-101917083D02*
X132071263Y-101967012D01*
X132071263Y-101967012D02*
X132071263Y-102091835D01*
X132071263Y-102091835D02*
X132096228Y-102141764D01*
X132096228Y-102141764D02*
X132121193Y-102166729D01*
X132121193Y-102166729D02*
X132171122Y-102191693D01*
X132171122Y-102191693D02*
X132295945Y-102191693D01*
X132295945Y-102191693D02*
X132345874Y-102166729D01*
X132345874Y-102166729D02*
X132370838Y-102141764D01*
X131896512Y-101667437D02*
X131571972Y-101667437D01*
X131571972Y-101667437D02*
X131746724Y-101867154D01*
X131746724Y-101867154D02*
X131671831Y-101867154D01*
X131671831Y-101867154D02*
X131621902Y-101892118D01*
X131621902Y-101892118D02*
X131596937Y-101917083D01*
X131596937Y-101917083D02*
X131571972Y-101967012D01*
X131571972Y-101967012D02*
X131571972Y-102091835D01*
X131571972Y-102091835D02*
X131596937Y-102141764D01*
X131596937Y-102141764D02*
X131621902Y-102166729D01*
X131621902Y-102166729D02*
X131671831Y-102191693D01*
X131671831Y-102191693D02*
X131821618Y-102191693D01*
X131821618Y-102191693D02*
X131871547Y-102166729D01*
X131871547Y-102166729D02*
X131896512Y-102141764D01*
X137170555Y-102141764D02*
X137195519Y-102166729D01*
X137195519Y-102166729D02*
X137270413Y-102191693D01*
X137270413Y-102191693D02*
X137320342Y-102191693D01*
X137320342Y-102191693D02*
X137395236Y-102166729D01*
X137395236Y-102166729D02*
X137445165Y-102116799D01*
X137445165Y-102116799D02*
X137470130Y-102066870D01*
X137470130Y-102066870D02*
X137495094Y-101967012D01*
X137495094Y-101967012D02*
X137495094Y-101892118D01*
X137495094Y-101892118D02*
X137470130Y-101792260D01*
X137470130Y-101792260D02*
X137445165Y-101742331D01*
X137445165Y-101742331D02*
X137395236Y-101692402D01*
X137395236Y-101692402D02*
X137320342Y-101667437D01*
X137320342Y-101667437D02*
X137270413Y-101667437D01*
X137270413Y-101667437D02*
X137195519Y-101692402D01*
X137195519Y-101692402D02*
X137170555Y-101717366D01*
X136696228Y-101667437D02*
X136945874Y-101667437D01*
X136945874Y-101667437D02*
X136970838Y-101917083D01*
X136970838Y-101917083D02*
X136945874Y-101892118D01*
X136945874Y-101892118D02*
X136895945Y-101867154D01*
X136895945Y-101867154D02*
X136771122Y-101867154D01*
X136771122Y-101867154D02*
X136721193Y-101892118D01*
X136721193Y-101892118D02*
X136696228Y-101917083D01*
X136696228Y-101917083D02*
X136671263Y-101967012D01*
X136671263Y-101967012D02*
X136671263Y-102091835D01*
X136671263Y-102091835D02*
X136696228Y-102141764D01*
X136696228Y-102141764D02*
X136721193Y-102166729D01*
X136721193Y-102166729D02*
X136771122Y-102191693D01*
X136771122Y-102191693D02*
X136895945Y-102191693D01*
X136895945Y-102191693D02*
X136945874Y-102166729D01*
X136945874Y-102166729D02*
X136970838Y-102141764D01*
X136171972Y-102191693D02*
X136471547Y-102191693D01*
X136321760Y-102191693D02*
X136321760Y-101667437D01*
X136321760Y-101667437D02*
X136371689Y-101742331D01*
X136371689Y-101742331D02*
X136421618Y-101792260D01*
X136421618Y-101792260D02*
X136471547Y-101817225D01*
X162139264Y-102434144D02*
X162164229Y-102409180D01*
X162164229Y-102409180D02*
X162189193Y-102334286D01*
X162189193Y-102334286D02*
X162189193Y-102284357D01*
X162189193Y-102284357D02*
X162164229Y-102209463D01*
X162164229Y-102209463D02*
X162114299Y-102159534D01*
X162114299Y-102159534D02*
X162064370Y-102134569D01*
X162064370Y-102134569D02*
X161964512Y-102109605D01*
X161964512Y-102109605D02*
X161889618Y-102109605D01*
X161889618Y-102109605D02*
X161789760Y-102134569D01*
X161789760Y-102134569D02*
X161739831Y-102159534D01*
X161739831Y-102159534D02*
X161689902Y-102209463D01*
X161689902Y-102209463D02*
X161664937Y-102284357D01*
X161664937Y-102284357D02*
X161664937Y-102334286D01*
X161664937Y-102334286D02*
X161689902Y-102409180D01*
X161689902Y-102409180D02*
X161714866Y-102434144D01*
X161839689Y-102883507D02*
X162189193Y-102883507D01*
X161639973Y-102758684D02*
X162014441Y-102633861D01*
X162014441Y-102633861D02*
X162014441Y-102958400D01*
X161714866Y-103133152D02*
X161689902Y-103158116D01*
X161689902Y-103158116D02*
X161664937Y-103208046D01*
X161664937Y-103208046D02*
X161664937Y-103332868D01*
X161664937Y-103332868D02*
X161689902Y-103382798D01*
X161689902Y-103382798D02*
X161714866Y-103407762D01*
X161714866Y-103407762D02*
X161764795Y-103432727D01*
X161764795Y-103432727D02*
X161814725Y-103432727D01*
X161814725Y-103432727D02*
X161889618Y-103407762D01*
X161889618Y-103407762D02*
X162189193Y-103108187D01*
X162189193Y-103108187D02*
X162189193Y-103432727D01*
X156839264Y-101584144D02*
X156864229Y-101559180D01*
X156864229Y-101559180D02*
X156889193Y-101484286D01*
X156889193Y-101484286D02*
X156889193Y-101434357D01*
X156889193Y-101434357D02*
X156864229Y-101359463D01*
X156864229Y-101359463D02*
X156814299Y-101309534D01*
X156814299Y-101309534D02*
X156764370Y-101284569D01*
X156764370Y-101284569D02*
X156664512Y-101259605D01*
X156664512Y-101259605D02*
X156589618Y-101259605D01*
X156589618Y-101259605D02*
X156489760Y-101284569D01*
X156489760Y-101284569D02*
X156439831Y-101309534D01*
X156439831Y-101309534D02*
X156389902Y-101359463D01*
X156389902Y-101359463D02*
X156364937Y-101434357D01*
X156364937Y-101434357D02*
X156364937Y-101484286D01*
X156364937Y-101484286D02*
X156389902Y-101559180D01*
X156389902Y-101559180D02*
X156414866Y-101584144D01*
X156539689Y-102033507D02*
X156889193Y-102033507D01*
X156339973Y-101908684D02*
X156714441Y-101783861D01*
X156714441Y-101783861D02*
X156714441Y-102108400D01*
X156364937Y-102557762D02*
X156364937Y-102308116D01*
X156364937Y-102308116D02*
X156614583Y-102283152D01*
X156614583Y-102283152D02*
X156589618Y-102308116D01*
X156589618Y-102308116D02*
X156564654Y-102358046D01*
X156564654Y-102358046D02*
X156564654Y-102482868D01*
X156564654Y-102482868D02*
X156589618Y-102532798D01*
X156589618Y-102532798D02*
X156614583Y-102557762D01*
X156614583Y-102557762D02*
X156664512Y-102582727D01*
X156664512Y-102582727D02*
X156789335Y-102582727D01*
X156789335Y-102582727D02*
X156839264Y-102557762D01*
X156839264Y-102557762D02*
X156864229Y-102532798D01*
X156864229Y-102532798D02*
X156889193Y-102482868D01*
X156889193Y-102482868D02*
X156889193Y-102358046D01*
X156889193Y-102358046D02*
X156864229Y-102308116D01*
X156864229Y-102308116D02*
X156839264Y-102283152D01*
X140939264Y-102434144D02*
X140964229Y-102409180D01*
X140964229Y-102409180D02*
X140989193Y-102334286D01*
X140989193Y-102334286D02*
X140989193Y-102284357D01*
X140989193Y-102284357D02*
X140964229Y-102209463D01*
X140964229Y-102209463D02*
X140914299Y-102159534D01*
X140914299Y-102159534D02*
X140864370Y-102134569D01*
X140864370Y-102134569D02*
X140764512Y-102109605D01*
X140764512Y-102109605D02*
X140689618Y-102109605D01*
X140689618Y-102109605D02*
X140589760Y-102134569D01*
X140589760Y-102134569D02*
X140539831Y-102159534D01*
X140539831Y-102159534D02*
X140489902Y-102209463D01*
X140489902Y-102209463D02*
X140464937Y-102284357D01*
X140464937Y-102284357D02*
X140464937Y-102334286D01*
X140464937Y-102334286D02*
X140489902Y-102409180D01*
X140489902Y-102409180D02*
X140514866Y-102434144D01*
X140639689Y-102883507D02*
X140989193Y-102883507D01*
X140439973Y-102758684D02*
X140814441Y-102633861D01*
X140814441Y-102633861D02*
X140814441Y-102958400D01*
X140989193Y-103183081D02*
X140989193Y-103282939D01*
X140989193Y-103282939D02*
X140964229Y-103332868D01*
X140964229Y-103332868D02*
X140939264Y-103357833D01*
X140939264Y-103357833D02*
X140864370Y-103407762D01*
X140864370Y-103407762D02*
X140764512Y-103432727D01*
X140764512Y-103432727D02*
X140564795Y-103432727D01*
X140564795Y-103432727D02*
X140514866Y-103407762D01*
X140514866Y-103407762D02*
X140489902Y-103382798D01*
X140489902Y-103382798D02*
X140464937Y-103332868D01*
X140464937Y-103332868D02*
X140464937Y-103233010D01*
X140464937Y-103233010D02*
X140489902Y-103183081D01*
X140489902Y-103183081D02*
X140514866Y-103158116D01*
X140514866Y-103158116D02*
X140564795Y-103133152D01*
X140564795Y-103133152D02*
X140689618Y-103133152D01*
X140689618Y-103133152D02*
X140739547Y-103158116D01*
X140739547Y-103158116D02*
X140764512Y-103183081D01*
X140764512Y-103183081D02*
X140789477Y-103233010D01*
X140789477Y-103233010D02*
X140789477Y-103332868D01*
X140789477Y-103332868D02*
X140764512Y-103382798D01*
X140764512Y-103382798D02*
X140739547Y-103407762D01*
X140739547Y-103407762D02*
X140689618Y-103432727D01*
X130320555Y-102141764D02*
X130345519Y-102166729D01*
X130345519Y-102166729D02*
X130420413Y-102191693D01*
X130420413Y-102191693D02*
X130470342Y-102191693D01*
X130470342Y-102191693D02*
X130545236Y-102166729D01*
X130545236Y-102166729D02*
X130595165Y-102116799D01*
X130595165Y-102116799D02*
X130620130Y-102066870D01*
X130620130Y-102066870D02*
X130645094Y-101967012D01*
X130645094Y-101967012D02*
X130645094Y-101892118D01*
X130645094Y-101892118D02*
X130620130Y-101792260D01*
X130620130Y-101792260D02*
X130595165Y-101742331D01*
X130595165Y-101742331D02*
X130545236Y-101692402D01*
X130545236Y-101692402D02*
X130470342Y-101667437D01*
X130470342Y-101667437D02*
X130420413Y-101667437D01*
X130420413Y-101667437D02*
X130345519Y-101692402D01*
X130345519Y-101692402D02*
X130320555Y-101717366D01*
X129846228Y-101667437D02*
X130095874Y-101667437D01*
X130095874Y-101667437D02*
X130120838Y-101917083D01*
X130120838Y-101917083D02*
X130095874Y-101892118D01*
X130095874Y-101892118D02*
X130045945Y-101867154D01*
X130045945Y-101867154D02*
X129921122Y-101867154D01*
X129921122Y-101867154D02*
X129871193Y-101892118D01*
X129871193Y-101892118D02*
X129846228Y-101917083D01*
X129846228Y-101917083D02*
X129821263Y-101967012D01*
X129821263Y-101967012D02*
X129821263Y-102091835D01*
X129821263Y-102091835D02*
X129846228Y-102141764D01*
X129846228Y-102141764D02*
X129871193Y-102166729D01*
X129871193Y-102166729D02*
X129921122Y-102191693D01*
X129921122Y-102191693D02*
X130045945Y-102191693D01*
X130045945Y-102191693D02*
X130095874Y-102166729D01*
X130095874Y-102166729D02*
X130120838Y-102141764D01*
X129371902Y-101842189D02*
X129371902Y-102191693D01*
X129496724Y-101642473D02*
X129621547Y-102016941D01*
X129621547Y-102016941D02*
X129297008Y-102016941D01*
X133689264Y-101734144D02*
X133714229Y-101709180D01*
X133714229Y-101709180D02*
X133739193Y-101634286D01*
X133739193Y-101634286D02*
X133739193Y-101584357D01*
X133739193Y-101584357D02*
X133714229Y-101509463D01*
X133714229Y-101509463D02*
X133664299Y-101459534D01*
X133664299Y-101459534D02*
X133614370Y-101434569D01*
X133614370Y-101434569D02*
X133514512Y-101409605D01*
X133514512Y-101409605D02*
X133439618Y-101409605D01*
X133439618Y-101409605D02*
X133339760Y-101434569D01*
X133339760Y-101434569D02*
X133289831Y-101459534D01*
X133289831Y-101459534D02*
X133239902Y-101509463D01*
X133239902Y-101509463D02*
X133214937Y-101584357D01*
X133214937Y-101584357D02*
X133214937Y-101634286D01*
X133214937Y-101634286D02*
X133239902Y-101709180D01*
X133239902Y-101709180D02*
X133264866Y-101734144D01*
X133214937Y-102208471D02*
X133214937Y-101958825D01*
X133214937Y-101958825D02*
X133464583Y-101933861D01*
X133464583Y-101933861D02*
X133439618Y-101958825D01*
X133439618Y-101958825D02*
X133414654Y-102008755D01*
X133414654Y-102008755D02*
X133414654Y-102133577D01*
X133414654Y-102133577D02*
X133439618Y-102183507D01*
X133439618Y-102183507D02*
X133464583Y-102208471D01*
X133464583Y-102208471D02*
X133514512Y-102233436D01*
X133514512Y-102233436D02*
X133639335Y-102233436D01*
X133639335Y-102233436D02*
X133689264Y-102208471D01*
X133689264Y-102208471D02*
X133714229Y-102183507D01*
X133714229Y-102183507D02*
X133739193Y-102133577D01*
X133739193Y-102133577D02*
X133739193Y-102008755D01*
X133739193Y-102008755D02*
X133714229Y-101958825D01*
X133714229Y-101958825D02*
X133689264Y-101933861D01*
X133264866Y-102433152D02*
X133239902Y-102458116D01*
X133239902Y-102458116D02*
X133214937Y-102508046D01*
X133214937Y-102508046D02*
X133214937Y-102632868D01*
X133214937Y-102632868D02*
X133239902Y-102682798D01*
X133239902Y-102682798D02*
X133264866Y-102707762D01*
X133264866Y-102707762D02*
X133314795Y-102732727D01*
X133314795Y-102732727D02*
X133364725Y-102732727D01*
X133364725Y-102732727D02*
X133439618Y-102707762D01*
X133439618Y-102707762D02*
X133739193Y-102408187D01*
X133739193Y-102408187D02*
X133739193Y-102732727D01*
X159305687Y-101191764D02*
X159330651Y-101216729D01*
X159330651Y-101216729D02*
X159405545Y-101241693D01*
X159405545Y-101241693D02*
X159455474Y-101241693D01*
X159455474Y-101241693D02*
X159530368Y-101216729D01*
X159530368Y-101216729D02*
X159580297Y-101166799D01*
X159580297Y-101166799D02*
X159605262Y-101116870D01*
X159605262Y-101116870D02*
X159630226Y-101017012D01*
X159630226Y-101017012D02*
X159630226Y-100942118D01*
X159630226Y-100942118D02*
X159605262Y-100842260D01*
X159605262Y-100842260D02*
X159580297Y-100792331D01*
X159580297Y-100792331D02*
X159530368Y-100742402D01*
X159530368Y-100742402D02*
X159455474Y-100717437D01*
X159455474Y-100717437D02*
X159405545Y-100717437D01*
X159405545Y-100717437D02*
X159330651Y-100742402D01*
X159330651Y-100742402D02*
X159305687Y-100767366D01*
X158856325Y-100892189D02*
X158856325Y-101241693D01*
X158981147Y-100692473D02*
X159105970Y-101066941D01*
X159105970Y-101066941D02*
X158781431Y-101066941D01*
X158357034Y-100892189D02*
X158357034Y-101241693D01*
X158481856Y-100692473D02*
X158606679Y-101066941D01*
X158606679Y-101066941D02*
X158282140Y-101066941D01*
X165389264Y-102384144D02*
X165414229Y-102359180D01*
X165414229Y-102359180D02*
X165439193Y-102284286D01*
X165439193Y-102284286D02*
X165439193Y-102234357D01*
X165439193Y-102234357D02*
X165414229Y-102159463D01*
X165414229Y-102159463D02*
X165364299Y-102109534D01*
X165364299Y-102109534D02*
X165314370Y-102084569D01*
X165314370Y-102084569D02*
X165214512Y-102059605D01*
X165214512Y-102059605D02*
X165139618Y-102059605D01*
X165139618Y-102059605D02*
X165039760Y-102084569D01*
X165039760Y-102084569D02*
X164989831Y-102109534D01*
X164989831Y-102109534D02*
X164939902Y-102159463D01*
X164939902Y-102159463D02*
X164914937Y-102234357D01*
X164914937Y-102234357D02*
X164914937Y-102284286D01*
X164914937Y-102284286D02*
X164939902Y-102359180D01*
X164939902Y-102359180D02*
X164964866Y-102384144D01*
X165089689Y-102833507D02*
X165439193Y-102833507D01*
X164889973Y-102708684D02*
X165264441Y-102583861D01*
X165264441Y-102583861D02*
X165264441Y-102908400D01*
X165439193Y-103382727D02*
X165439193Y-103083152D01*
X165439193Y-103232939D02*
X164914937Y-103232939D01*
X164914937Y-103232939D02*
X164989831Y-103183010D01*
X164989831Y-103183010D02*
X165039760Y-103133081D01*
X165039760Y-103133081D02*
X165064725Y-103083152D01*
X139220555Y-102141764D02*
X139245519Y-102166729D01*
X139245519Y-102166729D02*
X139320413Y-102191693D01*
X139320413Y-102191693D02*
X139370342Y-102191693D01*
X139370342Y-102191693D02*
X139445236Y-102166729D01*
X139445236Y-102166729D02*
X139495165Y-102116799D01*
X139495165Y-102116799D02*
X139520130Y-102066870D01*
X139520130Y-102066870D02*
X139545094Y-101967012D01*
X139545094Y-101967012D02*
X139545094Y-101892118D01*
X139545094Y-101892118D02*
X139520130Y-101792260D01*
X139520130Y-101792260D02*
X139495165Y-101742331D01*
X139495165Y-101742331D02*
X139445236Y-101692402D01*
X139445236Y-101692402D02*
X139370342Y-101667437D01*
X139370342Y-101667437D02*
X139320413Y-101667437D01*
X139320413Y-101667437D02*
X139245519Y-101692402D01*
X139245519Y-101692402D02*
X139220555Y-101717366D01*
X138746228Y-101667437D02*
X138995874Y-101667437D01*
X138995874Y-101667437D02*
X139020838Y-101917083D01*
X139020838Y-101917083D02*
X138995874Y-101892118D01*
X138995874Y-101892118D02*
X138945945Y-101867154D01*
X138945945Y-101867154D02*
X138821122Y-101867154D01*
X138821122Y-101867154D02*
X138771193Y-101892118D01*
X138771193Y-101892118D02*
X138746228Y-101917083D01*
X138746228Y-101917083D02*
X138721263Y-101967012D01*
X138721263Y-101967012D02*
X138721263Y-102091835D01*
X138721263Y-102091835D02*
X138746228Y-102141764D01*
X138746228Y-102141764D02*
X138771193Y-102166729D01*
X138771193Y-102166729D02*
X138821122Y-102191693D01*
X138821122Y-102191693D02*
X138945945Y-102191693D01*
X138945945Y-102191693D02*
X138995874Y-102166729D01*
X138995874Y-102166729D02*
X139020838Y-102141764D01*
X138396724Y-101667437D02*
X138346795Y-101667437D01*
X138346795Y-101667437D02*
X138296866Y-101692402D01*
X138296866Y-101692402D02*
X138271902Y-101717366D01*
X138271902Y-101717366D02*
X138246937Y-101767295D01*
X138246937Y-101767295D02*
X138221972Y-101867154D01*
X138221972Y-101867154D02*
X138221972Y-101991977D01*
X138221972Y-101991977D02*
X138246937Y-102091835D01*
X138246937Y-102091835D02*
X138271902Y-102141764D01*
X138271902Y-102141764D02*
X138296866Y-102166729D01*
X138296866Y-102166729D02*
X138346795Y-102191693D01*
X138346795Y-102191693D02*
X138396724Y-102191693D01*
X138396724Y-102191693D02*
X138446654Y-102166729D01*
X138446654Y-102166729D02*
X138471618Y-102141764D01*
X138471618Y-102141764D02*
X138496583Y-102091835D01*
X138496583Y-102091835D02*
X138521547Y-101991977D01*
X138521547Y-101991977D02*
X138521547Y-101867154D01*
X138521547Y-101867154D02*
X138496583Y-101767295D01*
X138496583Y-101767295D02*
X138471618Y-101717366D01*
X138471618Y-101717366D02*
X138446654Y-101692402D01*
X138446654Y-101692402D02*
X138396724Y-101667437D01*
X153839264Y-102434144D02*
X153864229Y-102409180D01*
X153864229Y-102409180D02*
X153889193Y-102334286D01*
X153889193Y-102334286D02*
X153889193Y-102284357D01*
X153889193Y-102284357D02*
X153864229Y-102209463D01*
X153864229Y-102209463D02*
X153814299Y-102159534D01*
X153814299Y-102159534D02*
X153764370Y-102134569D01*
X153764370Y-102134569D02*
X153664512Y-102109605D01*
X153664512Y-102109605D02*
X153589618Y-102109605D01*
X153589618Y-102109605D02*
X153489760Y-102134569D01*
X153489760Y-102134569D02*
X153439831Y-102159534D01*
X153439831Y-102159534D02*
X153389902Y-102209463D01*
X153389902Y-102209463D02*
X153364937Y-102284357D01*
X153364937Y-102284357D02*
X153364937Y-102334286D01*
X153364937Y-102334286D02*
X153389902Y-102409180D01*
X153389902Y-102409180D02*
X153414866Y-102434144D01*
X153539689Y-102883507D02*
X153889193Y-102883507D01*
X153339973Y-102758684D02*
X153714441Y-102633861D01*
X153714441Y-102633861D02*
X153714441Y-102958400D01*
X153364937Y-103382798D02*
X153364937Y-103282939D01*
X153364937Y-103282939D02*
X153389902Y-103233010D01*
X153389902Y-103233010D02*
X153414866Y-103208046D01*
X153414866Y-103208046D02*
X153489760Y-103158116D01*
X153489760Y-103158116D02*
X153589618Y-103133152D01*
X153589618Y-103133152D02*
X153789335Y-103133152D01*
X153789335Y-103133152D02*
X153839264Y-103158116D01*
X153839264Y-103158116D02*
X153864229Y-103183081D01*
X153864229Y-103183081D02*
X153889193Y-103233010D01*
X153889193Y-103233010D02*
X153889193Y-103332868D01*
X153889193Y-103332868D02*
X153864229Y-103382798D01*
X153864229Y-103382798D02*
X153839264Y-103407762D01*
X153839264Y-103407762D02*
X153789335Y-103432727D01*
X153789335Y-103432727D02*
X153664512Y-103432727D01*
X153664512Y-103432727D02*
X153614583Y-103407762D01*
X153614583Y-103407762D02*
X153589618Y-103382798D01*
X153589618Y-103382798D02*
X153564654Y-103332868D01*
X153564654Y-103332868D02*
X153564654Y-103233010D01*
X153564654Y-103233010D02*
X153589618Y-103183081D01*
X153589618Y-103183081D02*
X153614583Y-103158116D01*
X153614583Y-103158116D02*
X153664512Y-103133152D01*
D15*
%TO.C,IC4*%
X146931184Y-96138816D02*
X146931184Y-99338816D01*
X146931184Y-99338816D02*
X151831184Y-99338816D01*
X151831184Y-99338816D02*
X151831184Y-96138816D01*
X151831184Y-96138816D02*
X146931184Y-96138816D01*
X146776184Y-94238816D02*
X146776184Y-95788816D01*
D16*
%TO.C,C47*%
X150601100Y-106503600D02*
X150601100Y-102103600D01*
X152801100Y-106503600D02*
X150601100Y-106503600D01*
X150601100Y-102103600D02*
X152801100Y-102103600D01*
X152801100Y-102103600D02*
X152801100Y-106503600D01*
%TO.C,CAN1*%
X136001100Y-123173600D02*
X144001100Y-123173600D01*
X136001100Y-130773600D02*
X136001100Y-123173600D01*
X136001100Y-130773600D02*
X144801100Y-130773600D01*
X144001100Y-123173600D02*
X144801100Y-123173600D01*
X144001100Y-124073600D02*
X144001100Y-123173600D01*
X144801100Y-123173600D02*
X144801100Y-124073600D01*
X144801100Y-124073600D02*
X144001100Y-124073600D01*
X144801100Y-124073600D02*
X144801100Y-130773600D01*
%TO.C,C43*%
X159401100Y-106503600D02*
X159401100Y-102103600D01*
X161601100Y-106503600D02*
X159401100Y-106503600D01*
X159401100Y-102103600D02*
X161601100Y-102103600D01*
X161601100Y-102103600D02*
X161601100Y-106503600D01*
%TO.C,C40*%
X166001100Y-106503600D02*
X166001100Y-102103600D01*
X168201100Y-106503600D02*
X166001100Y-106503600D01*
X166001100Y-102103600D02*
X168201100Y-102103600D01*
X168201100Y-102103600D02*
X168201100Y-106503600D01*
D17*
%TO.C,ENC0*%
X145101100Y-87053600D02*
X145101100Y-79353600D01*
X145101100Y-79353600D02*
X143601100Y-79353600D01*
X143601100Y-79353600D02*
X143601100Y-78603600D01*
X143601100Y-78603600D02*
X136101100Y-78603600D01*
X136101100Y-79353600D02*
X134701100Y-79353600D01*
X136101100Y-78603600D02*
X136101100Y-79353600D01*
X134701100Y-79353600D02*
X134701100Y-87053600D01*
D16*
%TO.C,C48*%
X148401100Y-106503600D02*
X148401100Y-102103600D01*
X150601100Y-106503600D02*
X148401100Y-106503600D01*
X148401100Y-102103600D02*
X150601100Y-102103600D01*
X150601100Y-102103600D02*
X150601100Y-106503600D01*
%TO.C,CAN2*%
X152001100Y-123173600D02*
X160001100Y-123173600D01*
X152001100Y-130773600D02*
X152001100Y-123173600D01*
X152001100Y-130773600D02*
X160801100Y-130773600D01*
X160001100Y-123173600D02*
X160801100Y-123173600D01*
X160001100Y-124073600D02*
X160001100Y-123173600D01*
X160801100Y-123173600D02*
X160801100Y-124073600D01*
X160801100Y-124073600D02*
X160001100Y-124073600D01*
X160801100Y-124073600D02*
X160801100Y-130773600D01*
%TO.C,C53*%
X131201100Y-106503600D02*
X131201100Y-102103600D01*
X133401100Y-106503600D02*
X131201100Y-106503600D01*
X131201100Y-102103600D02*
X133401100Y-102103600D01*
X133401100Y-102103600D02*
X133401100Y-106503600D01*
%TO.C,C51*%
X135601100Y-106503600D02*
X135601100Y-102103600D01*
X137801100Y-106503600D02*
X135601100Y-106503600D01*
X135601100Y-102103600D02*
X137801100Y-102103600D01*
X137801100Y-102103600D02*
X137801100Y-106503600D01*
%TO.C,C42*%
X161601100Y-106503600D02*
X161601100Y-102103600D01*
X163801100Y-106503600D02*
X161601100Y-106503600D01*
X161601100Y-102103600D02*
X163801100Y-102103600D01*
X163801100Y-102103600D02*
X163801100Y-106503600D01*
%TO.C,C45*%
X155001100Y-106503600D02*
X155001100Y-102103600D01*
X157201100Y-106503600D02*
X155001100Y-106503600D01*
X155001100Y-102103600D02*
X157201100Y-102103600D01*
X157201100Y-102103600D02*
X157201100Y-106503600D01*
%TO.C,C49*%
X140001100Y-106503600D02*
X140001100Y-102103600D01*
X142201100Y-106503600D02*
X140001100Y-106503600D01*
X140001100Y-102103600D02*
X142201100Y-102103600D01*
X142201100Y-102103600D02*
X142201100Y-106503600D01*
%TO.C,C54*%
X129001100Y-106503600D02*
X129001100Y-102103600D01*
X131201100Y-106503600D02*
X129001100Y-106503600D01*
X129001100Y-102103600D02*
X131201100Y-102103600D01*
X131201100Y-102103600D02*
X131201100Y-106503600D01*
%TO.C,C52*%
X133401100Y-106503600D02*
X133401100Y-102103600D01*
X135601100Y-106503600D02*
X133401100Y-106503600D01*
X133401100Y-102103600D02*
X135601100Y-102103600D01*
X135601100Y-102103600D02*
X135601100Y-106503600D01*
%TO.C,C44*%
X157201100Y-106503600D02*
X157201100Y-102103600D01*
X159401100Y-106503600D02*
X157201100Y-106503600D01*
X157201100Y-102103600D02*
X159401100Y-102103600D01*
X159401100Y-102103600D02*
X159401100Y-106503600D01*
%TO.C,C41*%
X163801100Y-106503600D02*
X163801100Y-102103600D01*
X166001100Y-106503600D02*
X163801100Y-106503600D01*
X163801100Y-102103600D02*
X166001100Y-102103600D01*
X166001100Y-102103600D02*
X166001100Y-106503600D01*
%TO.C,C50*%
X137801100Y-106503600D02*
X137801100Y-102103600D01*
X140001100Y-106503600D02*
X137801100Y-106503600D01*
X137801100Y-102103600D02*
X140001100Y-102103600D01*
X140001100Y-102103600D02*
X140001100Y-106503600D01*
%TO.C,C46*%
X152801100Y-106503600D02*
X152801100Y-102103600D01*
X155001100Y-106503600D02*
X152801100Y-106503600D01*
X152801100Y-102103600D02*
X155001100Y-102103600D01*
X155001100Y-102103600D02*
X155001100Y-106503600D01*
%TD*%
%LPC*%
D18*
%TO.C,IC4*%
X147476184Y-95013816D03*
X148746184Y-95013816D03*
X150016184Y-95013816D03*
X151286184Y-95013816D03*
X151286184Y-100463816D03*
X150016184Y-100463816D03*
X148746184Y-100463816D03*
X147476184Y-100463816D03*
%TD*%
D19*
%TO.C,DG2*%
X157060000Y-79430000D03*
%TD*%
D20*
%TO.C,M1*%
X128501100Y-81503600D03*
%TD*%
D21*
%TO.C,C0*%
X163001100Y-116703600D03*
%TD*%
%TO.C,J1*%
X159001100Y-118503600D03*
X154001100Y-118503600D03*
D22*
X162001100Y-128503600D03*
X151001100Y-128503600D03*
%TD*%
D21*
%TO.C,J2*%
X143001100Y-118503600D03*
X138001100Y-118503600D03*
D22*
X146001100Y-128503600D03*
X135001100Y-128503600D03*
%TD*%
D21*
%TO.C,B0*%
X148501100Y-116703600D03*
%TD*%
D19*
%TO.C,TEMP1*%
X147490000Y-81570000D03*
%TD*%
%TO.C,DA0*%
X140301100Y-115503600D03*
%TD*%
%TO.C,DBG1*%
X147400000Y-83250000D03*
%TD*%
D20*
%TO.C,M2*%
X168501100Y-81503600D03*
%TD*%
D19*
%TO.C,DC0*%
X158101100Y-115503600D03*
%TD*%
D21*
%TO.C,A0*%
X134001100Y-116703600D03*
%TD*%
D19*
%TO.C,TEMP2*%
X162701100Y-79303600D03*
%TD*%
D20*
%TO.C,M3*%
X128501100Y-119503600D03*
%TD*%
D19*
%TO.C,DBG2*%
X147310000Y-84750000D03*
%TD*%
%TO.C,D33*%
X128001100Y-85403600D03*
%TD*%
%TO.C,DAC0*%
X150280000Y-92180000D03*
%TD*%
D20*
%TO.C,M4*%
X168501100Y-119503600D03*
%TD*%
D19*
%TO.C,DB0*%
X145601100Y-115503600D03*
%TD*%
D23*
%TO.C,C47*%
X151701100Y-105753600D03*
X151701100Y-102853600D03*
%TD*%
D24*
%TO.C,CAN1*%
X142501100Y-123923600D03*
X140501100Y-123923600D03*
X138501100Y-123923600D03*
D25*
X136151100Y-129473600D03*
X144851100Y-129473600D03*
%TD*%
D23*
%TO.C,C43*%
X160501100Y-105753600D03*
X160501100Y-102853600D03*
%TD*%
%TO.C,C40*%
X167101100Y-105753600D03*
X167101100Y-102853600D03*
%TD*%
D26*
%TO.C,ENC0*%
X136151100Y-83353600D03*
X137651100Y-83353600D03*
X139151100Y-83353600D03*
X140651100Y-83353600D03*
X142151100Y-83353600D03*
X143651100Y-83353600D03*
%TD*%
D23*
%TO.C,C48*%
X149501100Y-105753600D03*
X149501100Y-102853600D03*
%TD*%
D24*
%TO.C,CAN2*%
X158501100Y-123923600D03*
X156501100Y-123923600D03*
X154501100Y-123923600D03*
D25*
X152151100Y-129473600D03*
X160851100Y-129473600D03*
%TD*%
D23*
%TO.C,C53*%
X132301100Y-105753600D03*
X132301100Y-102853600D03*
%TD*%
%TO.C,C51*%
X136701100Y-105753600D03*
X136701100Y-102853600D03*
%TD*%
%TO.C,C42*%
X162701100Y-105753600D03*
X162701100Y-102853600D03*
%TD*%
%TO.C,C45*%
X156101100Y-105753600D03*
X156101100Y-102853600D03*
%TD*%
%TO.C,C49*%
X141101100Y-105753600D03*
X141101100Y-102853600D03*
%TD*%
%TO.C,C54*%
X130101100Y-105753600D03*
X130101100Y-102853600D03*
%TD*%
%TO.C,C52*%
X134501100Y-105753600D03*
X134501100Y-102853600D03*
%TD*%
%TO.C,C44*%
X158301100Y-105753600D03*
X158301100Y-102853600D03*
%TD*%
%TO.C,C41*%
X164901100Y-105753600D03*
X164901100Y-102853600D03*
%TD*%
%TO.C,C50*%
X138901100Y-105753600D03*
X138901100Y-102853600D03*
%TD*%
%TO.C,C46*%
X153901100Y-105753600D03*
X153901100Y-102853600D03*
%TD*%
%LPD*%
M02*
