%TF.GenerationSoftware,KiCad,Pcbnew,7.0.6*%
%TF.CreationDate,2023-08-06T04:21:23+10:00*%
%TF.ProjectId,controller,636f6e74-726f-46c6-9c65-722e6b696361,rev?*%
%TF.SameCoordinates,Original*%
%TF.FileFunction,Copper,L1,Top*%
%TF.FilePolarity,Positive*%
%FSLAX46Y46*%
G04 Gerber Fmt 4.6, Leading zero omitted, Abs format (unit mm)*
G04 Created by KiCad (PCBNEW 7.0.6) date 2023-08-06 04:21:23*
%MOMM*%
%LPD*%
G01*
G04 APERTURE LIST*
G04 Aperture macros list*
%AMRoundRect*
0 Rectangle with rounded corners*
0 $1 Rounding radius*
0 $2 $3 $4 $5 $6 $7 $8 $9 X,Y pos of 4 corners*
0 Add a 4 corners polygon primitive as box body*
4,1,4,$2,$3,$4,$5,$6,$7,$8,$9,$2,$3,0*
0 Add four circle primitives for the rounded corners*
1,1,$1+$1,$2,$3*
1,1,$1+$1,$4,$5*
1,1,$1+$1,$6,$7*
1,1,$1+$1,$8,$9*
0 Add four rect primitives between the rounded corners*
20,1,$1+$1,$2,$3,$4,$5,0*
20,1,$1+$1,$4,$5,$6,$7,0*
20,1,$1+$1,$6,$7,$8,$9,0*
20,1,$1+$1,$8,$9,$2,$3,0*%
G04 Aperture macros list end*
%TA.AperFunction,SMDPad,CuDef*%
%ADD10R,0.700000X1.550000*%
%TD*%
%TA.AperFunction,SMDPad,CuDef*%
%ADD11R,0.850000X0.300000*%
%TD*%
%TA.AperFunction,SMDPad,CuDef*%
%ADD12R,0.300000X0.850000*%
%TD*%
%TA.AperFunction,SMDPad,CuDef*%
%ADD13R,4.100000X4.100000*%
%TD*%
%TA.AperFunction,SMDPad,CuDef*%
%ADD14R,2.100000X1.550000*%
%TD*%
%TA.AperFunction,SMDPad,CuDef*%
%ADD15R,1.600000X0.900000*%
%TD*%
%TA.AperFunction,SMDPad,CuDef*%
%ADD16R,0.500000X0.600000*%
%TD*%
%TA.AperFunction,SMDPad,CuDef*%
%ADD17R,0.600000X0.500000*%
%TD*%
%TA.AperFunction,SMDPad,CuDef*%
%ADD18R,0.900000X0.800000*%
%TD*%
%TA.AperFunction,ComponentPad*%
%ADD19C,1.050000*%
%TD*%
%TA.AperFunction,ComponentPad*%
%ADD20C,4.700000*%
%TD*%
%TA.AperFunction,ComponentPad*%
%ADD21C,3.000000*%
%TD*%
%TA.AperFunction,SMDPad,CuDef*%
%ADD22C,0.200000*%
%TD*%
%TA.AperFunction,SMDPad,CuDef*%
%ADD23R,2.000000X1.600000*%
%TD*%
%TA.AperFunction,SMDPad,CuDef*%
%ADD24RoundRect,0.140000X-0.140000X-0.170000X0.140000X-0.170000X0.140000X0.170000X-0.140000X0.170000X0*%
%TD*%
%TA.AperFunction,SMDPad,CuDef*%
%ADD25R,0.420000X0.550000*%
%TD*%
%TA.AperFunction,SMDPad,CuDef*%
%ADD26RoundRect,0.250000X-0.650000X0.325000X-0.650000X-0.325000X0.650000X-0.325000X0.650000X0.325000X0*%
%TD*%
%TA.AperFunction,SMDPad,CuDef*%
%ADD27R,0.800000X0.800000*%
%TD*%
%TA.AperFunction,SMDPad,CuDef*%
%ADD28R,0.900000X1.600000*%
%TD*%
%TA.AperFunction,ComponentPad*%
%ADD29C,1.875000*%
%TD*%
%TA.AperFunction,SMDPad,CuDef*%
%ADD30R,0.600000X0.900000*%
%TD*%
%TA.AperFunction,SMDPad,CuDef*%
%ADD31R,0.850000X1.450000*%
%TD*%
%TA.AperFunction,SMDPad,CuDef*%
%ADD32R,0.850000X1.100000*%
%TD*%
%TA.AperFunction,SMDPad,CuDef*%
%ADD33R,4.700000X3.800000*%
%TD*%
%TA.AperFunction,SMDPad,CuDef*%
%ADD34R,0.700000X1.400000*%
%TD*%
%TA.AperFunction,SMDPad,CuDef*%
%ADD35R,1.100000X1.900000*%
%TD*%
%TA.AperFunction,SMDPad,CuDef*%
%ADD36RoundRect,0.218750X0.218750X0.381250X-0.218750X0.381250X-0.218750X-0.381250X0.218750X-0.381250X0*%
%TD*%
%TA.AperFunction,SMDPad,CuDef*%
%ADD37R,1.600000X2.000000*%
%TD*%
%TA.AperFunction,SMDPad,CuDef*%
%ADD38R,1.550000X0.600000*%
%TD*%
%TA.AperFunction,ComponentPad*%
%ADD39C,0.600000*%
%TD*%
%TA.AperFunction,SMDPad,CuDef*%
%ADD40R,2.600000X3.100000*%
%TD*%
%TA.AperFunction,SMDPad,CuDef*%
%ADD41R,2.950000X4.500000*%
%TD*%
%TA.AperFunction,SMDPad,CuDef*%
%ADD42RoundRect,0.200000X0.275000X-0.200000X0.275000X0.200000X-0.275000X0.200000X-0.275000X-0.200000X0*%
%TD*%
%TA.AperFunction,SMDPad,CuDef*%
%ADD43R,1.400000X0.700000*%
%TD*%
%TA.AperFunction,SMDPad,CuDef*%
%ADD44R,1.900000X1.100000*%
%TD*%
%TA.AperFunction,SMDPad,CuDef*%
%ADD45R,1.300000X0.700000*%
%TD*%
%TA.AperFunction,SMDPad,CuDef*%
%ADD46R,0.550000X0.420000*%
%TD*%
%TA.AperFunction,ViaPad*%
%ADD47C,0.600000*%
%TD*%
%TA.AperFunction,ViaPad*%
%ADD48C,0.508000*%
%TD*%
%TA.AperFunction,ViaPad*%
%ADD49C,0.800000*%
%TD*%
%TA.AperFunction,ViaPad*%
%ADD50C,0.553200*%
%TD*%
%TA.AperFunction,Conductor*%
%ADD51C,0.200000*%
%TD*%
%TA.AperFunction,Conductor*%
%ADD52C,0.254000*%
%TD*%
%TA.AperFunction,Conductor*%
%ADD53C,0.304800*%
%TD*%
%TA.AperFunction,Conductor*%
%ADD54C,0.500000*%
%TD*%
%TA.AperFunction,Conductor*%
%ADD55C,0.152400*%
%TD*%
%TA.AperFunction,Conductor*%
%ADD56C,0.127000*%
%TD*%
%TA.AperFunction,Conductor*%
%ADD57C,0.381000*%
%TD*%
%TA.AperFunction,Conductor*%
%ADD58C,0.380000*%
%TD*%
%TA.AperFunction,Conductor*%
%ADD59C,0.406400*%
%TD*%
G04 APERTURE END LIST*
%TA.AperFunction,EtchedComponent*%
%TO.C,NT5*%
G36*
X163244000Y-105061600D02*
G01*
X162736000Y-105061600D01*
X162736000Y-104858400D01*
X163244000Y-104858400D01*
X163244000Y-105061600D01*
G37*
%TD.AperFunction*%
%TA.AperFunction,EtchedComponent*%
%TO.C,NT1*%
G36*
X146874000Y-104561600D02*
G01*
X146366000Y-104561600D01*
X146366000Y-104358400D01*
X146874000Y-104358400D01*
X146874000Y-104561600D01*
G37*
%TD.AperFunction*%
%TA.AperFunction,EtchedComponent*%
%TO.C,NT6*%
G36*
X163244000Y-104381600D02*
G01*
X162736000Y-104381600D01*
X162736000Y-104178400D01*
X163244000Y-104178400D01*
X163244000Y-104381600D01*
G37*
%TD.AperFunction*%
%TA.AperFunction,EtchedComponent*%
%TO.C,NT8*%
G36*
X141311600Y-104874000D02*
G01*
X141108400Y-104874000D01*
X141108400Y-104366000D01*
X141311600Y-104366000D01*
X141311600Y-104874000D01*
G37*
%TD.AperFunction*%
%TA.AperFunction,EtchedComponent*%
%TO.C,NT4*%
G36*
X147044000Y-105241600D02*
G01*
X146536000Y-105241600D01*
X146536000Y-105038400D01*
X147044000Y-105038400D01*
X147044000Y-105241600D01*
G37*
%TD.AperFunction*%
%TA.AperFunction,EtchedComponent*%
%TO.C,NT7*%
G36*
X140621600Y-104884000D02*
G01*
X140418400Y-104884000D01*
X140418400Y-104376000D01*
X140621600Y-104376000D01*
X140621600Y-104884000D01*
G37*
%TD.AperFunction*%
%TD*%
D10*
%TO.P,IC3,1,VDD5V*%
%TO.N,unconnected-(IC3-VDD5V-Pad1)*%
X147480000Y-100460000D03*
%TO.P,IC3,2,VDD3V3*%
%TO.N,+3V3*%
X148750000Y-100460000D03*
%TO.P,IC3,3,OUT*%
%TO.N,unconnected-(IC3-OUT-Pad3)*%
X150020000Y-100460000D03*
%TO.P,IC3,4,GND*%
%TO.N,GND*%
X151290000Y-100460000D03*
%TO.P,IC3,5,PGO*%
%TO.N,/AS5047_PGO*%
X151290000Y-95010000D03*
%TO.P,IC3,6,SDA*%
%TO.N,/AS5047_SDA*%
X150020000Y-95010000D03*
%TO.P,IC3,7,SCL*%
%TO.N,/AS5047_SCL*%
X148750000Y-95010000D03*
%TO.P,IC3,8,DIR*%
%TO.N,/AS5047_DIR*%
X147480000Y-95010000D03*
%TD*%
D11*
%TO.P,IC2,1,REG3V3/VDD*%
%TO.N,+3V3*%
X151990000Y-83100000D03*
%TO.P,IC2,2,VBAT*%
X151990000Y-83600000D03*
%TO.P,IC2,3,PC13*%
%TO.N,unconnected-(IC2-PC13-Pad3)*%
X151990000Y-84100000D03*
%TO.P,IC2,4,PC14*%
%TO.N,/DEBUG1*%
X151990000Y-84600000D03*
%TO.P,IC2,5,PC15*%
%TO.N,/DEBUG2*%
X151990000Y-85100000D03*
%TO.P,IC2,6,PF0*%
%TO.N,/AS5047_SDA*%
X151990000Y-85600000D03*
%TO.P,IC2,7,PF1*%
%TO.N,unconnected-(IC2-PF1-Pad7)*%
X151990000Y-86100000D03*
%TO.P,IC2,8,PG10*%
%TO.N,/NRST*%
X151990000Y-86600000D03*
%TO.P,IC2,9,PC0*%
%TO.N,unconnected-(IC2-PC0-Pad9)*%
X151990000Y-87100000D03*
%TO.P,IC2,10,PC1*%
%TO.N,unconnected-(IC2-PC1-Pad10)*%
X151990000Y-87600000D03*
%TO.P,IC2,11,PC2*%
%TO.N,/LED1*%
X151990000Y-88100000D03*
%TO.P,IC2,12,PC3*%
%TO.N,/LED2*%
X151990000Y-88600000D03*
%TO.P,IC2,13,PA0*%
%TO.N,unconnected-(IC2-PA0-Pad13)*%
X151990000Y-89100000D03*
%TO.P,IC2,14,PA1*%
%TO.N,Net-(IC2-PA1)*%
X151990000Y-89600000D03*
%TO.P,IC2,15,PA2*%
%TO.N,unconnected-(IC2-PA2-Pad15)*%
X151990000Y-90100000D03*
%TO.P,IC2,16,PA3*%
%TO.N,Net-(IC2-PA3)*%
X151990000Y-90600000D03*
D12*
%TO.P,IC2,17,PA4*%
%TO.N,/DAC*%
X152690000Y-91300000D03*
%TO.P,IC2,18,PA5*%
%TO.N,/VBAT_SENSE*%
X153190000Y-91300000D03*
%TO.P,IC2,19,PA6*%
%TO.N,unconnected-(IC2-PA6-Pad19)*%
X153690000Y-91300000D03*
%TO.P,IC2,20,PA7*%
%TO.N,Net-(IC2-PA7)*%
X154190000Y-91300000D03*
%TO.P,IC2,21,PC4*%
%TO.N,/AS5047_SCL*%
X154690000Y-91300000D03*
%TO.P,IC2,22,PC5*%
%TO.N,Net-(IC2-PC5)*%
X155190000Y-91300000D03*
%TO.P,IC2,23,PB0*%
%TO.N,Net-(IC2-PB0)*%
X155690000Y-91300000D03*
%TO.P,IC2,24,PB1*%
%TO.N,unconnected-(IC2-PB1-Pad24)*%
X156190000Y-91300000D03*
%TO.P,IC2,25,PB2*%
%TO.N,Net-(IC2-PB2)*%
X156690000Y-91300000D03*
%TO.P,IC2,26,VREF+*%
%TO.N,+3V3*%
X157190000Y-91300000D03*
%TO.P,IC2,27,VDDA*%
%TO.N,GND*%
X157690000Y-91300000D03*
%TO.P,IC2,28,PB10*%
%TO.N,unconnected-(IC2-PB10-Pad28)*%
X158190000Y-91300000D03*
%TO.P,IC2,29,GLS1*%
%TO.N,/GLC*%
X158690000Y-91300000D03*
%TO.P,IC2,30,GLS2*%
%TO.N,/GLB*%
X159190000Y-91300000D03*
%TO.P,IC2,31,GLS3*%
%TO.N,/GLA*%
X159690000Y-91300000D03*
%TO.P,IC2,32,PGND*%
%TO.N,GND*%
X160190000Y-91300000D03*
D11*
%TO.P,IC2,33,NC_1*%
%TO.N,unconnected-(IC2-NC_1-Pad33)*%
X160890000Y-90600000D03*
%TO.P,IC2,34,NC_2*%
%TO.N,unconnected-(IC2-NC_2-Pad34)*%
X160890000Y-90100000D03*
%TO.P,IC2,35,BOOT3*%
%TO.N,/BOOT1*%
X160890000Y-89600000D03*
%TO.P,IC2,36,OUT3*%
%TO.N,/SHA*%
X160890000Y-89100000D03*
%TO.P,IC2,37,GHS3*%
%TO.N,/GHA*%
X160890000Y-88600000D03*
%TO.P,IC2,38,BOOT2*%
%TO.N,/BOOT2*%
X160890000Y-88100000D03*
%TO.P,IC2,39,OUT2*%
%TO.N,/SHB*%
X160890000Y-87600000D03*
%TO.P,IC2,40,GHS2*%
%TO.N,/GHB*%
X160890000Y-87100000D03*
%TO.P,IC2,41,BOOT1*%
%TO.N,/BOOT3*%
X160890000Y-86600000D03*
%TO.P,IC2,42,OUT1*%
%TO.N,/SHC*%
X160890000Y-86100000D03*
%TO.P,IC2,43,GHS1*%
%TO.N,/GHC*%
X160890000Y-85600000D03*
%TO.P,IC2,44,PA8*%
%TO.N,/I2C_ABS_SCL*%
X160890000Y-85100000D03*
%TO.P,IC2,45,PA9*%
%TO.N,/I2C_ABS_SDA*%
X160890000Y-84600000D03*
%TO.P,IC2,46,PA10*%
%TO.N,unconnected-(IC2-PA10-Pad46)*%
X160890000Y-84100000D03*
%TO.P,IC2,47,PA11*%
%TO.N,/CAN_TX*%
X160890000Y-83600000D03*
%TO.P,IC2,48,PA12*%
%TO.N,/CAN_RX*%
X160890000Y-83100000D03*
D12*
%TO.P,IC2,49,PA13*%
%TO.N,/SWDIO*%
X160190000Y-82400000D03*
%TO.P,IC2,50,PA14*%
%TO.N,/SWCLK*%
X159690000Y-82400000D03*
%TO.P,IC2,51,PA15*%
%TO.N,unconnected-(IC2-PA15-Pad51)*%
X159190000Y-82400000D03*
%TO.P,IC2,52,SCREF*%
%TO.N,unconnected-(IC2-SCREF-Pad52)*%
X158690000Y-82400000D03*
%TO.P,IC2,53,PD2*%
%TO.N,unconnected-(IC2-PD2-Pad53)*%
X158190000Y-82400000D03*
%TO.P,IC2,54,PB3*%
%TO.N,unconnected-(IC2-PB3-Pad54)*%
X157690000Y-82400000D03*
%TO.P,IC2,55,PB4*%
%TO.N,/AS5047_PGO*%
X157190000Y-82400000D03*
%TO.P,IC2,56,PB5*%
%TO.N,/AS5047_DIR*%
X156690000Y-82400000D03*
%TO.P,IC2,57,PB6*%
%TO.N,unconnected-(IC2-PB6-Pad57)*%
X156190000Y-82400000D03*
%TO.P,IC2,58,PB7*%
%TO.N,unconnected-(IC2-PB7-Pad58)*%
X155690000Y-82400000D03*
%TO.P,IC2,59,PB8*%
%TO.N,/VTEMP_FET*%
X155190000Y-82400000D03*
%TO.P,IC2,60,PB9*%
%TO.N,/VTEMP_MOT*%
X154690000Y-82400000D03*
%TO.P,IC2,61,VM*%
%TO.N,GND*%
X154190000Y-82400000D03*
%TO.P,IC2,62,SW*%
X153690000Y-82400000D03*
%TO.P,IC2,63,VCC*%
X153190000Y-82400000D03*
%TO.P,IC2,64,REGIN*%
%TO.N,+3V3*%
X152690000Y-82400000D03*
D13*
%TO.P,IC2,65,VSS*%
%TO.N,GND*%
X156440000Y-86850000D03*
%TD*%
D10*
%TO.P,IC1,1,TXD*%
%TO.N,/CAN_TX*%
X169920000Y-97190000D03*
%TO.P,IC1,2,GND*%
%TO.N,GND*%
X168650000Y-97190000D03*
%TO.P,IC1,3,VCC*%
%TO.N,+3V3*%
X167380000Y-97190000D03*
%TO.P,IC1,4,RXD*%
%TO.N,/CAN_RX*%
X166110000Y-97190000D03*
%TO.P,IC1,5,VREF*%
%TO.N,GND*%
X166110000Y-102640000D03*
%TO.P,IC1,6,CANL*%
%TO.N,/CAN_N*%
X167380000Y-102640000D03*
%TO.P,IC1,7,CANH*%
%TO.N,/CAN_P*%
X168650000Y-102640000D03*
%TO.P,IC1,8,S*%
%TO.N,GND*%
X169920000Y-102640000D03*
%TD*%
D14*
%TO.P,D14,1*%
%TO.N,Net-(U1-PH)*%
X138470000Y-90030000D03*
%TO.P,D14,2*%
%TO.N,GND*%
X142670000Y-90030000D03*
%TD*%
D15*
%TO.P,C22,P$1,P$1*%
%TO.N,V+*%
X132236100Y-105753600D03*
%TO.P,C22,P$2,P$2*%
%TO.N,GND*%
X132236100Y-102853600D03*
%TD*%
D16*
%TO.P,C18,P$1,P$1*%
%TO.N,/SHC*%
X163230000Y-86700000D03*
%TO.P,C18,P$2,P$2*%
%TO.N,/BOOT3*%
X162130000Y-86700000D03*
%TD*%
D17*
%TO.P,C12,P$1,P$1*%
%TO.N,+3V3*%
X145710000Y-97650000D03*
%TO.P,C12,P$2,P$2*%
%TO.N,GND*%
X145710000Y-96550000D03*
%TD*%
D18*
%TO.P,D4,1,1*%
%TO.N,/CAN_P*%
X149501100Y-122753600D03*
%TO.P,D4,2,2*%
%TO.N,/CAN_N*%
X149501100Y-120853600D03*
%TO.P,D4,3,3*%
%TO.N,GND*%
X147501100Y-121803600D03*
%TD*%
D16*
%TO.P,R1,P$1,P$1*%
%TO.N,+3V3*%
X151384000Y-121793000D03*
%TO.P,R1,P$2,P$2*%
%TO.N,Net-(D3-PadANODE)*%
X150284000Y-121793000D03*
%TD*%
D19*
%TO.P,DG2,P$1,P$1*%
%TO.N,GND*%
X157060000Y-79430000D03*
%TD*%
D16*
%TO.P,R4,P$1,P$1*%
%TO.N,+3V3*%
X163180000Y-84610000D03*
%TO.P,R4,P$2,P$2*%
%TO.N,/I2C_ABS_SCL*%
X164280000Y-84610000D03*
%TD*%
D20*
%TO.P,M1,1*%
%TO.N,N/C*%
X128501100Y-81503600D03*
%TD*%
D16*
%TO.P,R3,P$1,P$1*%
%TO.N,+3V3*%
X163050000Y-83300000D03*
%TO.P,R3,P$2,P$2*%
%TO.N,/I2C_ABS_SDA*%
X164150000Y-83300000D03*
%TD*%
D21*
%TO.P,C0,1,P$1*%
%TO.N,/SHC*%
X163001100Y-116703600D03*
%TD*%
D16*
%TO.P,C8,P$1,P$1*%
%TO.N,+3V3*%
X135251100Y-121503600D03*
%TO.P,C8,P$2,P$2*%
%TO.N,GND*%
X136351100Y-121503600D03*
%TD*%
D17*
%TO.P,R24,P$1,P$1*%
%TO.N,/GHB*%
X155101100Y-102803600D03*
%TO.P,R24,P$2,P$2*%
%TO.N,/GHB_D*%
X155101100Y-103903600D03*
%TD*%
D22*
%TO.P,NT5,1,1*%
%TO.N,/SXC_P*%
X162736000Y-104960000D03*
%TO.P,NT5,2,2*%
%TO.N,Z3*%
X163244000Y-104960000D03*
%TD*%
D23*
%TO.P,RB0,1,1*%
%TO.N,GND*%
X146001100Y-103403600D03*
%TO.P,RB0,2,2*%
%TO.N,Z2*%
X146001100Y-106203600D03*
%TD*%
D15*
%TO.P,C23,P$1,P$1*%
%TO.N,V+*%
X134701100Y-105753600D03*
%TO.P,C23,P$2,P$2*%
%TO.N,GND*%
X134701100Y-102853600D03*
%TD*%
D24*
%TO.P,C64,1*%
%TO.N,GND*%
X149710000Y-82460000D03*
%TO.P,C64,2*%
%TO.N,+3V3*%
X150670000Y-82460000D03*
%TD*%
D17*
%TO.P,R8,P$1,P$1*%
%TO.N,+3V3*%
X155701100Y-116153600D03*
%TO.P,R8,P$2,P$2*%
%TO.N,/VTEMP_FET*%
X155701100Y-115053600D03*
%TD*%
D25*
%TO.P,D9,1,K*%
%TO.N,/GLC*%
X160611100Y-100153600D03*
%TO.P,D9,2,A*%
%TO.N,/GLC_D*%
X160611100Y-101753600D03*
%TD*%
D26*
%TO.P,C1,1*%
%TO.N,GND*%
X128450000Y-86885000D03*
%TO.P,C1,2*%
%TO.N,+3V3*%
X128450000Y-89835000D03*
%TD*%
D22*
%TO.P,NT1,1,1*%
%TO.N,/SXB_N*%
X146874000Y-104460000D03*
%TO.P,NT1,2,2*%
%TO.N,GND*%
X146366000Y-104460000D03*
%TD*%
D17*
%TO.P,R27,P$1,P$1*%
%TO.N,/GLC*%
X161451100Y-100253600D03*
%TO.P,R27,P$2,P$2*%
%TO.N,/GLC_D*%
X161451100Y-101353600D03*
%TD*%
D23*
%TO.P,RC0,1,1*%
%TO.N,GND*%
X163750000Y-103220000D03*
%TO.P,RC0,2,2*%
%TO.N,Z3*%
X163750000Y-106020000D03*
%TD*%
D27*
%TO.P,D3,ANODE,ANODE*%
%TO.N,Net-(D3-PadANODE)*%
X149301100Y-126353600D03*
%TO.P,D3,CATHODE,CATHODE*%
%TO.N,/LED1*%
X149301100Y-124853600D03*
%TD*%
D16*
%TO.P,R12,P$1,P$1*%
%TO.N,/SXA_N*%
X148980000Y-90880000D03*
%TO.P,R12,P$2,P$2*%
%TO.N,Net-(IC2-PA3)*%
X150080000Y-90880000D03*
%TD*%
%TO.P,C55,P$1,P$1*%
%TO.N,Net-(C55-PadP$1)*%
X132001100Y-121153600D03*
%TO.P,C55,P$2,P$2*%
%TO.N,GND*%
X133101100Y-121153600D03*
%TD*%
D28*
%TO.P,C61,P$1,P$1*%
%TO.N,V+*%
X136701100Y-103103600D03*
%TO.P,C61,P$2,P$2*%
%TO.N,Z1*%
X139601100Y-103103600D03*
%TD*%
D17*
%TO.P,R5,P$1,P$1*%
%TO.N,/VBAT_SENSE*%
X154230000Y-94320000D03*
%TO.P,R5,P$2,P$2*%
%TO.N,V+*%
X154230000Y-95420000D03*
%TD*%
%TO.P,R19,P$1,P$1*%
%TO.N,Net-(U1-VSENSE)*%
X127650000Y-95390000D03*
%TO.P,R19,P$2,P$2*%
%TO.N,+3V3*%
X127650000Y-94290000D03*
%TD*%
D25*
%TO.P,D12,1,K*%
%TO.N,/GHC*%
X159571100Y-100643600D03*
%TO.P,D12,2,A*%
%TO.N,/GHC_D*%
X159571100Y-102243600D03*
%TD*%
D17*
%TO.P,R14,P$1,P$1*%
%TO.N,/SXC_P*%
X158380000Y-95450000D03*
%TO.P,R14,P$2,P$2*%
%TO.N,Net-(IC2-PB0)*%
X158380000Y-94350000D03*
%TD*%
D16*
%TO.P,C15,P$1,P$1*%
%TO.N,/SHA*%
X163210000Y-89570000D03*
%TO.P,C15,P$2,P$2*%
%TO.N,/BOOT1*%
X162110000Y-89570000D03*
%TD*%
D21*
%TO.P,J1,1,1*%
%TO.N,V+*%
X159001100Y-118503600D03*
%TO.P,J1,2,2*%
%TO.N,GND*%
X154001100Y-118503600D03*
D29*
%TO.P,J1,M1*%
%TO.N,N/C*%
X162001100Y-128503600D03*
%TO.P,J1,M2*%
X151001100Y-128503600D03*
%TD*%
D17*
%TO.P,R26,P$1,P$1*%
%TO.N,/GHC*%
X158746100Y-102003600D03*
%TO.P,R26,P$2,P$2*%
%TO.N,/GHC_D*%
X158746100Y-103103600D03*
%TD*%
D16*
%TO.P,C9,P$1,P$1*%
%TO.N,+3V3*%
X165190000Y-80550000D03*
%TO.P,C9,P$2,P$2*%
%TO.N,GND*%
X164090000Y-80550000D03*
%TD*%
D17*
%TO.P,R23,P$1,P$1*%
%TO.N,/GLA*%
X140590000Y-98870000D03*
%TO.P,R23,P$2,P$2*%
%TO.N,/GLA_D*%
X140590000Y-99970000D03*
%TD*%
D15*
%TO.P,C32,P$1,P$1*%
%TO.N,V+*%
X129651100Y-112003600D03*
%TO.P,C32,P$2,P$2*%
%TO.N,GND*%
X129651100Y-114903600D03*
%TD*%
D21*
%TO.P,J2,1,1*%
%TO.N,V+*%
X143001100Y-118503600D03*
%TO.P,J2,2,2*%
%TO.N,GND*%
X138001100Y-118503600D03*
D29*
%TO.P,J2,M1*%
%TO.N,N/C*%
X146001100Y-128503600D03*
%TO.P,J2,M2*%
X135001100Y-128503600D03*
%TD*%
D30*
%TO.P,C62,P$1,P$1*%
%TO.N,V+*%
X149006100Y-105853600D03*
%TO.P,C62,P$2,P$2*%
%TO.N,Z2*%
X147506100Y-105853600D03*
%TD*%
D17*
%TO.P,R11,P$1,P$1*%
%TO.N,Net-(U1-VSENSE)*%
X128800000Y-95380000D03*
%TO.P,R11,P$2,P$2*%
%TO.N,Net-(R11-PadP$2)*%
X128800000Y-94280000D03*
%TD*%
%TO.P,C5,P$1,P$1*%
%TO.N,Net-(U1-BOOT)*%
X136370000Y-88970000D03*
%TO.P,C5,P$2,P$2*%
%TO.N,Net-(U1-PH)*%
X136370000Y-90070000D03*
%TD*%
D24*
%TO.P,C19,1*%
%TO.N,GND*%
X149710000Y-83470000D03*
%TO.P,C19,2*%
%TO.N,+3V3*%
X150670000Y-83470000D03*
%TD*%
D21*
%TO.P,B0,1,P$1*%
%TO.N,/SHB*%
X148501100Y-116703600D03*
%TD*%
D16*
%TO.P,C10,P$1,P$1*%
%TO.N,+3V3*%
X162960000Y-80560000D03*
%TO.P,C10,P$2,P$2*%
%TO.N,GND*%
X161860000Y-80560000D03*
%TD*%
D15*
%TO.P,C26,P$1,P$1*%
%TO.N,V+*%
X156751100Y-105553600D03*
%TO.P,C26,P$2,P$2*%
%TO.N,GND*%
X156751100Y-102653600D03*
%TD*%
D25*
%TO.P,D11,1,K*%
%TO.N,/GHB*%
X154251100Y-102853600D03*
%TO.P,D11,2,A*%
%TO.N,/GHB_D*%
X154251100Y-104453600D03*
%TD*%
D31*
%TO.P,Q3,1,S*%
%TO.N,/SHB*%
X149596100Y-113453600D03*
%TO.P,Q3,2,S*%
X150866100Y-113453600D03*
%TO.P,Q3,3,S*%
X152136100Y-113453600D03*
%TO.P,Q3,4,G*%
%TO.N,/GHB_D*%
X153406100Y-113453600D03*
D32*
%TO.P,Q3,5,D*%
%TO.N,V+*%
X153426100Y-107753600D03*
%TO.P,Q3,6,D*%
X152138600Y-107753600D03*
%TO.P,Q3,7,D*%
X150863600Y-107753600D03*
%TO.P,Q3,8,D*%
X149576100Y-107753600D03*
D33*
%TO.P,Q3,PAD,D*%
X151501100Y-110153600D03*
%TD*%
D15*
%TO.P,C28,P$1,P$1*%
%TO.N,V+*%
X129641100Y-105763600D03*
%TO.P,C28,P$2,P$2*%
%TO.N,GND*%
X129641100Y-102863600D03*
%TD*%
D25*
%TO.P,D8,1,K*%
%TO.N,/GLB*%
X144931800Y-99161800D03*
%TO.P,D8,2,A*%
%TO.N,/GLB_D*%
X144931800Y-100761800D03*
%TD*%
D34*
%TO.P,SWD0,1,1*%
%TO.N,unconnected-(SWD0-Pad1)*%
X143651100Y-83803600D03*
%TO.P,SWD0,2,2*%
%TO.N,/NRST*%
X142151100Y-83803600D03*
%TO.P,SWD0,3,3*%
%TO.N,/SWDIO*%
X140651100Y-83803600D03*
%TO.P,SWD0,4,4*%
%TO.N,GND*%
X139151100Y-83803600D03*
%TO.P,SWD0,5,5*%
%TO.N,/SWCLK*%
X137651100Y-83803600D03*
%TO.P,SWD0,6,6*%
%TO.N,+3V3*%
X136151100Y-83803600D03*
D35*
%TO.P,SWD0,P1*%
%TO.N,N/C*%
X145601100Y-80053600D03*
%TO.P,SWD0,P2*%
X134201100Y-80053600D03*
%TD*%
D22*
%TO.P,NT6,1,1*%
%TO.N,/SXC_N*%
X162736000Y-104280000D03*
%TO.P,NT6,2,2*%
%TO.N,GND*%
X163244000Y-104280000D03*
%TD*%
D15*
%TO.P,C35,P$1,P$1*%
%TO.N,V+*%
X163731100Y-100538600D03*
%TO.P,C35,P$2,P$2*%
%TO.N,GND*%
X163731100Y-97638600D03*
%TD*%
D17*
%TO.P,R15,P$1,P$1*%
%TO.N,/SXC_N*%
X159590000Y-95460000D03*
%TO.P,R15,P$2,P$2*%
%TO.N,Net-(IC2-PB2)*%
X159590000Y-94360000D03*
%TD*%
D36*
%TO.P,L1,1,1*%
%TO.N,Net-(U1-PH)*%
X134970000Y-89800000D03*
%TO.P,L1,2,2*%
%TO.N,+3V3*%
X132845000Y-89800000D03*
%TD*%
D19*
%TO.P,TEMP1,P$1,P$1*%
%TO.N,+3V3*%
X147490000Y-81570000D03*
%TD*%
%TO.P,DA0,P$1,P$1*%
%TO.N,/SHA*%
X140301100Y-115503600D03*
%TD*%
D24*
%TO.P,C38,1*%
%TO.N,GND*%
X149720000Y-81430000D03*
%TO.P,C38,2*%
%TO.N,+3V3*%
X150680000Y-81430000D03*
%TD*%
D16*
%TO.P,C57,P$1,P$1*%
%TO.N,/VBAT_SENSE*%
X154120000Y-93030000D03*
%TO.P,C57,P$2,P$2*%
%TO.N,GND*%
X153020000Y-93030000D03*
%TD*%
D25*
%TO.P,D1,1,K*%
%TO.N,/GLA_D*%
X141946100Y-102018600D03*
%TO.P,D1,2,A*%
%TO.N,GND*%
X141946100Y-103618600D03*
%TD*%
D37*
%TO.P,RA0,1,1*%
%TO.N,GND*%
X142261100Y-105733600D03*
%TO.P,RA0,2,2*%
%TO.N,Z1*%
X139461100Y-105733600D03*
%TD*%
D19*
%TO.P,DBG1,P$1,P$1*%
%TO.N,/DEBUG1*%
X147400000Y-83250000D03*
%TD*%
D28*
%TO.P,C33,P$1,P$1*%
%TO.N,V+*%
X166180000Y-105270000D03*
%TO.P,C33,P$2,P$2*%
%TO.N,GND*%
X169080000Y-105270000D03*
%TD*%
D16*
%TO.P,R13,P$1,P$1*%
%TO.N,/SXA_P*%
X148980000Y-89590000D03*
%TO.P,R13,P$2,P$2*%
%TO.N,Net-(IC2-PA1)*%
X150080000Y-89590000D03*
%TD*%
D15*
%TO.P,C27,P$1,P$1*%
%TO.N,V+*%
X153120000Y-100220000D03*
%TO.P,C27,P$2,P$2*%
%TO.N,GND*%
X153120000Y-97320000D03*
%TD*%
D25*
%TO.P,D10,1,K*%
%TO.N,/GHA*%
X135951100Y-99803600D03*
%TO.P,D10,2,A*%
%TO.N,/GHA_D*%
X135951100Y-101403600D03*
%TD*%
D17*
%TO.P,R25,P$1,P$1*%
%TO.N,/GLB*%
X144111800Y-99561800D03*
%TO.P,R25,P$2,P$2*%
%TO.N,/GLB_D*%
X144111800Y-100661800D03*
%TD*%
D28*
%TO.P,C34,P$1,P$1*%
%TO.N,V+*%
X158440000Y-99990000D03*
%TO.P,C34,P$2,P$2*%
%TO.N,GND*%
X155540000Y-99990000D03*
%TD*%
D22*
%TO.P,NT8,1,1*%
%TO.N,/SXA_N*%
X141210000Y-104366000D03*
%TO.P,NT8,2,2*%
%TO.N,GND*%
X141210000Y-104874000D03*
%TD*%
D17*
%TO.P,R6,P$1,P$1*%
%TO.N,GND*%
X153000000Y-95420000D03*
%TO.P,R6,P$2,P$2*%
%TO.N,/VBAT_SENSE*%
X153000000Y-94320000D03*
%TD*%
D31*
%TO.P,Q5,1,S*%
%TO.N,/SHC*%
X155596100Y-113453600D03*
%TO.P,Q5,2,S*%
X156866100Y-113453600D03*
%TO.P,Q5,3,S*%
X158136100Y-113453600D03*
%TO.P,Q5,4,G*%
%TO.N,/GHC_D*%
X159406100Y-113453600D03*
D32*
%TO.P,Q5,5,D*%
%TO.N,V+*%
X159426100Y-107753600D03*
%TO.P,Q5,6,D*%
X158138600Y-107753600D03*
%TO.P,Q5,7,D*%
X156863600Y-107753600D03*
%TO.P,Q5,8,D*%
X155576100Y-107753600D03*
D33*
%TO.P,Q5,PAD,D*%
X157501100Y-110153600D03*
%TD*%
D20*
%TO.P,M2,1*%
%TO.N,N/C*%
X168501100Y-81503600D03*
%TD*%
D19*
%TO.P,DC0,P$1,P$1*%
%TO.N,/SHC*%
X158101100Y-115503600D03*
%TD*%
D16*
%TO.P,C16,P$1,P$1*%
%TO.N,/NRST*%
X149430000Y-86580000D03*
%TO.P,C16,P$2,P$2*%
%TO.N,GND*%
X148330000Y-86580000D03*
%TD*%
%TO.P,C3,P$1,P$1*%
%TO.N,GND*%
X158110000Y-92830000D03*
%TO.P,C3,P$2,P$2*%
%TO.N,+3V3*%
X157010000Y-92830000D03*
%TD*%
D38*
%TO.P,U1,1,BOOT*%
%TO.N,Net-(U1-BOOT)*%
X130550000Y-91615000D03*
%TO.P,U1,2,NC*%
%TO.N,unconnected-(U1-NC-Pad2)*%
X130550000Y-92885000D03*
%TO.P,U1,3,NC*%
%TO.N,unconnected-(U1-NC-Pad3)*%
X130550000Y-94155000D03*
%TO.P,U1,4,VSENSE*%
%TO.N,Net-(U1-VSENSE)*%
X130550000Y-95425000D03*
%TO.P,U1,5,EN*%
%TO.N,unconnected-(U1-EN-Pad5)*%
X135950000Y-95425000D03*
%TO.P,U1,6,GND*%
%TO.N,GND*%
X135950000Y-94155000D03*
%TO.P,U1,7,VIN*%
%TO.N,V+*%
X135950000Y-92885000D03*
%TO.P,U1,8,PH*%
%TO.N,Net-(U1-PH)*%
X135950000Y-91615000D03*
D39*
%TO.P,U1,9,GNDPAD*%
%TO.N,GND*%
X132650000Y-91720000D03*
X132650000Y-92920000D03*
X132650000Y-94220000D03*
X132650000Y-95320000D03*
D40*
X133250000Y-93520000D03*
D41*
X133250000Y-93520000D03*
D39*
X133850000Y-91720000D03*
X133850000Y-92920000D03*
X133850000Y-94220000D03*
X133850000Y-95320000D03*
%TD*%
D16*
%TO.P,C17,P$1,P$1*%
%TO.N,/SHB*%
X163230000Y-88160000D03*
%TO.P,C17,P$2,P$2*%
%TO.N,/BOOT2*%
X162130000Y-88160000D03*
%TD*%
D15*
%TO.P,C31,P$1,P$1*%
%TO.N,V+*%
X132001100Y-98303600D03*
%TO.P,C31,P$2,P$2*%
%TO.N,GND*%
X132001100Y-101203600D03*
%TD*%
D17*
%TO.P,C13,P$1,P$1*%
%TO.N,/VTEMP_FET*%
X153301100Y-115053600D03*
%TO.P,C13,P$2,P$2*%
%TO.N,GND*%
X153301100Y-116153600D03*
%TD*%
D15*
%TO.P,C37,P$1,P$1*%
%TO.N,V+*%
X167501100Y-112003600D03*
%TO.P,C37,P$2,P$2*%
%TO.N,GND*%
X167501100Y-114903600D03*
%TD*%
D21*
%TO.P,A0,1,P$1*%
%TO.N,/SHA*%
X134001100Y-116703600D03*
%TD*%
D31*
%TO.P,Q1,1,S*%
%TO.N,/SHA*%
X131596100Y-113453600D03*
%TO.P,Q1,2,S*%
X132866100Y-113453600D03*
%TO.P,Q1,3,S*%
X134136100Y-113453600D03*
%TO.P,Q1,4,G*%
%TO.N,/GHA_D*%
X135406100Y-113453600D03*
D32*
%TO.P,Q1,5,D*%
%TO.N,V+*%
X135426100Y-107753600D03*
%TO.P,Q1,6,D*%
X134138600Y-107753600D03*
%TO.P,Q1,7,D*%
X132863600Y-107753600D03*
%TO.P,Q1,8,D*%
X131576100Y-107753600D03*
D33*
%TO.P,Q1,PAD,D*%
X133501100Y-110153600D03*
%TD*%
D25*
%TO.P,D5,1,K*%
%TO.N,/GLB_D*%
X144001100Y-106653600D03*
%TO.P,D5,2,A*%
%TO.N,GND*%
X144001100Y-105053600D03*
%TD*%
D19*
%TO.P,TEMP2,P$1,P$1*%
%TO.N,/VTEMP_MOT*%
X162701100Y-79303600D03*
%TD*%
D31*
%TO.P,Q2,1,S*%
%TO.N,Z1*%
X141406100Y-107853600D03*
%TO.P,Q2,2,S*%
X140136100Y-107853600D03*
%TO.P,Q2,3,S*%
X138866100Y-107853600D03*
%TO.P,Q2,4,G*%
%TO.N,/GLA_D*%
X137596100Y-107853600D03*
D32*
%TO.P,Q2,5,D*%
%TO.N,/SHA*%
X137576100Y-113553600D03*
%TO.P,Q2,6,D*%
X138863600Y-113553600D03*
%TO.P,Q2,7,D*%
X140138600Y-113553600D03*
%TO.P,Q2,8,D*%
X141426100Y-113553600D03*
D33*
%TO.P,Q2,PAD,D*%
X139501100Y-111153600D03*
%TD*%
D16*
%TO.P,R10,P$1,P$1*%
%TO.N,Net-(C55-PadP$1)*%
X132001100Y-120003600D03*
%TO.P,R10,P$2,P$2*%
%TO.N,GND*%
X133101100Y-120003600D03*
%TD*%
D42*
%TO.P,R18,1*%
%TO.N,Net-(R11-PadP$2)*%
X128670000Y-93000000D03*
%TO.P,R18,2*%
%TO.N,GND*%
X128670000Y-91350000D03*
%TD*%
D28*
%TO.P,C63,P$1,P$1*%
%TO.N,V+*%
X158601100Y-105253600D03*
%TO.P,C63,P$2,P$2*%
%TO.N,Z3*%
X161501100Y-105253600D03*
%TD*%
D22*
%TO.P,NT4,1,1*%
%TO.N,/SXB_P*%
X147044000Y-105140000D03*
%TO.P,NT4,2,2*%
%TO.N,Z2*%
X146536000Y-105140000D03*
%TD*%
D17*
%TO.P,R17,P$1,P$1*%
%TO.N,/SXB_P*%
X157160000Y-95460000D03*
%TO.P,R17,P$2,P$2*%
%TO.N,Net-(IC2-PA7)*%
X157160000Y-94360000D03*
%TD*%
D43*
%TO.P,ABS0,1,1*%
%TO.N,+3V3*%
X166131100Y-92053600D03*
%TO.P,ABS0,2,2*%
%TO.N,/I2C_ABS_SCL*%
X166131100Y-90553600D03*
%TO.P,ABS0,3,3*%
%TO.N,/I2C_ABS_SDA*%
X166131100Y-89053600D03*
%TO.P,ABS0,4,4*%
%TO.N,GND*%
X166131100Y-87553600D03*
D44*
%TO.P,ABS0,P1*%
%TO.N,N/C*%
X169881100Y-94003600D03*
%TO.P,ABS0,P2*%
X169881100Y-85603600D03*
%TD*%
D15*
%TO.P,C24,P$1,P$1*%
%TO.N,V+*%
X150301100Y-105553600D03*
%TO.P,C24,P$2,P$2*%
%TO.N,GND*%
X150301100Y-102653600D03*
%TD*%
D17*
%TO.P,R22,P$1,P$1*%
%TO.N,/GHA*%
X136801100Y-99903600D03*
%TO.P,R22,P$2,P$2*%
%TO.N,/GHA_D*%
X136801100Y-101003600D03*
%TD*%
D27*
%TO.P,D2,ANODE,ANODE*%
%TO.N,Net-(D2-PadANODE)*%
X147701100Y-126353600D03*
%TO.P,D2,CATHODE,CATHODE*%
%TO.N,/LED2*%
X147701100Y-124853600D03*
%TD*%
D20*
%TO.P,M3,1*%
%TO.N,N/C*%
X128501100Y-119503600D03*
%TD*%
D16*
%TO.P,R2,P$1,P$1*%
%TO.N,+3V3*%
X145280200Y-121767600D03*
%TO.P,R2,P$2,P$2*%
%TO.N,Net-(D2-PadANODE)*%
X146380200Y-121767600D03*
%TD*%
D31*
%TO.P,Q6,1,S*%
%TO.N,Z3*%
X165406100Y-107853600D03*
%TO.P,Q6,2,S*%
X164136100Y-107853600D03*
%TO.P,Q6,3,S*%
X162866100Y-107853600D03*
%TO.P,Q6,4,G*%
%TO.N,/GLC_D*%
X161596100Y-107853600D03*
D32*
%TO.P,Q6,5,D*%
%TO.N,/SHC*%
X161576100Y-113553600D03*
%TO.P,Q6,6,D*%
X162863600Y-113553600D03*
%TO.P,Q6,7,D*%
X164138600Y-113553600D03*
%TO.P,Q6,8,D*%
X165426100Y-113553600D03*
D33*
%TO.P,Q6,PAD,D*%
X163501100Y-111153600D03*
%TD*%
D31*
%TO.P,Q4,1,S*%
%TO.N,Z2*%
X147406100Y-107853600D03*
%TO.P,Q4,2,S*%
X146136100Y-107853600D03*
%TO.P,Q4,3,S*%
X144866100Y-107853600D03*
%TO.P,Q4,4,G*%
%TO.N,/GLB_D*%
X143596100Y-107853600D03*
D32*
%TO.P,Q4,5,D*%
%TO.N,/SHB*%
X143576100Y-113553600D03*
%TO.P,Q4,6,D*%
X144863600Y-113553600D03*
%TO.P,Q4,7,D*%
X146138600Y-113553600D03*
%TO.P,Q4,8,D*%
X147426100Y-113553600D03*
D33*
%TO.P,Q4,PAD,D*%
X145501100Y-111153600D03*
%TD*%
D16*
%TO.P,R7,P$1,P$1*%
%TO.N,/VTEMP_MOT*%
X164051100Y-79303600D03*
%TO.P,R7,P$2,P$2*%
%TO.N,GND*%
X165151100Y-79303600D03*
%TD*%
D19*
%TO.P,DBG2,P$1,P$1*%
%TO.N,/DEBUG2*%
X147310000Y-84750000D03*
%TD*%
D15*
%TO.P,C36,P$1,P$1*%
%TO.N,V+*%
X167501100Y-107653600D03*
%TO.P,C36,P$2,P$2*%
%TO.N,GND*%
X167501100Y-110553600D03*
%TD*%
D19*
%TO.P,D33,P$1,P$1*%
%TO.N,+3V3*%
X128001100Y-85403600D03*
%TD*%
D17*
%TO.P,C11,P$1,P$1*%
%TO.N,+3V3*%
X164701100Y-96303600D03*
%TO.P,C11,P$2,P$2*%
%TO.N,GND*%
X164701100Y-95203600D03*
%TD*%
D15*
%TO.P,C30,P$1,P$1*%
%TO.N,V+*%
X129651100Y-107653600D03*
%TO.P,C30,P$2,P$2*%
%TO.N,GND*%
X129651100Y-110553600D03*
%TD*%
D26*
%TO.P,C2,1*%
%TO.N,GND*%
X130840000Y-86875000D03*
%TO.P,C2,2*%
%TO.N,+3V3*%
X130840000Y-89825000D03*
%TD*%
D22*
%TO.P,NT7,1,1*%
%TO.N,/SXA_P*%
X140520000Y-104376000D03*
%TO.P,NT7,2,2*%
%TO.N,Z1*%
X140520000Y-104884000D03*
%TD*%
D45*
%TO.P,C4,P$1,P$1*%
%TO.N,GND*%
X138070000Y-94970000D03*
%TO.P,C4,P$2,P$2*%
%TO.N,V+*%
X138070000Y-93070000D03*
%TD*%
D46*
%TO.P,D6,1,K*%
%TO.N,/GLC_D*%
X160501100Y-103203600D03*
%TO.P,D6,2,A*%
%TO.N,GND*%
X162101100Y-103203600D03*
%TD*%
D19*
%TO.P,DAC0,P$1,P$1*%
%TO.N,/DAC*%
X150280000Y-92180000D03*
%TD*%
D25*
%TO.P,D7,1,K*%
%TO.N,/GLA*%
X139745000Y-98670000D03*
%TO.P,D7,2,A*%
%TO.N,/GLA_D*%
X139745000Y-100270000D03*
%TD*%
D17*
%TO.P,R16,P$1,P$1*%
%TO.N,/SXB_N*%
X155930000Y-95460000D03*
%TO.P,R16,P$2,P$2*%
%TO.N,Net-(IC2-PC5)*%
X155930000Y-94360000D03*
%TD*%
D20*
%TO.P,M4,1*%
%TO.N,N/C*%
X168501100Y-119503600D03*
%TD*%
D15*
%TO.P,C25,P$1,P$1*%
%TO.N,V+*%
X152601100Y-105553600D03*
%TO.P,C25,P$2,P$2*%
%TO.N,GND*%
X152601100Y-102653600D03*
%TD*%
D16*
%TO.P,C65,P$1,P$1*%
%TO.N,GND*%
X162030000Y-92890000D03*
%TO.P,C65,P$2,P$2*%
%TO.N,+3V3*%
X160930000Y-92890000D03*
%TD*%
D19*
%TO.P,DB0,P$1,P$1*%
%TO.N,/SHB*%
X145601100Y-115503600D03*
%TD*%
D17*
%TO.P,R9,P$1,P$1*%
%TO.N,/VTEMP_FET*%
X154501100Y-115053600D03*
%TO.P,R9,P$2,P$2*%
%TO.N,GND*%
X154501100Y-116153600D03*
%TD*%
D15*
%TO.P,C29,P$1,P$1*%
%TO.N,V+*%
X129641100Y-98303600D03*
%TO.P,C29,P$2,P$2*%
%TO.N,GND*%
X129641100Y-101203600D03*
%TD*%
D47*
%TO.N,+3V3*%
X162400000Y-84420000D03*
X147360000Y-97670000D03*
D48*
X165276100Y-95913600D03*
D47*
X155150000Y-84200000D03*
D48*
X134501100Y-121503600D03*
D47*
X157150000Y-90310000D03*
X159260000Y-87840000D03*
X145288000Y-124104400D03*
X130960000Y-88640000D03*
X151750000Y-82060000D03*
X126084000Y-91603600D03*
X165270000Y-81340000D03*
D48*
X135101100Y-83703600D03*
D47*
%TO.N,/SHA*%
X153935776Y-90433364D03*
X138660000Y-101110000D03*
%TO.N,/SHB*%
X148330000Y-109140000D03*
X163209192Y-92849192D03*
%TO.N,/SHC*%
X164015000Y-93995000D03*
X162258886Y-109911386D03*
%TO.N,/VTEMP_FET*%
X155370000Y-81520000D03*
X154640000Y-113570000D03*
%TO.N,/AS5047_SDA*%
X153050736Y-85310734D03*
X150020000Y-93748900D03*
D48*
%TO.N,V+*%
X150151100Y-106903600D03*
X153401100Y-106903600D03*
X137463600Y-92358900D03*
X132301100Y-106553600D03*
X133801100Y-106903600D03*
X129701100Y-108453600D03*
X134801100Y-106903600D03*
X166530000Y-104150000D03*
X150801100Y-106903600D03*
X149501100Y-106903600D03*
X127601100Y-105853600D03*
X131751100Y-99103600D03*
X165790000Y-104130000D03*
X127601100Y-105103600D03*
X153120000Y-99480000D03*
X134301100Y-106553600D03*
X127601100Y-102103600D03*
X129590800Y-106553000D03*
X128301100Y-112853600D03*
X131343400Y-106527600D03*
X127601100Y-108103600D03*
X166751100Y-108653600D03*
X127601100Y-103603600D03*
X158140000Y-98400000D03*
X163347400Y-99441000D03*
X152751100Y-106303600D03*
X129001100Y-106553600D03*
X151451100Y-106303600D03*
X128751100Y-99103600D03*
X128951100Y-112853600D03*
X127601100Y-99853600D03*
X129351100Y-99103600D03*
X132351100Y-99103600D03*
X167251100Y-112753600D03*
X128776100Y-104668600D03*
X157401100Y-106903600D03*
X169451100Y-109703600D03*
X127601100Y-108853600D03*
X157401100Y-106303600D03*
X127601100Y-111853600D03*
X139060000Y-92070000D03*
X152101100Y-106303600D03*
X168301100Y-108353600D03*
X163851100Y-99753600D03*
X130351100Y-108453600D03*
X158701100Y-106903600D03*
X156751100Y-106303600D03*
X164401100Y-99453600D03*
X127601100Y-102853600D03*
X133301100Y-106553600D03*
X169451100Y-112853600D03*
X130276100Y-105018600D03*
X150801100Y-106303600D03*
X156101100Y-106903600D03*
X128401100Y-108453600D03*
X150164800Y-106299000D03*
X127601100Y-111103600D03*
X138013600Y-92058900D03*
X152101100Y-106903600D03*
X158810000Y-98410000D03*
X127601100Y-107353600D03*
X127601100Y-100603600D03*
X127601100Y-99103600D03*
X168251100Y-112753600D03*
X130801100Y-106903600D03*
X129776100Y-104668600D03*
X138563600Y-92408900D03*
X167751100Y-113003600D03*
X132801100Y-106903600D03*
X127601100Y-109603600D03*
X169451100Y-110453600D03*
X167101102Y-105753599D03*
X127601100Y-106603600D03*
X155451100Y-106903600D03*
X127601100Y-104353600D03*
X153401100Y-106303600D03*
X139060000Y-92930000D03*
X151451100Y-106903600D03*
X169451100Y-112053600D03*
X129276100Y-105018600D03*
X167060000Y-104860000D03*
X131151100Y-99103600D03*
X135301100Y-106553600D03*
X164871400Y-100507800D03*
X131801100Y-106903600D03*
X129051100Y-108453600D03*
X167801100Y-108653600D03*
X129971800Y-99110800D03*
X167301100Y-108353600D03*
X156743400Y-106908600D03*
X156101100Y-106303600D03*
X127601100Y-110353600D03*
X158051100Y-106903600D03*
X130251100Y-112853600D03*
X127601100Y-113353600D03*
X169451100Y-111253600D03*
X130200400Y-106553000D03*
X129601100Y-112853600D03*
X152751100Y-106903600D03*
X155451100Y-106303600D03*
X130551100Y-99103600D03*
X127601100Y-112603600D03*
X128397000Y-106553000D03*
X127601100Y-101353600D03*
X169451100Y-108953600D03*
D49*
%TO.N,/GLA*%
X159880000Y-90240000D03*
X140589997Y-97690006D03*
%TO.N,/GLB*%
X144111808Y-98121684D03*
X158520000Y-90310000D03*
%TO.N,/GLC*%
X161850000Y-96530000D03*
X161360000Y-98980000D03*
%TO.N,/GHA*%
X138130000Y-99880000D03*
X153740000Y-87130000D03*
%TO.N,/GHB*%
X163030676Y-93921259D03*
X154930000Y-101900000D03*
%TO.N,/GHC*%
X160150000Y-99220000D03*
X161689998Y-94850000D03*
D48*
%TO.N,GND*%
X126801100Y-87603600D03*
X133751100Y-103603600D03*
X135301100Y-102003600D03*
D47*
X164290000Y-104580000D03*
D48*
X165801100Y-79303600D03*
X157440000Y-103890000D03*
X129301100Y-100453600D03*
D47*
X148770000Y-82010000D03*
D48*
X137680000Y-95740000D03*
X166801100Y-109703600D03*
D47*
X169920000Y-103920000D03*
D48*
X134899400Y-101574600D03*
X145251100Y-104603600D03*
D47*
X162852209Y-90752371D03*
D48*
X133551100Y-102003600D03*
X150310000Y-103780000D03*
X130951100Y-100153600D03*
X134901100Y-103603600D03*
X129351100Y-103603600D03*
X129901100Y-103803600D03*
X153390000Y-103820000D03*
X163951100Y-98403600D03*
D47*
X148890000Y-83660000D03*
D48*
X152760000Y-103800000D03*
D47*
X128250000Y-90984659D03*
D48*
X167451100Y-109703600D03*
X135151100Y-100103600D03*
X130451100Y-103603600D03*
X129001100Y-114103600D03*
X152090000Y-103810000D03*
X168101100Y-109703600D03*
X147401100Y-103403600D03*
X139801100Y-83753600D03*
X146001100Y-102253600D03*
D47*
X142669998Y-90029999D03*
D48*
X156251100Y-101903600D03*
X134401100Y-102003600D03*
X149650000Y-103750000D03*
X128751100Y-100153600D03*
D47*
X152670000Y-96350000D03*
D48*
X147251100Y-102253600D03*
X147401100Y-102803600D03*
X131001100Y-103853600D03*
X133197600Y-103886000D03*
D47*
X166890000Y-94820000D03*
X141950000Y-90470000D03*
D48*
X133151100Y-100153600D03*
X164551100Y-102103600D03*
D47*
X156440000Y-85131100D03*
D48*
X132601100Y-100453600D03*
D47*
X143390000Y-89580000D03*
D50*
X146601100Y-120153600D03*
D48*
X137670000Y-94190000D03*
X130251100Y-114103600D03*
X129851100Y-100153600D03*
X132651100Y-103603600D03*
X151601100Y-117903600D03*
X168201100Y-114153600D03*
X131551100Y-103603600D03*
X142701100Y-104253600D03*
D47*
X141950000Y-89600000D03*
D48*
X162601100Y-97453600D03*
X138460000Y-94180000D03*
X156760000Y-103860000D03*
X163301100Y-98403600D03*
D47*
X156470000Y-86930000D03*
D48*
X155751100Y-101503600D03*
X134351100Y-103853600D03*
X163551100Y-101603600D03*
X129651100Y-114103600D03*
D47*
X154990000Y-86940000D03*
D48*
X156490000Y-99740000D03*
X137101100Y-121503600D03*
X129001100Y-109703600D03*
X132101100Y-103853600D03*
D47*
X165470000Y-94770000D03*
D48*
X135151100Y-100803600D03*
X163901100Y-102103600D03*
X131501100Y-100453600D03*
X145851100Y-104603600D03*
X132051100Y-100153600D03*
X156801100Y-101503600D03*
X157301100Y-101903600D03*
D47*
X154860000Y-88100000D03*
X157800000Y-92160000D03*
D48*
X130201100Y-109703600D03*
X157851100Y-101503600D03*
D47*
X158120000Y-86070000D03*
D48*
X150990000Y-103790000D03*
D47*
X156470000Y-88100000D03*
D48*
X166701100Y-113853600D03*
D47*
X157891452Y-85298548D03*
D48*
X129616200Y-109702600D03*
X133951100Y-101553600D03*
X164251100Y-101603600D03*
X143351100Y-103653600D03*
X128801100Y-103853600D03*
X138500000Y-95770000D03*
X167201100Y-114153600D03*
X146330000Y-101730000D03*
D47*
X143410000Y-90500000D03*
D48*
X156490000Y-100490000D03*
X142701100Y-103653600D03*
X143351100Y-104253600D03*
X157190000Y-100490000D03*
X130401100Y-100453600D03*
X134401100Y-100803600D03*
D47*
X154894265Y-85131100D03*
D48*
X143357600Y-105537000D03*
X146601100Y-102253600D03*
D47*
X158010000Y-88100000D03*
D48*
X167701100Y-113853600D03*
D47*
X166080000Y-86540000D03*
D48*
X134401100Y-100103600D03*
X163201100Y-102103600D03*
D47*
X147370000Y-86620000D03*
D48*
X143351100Y-106153600D03*
X157190000Y-99740000D03*
D47*
%TO.N,/CAN_P*%
X168440000Y-104012895D03*
D50*
X148701100Y-122203600D03*
%TO.N,/CAN_N*%
X148601100Y-120703600D03*
D47*
X167590000Y-104012895D03*
%TO.N,/AS5047_SCL*%
X148750000Y-93570000D03*
X155157516Y-92477411D03*
%TO.N,/AS5047_DIR*%
X152954618Y-90430676D03*
X138730000Y-88628900D03*
X147480000Y-93579998D03*
%TO.N,/AS5047_PGO*%
X156825735Y-83600000D03*
X151308499Y-93615758D03*
%TO.N,/VTEMP_MOT*%
X158250000Y-81280000D03*
%TD*%
D51*
%TO.N,+3V3*%
X150171100Y-82971100D02*
X150670000Y-83470000D01*
X137717500Y-85370000D02*
X136151100Y-83803600D01*
X157190000Y-91300000D02*
X157190000Y-90350000D01*
X127650000Y-90635000D02*
X128450000Y-89835000D01*
X147806100Y-99496100D02*
X148018900Y-99496100D01*
X160930000Y-92890000D02*
X160930000Y-95122378D01*
D52*
X135962600Y-83703600D02*
X135101100Y-83703600D01*
D51*
X162910000Y-83440000D02*
X162910000Y-84340000D01*
X165270000Y-81340000D02*
X163740000Y-81340000D01*
D52*
X154096100Y-120503600D02*
X153417331Y-120503600D01*
X152435331Y-119521600D02*
X146339317Y-119521600D01*
X146339317Y-119521600D02*
X145280200Y-120580717D01*
D51*
X157190000Y-91300000D02*
X157190000Y-92650000D01*
D53*
X164886100Y-96303600D02*
X164786100Y-96403600D01*
D54*
X126068700Y-86326100D02*
X126991200Y-85403600D01*
D51*
X127650000Y-94290000D02*
X127650000Y-90635000D01*
X161497622Y-95690000D02*
X164087500Y-95690000D01*
D52*
X155701100Y-117003600D02*
X155701100Y-116153600D01*
D51*
X159260000Y-87840000D02*
X159260000Y-85192200D01*
X147360000Y-97670000D02*
X147360000Y-99050000D01*
X130930000Y-88670000D02*
X130960000Y-88640000D01*
X147490000Y-81570000D02*
X146145300Y-82914700D01*
X163050000Y-83300000D02*
X163050000Y-83770000D01*
D54*
X135251100Y-121503600D02*
X134501100Y-121503600D01*
D51*
X147490000Y-81570000D02*
X147490000Y-82025135D01*
X140940000Y-85370000D02*
X137717500Y-85370000D01*
X150680000Y-81430000D02*
X150680000Y-82450000D01*
X132125000Y-89080000D02*
X132845000Y-89800000D01*
X148435965Y-82971100D02*
X150171100Y-82971100D01*
X151070000Y-82060000D02*
X150670000Y-82460000D01*
X148720000Y-100490000D02*
X148750000Y-100460000D01*
D52*
X153086100Y-121513600D02*
X154096100Y-120503600D01*
X156001100Y-120503600D02*
X156001100Y-117303600D01*
D54*
X126068700Y-91571200D02*
X126068700Y-86326100D01*
D51*
X130765000Y-89750000D02*
X128411471Y-89750000D01*
D53*
X167380000Y-96765000D02*
X167380000Y-97190000D01*
D51*
X165270000Y-81340000D02*
X165270000Y-80630000D01*
X164087500Y-95690000D02*
X164701100Y-96303600D01*
X165276100Y-95913600D02*
X166131100Y-95058600D01*
X163740000Y-81340000D02*
X162960000Y-80560000D01*
X146145300Y-82914700D02*
X141685300Y-82914700D01*
X147490000Y-82025135D02*
X148435965Y-82971100D01*
D52*
X136051100Y-83803600D02*
X135963100Y-83715600D01*
D54*
X126101100Y-91603600D02*
X126068700Y-91571200D01*
X145288000Y-124104400D02*
X145288000Y-121775400D01*
D51*
X163050000Y-83300000D02*
X162910000Y-83440000D01*
X130930000Y-89735000D02*
X130930000Y-88670000D01*
X151310000Y-83100000D02*
X150670000Y-82460000D01*
X147360000Y-99050000D02*
X147806100Y-99496100D01*
X148018900Y-99496100D02*
X148750000Y-100227200D01*
X132845000Y-89800000D02*
X131685000Y-88640000D01*
X150680000Y-82450000D02*
X150670000Y-82460000D01*
D52*
X135963100Y-83715600D02*
X135962600Y-83703600D01*
X154096100Y-120503600D02*
X156001100Y-120503600D01*
D51*
X150670000Y-83470000D02*
X150670000Y-82460000D01*
D52*
X153085800Y-121513600D02*
X152806400Y-121793000D01*
D51*
X131685000Y-88640000D02*
X130960000Y-88640000D01*
D55*
X164701100Y-96303600D02*
X164886100Y-96303600D01*
D52*
X153417331Y-120503600D02*
X152435331Y-119521600D01*
D51*
X165270000Y-80630000D02*
X165190000Y-80550000D01*
X147360000Y-97670000D02*
X145730000Y-97670000D01*
X130840000Y-89825000D02*
X130930000Y-89735000D01*
D53*
X166528600Y-95913600D02*
X167380000Y-96765000D01*
D51*
X145730000Y-97670000D02*
X145710000Y-97650000D01*
X166131100Y-95058600D02*
X166131100Y-92053600D01*
D53*
X165276100Y-95913600D02*
X164886100Y-96303600D01*
D51*
X127650000Y-94290000D02*
X127650000Y-91938529D01*
X157190000Y-90350000D02*
X157150000Y-90310000D01*
X132545000Y-90100000D02*
X132845000Y-89800000D01*
D52*
X145280200Y-120580717D02*
X145280200Y-121767600D01*
D54*
X145288000Y-121775400D02*
X145280200Y-121767600D01*
D51*
X151990000Y-83600000D02*
X151990000Y-83100000D01*
D54*
X126991200Y-85403600D02*
X128001100Y-85403600D01*
D51*
X162910000Y-84340000D02*
X163180000Y-84610000D01*
X152690000Y-82400000D02*
X151990000Y-83100000D01*
X157190000Y-92650000D02*
X157010000Y-92830000D01*
D52*
X156001100Y-117303600D02*
X155701100Y-117003600D01*
D51*
X151990000Y-83100000D02*
X151310000Y-83100000D01*
X159260000Y-85192200D02*
X158267800Y-84200000D01*
X158267800Y-84200000D02*
X155150000Y-84200000D01*
X141480000Y-83120000D02*
X141480000Y-84830000D01*
X163050000Y-83770000D02*
X162400000Y-84420000D01*
X127650000Y-90651544D02*
X127650000Y-90603900D01*
X160930000Y-95122378D02*
X161497622Y-95690000D01*
D53*
X165276100Y-95913600D02*
X166528600Y-95913600D01*
D52*
X136151100Y-83803600D02*
X136051100Y-83803600D01*
X152806400Y-121793000D02*
X151384000Y-121793000D01*
D51*
X151750000Y-82060000D02*
X151070000Y-82060000D01*
D52*
X153085800Y-121513600D02*
X153086100Y-121513600D01*
D51*
X130840000Y-89825000D02*
X130765000Y-89750000D01*
X141685300Y-82914700D02*
X141480000Y-83120000D01*
X148750000Y-100227200D02*
X148750000Y-100460000D01*
X141480000Y-84830000D02*
X140940000Y-85370000D01*
%TO.N,/SHA*%
X139501100Y-111153600D02*
X139051100Y-111153600D01*
X137930000Y-101840000D02*
X137930000Y-104150000D01*
X136982200Y-109084700D02*
X136982200Y-105097800D01*
X160908900Y-89081100D02*
X162721100Y-89081100D01*
X158915846Y-89580000D02*
X154789140Y-89580000D01*
X139051100Y-111153600D02*
X136982200Y-109084700D01*
X160890000Y-89100000D02*
X159395846Y-89100000D01*
X162721100Y-89081100D02*
X163210000Y-89570000D01*
X159395846Y-89100000D02*
X158915846Y-89580000D01*
X154789140Y-89580000D02*
X153935776Y-90433364D01*
X160890000Y-89100000D02*
X160908900Y-89081100D01*
X136982200Y-105097800D02*
X137930000Y-104150000D01*
X138660000Y-101110000D02*
X137930000Y-101840000D01*
%TO.N,/I2C_ABS_SCL*%
X163610000Y-83890000D02*
X163610000Y-82992200D01*
X164280000Y-84610000D02*
X164280000Y-84560000D01*
X164280000Y-84560000D02*
X163610000Y-83890000D01*
X162280000Y-83691471D02*
X161800000Y-84171471D01*
X165242200Y-85622200D02*
X165242200Y-89664700D01*
X162611100Y-82811100D02*
X162280000Y-83142200D01*
X164280000Y-84660000D02*
X165242200Y-85622200D01*
X161515000Y-85100000D02*
X160890000Y-85100000D01*
X164280000Y-84610000D02*
X164280000Y-84660000D01*
X161800000Y-84171471D02*
X161800000Y-84815000D01*
X163610000Y-82992200D02*
X163428900Y-82811100D01*
X162280000Y-83142200D02*
X162280000Y-83691471D01*
X165242200Y-89664700D02*
X166131100Y-90553600D01*
X161800000Y-84815000D02*
X161515000Y-85100000D01*
X163428900Y-82811100D02*
X162611100Y-82811100D01*
%TO.N,/I2C_ABS_SDA*%
X162479234Y-82492200D02*
X161928900Y-83042534D01*
X163842200Y-82492200D02*
X162479234Y-82492200D01*
X164150000Y-83300000D02*
X164150000Y-82800000D01*
X161511100Y-84021768D02*
X161511100Y-84600000D01*
X167020000Y-88164700D02*
X166131100Y-89053600D01*
X161511100Y-84600000D02*
X160890000Y-84600000D01*
X161928900Y-83603968D02*
X161511100Y-84021768D01*
X164150000Y-82800000D02*
X163842200Y-82492200D01*
X164150000Y-83300000D02*
X167020000Y-86170000D01*
X161928900Y-83042534D02*
X161928900Y-83603968D01*
X167020000Y-86170000D02*
X167020000Y-88164700D01*
%TO.N,/SHB*%
X162741100Y-87671100D02*
X163230000Y-88160000D01*
X146316400Y-111153600D02*
X145501100Y-111153600D01*
X148330000Y-109140000D02*
X146316400Y-111153600D01*
X160961100Y-87671100D02*
X162741100Y-87671100D01*
X163230000Y-88160000D02*
X163648900Y-88578900D01*
X160890000Y-87600000D02*
X160961100Y-87671100D01*
X163648900Y-92409484D02*
X163209192Y-92849192D01*
X163648900Y-88578900D02*
X163648900Y-92409484D01*
%TO.N,/SHC*%
X164480000Y-87500000D02*
X164480000Y-93530000D01*
X163230000Y-86700000D02*
X162630000Y-86100000D01*
X164480000Y-93530000D02*
X164015000Y-93995000D01*
X162630000Y-86100000D02*
X160890000Y-86100000D01*
D52*
X161576100Y-113553600D02*
X161351100Y-113553600D01*
D51*
X163680000Y-86700000D02*
X164480000Y-87500000D01*
X163230000Y-86700000D02*
X163680000Y-86700000D01*
%TO.N,/NRST*%
X151990000Y-86600000D02*
X149450000Y-86600000D01*
X149430000Y-86530000D02*
X149430000Y-86580000D01*
X143205800Y-84858300D02*
X143578232Y-84858300D01*
X142151100Y-83803600D02*
X143205800Y-84858300D01*
X143578232Y-84858300D02*
X144522132Y-85802200D01*
X149450000Y-86600000D02*
X149430000Y-86580000D01*
X144522132Y-85802200D02*
X148702200Y-85802200D01*
X148702200Y-85802200D02*
X149430000Y-86530000D01*
D56*
%TO.N,/VTEMP_FET*%
X153376100Y-115003600D02*
X153301100Y-115053600D01*
X154501100Y-115003600D02*
X153376100Y-115003600D01*
X154501100Y-115003600D02*
X155626100Y-115003600D01*
D51*
X155190000Y-82400000D02*
X155190000Y-81700000D01*
X154640000Y-113992500D02*
X154640000Y-113570000D01*
X155190000Y-81700000D02*
X155370000Y-81520000D01*
X155701100Y-115053600D02*
X154640000Y-113992500D01*
D56*
X154501100Y-115003600D02*
X154501100Y-115053600D01*
X155626100Y-115003600D02*
X155701100Y-115053600D01*
D51*
%TO.N,/BOOT1*%
X162110000Y-89570000D02*
X160920000Y-89570000D01*
X160920000Y-89570000D02*
X160890000Y-89600000D01*
%TO.N,/BOOT2*%
X162130000Y-88160000D02*
X160950000Y-88160000D01*
X160950000Y-88160000D02*
X160890000Y-88100000D01*
%TO.N,/BOOT3*%
X162130000Y-86700000D02*
X160990000Y-86700000D01*
X160990000Y-86700000D02*
X160890000Y-86600000D01*
D53*
%TO.N,Net-(C55-PadP$1)*%
X132001100Y-120003600D02*
X132001100Y-121153600D01*
D51*
%TO.N,/VBAT_SENSE*%
X153190000Y-92100000D02*
X154120000Y-93030000D01*
X153190000Y-91300000D02*
X153190000Y-92100000D01*
X154120000Y-93030000D02*
X154120000Y-94210000D01*
X154230000Y-94320000D02*
X153000000Y-94320000D01*
X154120000Y-94210000D02*
X154230000Y-94320000D01*
%TO.N,/AS5047_SDA*%
X150020000Y-95010000D02*
X150020000Y-93748900D01*
X152761470Y-85600000D02*
X153050736Y-85310734D01*
X151990000Y-85600000D02*
X152761470Y-85600000D01*
%TO.N,Net-(IC2-PA1)*%
X151990000Y-89600000D02*
X150090000Y-89600000D01*
X150090000Y-89600000D02*
X150080000Y-89590000D01*
%TO.N,/SXA_P*%
X141885000Y-95846800D02*
X147721800Y-90010000D01*
X141360812Y-102704720D02*
X142191280Y-102704720D01*
X140520000Y-104376000D02*
X141097220Y-103798780D01*
X143155000Y-101741000D02*
X143155000Y-99243200D01*
X141885000Y-97973200D02*
X141885000Y-95846800D01*
X148109999Y-90010000D02*
X148529999Y-89590000D01*
X141097220Y-102968312D02*
X141360812Y-102704720D01*
X147721800Y-90010000D02*
X148109999Y-90010000D01*
X142191280Y-102704720D02*
X143155000Y-101741000D01*
X143155000Y-99243200D02*
X141885000Y-97973200D01*
X141097220Y-103798780D02*
X141097220Y-102968312D01*
X148529999Y-89590000D02*
X148980000Y-89590000D01*
%TO.N,V+*%
X154230000Y-98370000D02*
X153120000Y-99480000D01*
X154230000Y-95420000D02*
X154230000Y-98370000D01*
X153120000Y-99584648D02*
X153120000Y-100220000D01*
%TO.N,/SXB_P*%
X149253200Y-101935000D02*
X153743200Y-101935000D01*
X157160000Y-96648200D02*
X157160000Y-95460000D01*
X147044000Y-105140000D02*
X147073999Y-105110001D01*
X149057666Y-104147489D02*
X149057666Y-102130534D01*
X153743200Y-101935000D02*
X154705000Y-100973200D01*
X154705000Y-100973200D02*
X154705000Y-99103200D01*
X149057666Y-102130534D02*
X149253200Y-101935000D01*
X147073999Y-105110001D02*
X148095154Y-105110001D01*
X154705000Y-99103200D02*
X157160000Y-96648200D01*
X148095154Y-105110001D02*
X149057666Y-104147489D01*
%TO.N,/SXC_P*%
X161105000Y-103723200D02*
X161105000Y-102576800D01*
X162165000Y-101516800D02*
X162165000Y-98593200D01*
X161556800Y-104175000D02*
X161105000Y-103723200D01*
X160816800Y-97245000D02*
X160175000Y-97245000D01*
X160175000Y-97245000D02*
X158380000Y-95450000D01*
X161951000Y-104175000D02*
X161556800Y-104175000D01*
X161105000Y-102576800D02*
X162165000Y-101516800D01*
X162736000Y-104960000D02*
X161951000Y-104175000D01*
X162165000Y-98593200D02*
X160816800Y-97245000D01*
D57*
%TO.N,/GLA_D*%
X138877300Y-102018600D02*
X139745000Y-101150900D01*
X140290000Y-100270000D02*
X140590000Y-99970000D01*
X138877300Y-102018600D02*
X138309400Y-102586500D01*
X137596100Y-105020452D02*
X137596100Y-107853600D01*
X139745000Y-101150900D02*
X139745000Y-100270000D01*
X139745000Y-100270000D02*
X140290000Y-100270000D01*
X141946100Y-102018600D02*
X138877300Y-102018600D01*
X138309400Y-104307153D02*
X137596100Y-105020452D01*
X138309400Y-102586500D02*
X138309400Y-104307153D01*
D51*
%TO.N,Net-(D2-PadANODE)*%
X147101100Y-125753600D02*
X147701100Y-126353600D01*
X147101100Y-122538500D02*
X147101100Y-125753600D01*
X146380200Y-121817600D02*
X147101100Y-122538500D01*
X146380200Y-121767600D02*
X146380200Y-121817600D01*
%TO.N,/LED2*%
X131440000Y-118286268D02*
X131440000Y-122000000D01*
X139520766Y-88028900D02*
X128471100Y-88028900D01*
X127018700Y-90864205D02*
X127001100Y-90881805D01*
X148290000Y-125442500D02*
X147701100Y-124853600D01*
X131440000Y-122000000D02*
X136382500Y-126942500D01*
X127018700Y-91695795D02*
X127018700Y-113864968D01*
X127018700Y-113864968D02*
X131440000Y-118286268D01*
X151990000Y-88600000D02*
X140111866Y-88600000D01*
X140111866Y-88600000D02*
X139530766Y-88018900D01*
X136382500Y-126942500D02*
X148290000Y-126942500D01*
X128471100Y-88028900D02*
X127018700Y-89481300D01*
X126991100Y-90931805D02*
X126991100Y-91668195D01*
X139530766Y-88018900D02*
X139520766Y-88028900D01*
X127001100Y-90921805D02*
X126991100Y-90931805D01*
X126991100Y-91668195D02*
X127018700Y-91695795D01*
X127018700Y-89481300D02*
X127018700Y-90864205D01*
X127001100Y-90881805D02*
X127001100Y-90921805D01*
X148290000Y-126942500D02*
X148290000Y-125442500D01*
D52*
%TO.N,Net-(D3-PadANODE)*%
X150284000Y-125370700D02*
X150284000Y-121793000D01*
X149301100Y-126353600D02*
X150284000Y-125370700D01*
D51*
%TO.N,/LED1*%
X136071400Y-127231400D02*
X131151100Y-122311100D01*
X126712200Y-113967034D02*
X126712200Y-91797861D01*
X148409666Y-127231400D02*
X136071400Y-127231400D01*
X131151100Y-118405934D02*
X126712200Y-113967034D01*
X149301100Y-124853600D02*
X148578900Y-125575800D01*
X148578900Y-127062166D02*
X148409666Y-127231400D01*
X150995000Y-87730000D02*
X151365000Y-88100000D01*
X126712200Y-91797861D02*
X126702200Y-91787861D01*
X131521798Y-87733900D02*
X131525698Y-87730000D01*
X151365000Y-88100000D02*
X151990000Y-88100000D01*
X128300000Y-87730000D02*
X129854302Y-87730000D01*
X126702200Y-91787861D02*
X126702200Y-89327800D01*
X131151100Y-122311100D02*
X131151100Y-118405934D01*
X131525698Y-87730000D02*
X150995000Y-87730000D01*
X129858202Y-87733900D02*
X131521798Y-87733900D01*
X129854302Y-87730000D02*
X129858202Y-87733900D01*
X148578900Y-125575800D02*
X148578900Y-127062166D01*
X126702200Y-89327800D02*
X128300000Y-87730000D01*
D57*
%TO.N,/GLB_D*%
X144111800Y-100761800D02*
X144111800Y-100661800D01*
X143596100Y-107058600D02*
X143596100Y-107853600D01*
X144111800Y-100661800D02*
X144111800Y-102328200D01*
X144001100Y-106653600D02*
X143596100Y-107058600D01*
X144050000Y-102390000D02*
X144050000Y-104058700D01*
X144490500Y-106114200D02*
X143596100Y-107008600D01*
X144050000Y-104058700D02*
X144490500Y-104499200D01*
X144931800Y-100761800D02*
X144111800Y-100761800D01*
X143596100Y-107008600D02*
X143596100Y-107853600D01*
X144111800Y-102328200D02*
X144050000Y-102390000D01*
X144490500Y-104499200D02*
X144490500Y-106114200D01*
%TO.N,/GLC_D*%
X161048593Y-106609894D02*
X161458394Y-106609894D01*
X161451100Y-101353600D02*
X160611100Y-102193600D01*
X161458394Y-106609894D02*
X161596100Y-106747600D01*
X160501100Y-103203600D02*
X160501100Y-106062401D01*
X160501100Y-106062401D02*
X161048593Y-106609894D01*
X161596100Y-106747600D02*
X161596100Y-107853600D01*
X160611100Y-102193600D02*
X160601100Y-102203600D01*
X160611100Y-101753600D02*
X160611100Y-102193600D01*
X160601100Y-102203600D02*
X160601100Y-103103600D01*
X160501100Y-103203600D02*
X160601100Y-103103600D01*
D58*
%TO.N,/GLA*%
X159690000Y-90430000D02*
X159880000Y-90240000D01*
X140590000Y-98870000D02*
X140590000Y-97690000D01*
X140390000Y-98670000D02*
X140590000Y-98870000D01*
X159690000Y-91300000D02*
X159690000Y-90430000D01*
X139745000Y-98670000D02*
X140390000Y-98670000D01*
%TO.N,/GLB*%
X144111800Y-98918200D02*
X144111800Y-98121700D01*
D57*
X144111800Y-98918200D02*
X144111800Y-99561800D01*
D58*
X159190000Y-90709656D02*
X158790344Y-90310000D01*
X159190000Y-91300000D02*
X159190000Y-90709656D01*
X158790344Y-90310000D02*
X158520000Y-90310000D01*
D57*
X144688200Y-98918200D02*
X144111800Y-98918200D01*
X144931800Y-99161800D02*
X144688200Y-98918200D01*
D58*
%TO.N,/GLC*%
X161451100Y-100253600D02*
X160711100Y-100253600D01*
X161801776Y-96530000D02*
X161850000Y-96530000D01*
X161360000Y-98980000D02*
X161360000Y-100162500D01*
X160551100Y-95279324D02*
X161801776Y-96530000D01*
X158690000Y-91300000D02*
X158690000Y-92485846D01*
X160551100Y-94346946D02*
X160551100Y-95279324D01*
X161360000Y-100162500D02*
X161451100Y-100253600D01*
X160711100Y-100253600D02*
X160611100Y-100153600D01*
X158690000Y-92485846D02*
X160551100Y-94346946D01*
D57*
%TO.N,/GHA*%
X136801100Y-99903600D02*
X136051100Y-99903600D01*
X136051100Y-99903600D02*
X135951100Y-99803600D01*
D58*
X158781100Y-89178900D02*
X154111100Y-89178900D01*
X153740000Y-88807800D02*
X153740000Y-87130000D01*
X138130000Y-99880000D02*
X136824700Y-99880000D01*
X154111100Y-89178900D02*
X153740000Y-88807800D01*
X159360000Y-88600000D02*
X158781100Y-89178900D01*
X136824700Y-99880000D02*
X136801100Y-99903600D01*
X160890000Y-88600000D02*
X159360000Y-88600000D01*
D57*
%TO.N,/GHA_D*%
X135406100Y-113453600D02*
X136602800Y-112256900D01*
X137551100Y-103372347D02*
X137551100Y-101753600D01*
X136602800Y-112256900D02*
X136602800Y-104940648D01*
X136801100Y-101003600D02*
X136351100Y-101003600D01*
X136351100Y-101003600D02*
X135951100Y-101403600D01*
X136602800Y-104940648D02*
X137430600Y-104112848D01*
X137430600Y-104112848D02*
X137430600Y-103492848D01*
X137430600Y-103492848D02*
X137551100Y-103372347D01*
X137551100Y-101753600D02*
X136801100Y-101003600D01*
D58*
%TO.N,/GHB*%
X160890000Y-87100000D02*
X161422200Y-87100000D01*
D57*
X154251100Y-102853600D02*
X154251100Y-102578900D01*
D58*
X163112933Y-93921259D02*
X163030676Y-93921259D01*
X161422200Y-87100000D02*
X161601100Y-87278900D01*
X161601100Y-87278900D02*
X163373054Y-87278900D01*
X164101100Y-88006946D02*
X164101100Y-92933092D01*
D57*
X154930000Y-102632500D02*
X155101100Y-102803600D01*
X154930000Y-101900000D02*
X154930000Y-102632500D01*
D58*
X163373054Y-87278900D02*
X164101100Y-88006946D01*
D57*
X154251100Y-102578900D02*
X154930000Y-101900000D01*
D58*
X164101100Y-92933092D02*
X163112933Y-93921259D01*
D57*
%TO.N,/GHB_D*%
X154401100Y-104603600D02*
X154401100Y-112458600D01*
X155101100Y-103903600D02*
X154401100Y-104603600D01*
X154251100Y-104453600D02*
X154401100Y-104603600D01*
X154401100Y-112458600D02*
X153406100Y-113453600D01*
D58*
%TO.N,/GHC*%
X160890000Y-85600000D02*
X163237800Y-85600000D01*
X164240000Y-94680000D02*
X164070000Y-94850000D01*
X164863300Y-87225500D02*
X164863300Y-94122508D01*
X159571100Y-101178600D02*
X158746100Y-102003600D01*
X163237800Y-85600000D02*
X164863300Y-87225500D01*
X160122200Y-100092500D02*
X159571100Y-100643600D01*
X164305808Y-94680000D02*
X164240000Y-94680000D01*
X164070000Y-94850000D02*
X161689998Y-94850000D01*
X160150000Y-99220000D02*
X160122200Y-99247800D01*
X164863300Y-94122508D02*
X164305808Y-94680000D01*
X160122200Y-99247800D02*
X160122200Y-100092500D01*
X159571100Y-100643600D02*
X159571100Y-101178600D01*
D57*
%TO.N,/GHC_D*%
X158746100Y-103103600D02*
X159255125Y-103612625D01*
X159440600Y-106397153D02*
X160147000Y-107103553D01*
X159281200Y-102683500D02*
X159281200Y-103666875D01*
X159281200Y-103666875D02*
X159255125Y-103612625D01*
X159571100Y-102393600D02*
X159281200Y-102683500D01*
X159281200Y-103666875D02*
X159440600Y-103826275D01*
X160147000Y-107103553D02*
X160147000Y-112712700D01*
X159440600Y-103826275D02*
X159440600Y-106397153D01*
X160147000Y-112712700D02*
X159406100Y-113453600D01*
X159571100Y-102243600D02*
X159571100Y-102393600D01*
D51*
%TO.N,/DAC*%
X151810000Y-92180000D02*
X152690000Y-91300000D01*
X150280000Y-92180000D02*
X151810000Y-92180000D01*
%TO.N,/DEBUG1*%
X151990000Y-84600000D02*
X148750000Y-84600000D01*
X148750000Y-84600000D02*
X147400000Y-83250000D01*
%TO.N,/DEBUG2*%
X147660000Y-85100000D02*
X147310000Y-84750000D01*
X151990000Y-85100000D02*
X147660000Y-85100000D01*
D52*
%TO.N,GND*%
X152001100Y-117903600D02*
X153301100Y-116603600D01*
D51*
X166131100Y-87553600D02*
X166131100Y-86591100D01*
X157800000Y-92160000D02*
X157800000Y-91410000D01*
X152670000Y-96870000D02*
X153120000Y-97320000D01*
D56*
X163501100Y-103203600D02*
X163051100Y-103203600D01*
D51*
X160190000Y-91300000D02*
X162304580Y-91300000D01*
X168650000Y-96765000D02*
X166890000Y-95005000D01*
X149710000Y-81440000D02*
X149720000Y-81430000D01*
X149710000Y-82460000D02*
X149710000Y-81440000D01*
X127519700Y-86885000D02*
X126801100Y-87603600D01*
D59*
X147501100Y-121803600D02*
X147501100Y-121053600D01*
D51*
X157800000Y-91410000D02*
X157690000Y-91300000D01*
X162852209Y-90752371D02*
X162030000Y-91574580D01*
X146366000Y-104460000D02*
X146366000Y-103768500D01*
X162030000Y-91574580D02*
X162030000Y-92890000D01*
X165134700Y-94770000D02*
X164701100Y-95203600D01*
X152221100Y-80931100D02*
X153690000Y-82400000D01*
X151290000Y-100460000D02*
X151290000Y-99150000D01*
X145710000Y-96550000D02*
X145130000Y-97130000D01*
X166131100Y-86591100D02*
X166080000Y-86540000D01*
X130840000Y-86875000D02*
X128460000Y-86875000D01*
X164090000Y-80364700D02*
X165151100Y-79303600D01*
X150218900Y-80931100D02*
X152221100Y-80931100D01*
X163501100Y-104022900D02*
X163244000Y-104280000D01*
D59*
X147501100Y-121053600D02*
X146601100Y-120153600D01*
D51*
X152511100Y-94931100D02*
X152511100Y-93538900D01*
X128615341Y-91350000D02*
X128250000Y-90984659D01*
X149520000Y-83660000D02*
X149710000Y-83470000D01*
X134851100Y-120003600D02*
X136351100Y-121503600D01*
D52*
X139151100Y-83803600D02*
X139201100Y-83753600D01*
D51*
X149350000Y-81430000D02*
X148770000Y-82010000D01*
X149720000Y-81430000D02*
X150218900Y-80931100D01*
X143841000Y-105053600D02*
X143357600Y-105537000D01*
X169920000Y-102640000D02*
X169920000Y-103920000D01*
X146001100Y-99368300D02*
X146001100Y-102253600D01*
D53*
X133101100Y-120003600D02*
X133101100Y-121153600D01*
D52*
X153301100Y-116603600D02*
X153301100Y-116153600D01*
D51*
X151290000Y-99150000D02*
X153120000Y-97320000D01*
X141210000Y-104874000D02*
X142069600Y-105733600D01*
X161860000Y-80560000D02*
X160730000Y-79430000D01*
X158110000Y-92830000D02*
X158110000Y-92470000D01*
X144001100Y-105053600D02*
X143841000Y-105053600D01*
X165470000Y-94770000D02*
X165134700Y-94770000D01*
X128670000Y-91350000D02*
X128615341Y-91350000D01*
D52*
X139801100Y-83753600D02*
X139201100Y-83753600D01*
D54*
X136351100Y-121503600D02*
X137101100Y-121503600D01*
D51*
X164090000Y-80550000D02*
X164090000Y-80364700D01*
X152670000Y-95750000D02*
X153000000Y-95420000D01*
X145130000Y-98497200D02*
X146001100Y-99368300D01*
X146366000Y-103768500D02*
X146001100Y-103403600D01*
D52*
X151601100Y-117903600D02*
X152001100Y-117903600D01*
D51*
X160730000Y-79430000D02*
X157060000Y-79430000D01*
X148890000Y-83660000D02*
X149520000Y-83660000D01*
X133101100Y-120003600D02*
X134851100Y-120003600D01*
X166890000Y-95005000D02*
X166890000Y-94820000D01*
X158110000Y-92470000D02*
X157800000Y-92160000D01*
X147410000Y-86580000D02*
X147370000Y-86620000D01*
X145130000Y-97130000D02*
X145130000Y-98497200D01*
D52*
X153301100Y-116153600D02*
X154501100Y-116153600D01*
D54*
X165151100Y-79303600D02*
X165801100Y-79303600D01*
D51*
X128450000Y-86885000D02*
X127519700Y-86885000D01*
X128460000Y-86875000D02*
X128450000Y-86885000D01*
X146526000Y-103928500D02*
X146001100Y-103403600D01*
X142069600Y-105733600D02*
X142261100Y-105733600D01*
X169920000Y-104430000D02*
X169920000Y-103920000D01*
X162304580Y-91300000D02*
X162852209Y-90752371D01*
X169080000Y-105270000D02*
X169920000Y-104430000D01*
X153000000Y-95420000D02*
X152511100Y-94931100D01*
X154190000Y-82400000D02*
X153190000Y-82400000D01*
X163501100Y-103203600D02*
X163501100Y-104022900D01*
D57*
X162101100Y-103203600D02*
X163051100Y-103203600D01*
D51*
X152670000Y-96350000D02*
X152670000Y-96870000D01*
X168650000Y-97190000D02*
X168650000Y-96765000D01*
X152670000Y-96350000D02*
X152670000Y-95750000D01*
X148330000Y-86580000D02*
X147410000Y-86580000D01*
X149720000Y-81430000D02*
X149350000Y-81430000D01*
X152511100Y-93538900D02*
X153020000Y-93030000D01*
D53*
%TO.N,/CAN_P*%
X149251100Y-122753600D02*
X149501100Y-122753600D01*
X148701100Y-122203600D02*
X149251100Y-122753600D01*
D51*
X168240001Y-103812896D02*
X168440000Y-104012895D01*
X168650000Y-102640000D02*
X168240001Y-103049999D01*
X168240001Y-103049999D02*
X168240001Y-103812896D01*
D53*
%TO.N,/CAN_N*%
X149351100Y-120703600D02*
X149501100Y-120853600D01*
D51*
X167789999Y-103812896D02*
X167590000Y-104012895D01*
X167789999Y-103049999D02*
X167789999Y-103812896D01*
X167380000Y-102640000D02*
X167789999Y-103049999D01*
D53*
X148601100Y-120703600D02*
X149351100Y-120703600D01*
D51*
%TO.N,/CAN_TX*%
X162251039Y-82203300D02*
X161640000Y-82814339D01*
X169920000Y-96765000D02*
X167308900Y-94153900D01*
X167020000Y-85611434D02*
X167020000Y-84370000D01*
X167308900Y-86050334D02*
X167268900Y-86010334D01*
X169920000Y-97190000D02*
X169920000Y-96765000D01*
X164853300Y-82203300D02*
X162251039Y-82203300D01*
X161640000Y-83202200D02*
X161242200Y-83600000D01*
X161640000Y-82814339D02*
X161640000Y-83202200D01*
X167308900Y-94153900D02*
X167308900Y-86050334D01*
X161242200Y-83600000D02*
X160890000Y-83600000D01*
X167020000Y-84370000D02*
X164853300Y-82203300D01*
X167268900Y-86010334D02*
X167268900Y-85860334D01*
X167268900Y-85860334D02*
X167020000Y-85611434D01*
%TO.N,/CAN_RX*%
X170820000Y-96587200D02*
X170458900Y-96226100D01*
X162200000Y-81790000D02*
X160890000Y-83100000D01*
X166110000Y-97190000D02*
X166110000Y-97615000D01*
X170820000Y-98200000D02*
X170820000Y-96587200D01*
X167597800Y-84539234D02*
X164848566Y-81790000D01*
X170156100Y-96226100D02*
X167597800Y-93667800D01*
X167597800Y-93667800D02*
X167597800Y-84539234D01*
X170458900Y-96226100D02*
X170156100Y-96226100D01*
X167125000Y-98630000D02*
X170390000Y-98630000D01*
X166110000Y-97615000D02*
X167125000Y-98630000D01*
X164848566Y-81790000D02*
X162200000Y-81790000D01*
X170390000Y-98630000D02*
X170820000Y-98200000D01*
%TO.N,/AS5047_SCL*%
X148750000Y-95010000D02*
X148750000Y-93570000D01*
X154690000Y-91300000D02*
X154690000Y-92009895D01*
X154690000Y-92009895D02*
X155157516Y-92477411D01*
%TO.N,Net-(IC2-PB0)*%
X157637800Y-93607800D02*
X158380000Y-94350000D01*
X155690000Y-91300000D02*
X155690000Y-91752800D01*
X155690000Y-91752800D02*
X156158900Y-92221700D01*
X156158900Y-93315266D02*
X156451434Y-93607800D01*
X156451434Y-93607800D02*
X157637800Y-93607800D01*
X156158900Y-92221700D02*
X156158900Y-93315266D01*
%TO.N,/AS5047_DIR*%
X156690000Y-82852800D02*
X156528900Y-83013900D01*
X155256100Y-83013900D02*
X153920000Y-84350000D01*
X149110000Y-88900000D02*
X139001100Y-88900000D01*
X152954618Y-86255382D02*
X152954618Y-90430676D01*
X156690000Y-82400000D02*
X156690000Y-82852800D01*
X153920000Y-85290000D02*
X152954618Y-86255382D01*
X156528900Y-83013900D02*
X155256100Y-83013900D01*
X139001100Y-88900000D02*
X138730000Y-88628900D01*
X153920000Y-84350000D02*
X153920000Y-85290000D01*
X149418900Y-89208900D02*
X149110000Y-88900000D01*
X149418900Y-91641098D02*
X149418900Y-89208900D01*
X147480000Y-95010000D02*
X147480000Y-93579998D01*
X147480000Y-93579998D02*
X149418900Y-91641098D01*
%TO.N,/AS5047_PGO*%
X157190000Y-82400000D02*
X157190000Y-83235735D01*
X157190000Y-83235735D02*
X156825735Y-83600000D01*
X151290000Y-93634257D02*
X151308499Y-93615758D01*
X151290000Y-95010000D02*
X151290000Y-93634257D01*
D56*
%TO.N,/VTEMP_MOT*%
X164001100Y-79253600D02*
X164051100Y-79303600D01*
D51*
X154690000Y-82400000D02*
X154690000Y-81351471D01*
X154690000Y-81351471D02*
X155121471Y-80920000D01*
X157890000Y-80920000D02*
X158250000Y-81280000D01*
X155121471Y-80920000D02*
X157890000Y-80920000D01*
D56*
X162751100Y-79253600D02*
X162701100Y-79303600D01*
X162751100Y-79253600D02*
X164001100Y-79253600D01*
D51*
%TO.N,/SWDIO*%
X158717200Y-80302200D02*
X160190000Y-81775000D01*
X143050000Y-81680000D02*
X145804707Y-81680000D01*
X147182507Y-80302200D02*
X158717200Y-80302200D01*
X140651100Y-83803600D02*
X140651100Y-82903600D01*
X160190000Y-81775000D02*
X160190000Y-82400000D01*
X141854700Y-81700000D02*
X143030000Y-81700000D01*
X145804707Y-81680000D02*
X147182507Y-80302200D01*
X143030000Y-81700000D02*
X143050000Y-81680000D01*
X140651100Y-82903600D02*
X141854700Y-81700000D01*
%TO.N,/SWCLK*%
X141191100Y-83000334D02*
X141323300Y-82868134D01*
X141492534Y-82625800D02*
X145267473Y-82625800D01*
X147302173Y-80591100D02*
X158506100Y-80591100D01*
X137651100Y-84153600D02*
X138201100Y-84703600D01*
X158506100Y-80591100D02*
X159690000Y-81775000D01*
X141323300Y-82868134D02*
X141323300Y-82795034D01*
X159690000Y-81775000D02*
X159690000Y-82400000D01*
X141191100Y-84691400D02*
X141191100Y-83000334D01*
X137651100Y-83803600D02*
X137651100Y-84153600D01*
X138201100Y-84703600D02*
X141178900Y-84703600D01*
X145267473Y-82625800D02*
X147302173Y-80591100D01*
X141178900Y-84703600D02*
X141191100Y-84691400D01*
X141323300Y-82795034D02*
X141492534Y-82625800D01*
%TO.N,Net-(IC2-PA3)*%
X150080000Y-90880000D02*
X151710000Y-90880000D01*
X151710000Y-90880000D02*
X151990000Y-90600000D01*
%TO.N,Net-(IC2-PA7)*%
X154560000Y-93810000D02*
X154560000Y-92540000D01*
X154190000Y-92170000D02*
X154190000Y-91300000D01*
X154560000Y-92540000D02*
X154190000Y-92170000D01*
X157160000Y-94360000D02*
X156721100Y-94798900D01*
X155548900Y-94798900D02*
X154560000Y-93810000D01*
X156721100Y-94798900D02*
X155548900Y-94798900D01*
%TO.N,Net-(IC2-PC5)*%
X155930000Y-93910000D02*
X155870000Y-93850000D01*
X155870000Y-92341366D02*
X155190000Y-91661366D01*
X155870000Y-93850000D02*
X155870000Y-92341366D01*
X155190000Y-91661366D02*
X155190000Y-91300000D01*
X155930000Y-94360000D02*
X155930000Y-93910000D01*
%TO.N,Net-(IC2-PB2)*%
X158498900Y-93318900D02*
X156598900Y-93318900D01*
X159590000Y-94360000D02*
X159540000Y-94360000D01*
X156528900Y-91461100D02*
X156690000Y-91300000D01*
X159540000Y-94360000D02*
X158498900Y-93318900D01*
X156598900Y-93318900D02*
X156528900Y-93248900D01*
X156528900Y-93248900D02*
X156528900Y-91461100D01*
%TO.N,/SXB_N*%
X155980000Y-95460000D02*
X155930000Y-95460000D01*
X148445000Y-103566434D02*
X148445000Y-102106800D01*
X154255000Y-98916800D02*
X156430000Y-96741800D01*
X146874000Y-104460000D02*
X147073999Y-104659999D01*
X147351435Y-104659999D02*
X148445000Y-103566434D01*
X154255000Y-100786800D02*
X154255000Y-98916800D01*
X156430000Y-95910000D02*
X155980000Y-95460000D01*
X156430000Y-96741800D02*
X156430000Y-95910000D01*
X149066800Y-101485000D02*
X153556800Y-101485000D01*
X147073999Y-104659999D02*
X147351435Y-104659999D01*
X153556800Y-101485000D02*
X154255000Y-100786800D01*
X148445000Y-102106800D02*
X149066800Y-101485000D01*
%TO.N,/SXC_N*%
X160361397Y-96795000D02*
X159590000Y-96023603D01*
X162615000Y-98406800D02*
X161003200Y-96795000D01*
X159590000Y-96023603D02*
X159590000Y-95460000D01*
X161555000Y-102763200D02*
X162615000Y-101703200D01*
X161743200Y-103725000D02*
X161555000Y-103536800D01*
X162692397Y-104280000D02*
X162137397Y-103725000D01*
X162615000Y-101703200D02*
X162615000Y-98406800D01*
X162137397Y-103725000D02*
X161743200Y-103725000D01*
X161003200Y-96795000D02*
X160361397Y-96795000D01*
X162736000Y-104280000D02*
X162692397Y-104280000D01*
X161555000Y-103536800D02*
X161555000Y-102763200D01*
%TO.N,/SXA_N*%
X142335000Y-96033200D02*
X147908200Y-90460000D01*
X141547200Y-103154700D02*
X142377697Y-103154700D01*
X147908200Y-90460000D02*
X148109999Y-90460000D01*
X141210000Y-104366000D02*
X141210000Y-104322397D01*
X142335000Y-97786800D02*
X142335000Y-96033200D01*
X141210000Y-104322397D02*
X141547200Y-103985197D01*
X143605000Y-101927397D02*
X143605000Y-99056800D01*
X142377697Y-103154700D02*
X143605000Y-101927397D01*
X143605000Y-99056800D02*
X142335000Y-97786800D01*
X148109999Y-90460000D02*
X148529999Y-90880000D01*
X148529999Y-90880000D02*
X148980000Y-90880000D01*
X141547200Y-103985197D02*
X141547200Y-103154700D01*
%TO.N,Z1*%
X139670400Y-105733600D02*
X139461100Y-105733600D01*
X140520000Y-104884000D02*
X139670400Y-105733600D01*
%TO.N,Z2*%
X146536000Y-105140000D02*
X146536000Y-105668700D01*
X146536000Y-105668700D02*
X146001100Y-106203600D01*
%TO.N,Z3*%
X163501100Y-106003600D02*
X163501100Y-105217100D01*
X163501100Y-105217100D02*
X163244000Y-104960000D01*
%TO.N,Net-(U1-BOOT)*%
X131083900Y-91081100D02*
X132740404Y-91081100D01*
X134623496Y-88970000D02*
X136370000Y-88970000D01*
X134320000Y-89273496D02*
X134623496Y-88970000D01*
X134320000Y-89501504D02*
X134320000Y-89273496D01*
X132740404Y-91081100D02*
X134320000Y-89501504D01*
X130550000Y-91615000D02*
X131083900Y-91081100D01*
D54*
%TO.N,Net-(U1-PH)*%
X135240000Y-90070000D02*
X134970000Y-89800000D01*
X136370000Y-90070000D02*
X135240000Y-90070000D01*
X138470000Y-90030000D02*
X136410000Y-90030000D01*
X136370000Y-90070000D02*
X136370000Y-91195000D01*
X136370000Y-91195000D02*
X135950000Y-91615000D01*
X136410000Y-90030000D02*
X136370000Y-90070000D01*
D51*
%TO.N,Net-(U1-VSENSE)*%
X130550000Y-95425000D02*
X128845000Y-95425000D01*
X128845000Y-95425000D02*
X128800000Y-95380000D01*
X128790000Y-95390000D02*
X128800000Y-95380000D01*
X127650000Y-95390000D02*
X128790000Y-95390000D01*
%TO.N,Net-(R11-PadP$2)*%
X128670000Y-93000000D02*
X128670000Y-94150000D01*
X128670000Y-94150000D02*
X128800000Y-94280000D01*
X128820000Y-94260000D02*
X128800000Y-94280000D01*
%TD*%
%TA.AperFunction,Conductor*%
%TO.N,GND*%
G36*
X164805594Y-97149106D02*
G01*
X164814600Y-97170850D01*
X164814600Y-98886350D01*
X164805594Y-98908094D01*
X164783850Y-98917100D01*
X162835150Y-98917100D01*
X162813406Y-98908094D01*
X162804400Y-98886350D01*
X162804400Y-98444203D01*
X162806125Y-98434047D01*
X162808049Y-98428551D01*
X162807348Y-98422329D01*
X162804497Y-98397018D01*
X162804400Y-98395296D01*
X162804400Y-98385459D01*
X162802211Y-98375868D01*
X162801922Y-98374167D01*
X162798369Y-98342636D01*
X162795269Y-98337703D01*
X162791328Y-98328189D01*
X162790032Y-98322509D01*
X162770240Y-98297691D01*
X162769256Y-98296305D01*
X162766761Y-98292333D01*
X162764016Y-98287963D01*
X162757051Y-98280998D01*
X162755906Y-98279717D01*
X162736126Y-98254913D01*
X162736125Y-98254912D01*
X162730877Y-98252385D01*
X162722477Y-98246425D01*
X162046606Y-97570554D01*
X162037600Y-97548810D01*
X162037600Y-97170850D01*
X162046606Y-97149106D01*
X162068350Y-97140100D01*
X164783850Y-97140100D01*
X164805594Y-97149106D01*
G37*
%TD.AperFunction*%
%TD*%
%TA.AperFunction,Conductor*%
%TO.N,Z3*%
G36*
X161846408Y-104849105D02*
G01*
X162237402Y-105240100D01*
X164433850Y-105240100D01*
X164455594Y-105249106D01*
X164464600Y-105270849D01*
X164464600Y-106640100D01*
X165833850Y-106640100D01*
X165855594Y-106649106D01*
X165864600Y-106670850D01*
X165864600Y-108636350D01*
X165855594Y-108658094D01*
X165833850Y-108667100D01*
X162368350Y-108667100D01*
X162346606Y-108658094D01*
X162337600Y-108636350D01*
X162337600Y-107079902D01*
X161546606Y-106288909D01*
X161537600Y-106267165D01*
X161537600Y-104870850D01*
X161546606Y-104849106D01*
X161568350Y-104840100D01*
X161824665Y-104840100D01*
X161846408Y-104849105D01*
G37*
%TD.AperFunction*%
%TD*%
%TA.AperFunction,Conductor*%
%TO.N,V+*%
G36*
X128255594Y-97599106D02*
G01*
X128264600Y-97620850D01*
X128264600Y-113367100D01*
X128264600Y-113367101D01*
X128264600Y-113786350D01*
X128255594Y-113808094D01*
X128233850Y-113817100D01*
X127251422Y-113817100D01*
X127229678Y-113808094D01*
X127217106Y-113795522D01*
X127208100Y-113773778D01*
X127208100Y-97620850D01*
X127217106Y-97599106D01*
X127238850Y-97590100D01*
X128233850Y-97590100D01*
X128255594Y-97599106D01*
G37*
%TD.AperFunction*%
%TD*%
%TA.AperFunction,NonConductor*%
G36*
X126513794Y-97599106D02*
G01*
X126522800Y-97620850D01*
X126522800Y-113786350D01*
X126513794Y-113808094D01*
X126492050Y-113817100D01*
X125768350Y-113817100D01*
X125746606Y-113808094D01*
X125737600Y-113786350D01*
X125737600Y-113367101D01*
X125737600Y-97620850D01*
X125746606Y-97599106D01*
X125768350Y-97590100D01*
X126492050Y-97590100D01*
X126513794Y-97599106D01*
G37*
%TD.AperFunction*%
%TA.AperFunction,Conductor*%
%TO.N,GND*%
G36*
X133737600Y-101417100D02*
G01*
X135240600Y-101417100D01*
X135240600Y-101726471D01*
X135247009Y-101786086D01*
X135297302Y-101920928D01*
X135297303Y-101920930D01*
X135297304Y-101920931D01*
X135383554Y-102036146D01*
X135498769Y-102122396D01*
X135498772Y-102122398D01*
X135573858Y-102150402D01*
X135591084Y-102166438D01*
X135593843Y-102180310D01*
X135588681Y-102324889D01*
X135588681Y-102324891D01*
X135592547Y-102340035D01*
X135624266Y-102464303D01*
X135633273Y-102486047D01*
X135647298Y-102515361D01*
X135656625Y-102534855D01*
X135725966Y-102627482D01*
X135732099Y-102645910D01*
X135732099Y-103605176D01*
X135723093Y-103626920D01*
X135191920Y-104158094D01*
X135170176Y-104167100D01*
X133464600Y-104167100D01*
X133464600Y-101240100D01*
X133737600Y-101240100D01*
X133737600Y-101417100D01*
G37*
%TD.AperFunction*%
%TD*%
%TA.AperFunction,Conductor*%
%TO.N,GND*%
G36*
X147014962Y-101339106D02*
G01*
X147018784Y-101343764D01*
X147019766Y-101345234D01*
X147070342Y-101379028D01*
X147114943Y-101387900D01*
X147622464Y-101387899D01*
X147644207Y-101396905D01*
X147644208Y-101396905D01*
X147955594Y-101708291D01*
X147964600Y-101730035D01*
X147964600Y-103766243D01*
X147955594Y-103787986D01*
X147635488Y-104108093D01*
X147613744Y-104117100D01*
X146951985Y-104117100D01*
X146947175Y-104116721D01*
X146928639Y-104113785D01*
X146874002Y-104105131D01*
X146873998Y-104105131D01*
X146819360Y-104113785D01*
X146800824Y-104116721D01*
X146796015Y-104117100D01*
X146124600Y-104117100D01*
X146124600Y-104117101D01*
X146124600Y-105096350D01*
X146115594Y-105118094D01*
X146093850Y-105127100D01*
X144801150Y-105127100D01*
X144779406Y-105118094D01*
X144770400Y-105096350D01*
X144770400Y-104549871D01*
X144771993Y-104540102D01*
X144772517Y-104538540D01*
X144770415Y-104493075D01*
X144770400Y-104492389D01*
X144770400Y-104473266D01*
X144769399Y-104467913D01*
X144769153Y-104465793D01*
X144768885Y-104460000D01*
X144767685Y-104434007D01*
X144767685Y-104434006D01*
X144761107Y-104419108D01*
X144759011Y-104412342D01*
X144756020Y-104396337D01*
X144739264Y-104369276D01*
X144738270Y-104367390D01*
X144725417Y-104338280D01*
X144725414Y-104338275D01*
X144713899Y-104326760D01*
X144709499Y-104321205D01*
X144700931Y-104307367D01*
X144700881Y-104307329D01*
X144699818Y-104306526D01*
X144699190Y-104305457D01*
X144699010Y-104305260D01*
X144699051Y-104305221D01*
X144687895Y-104286235D01*
X144687600Y-104281988D01*
X144687600Y-102440034D01*
X144696605Y-102418291D01*
X144954159Y-102160739D01*
X145637138Y-101341163D01*
X145657977Y-101330226D01*
X145660761Y-101330100D01*
X146993218Y-101330100D01*
X147014962Y-101339106D01*
G37*
%TD.AperFunction*%
%TD*%
%TA.AperFunction,Conductor*%
%TO.N,Z1*%
G36*
X140105594Y-102399106D02*
G01*
X140114600Y-102420850D01*
X140114600Y-104427295D01*
X140114601Y-104427297D01*
X140155595Y-104468292D01*
X140164600Y-104490033D01*
X140164600Y-104677295D01*
X140164601Y-104677297D01*
X140231354Y-104810804D01*
X140234600Y-104824556D01*
X140234600Y-105176569D01*
X140225594Y-105198313D01*
X140204070Y-105207318D01*
X138868570Y-105216878D01*
X138846763Y-105208028D01*
X138837601Y-105186349D01*
X138837600Y-105186129D01*
X138837600Y-104690034D01*
X138846605Y-104668291D01*
X139087600Y-104427297D01*
X139087600Y-102420850D01*
X139096606Y-102399106D01*
X139118350Y-102390100D01*
X140083850Y-102390100D01*
X140105594Y-102399106D01*
G37*
%TD.AperFunction*%
%TD*%
%TA.AperFunction,Conductor*%
%TO.N,V+*%
G36*
X139339800Y-91972976D02*
G01*
X139344395Y-91981250D01*
X139344637Y-91985480D01*
X139344637Y-93284437D01*
X139333771Y-93310671D01*
X139308730Y-93321518D01*
X137180000Y-93390000D01*
X136471093Y-93419953D01*
X136468912Y-93419917D01*
X136097880Y-93391915D01*
X135940000Y-93380000D01*
X135939995Y-93380000D01*
X135214337Y-93380000D01*
X135188103Y-93369134D01*
X135177237Y-93342900D01*
X135177237Y-92584700D01*
X135188103Y-92558466D01*
X135214337Y-92547600D01*
X135621873Y-92547600D01*
X136950001Y-92520000D01*
X137016315Y-92504563D01*
X139339800Y-91963725D01*
X139339800Y-91972976D01*
G37*
%TD.AperFunction*%
%TD*%
%TA.AperFunction,Conductor*%
%TO.N,GND*%
G36*
X130555594Y-113549106D02*
G01*
X130564600Y-113570850D01*
X130564600Y-115336350D01*
X130555594Y-115358094D01*
X130533850Y-115367100D01*
X128801422Y-115367100D01*
X128779678Y-115358094D01*
X128696606Y-115275022D01*
X128687600Y-115253278D01*
X128687600Y-113570850D01*
X128696606Y-113549106D01*
X128718350Y-113540100D01*
X130533850Y-113540100D01*
X130555594Y-113549106D01*
G37*
%TD.AperFunction*%
%TD*%
%TA.AperFunction,Conductor*%
%TO.N,Z2*%
G36*
X147007984Y-105390691D02*
G01*
X147043999Y-105397855D01*
X147044000Y-105397855D01*
X147044001Y-105397855D01*
X147080016Y-105390691D01*
X147086015Y-105390100D01*
X147833850Y-105390100D01*
X147855594Y-105399106D01*
X147864600Y-105420850D01*
X147864600Y-108536350D01*
X147855594Y-108558094D01*
X147833850Y-108567100D01*
X144468350Y-108567100D01*
X144446606Y-108558094D01*
X144437600Y-108536350D01*
X144437600Y-107490034D01*
X144446605Y-107468291D01*
X145137600Y-106777297D01*
X145137600Y-105420850D01*
X145146606Y-105399106D01*
X145168350Y-105390100D01*
X147001985Y-105390100D01*
X147007984Y-105390691D01*
G37*
%TD.AperFunction*%
%TD*%
%TA.AperFunction,Conductor*%
%TO.N,GND*%
G36*
X167105594Y-101449106D02*
G01*
X167114600Y-101470850D01*
X167114600Y-101681350D01*
X167105594Y-101703094D01*
X167083850Y-101712100D01*
X167014943Y-101712100D01*
X167014942Y-101712101D01*
X166970342Y-101720972D01*
X166919767Y-101754765D01*
X166919765Y-101754767D01*
X166885971Y-101805343D01*
X166877100Y-101849941D01*
X166877100Y-103430056D01*
X166877101Y-103430057D01*
X166885972Y-103474658D01*
X166919766Y-103525234D01*
X166970342Y-103559028D01*
X166970343Y-103559028D01*
X166972860Y-103560710D01*
X166971908Y-103562134D01*
X166984355Y-103574572D01*
X166984364Y-103598107D01*
X166967728Y-103614755D01*
X166955950Y-103617100D01*
X164337600Y-103617100D01*
X164337600Y-101440100D01*
X164517287Y-101440100D01*
X167083850Y-101440100D01*
X167105594Y-101449106D01*
G37*
%TD.AperFunction*%
%TD*%
%TA.AperFunction,Conductor*%
%TO.N,GND*%
G36*
X162838429Y-101484283D02*
G01*
X162883227Y-101489100D01*
X164337600Y-101489099D01*
X164337600Y-103617100D01*
X164575792Y-103617100D01*
X164604569Y-104687924D01*
X164596150Y-104709902D01*
X164574656Y-104719489D01*
X164573830Y-104719500D01*
X163977685Y-104719500D01*
X163955941Y-104710494D01*
X163949642Y-104701365D01*
X163457575Y-103607502D01*
X162697111Y-101916994D01*
X162696405Y-101893472D01*
X162703408Y-101882642D01*
X162722478Y-101863572D01*
X162730876Y-101857614D01*
X162736126Y-101855087D01*
X162755914Y-101830272D01*
X162757044Y-101829006D01*
X162764016Y-101822036D01*
X162769251Y-101813704D01*
X162770244Y-101812302D01*
X162790032Y-101787491D01*
X162791327Y-101781815D01*
X162795268Y-101772297D01*
X162798369Y-101767364D01*
X162801922Y-101735823D01*
X162802206Y-101734152D01*
X162804400Y-101724541D01*
X162804400Y-101714702D01*
X162804497Y-101712979D01*
X162808049Y-101681449D01*
X162806124Y-101675947D01*
X162804400Y-101665800D01*
X162804400Y-101514858D01*
X162813407Y-101493114D01*
X162835150Y-101484108D01*
X162838429Y-101484283D01*
G37*
%TD.AperFunction*%
%TD*%
%TA.AperFunction,Conductor*%
%TO.N,GND*%
G36*
X157958331Y-101190476D02*
G01*
X157958481Y-101190500D01*
X158533850Y-101190499D01*
X158555593Y-101199505D01*
X158564600Y-101221249D01*
X158564600Y-101322350D01*
X158555594Y-101344094D01*
X158533850Y-101353100D01*
X158414587Y-101353100D01*
X158320794Y-101367954D01*
X158320791Y-101367955D01*
X158207764Y-101425545D01*
X158207760Y-101425548D01*
X158118048Y-101515260D01*
X158118045Y-101515264D01*
X158060454Y-101628294D01*
X158060452Y-101628298D01*
X158045600Y-101722074D01*
X158045600Y-102285112D01*
X158060454Y-102378905D01*
X158060455Y-102378908D01*
X158118045Y-102491935D01*
X158118051Y-102491943D01*
X158157964Y-102531857D01*
X158166970Y-102553600D01*
X158157964Y-102575343D01*
X158118051Y-102615256D01*
X158118045Y-102615264D01*
X158060454Y-102728294D01*
X158060452Y-102728298D01*
X158045600Y-102822074D01*
X158045600Y-103385112D01*
X158060454Y-103478905D01*
X158060455Y-103478908D01*
X158118045Y-103591935D01*
X158118048Y-103591939D01*
X158118050Y-103591942D01*
X158207758Y-103681650D01*
X158207760Y-103681651D01*
X158207764Y-103681654D01*
X158320794Y-103739245D01*
X158320798Y-103739247D01*
X158414574Y-103754099D01*
X158414575Y-103754099D01*
X158414581Y-103754100D01*
X158533851Y-103754099D01*
X158555593Y-103763105D01*
X158564600Y-103784849D01*
X158564600Y-104022350D01*
X158555594Y-104044094D01*
X158533850Y-104053100D01*
X158119587Y-104053100D01*
X158025794Y-104067954D01*
X158025791Y-104067955D01*
X157912764Y-104125545D01*
X157912760Y-104125548D01*
X157823048Y-104215260D01*
X157814754Y-104231540D01*
X157805189Y-104250311D01*
X157787295Y-104265595D01*
X157777792Y-104267100D01*
X155824619Y-104267100D01*
X155802875Y-104258094D01*
X155793869Y-104236350D01*
X155794248Y-104231540D01*
X155801599Y-104185125D01*
X155801600Y-104185119D01*
X155801599Y-103622082D01*
X155786746Y-103528296D01*
X155786745Y-103528294D01*
X155786744Y-103528291D01*
X155729154Y-103415264D01*
X155729151Y-103415260D01*
X155729150Y-103415258D01*
X155689234Y-103375342D01*
X155680229Y-103353600D01*
X155689234Y-103331857D01*
X155729150Y-103291942D01*
X155786746Y-103178904D01*
X155786746Y-103178902D01*
X155786747Y-103178901D01*
X155801599Y-103085125D01*
X155801600Y-103085119D01*
X155801599Y-102522082D01*
X155786746Y-102428296D01*
X155786745Y-102428294D01*
X155786744Y-102428291D01*
X155729154Y-102315264D01*
X155729151Y-102315260D01*
X155729150Y-102315258D01*
X155671425Y-102257533D01*
X155662420Y-102235791D01*
X155664145Y-102225639D01*
X155715368Y-102079255D01*
X155735565Y-101900000D01*
X155715368Y-101720745D01*
X155655789Y-101550478D01*
X155559816Y-101397738D01*
X155432262Y-101270184D01*
X155395184Y-101246886D01*
X155381566Y-101227692D01*
X155385508Y-101204490D01*
X155404703Y-101190871D01*
X155411545Y-101190100D01*
X157953537Y-101190100D01*
X157958331Y-101190476D01*
G37*
%TD.AperFunction*%
%TD*%
%TA.AperFunction,Conductor*%
%TO.N,V+*%
G36*
X132564600Y-112067101D02*
G01*
X132564600Y-112236350D01*
X132555594Y-112258094D01*
X132533850Y-112267100D01*
X130564600Y-112267100D01*
X130564600Y-113336350D01*
X130555594Y-113358094D01*
X130533850Y-113367100D01*
X127208100Y-113367100D01*
X127208100Y-111190100D01*
X132564600Y-111190100D01*
X132564600Y-112067101D01*
G37*
%TD.AperFunction*%
%TD*%
%TA.AperFunction,Conductor*%
%TO.N,V+*%
G36*
X171014600Y-108817100D02*
G01*
X166468350Y-108817100D01*
X166446606Y-108808094D01*
X166437600Y-108786350D01*
X166437600Y-107420850D01*
X166446606Y-107399106D01*
X166468350Y-107390100D01*
X168917736Y-107390100D01*
X171014600Y-107390100D01*
X171014600Y-108817100D01*
G37*
%TD.AperFunction*%
%TD*%
%TA.AperFunction,Conductor*%
%TO.N,V+*%
G36*
X165005594Y-99099106D02*
G01*
X165014600Y-99120850D01*
X165014600Y-100786350D01*
X165005594Y-100808094D01*
X164983850Y-100817100D01*
X162835150Y-100817100D01*
X162813406Y-100808094D01*
X162804400Y-100786350D01*
X162804400Y-99120850D01*
X162813406Y-99099106D01*
X162835150Y-99090100D01*
X164983850Y-99090100D01*
X165005594Y-99099106D01*
G37*
%TD.AperFunction*%
%TD*%
%TA.AperFunction,Conductor*%
%TO.N,GND*%
G36*
X138898424Y-93810875D02*
G01*
X138909309Y-93837100D01*
X138909303Y-93837811D01*
X138870695Y-95932284D01*
X138859347Y-95958313D01*
X138832917Y-95968694D01*
X138832300Y-95968677D01*
X137193862Y-95911188D01*
X137168026Y-95899409D01*
X137158120Y-95876169D01*
X137100000Y-94830000D01*
X137099999Y-94829999D01*
X135280117Y-93872525D01*
X135261960Y-93850694D01*
X135264558Y-93822418D01*
X135286389Y-93804261D01*
X135297361Y-93802592D01*
X138872182Y-93800027D01*
X138898424Y-93810875D01*
G37*
%TD.AperFunction*%
%TD*%
%TA.AperFunction,Conductor*%
%TO.N,V+*%
G36*
X139328934Y-91793566D02*
G01*
X139339800Y-91819800D01*
X139339800Y-93285100D01*
X137187400Y-93285100D01*
X137187400Y-91819800D01*
X137198266Y-91793566D01*
X137224500Y-91782700D01*
X139302700Y-91782700D01*
X139328934Y-91793566D01*
G37*
%TD.AperFunction*%
%TD*%
%TA.AperFunction,Conductor*%
%TO.N,/SHB*%
G36*
X152471594Y-112749106D02*
G01*
X152480600Y-112770850D01*
X152480600Y-114226471D01*
X152487009Y-114286086D01*
X152537302Y-114420928D01*
X152586037Y-114486030D01*
X152591857Y-114508834D01*
X152586037Y-114522886D01*
X152557302Y-114561271D01*
X152507009Y-114696116D01*
X152500600Y-114755727D01*
X152500600Y-115351471D01*
X152507009Y-115411086D01*
X152557301Y-115545925D01*
X152557304Y-115545931D01*
X152586679Y-115585170D01*
X152592500Y-115607974D01*
X152586680Y-115622025D01*
X152557303Y-115661268D01*
X152557302Y-115661270D01*
X152507009Y-115796116D01*
X152500600Y-115855727D01*
X152500600Y-116451471D01*
X152507009Y-116511086D01*
X152557302Y-116645929D01*
X152557304Y-116645932D01*
X152611196Y-116717922D01*
X152617017Y-116740726D01*
X152605008Y-116760966D01*
X152586580Y-116767100D01*
X151427402Y-116767100D01*
X149388375Y-118806128D01*
X149386409Y-118808094D01*
X149364665Y-118817100D01*
X147057839Y-118817100D01*
X147036095Y-118808094D01*
X147034294Y-118806128D01*
X145321510Y-116767100D01*
X144003026Y-116767100D01*
X143988289Y-116763339D01*
X143983943Y-116760966D01*
X143834261Y-116679233D01*
X143834257Y-116679231D01*
X143834254Y-116679230D01*
X143566146Y-116579230D01*
X143566140Y-116579229D01*
X143286536Y-116518405D01*
X143286530Y-116518404D01*
X143286528Y-116518404D01*
X143212651Y-116513120D01*
X143066156Y-116502642D01*
X143045111Y-116492107D01*
X143037600Y-116471970D01*
X143037600Y-112770850D01*
X143046606Y-112749106D01*
X143068350Y-112740100D01*
X152449850Y-112740100D01*
X152471594Y-112749106D01*
G37*
%TD.AperFunction*%
%TD*%
%TA.AperFunction,Conductor*%
%TO.N,V+*%
G36*
X167141109Y-103849106D02*
G01*
X167149524Y-103864852D01*
X167150937Y-103871957D01*
X167151215Y-103882331D01*
X167132443Y-104012895D01*
X167150977Y-104141805D01*
X167150977Y-104141806D01*
X167205078Y-104260269D01*
X167229744Y-104288735D01*
X167236664Y-104302872D01*
X167622982Y-106244725D01*
X167618391Y-106267808D01*
X167598823Y-106280884D01*
X167594063Y-106281450D01*
X165431458Y-106368730D01*
X165409369Y-106360608D01*
X165399493Y-106339245D01*
X165399472Y-106338520D01*
X165398491Y-106280000D01*
X165358123Y-103871365D01*
X165366765Y-103849474D01*
X165388355Y-103840104D01*
X165388870Y-103840100D01*
X167119365Y-103840100D01*
X167141109Y-103849106D01*
G37*
%TD.AperFunction*%
%TD*%
%TA.AperFunction,Conductor*%
%TO.N,GND*%
G36*
X133455594Y-99849106D02*
G01*
X133464600Y-99870850D01*
X133464600Y-104167100D01*
X131237600Y-104167100D01*
X128518350Y-104167100D01*
X128496606Y-104158094D01*
X128487600Y-104136350D01*
X128487600Y-99870850D01*
X128496606Y-99849106D01*
X128518350Y-99840100D01*
X133433850Y-99840100D01*
X133455594Y-99849106D01*
G37*
%TD.AperFunction*%
%TD*%
%TA.AperFunction,Conductor*%
%TO.N,GND*%
G36*
X153715647Y-102133406D02*
G01*
X153724648Y-102154569D01*
X153763990Y-104234862D01*
X153755396Y-104256772D01*
X153733826Y-104266188D01*
X153732369Y-104266181D01*
X149276940Y-104139162D01*
X149255462Y-104129539D01*
X149247066Y-104108424D01*
X149247066Y-102221723D01*
X149256071Y-102199980D01*
X149322646Y-102133406D01*
X149344390Y-102124400D01*
X153693903Y-102124400D01*
X153715647Y-102133406D01*
G37*
%TD.AperFunction*%
%TD*%
%TA.AperFunction,Conductor*%
%TO.N,GND*%
G36*
X135505594Y-99099106D02*
G01*
X135514600Y-99120850D01*
X135514600Y-101417100D01*
X133737600Y-101417100D01*
X133737600Y-99120850D01*
X133746606Y-99099106D01*
X133768350Y-99090100D01*
X135483850Y-99090100D01*
X135505594Y-99099106D01*
G37*
%TD.AperFunction*%
%TD*%
%TA.AperFunction,Conductor*%
%TO.N,V+*%
G36*
X137086409Y-102249106D02*
G01*
X137155594Y-102318291D01*
X137164600Y-102340035D01*
X137164600Y-103397703D01*
X137163783Y-103404744D01*
X137162826Y-103408812D01*
X137162196Y-103410847D01*
X137150700Y-103440526D01*
X137150700Y-103456809D01*
X137149883Y-103463849D01*
X137146155Y-103479697D01*
X137150552Y-103511212D01*
X137150700Y-103513339D01*
X137150700Y-103781064D01*
X137141694Y-103802807D01*
X137114600Y-103829901D01*
X137114600Y-104020270D01*
X137105594Y-104042014D01*
X136440710Y-104706898D01*
X136432680Y-104712677D01*
X136431200Y-104713413D01*
X136400539Y-104747046D01*
X136400050Y-104747558D01*
X136386543Y-104761066D01*
X136383465Y-104765557D01*
X136382144Y-104767225D01*
X136360703Y-104790745D01*
X136360701Y-104790748D01*
X136354820Y-104805928D01*
X136351517Y-104812195D01*
X136342313Y-104825632D01*
X136335028Y-104856607D01*
X136334398Y-104858642D01*
X136322900Y-104888323D01*
X136322900Y-104904609D01*
X136322083Y-104911649D01*
X136318355Y-104927496D01*
X136322752Y-104959012D01*
X136322900Y-104961139D01*
X136322900Y-105108864D01*
X136313893Y-105130608D01*
X136246001Y-105198501D01*
X135864600Y-105579902D01*
X135864600Y-104840100D01*
X134037600Y-104840100D01*
X134037600Y-104840035D01*
X134046606Y-104818291D01*
X134165791Y-104699106D01*
X134187535Y-104690100D01*
X135374797Y-104690100D01*
X135374798Y-104690100D01*
X136237600Y-103827298D01*
X136237600Y-102429902D01*
X136237599Y-102429900D01*
X136100292Y-102292594D01*
X136091285Y-102270850D01*
X136100291Y-102249107D01*
X136122035Y-102240100D01*
X137064665Y-102240100D01*
X137086409Y-102249106D01*
G37*
%TD.AperFunction*%
%TD*%
%TA.AperFunction,Conductor*%
%TO.N,GND*%
G36*
X168555594Y-113599106D02*
G01*
X168564600Y-113620850D01*
X168564600Y-115486350D01*
X168555594Y-115508094D01*
X168533850Y-115517100D01*
X166468350Y-115517100D01*
X166446606Y-115508094D01*
X166437600Y-115486350D01*
X166437600Y-113620850D01*
X166446606Y-113599106D01*
X166468350Y-113590100D01*
X168533850Y-113590100D01*
X168555594Y-113599106D01*
G37*
%TD.AperFunction*%
%TD*%
%TA.AperFunction,Conductor*%
%TO.N,V+*%
G36*
X132786409Y-97799106D02*
G01*
X132905594Y-97918291D01*
X132914600Y-97940035D01*
X132914600Y-99536350D01*
X132905594Y-99558094D01*
X132883850Y-99567100D01*
X127208100Y-99567100D01*
X127208100Y-97790100D01*
X128264600Y-97790100D01*
X128264601Y-97790100D01*
X132764665Y-97790100D01*
X132786409Y-97799106D01*
G37*
%TD.AperFunction*%
%TD*%
%TA.AperFunction,Conductor*%
%TO.N,V+*%
G36*
X132664600Y-108467101D02*
G01*
X132664600Y-112036350D01*
X132655594Y-112058094D01*
X132633850Y-112067100D01*
X130787600Y-112067100D01*
X130787600Y-104840100D01*
X130964600Y-104840100D01*
X130964601Y-104840100D01*
X132664600Y-104840100D01*
X132664600Y-108467101D01*
G37*
%TD.AperFunction*%
%TD*%
%TA.AperFunction,Conductor*%
%TO.N,/SHA*%
G36*
X134655594Y-112749106D02*
G01*
X134664600Y-112770850D01*
X134664600Y-114177298D01*
X134827402Y-114340100D01*
X135974797Y-114340100D01*
X135974798Y-114340100D01*
X136437600Y-113877298D01*
X136437600Y-112830674D01*
X136446604Y-112808932D01*
X136506431Y-112749106D01*
X136528175Y-112740100D01*
X141833850Y-112740100D01*
X141855594Y-112749106D01*
X141864600Y-112770850D01*
X141864600Y-116736350D01*
X141855594Y-116758094D01*
X141833850Y-116767100D01*
X136927402Y-116767100D01*
X134886409Y-118808094D01*
X134864665Y-118817100D01*
X133137535Y-118817100D01*
X133115791Y-118808094D01*
X131146606Y-116838909D01*
X131137600Y-116817165D01*
X131137600Y-112770850D01*
X131146606Y-112749106D01*
X131168350Y-112740100D01*
X134633850Y-112740100D01*
X134655594Y-112749106D01*
G37*
%TD.AperFunction*%
%TD*%
%TA.AperFunction,Conductor*%
%TO.N,V+*%
G36*
X153855594Y-104949106D02*
G01*
X153864600Y-104970850D01*
X153864600Y-108436350D01*
X153855594Y-108458094D01*
X153833850Y-108467100D01*
X149168350Y-108467100D01*
X149146606Y-108458094D01*
X149137600Y-108436350D01*
X149137600Y-104970850D01*
X149146606Y-104949106D01*
X149168350Y-104940100D01*
X153833850Y-104940100D01*
X153855594Y-104949106D01*
G37*
%TD.AperFunction*%
%TD*%
%TA.AperFunction,Conductor*%
%TO.N,GND*%
G36*
X157599355Y-98949211D02*
G01*
X157608776Y-98970778D01*
X157608760Y-98972538D01*
X157531135Y-101010188D01*
X157521307Y-101031573D01*
X157500167Y-101039766D01*
X154999393Y-101020229D01*
X154977720Y-101011053D01*
X154968904Y-100990627D01*
X154968186Y-100971387D01*
X154920087Y-99682338D01*
X154920270Y-99677665D01*
X154987481Y-99097967D01*
X154996279Y-99079772D01*
X155078972Y-98997079D01*
X155100121Y-98988081D01*
X157577444Y-98940623D01*
X157599355Y-98949211D01*
G37*
%TD.AperFunction*%
%TD*%
%TA.AperFunction,Conductor*%
%TO.N,Z1*%
G36*
X141205594Y-105749106D02*
G01*
X141214600Y-105770850D01*
X141214600Y-108636350D01*
X141205594Y-108658094D01*
X141183850Y-108667100D01*
X138468350Y-108667100D01*
X138446606Y-108658094D01*
X138437600Y-108636350D01*
X138437600Y-105770850D01*
X138446606Y-105749106D01*
X138468350Y-105740100D01*
X141183850Y-105740100D01*
X141205594Y-105749106D01*
G37*
%TD.AperFunction*%
%TD*%
%TA.AperFunction,Conductor*%
%TO.N,GND*%
G36*
X143755489Y-103349096D02*
G01*
X143764600Y-103370796D01*
X143764600Y-106202741D01*
X143755594Y-106224485D01*
X143739849Y-106232900D01*
X143731442Y-106234572D01*
X143680867Y-106268365D01*
X143680865Y-106268367D01*
X143647071Y-106318943D01*
X143638200Y-106363541D01*
X143638200Y-106443565D01*
X143629194Y-106465309D01*
X143236409Y-106858094D01*
X143214665Y-106867100D01*
X141518350Y-106867100D01*
X141496606Y-106858094D01*
X141487600Y-106836350D01*
X141487600Y-104629902D01*
X141489967Y-104412985D01*
X141490604Y-104407084D01*
X141514224Y-104293154D01*
X141522585Y-104277663D01*
X141654680Y-104145568D01*
X141663082Y-104139609D01*
X141668326Y-104137084D01*
X141688110Y-104112274D01*
X141689240Y-104111008D01*
X141696217Y-104104033D01*
X141701461Y-104095685D01*
X141702441Y-104094302D01*
X141722232Y-104069488D01*
X141723527Y-104063811D01*
X141727472Y-104054288D01*
X141730568Y-104049361D01*
X141730569Y-104049360D01*
X141734121Y-104017828D01*
X141734406Y-104016142D01*
X141736600Y-104006538D01*
X141736599Y-103996699D01*
X141736696Y-103994976D01*
X141737920Y-103984104D01*
X141740249Y-103963446D01*
X141738325Y-103957947D01*
X141736600Y-103947792D01*
X141736600Y-103380379D01*
X141745606Y-103358635D01*
X141767200Y-103349629D01*
X142347985Y-103346842D01*
X142352474Y-103347595D01*
X142352501Y-103347361D01*
X142355946Y-103347749D01*
X142363893Y-103346853D01*
X142365504Y-103346758D01*
X143733702Y-103340194D01*
X143755489Y-103349096D01*
G37*
%TD.AperFunction*%
%TD*%
%TA.AperFunction,Conductor*%
%TO.N,V+*%
G36*
X171014600Y-113267100D02*
G01*
X166468350Y-113267100D01*
X166446606Y-113258094D01*
X166437600Y-113236350D01*
X166437600Y-111420850D01*
X166446606Y-111399106D01*
X166468350Y-111390100D01*
X168934011Y-111390100D01*
X171014600Y-111390100D01*
X171014600Y-113267100D01*
G37*
%TD.AperFunction*%
%TD*%
%TA.AperFunction,Conductor*%
%TO.N,V+*%
G36*
X159151694Y-104949106D02*
G01*
X159160700Y-104970850D01*
X159160700Y-106346477D01*
X159159106Y-106356250D01*
X159158581Y-106357814D01*
X159159692Y-106381826D01*
X159160684Y-106403290D01*
X159160700Y-106403974D01*
X159160700Y-106423090D01*
X159161699Y-106428435D01*
X159161944Y-106430551D01*
X159163414Y-106462343D01*
X159163415Y-106462347D01*
X159169991Y-106477241D01*
X159172087Y-106484010D01*
X159175078Y-106500013D01*
X159175080Y-106500016D01*
X159191833Y-106527072D01*
X159192827Y-106528958D01*
X159205683Y-106558074D01*
X159205685Y-106558077D01*
X159217199Y-106569591D01*
X159221599Y-106575146D01*
X159230168Y-106588985D01*
X159230169Y-106588986D01*
X159255557Y-106608158D01*
X159257166Y-106609558D01*
X159473761Y-106826152D01*
X159855594Y-107207985D01*
X159864600Y-107229728D01*
X159864600Y-108436350D01*
X159855594Y-108458094D01*
X159833850Y-108467100D01*
X155168350Y-108467100D01*
X155146606Y-108458094D01*
X155137600Y-108436350D01*
X155137600Y-104970850D01*
X155146606Y-104949106D01*
X155168350Y-104940100D01*
X159129950Y-104940100D01*
X159151694Y-104949106D01*
G37*
%TD.AperFunction*%
%TD*%
%TA.AperFunction,Conductor*%
%TO.N,V+*%
G36*
X171170824Y-104239268D02*
G01*
X171180437Y-104260750D01*
X171180446Y-104261172D01*
X171282667Y-111390100D01*
X171309581Y-113267100D01*
X171314153Y-113585909D01*
X171305459Y-113607780D01*
X171283847Y-113617097D01*
X171283406Y-113617100D01*
X168968300Y-113617100D01*
X168946556Y-113608094D01*
X168937550Y-113586401D01*
X168927600Y-107409902D01*
X168323253Y-106196532D01*
X168320029Y-106182703D01*
X168326862Y-104492644D01*
X168335956Y-104470940D01*
X168357735Y-104462021D01*
X168366271Y-104463266D01*
X168374883Y-104465795D01*
X168446350Y-104465795D01*
X168468094Y-104474801D01*
X168477100Y-104496545D01*
X168477100Y-106085056D01*
X168477101Y-106085057D01*
X168485972Y-106129658D01*
X168519766Y-106180234D01*
X168570342Y-106214028D01*
X168614943Y-106222900D01*
X169545056Y-106222899D01*
X169589658Y-106214028D01*
X169640234Y-106180234D01*
X169674028Y-106129658D01*
X169682900Y-106085057D01*
X169682899Y-104947688D01*
X169691904Y-104925946D01*
X170027479Y-104590371D01*
X170035882Y-104584412D01*
X170041126Y-104581887D01*
X170060914Y-104557072D01*
X170062044Y-104555806D01*
X170069016Y-104548836D01*
X170074251Y-104540504D01*
X170075244Y-104539102D01*
X170095032Y-104514291D01*
X170096327Y-104508615D01*
X170100268Y-104499097D01*
X170103369Y-104494164D01*
X170106922Y-104462623D01*
X170107206Y-104460952D01*
X170109400Y-104451341D01*
X170109400Y-104441502D01*
X170109497Y-104439779D01*
X170113049Y-104408249D01*
X170111125Y-104402750D01*
X170109400Y-104392595D01*
X170109400Y-104353432D01*
X170118406Y-104331688D01*
X170123517Y-104327569D01*
X170219636Y-104265799D01*
X170219639Y-104265794D01*
X170221300Y-104264357D01*
X170222071Y-104265246D01*
X170239651Y-104256436D01*
X170240967Y-104256369D01*
X171148836Y-104230875D01*
X171170824Y-104239268D01*
G37*
%TD.AperFunction*%
%TD*%
%TA.AperFunction,NonConductor*%
G36*
X169640278Y-104278597D02*
G01*
X169707571Y-104321843D01*
X169720994Y-104341174D01*
X169716816Y-104364335D01*
X169712691Y-104369455D01*
X169699632Y-104382514D01*
X169677888Y-104391520D01*
X169656144Y-104382514D01*
X169652321Y-104377854D01*
X169640237Y-104359770D01*
X169640236Y-104359769D01*
X169640234Y-104359766D01*
X169596173Y-104330325D01*
X169583099Y-104310757D01*
X169587690Y-104287674D01*
X169607259Y-104274599D01*
X169612384Y-104274021D01*
X169622794Y-104273728D01*
X169640278Y-104278597D01*
G37*
%TD.AperFunction*%
%TA.AperFunction,Conductor*%
%TO.N,V+*%
G36*
X130955594Y-104349106D02*
G01*
X130964599Y-104370850D01*
X130964600Y-108867100D01*
X127208100Y-108867100D01*
X127208100Y-104340100D01*
X128264600Y-104340100D01*
X128264601Y-104340100D01*
X130933850Y-104340100D01*
X130955594Y-104349106D01*
G37*
%TD.AperFunction*%
%TD*%
%TA.AperFunction,Conductor*%
%TO.N,/SHC*%
G36*
X158471594Y-112749106D02*
G01*
X158480600Y-112770850D01*
X158480600Y-114226471D01*
X158487009Y-114286086D01*
X158537302Y-114420928D01*
X158537303Y-114420930D01*
X158537304Y-114420931D01*
X158623554Y-114536146D01*
X158738769Y-114622396D01*
X158738770Y-114622396D01*
X158738771Y-114622397D01*
X158777652Y-114636898D01*
X158873617Y-114672691D01*
X158933227Y-114679100D01*
X159878972Y-114679099D01*
X159938583Y-114672691D01*
X160073431Y-114622396D01*
X160188646Y-114536146D01*
X160274896Y-114420931D01*
X160325191Y-114286083D01*
X160331600Y-114226473D01*
X160331599Y-113996034D01*
X160336761Y-113983572D01*
X160335259Y-113982950D01*
X160337600Y-113977298D01*
X160337600Y-113590034D01*
X160346605Y-113568291D01*
X161165791Y-112749106D01*
X161187535Y-112740100D01*
X165833850Y-112740100D01*
X165855594Y-112749106D01*
X165864600Y-112770850D01*
X165864600Y-116717164D01*
X165855594Y-116738908D01*
X163786409Y-118808094D01*
X163764665Y-118817100D01*
X162037535Y-118817100D01*
X162015791Y-118808094D01*
X160765238Y-117557540D01*
X160759993Y-117550533D01*
X160688326Y-117419285D01*
X160516839Y-117190205D01*
X160314495Y-116987861D01*
X160085415Y-116816374D01*
X159834261Y-116679233D01*
X159834257Y-116679231D01*
X159834254Y-116679230D01*
X159566146Y-116579230D01*
X159566140Y-116579229D01*
X159286536Y-116518405D01*
X159286530Y-116518404D01*
X159286528Y-116518404D01*
X159001100Y-116497990D01*
X158715672Y-116518404D01*
X158715669Y-116518404D01*
X158715663Y-116518405D01*
X158436059Y-116579229D01*
X158436053Y-116579230D01*
X158167945Y-116679230D01*
X158167935Y-116679235D01*
X158013911Y-116763339D01*
X157999174Y-116767100D01*
X156415620Y-116767100D01*
X156393876Y-116758094D01*
X156384870Y-116736350D01*
X156391004Y-116717922D01*
X156444895Y-116645932D01*
X156444897Y-116645929D01*
X156469773Y-116579231D01*
X156495191Y-116511083D01*
X156501600Y-116451473D01*
X156501599Y-115855728D01*
X156495191Y-115796117D01*
X156444896Y-115661269D01*
X156415518Y-115622026D01*
X156409698Y-115599224D01*
X156415518Y-115585173D01*
X156444896Y-115545931D01*
X156495191Y-115411083D01*
X156501600Y-115351473D01*
X156501599Y-114755728D01*
X156495191Y-114696117D01*
X156488844Y-114679100D01*
X156444897Y-114561271D01*
X156426090Y-114536147D01*
X156358646Y-114446054D01*
X156243431Y-114359804D01*
X156243430Y-114359803D01*
X156243428Y-114359802D01*
X156108583Y-114309509D01*
X156108582Y-114309509D01*
X156048973Y-114303100D01*
X156048972Y-114303100D01*
X155834612Y-114303100D01*
X155815403Y-114296362D01*
X155778826Y-114267100D01*
X155195190Y-114267100D01*
X155173446Y-114258094D01*
X155150458Y-114235106D01*
X155141452Y-114213362D01*
X155150456Y-114191621D01*
X155269816Y-114072262D01*
X155365789Y-113919522D01*
X155425368Y-113749255D01*
X155445565Y-113570000D01*
X155425368Y-113390745D01*
X155365789Y-113220478D01*
X155269816Y-113067738D01*
X155146605Y-112944527D01*
X155137600Y-112922785D01*
X155137600Y-112770850D01*
X155146606Y-112749106D01*
X155168350Y-112740100D01*
X158449850Y-112740100D01*
X158471594Y-112749106D01*
G37*
%TD.AperFunction*%
%TD*%
%TA.AperFunction,Conductor*%
%TO.N,V+*%
G36*
X159150206Y-97869006D02*
G01*
X159159212Y-97890750D01*
X159159202Y-97891528D01*
X159100529Y-100209045D01*
X159097919Y-100220687D01*
X159063516Y-100298606D01*
X159063513Y-100298614D01*
X159060600Y-100323737D01*
X159060600Y-100963470D01*
X159063180Y-100985708D01*
X159056739Y-101008344D01*
X159036177Y-101019795D01*
X159032635Y-101020000D01*
X158936674Y-101020000D01*
X158914930Y-101010994D01*
X158909278Y-101003214D01*
X158901337Y-100987629D01*
X158901335Y-100987627D01*
X158901335Y-100987626D01*
X158818943Y-100891160D01*
X158818942Y-100891159D01*
X158818941Y-100891158D01*
X158710768Y-100824870D01*
X158689025Y-100815864D01*
X158659162Y-100804847D01*
X158659159Y-100804846D01*
X158659156Y-100804845D01*
X158659153Y-100804844D01*
X158659148Y-100804843D01*
X158533855Y-100784999D01*
X158533849Y-100784999D01*
X157971687Y-100784999D01*
X157961473Y-100784600D01*
X157877395Y-100784600D01*
X157855651Y-100775594D01*
X157846645Y-100753850D01*
X157846667Y-100752679D01*
X157914207Y-98979745D01*
X157914263Y-98973556D01*
X157914263Y-98973555D01*
X157914003Y-98957876D01*
X157888731Y-98848487D01*
X157879310Y-98826920D01*
X157873363Y-98814119D01*
X157850866Y-98784082D01*
X157806060Y-98724258D01*
X157796698Y-98718411D01*
X157783028Y-98699253D01*
X157782241Y-98692051D01*
X157789715Y-97909800D01*
X157798929Y-97888145D01*
X157819795Y-97879352D01*
X158710000Y-97860000D01*
X159128462Y-97860000D01*
X159150206Y-97869006D01*
G37*
%TD.AperFunction*%
%TD*%
%TA.AperFunction,Conductor*%
%TO.N,GND*%
G36*
X130505594Y-109049106D02*
G01*
X130514600Y-109070850D01*
X130514600Y-110886350D01*
X130505594Y-110908094D01*
X130483850Y-110917100D01*
X128518350Y-110917100D01*
X128496606Y-110908094D01*
X128487600Y-110886350D01*
X128487600Y-109070850D01*
X128496606Y-109049106D01*
X128518350Y-109040100D01*
X130483850Y-109040100D01*
X130505594Y-109049106D01*
G37*
%TD.AperFunction*%
%TD*%
%TA.AperFunction,Conductor*%
%TO.N,V+*%
G36*
X135864600Y-105579900D02*
G01*
X135864600Y-105579901D01*
X135864600Y-108436350D01*
X135855594Y-108458094D01*
X135833850Y-108467100D01*
X131137600Y-108467100D01*
X131137600Y-104840100D01*
X135864600Y-104840100D01*
X135864600Y-105579900D01*
G37*
%TD.AperFunction*%
%TD*%
%TA.AperFunction,Conductor*%
%TO.N,GND*%
G36*
X168405594Y-109099106D02*
G01*
X168414600Y-109120850D01*
X168414600Y-110886350D01*
X168405594Y-110908094D01*
X168383850Y-110917100D01*
X166468350Y-110917100D01*
X166446606Y-110908094D01*
X166437600Y-110886350D01*
X166437600Y-109120850D01*
X166446606Y-109099106D01*
X166468350Y-109090100D01*
X168383850Y-109090100D01*
X168405594Y-109099106D01*
G37*
%TD.AperFunction*%
%TD*%
M02*
