%TF.GenerationSoftware,KiCad,Pcbnew,7.0.6*%
%TF.CreationDate,2023-08-06T04:21:23+10:00*%
%TF.ProjectId,controller,636f6e74-726f-46c6-9c65-722e6b696361,rev?*%
%TF.SameCoordinates,Original*%
%TF.FileFunction,Soldermask,Top*%
%TF.FilePolarity,Negative*%
%FSLAX46Y46*%
G04 Gerber Fmt 4.6, Leading zero omitted, Abs format (unit mm)*
G04 Created by KiCad (PCBNEW 7.0.6) date 2023-08-06 04:21:23*
%MOMM*%
%LPD*%
G01*
G04 APERTURE LIST*
G04 Aperture macros list*
%AMRoundRect*
0 Rectangle with rounded corners*
0 $1 Rounding radius*
0 $2 $3 $4 $5 $6 $7 $8 $9 X,Y pos of 4 corners*
0 Add a 4 corners polygon primitive as box body*
4,1,4,$2,$3,$4,$5,$6,$7,$8,$9,$2,$3,0*
0 Add four circle primitives for the rounded corners*
1,1,$1+$1,$2,$3*
1,1,$1+$1,$4,$5*
1,1,$1+$1,$6,$7*
1,1,$1+$1,$8,$9*
0 Add four rect primitives between the rounded corners*
20,1,$1+$1,$2,$3,$4,$5,0*
20,1,$1+$1,$4,$5,$6,$7,0*
20,1,$1+$1,$6,$7,$8,$9,0*
20,1,$1+$1,$8,$9,$2,$3,0*%
G04 Aperture macros list end*
%ADD10R,0.700000X1.550000*%
%ADD11R,0.850000X0.300000*%
%ADD12R,0.300000X0.850000*%
%ADD13R,4.100000X4.100000*%
%ADD14R,2.100000X1.550000*%
%ADD15RoundRect,0.050800X-0.800000X0.450000X-0.800000X-0.450000X0.800000X-0.450000X0.800000X0.450000X0*%
%ADD16RoundRect,0.050800X-0.250000X-0.300000X0.250000X-0.300000X0.250000X0.300000X-0.250000X0.300000X0*%
%ADD17RoundRect,0.050800X-0.300000X0.250000X-0.300000X-0.250000X0.300000X-0.250000X0.300000X0.250000X0*%
%ADD18RoundRect,0.050800X0.450000X0.400000X-0.450000X0.400000X-0.450000X-0.400000X0.450000X-0.400000X0*%
%ADD19C,1.151600*%
%ADD20RoundRect,0.050800X0.250000X0.300000X-0.250000X0.300000X-0.250000X-0.300000X0.250000X-0.300000X0*%
%ADD21C,4.700000*%
%ADD22C,3.101600*%
%ADD23RoundRect,0.050800X0.300000X-0.250000X0.300000X0.250000X-0.300000X0.250000X-0.300000X-0.250000X0*%
%ADD24RoundRect,0.050800X-1.000000X0.800000X-1.000000X-0.800000X1.000000X-0.800000X1.000000X0.800000X0*%
%ADD25RoundRect,0.140000X-0.140000X-0.170000X0.140000X-0.170000X0.140000X0.170000X-0.140000X0.170000X0*%
%ADD26RoundRect,0.050800X-0.210000X0.275000X-0.210000X-0.275000X0.210000X-0.275000X0.210000X0.275000X0*%
%ADD27RoundRect,0.250000X-0.650000X0.325000X-0.650000X-0.325000X0.650000X-0.325000X0.650000X0.325000X0*%
%ADD28RoundRect,0.050800X-0.400000X0.400000X-0.400000X-0.400000X0.400000X-0.400000X0.400000X0.400000X0*%
%ADD29RoundRect,0.050800X0.450000X0.800000X-0.450000X0.800000X-0.450000X-0.800000X0.450000X-0.800000X0*%
%ADD30C,1.976600*%
%ADD31RoundRect,0.050800X0.800000X-0.450000X0.800000X0.450000X-0.800000X0.450000X-0.800000X-0.450000X0*%
%ADD32RoundRect,0.050800X-0.300000X-0.450000X0.300000X-0.450000X0.300000X0.450000X-0.300000X0.450000X0*%
%ADD33RoundRect,0.050800X-0.425000X-0.725000X0.425000X-0.725000X0.425000X0.725000X-0.425000X0.725000X0*%
%ADD34RoundRect,0.050800X-0.425000X-0.550000X0.425000X-0.550000X0.425000X0.550000X-0.425000X0.550000X0*%
%ADD35RoundRect,0.050800X-2.350000X-1.900000X2.350000X-1.900000X2.350000X1.900000X-2.350000X1.900000X0*%
%ADD36RoundRect,0.050800X-0.350000X-0.700000X0.350000X-0.700000X0.350000X0.700000X-0.350000X0.700000X0*%
%ADD37RoundRect,0.050800X-0.550000X-0.950000X0.550000X-0.950000X0.550000X0.950000X-0.550000X0.950000X0*%
%ADD38RoundRect,0.218750X0.218750X0.381250X-0.218750X0.381250X-0.218750X-0.381250X0.218750X-0.381250X0*%
%ADD39RoundRect,0.050800X0.800000X1.000000X-0.800000X1.000000X-0.800000X-1.000000X0.800000X-1.000000X0*%
%ADD40RoundRect,0.050800X-0.450000X-0.800000X0.450000X-0.800000X0.450000X0.800000X-0.450000X0.800000X0*%
%ADD41R,1.550000X0.600000*%
%ADD42R,2.600000X3.100000*%
%ADD43RoundRect,0.050800X0.210000X-0.275000X0.210000X0.275000X-0.210000X0.275000X-0.210000X-0.275000X0*%
%ADD44RoundRect,0.050800X0.425000X0.725000X-0.425000X0.725000X-0.425000X-0.725000X0.425000X-0.725000X0*%
%ADD45RoundRect,0.050800X0.425000X0.550000X-0.425000X0.550000X-0.425000X-0.550000X0.425000X-0.550000X0*%
%ADD46RoundRect,0.050800X2.350000X1.900000X-2.350000X1.900000X-2.350000X-1.900000X2.350000X-1.900000X0*%
%ADD47RoundRect,0.200000X0.275000X-0.200000X0.275000X0.200000X-0.275000X0.200000X-0.275000X-0.200000X0*%
%ADD48RoundRect,0.050800X-0.700000X0.350000X-0.700000X-0.350000X0.700000X-0.350000X0.700000X0.350000X0*%
%ADD49RoundRect,0.050800X-0.950000X0.550000X-0.950000X-0.550000X0.950000X-0.550000X0.950000X0.550000X0*%
%ADD50RoundRect,0.050800X-0.650000X0.350000X-0.650000X-0.350000X0.650000X-0.350000X0.650000X0.350000X0*%
%ADD51RoundRect,0.050800X-0.275000X-0.210000X0.275000X-0.210000X0.275000X0.210000X-0.275000X0.210000X0*%
G04 APERTURE END LIST*
D10*
%TO.C,IC3*%
X147480000Y-100460000D03*
X148750000Y-100460000D03*
X150020000Y-100460000D03*
X151290000Y-100460000D03*
X151290000Y-95010000D03*
X150020000Y-95010000D03*
X148750000Y-95010000D03*
X147480000Y-95010000D03*
%TD*%
D11*
%TO.C,IC2*%
X151990000Y-83100000D03*
X151990000Y-83600000D03*
X151990000Y-84100000D03*
X151990000Y-84600000D03*
X151990000Y-85100000D03*
X151990000Y-85600000D03*
X151990000Y-86100000D03*
X151990000Y-86600000D03*
X151990000Y-87100000D03*
X151990000Y-87600000D03*
X151990000Y-88100000D03*
X151990000Y-88600000D03*
X151990000Y-89100000D03*
X151990000Y-89600000D03*
X151990000Y-90100000D03*
X151990000Y-90600000D03*
D12*
X152690000Y-91300000D03*
X153190000Y-91300000D03*
X153690000Y-91300000D03*
X154190000Y-91300000D03*
X154690000Y-91300000D03*
X155190000Y-91300000D03*
X155690000Y-91300000D03*
X156190000Y-91300000D03*
X156690000Y-91300000D03*
X157190000Y-91300000D03*
X157690000Y-91300000D03*
X158190000Y-91300000D03*
X158690000Y-91300000D03*
X159190000Y-91300000D03*
X159690000Y-91300000D03*
X160190000Y-91300000D03*
D11*
X160890000Y-90600000D03*
X160890000Y-90100000D03*
X160890000Y-89600000D03*
X160890000Y-89100000D03*
X160890000Y-88600000D03*
X160890000Y-88100000D03*
X160890000Y-87600000D03*
X160890000Y-87100000D03*
X160890000Y-86600000D03*
X160890000Y-86100000D03*
X160890000Y-85600000D03*
X160890000Y-85100000D03*
X160890000Y-84600000D03*
X160890000Y-84100000D03*
X160890000Y-83600000D03*
X160890000Y-83100000D03*
D12*
X160190000Y-82400000D03*
X159690000Y-82400000D03*
X159190000Y-82400000D03*
X158690000Y-82400000D03*
X158190000Y-82400000D03*
X157690000Y-82400000D03*
X157190000Y-82400000D03*
X156690000Y-82400000D03*
X156190000Y-82400000D03*
X155690000Y-82400000D03*
X155190000Y-82400000D03*
X154690000Y-82400000D03*
X154190000Y-82400000D03*
X153690000Y-82400000D03*
X153190000Y-82400000D03*
X152690000Y-82400000D03*
D13*
X156440000Y-86850000D03*
%TD*%
D10*
%TO.C,IC1*%
X169920000Y-97190000D03*
X168650000Y-97190000D03*
X167380000Y-97190000D03*
X166110000Y-97190000D03*
X166110000Y-102640000D03*
X167380000Y-102640000D03*
X168650000Y-102640000D03*
X169920000Y-102640000D03*
%TD*%
D14*
%TO.C,D14*%
X138470000Y-90030000D03*
X142670000Y-90030000D03*
%TD*%
D15*
%TO.C,C22*%
X132236100Y-105753600D03*
X132236100Y-102853600D03*
%TD*%
D16*
%TO.C,C18*%
X163230000Y-86700000D03*
X162130000Y-86700000D03*
%TD*%
D17*
%TO.C,C12*%
X145710000Y-97650000D03*
X145710000Y-96550000D03*
%TD*%
D18*
%TO.C,D4*%
X149501100Y-122753600D03*
X149501100Y-120853600D03*
X147501100Y-121803600D03*
%TD*%
D16*
%TO.C,R1*%
X151384000Y-121793000D03*
X150284000Y-121793000D03*
%TD*%
D19*
%TO.C,DG2*%
X157060000Y-79430000D03*
%TD*%
D20*
%TO.C,R4*%
X163180000Y-84610000D03*
X164280000Y-84610000D03*
%TD*%
D21*
%TO.C,M1*%
X128501100Y-81503600D03*
%TD*%
D20*
%TO.C,R3*%
X163050000Y-83300000D03*
X164150000Y-83300000D03*
%TD*%
D22*
%TO.C,C0*%
X163001100Y-116703600D03*
%TD*%
D20*
%TO.C,C8*%
X135251100Y-121503600D03*
X136351100Y-121503600D03*
%TD*%
D23*
%TO.C,R24*%
X155101100Y-102803600D03*
X155101100Y-103903600D03*
%TD*%
D24*
%TO.C,RB0*%
X146001100Y-103403600D03*
X146001100Y-106203600D03*
%TD*%
D15*
%TO.C,C23*%
X134701100Y-105753600D03*
X134701100Y-102853600D03*
%TD*%
D25*
%TO.C,C64*%
X149710000Y-82460000D03*
X150670000Y-82460000D03*
%TD*%
D17*
%TO.C,R8*%
X155701100Y-116153600D03*
X155701100Y-115053600D03*
%TD*%
D26*
%TO.C,D9*%
X160611100Y-100153600D03*
X160611100Y-101753600D03*
%TD*%
D27*
%TO.C,C1*%
X128450000Y-86885000D03*
X128450000Y-89835000D03*
%TD*%
D23*
%TO.C,R27*%
X161451100Y-100253600D03*
X161451100Y-101353600D03*
%TD*%
D24*
%TO.C,RC0*%
X163750000Y-103220000D03*
X163750000Y-106020000D03*
%TD*%
D28*
%TO.C,D3*%
X149301100Y-126353600D03*
X149301100Y-124853600D03*
%TD*%
D20*
%TO.C,R12*%
X148980000Y-90880000D03*
X150080000Y-90880000D03*
%TD*%
%TO.C,C55*%
X132001100Y-121153600D03*
X133101100Y-121153600D03*
%TD*%
D29*
%TO.C,C61*%
X136701100Y-103103600D03*
X139601100Y-103103600D03*
%TD*%
D23*
%TO.C,R5*%
X154230000Y-94320000D03*
X154230000Y-95420000D03*
%TD*%
D17*
%TO.C,R19*%
X127650000Y-95390000D03*
X127650000Y-94290000D03*
%TD*%
D26*
%TO.C,D12*%
X159571100Y-100643600D03*
X159571100Y-102243600D03*
%TD*%
D17*
%TO.C,R14*%
X158380000Y-95450000D03*
X158380000Y-94350000D03*
%TD*%
D16*
%TO.C,C15*%
X163210000Y-89570000D03*
X162110000Y-89570000D03*
%TD*%
D22*
%TO.C,J1*%
X159001100Y-118503600D03*
X154001100Y-118503600D03*
D30*
X162001100Y-128503600D03*
X151001100Y-128503600D03*
%TD*%
D23*
%TO.C,R26*%
X158746100Y-102003600D03*
X158746100Y-103103600D03*
%TD*%
D16*
%TO.C,C9*%
X165190000Y-80550000D03*
X164090000Y-80550000D03*
%TD*%
D23*
%TO.C,R23*%
X140590000Y-98870000D03*
X140590000Y-99970000D03*
%TD*%
D31*
%TO.C,C32*%
X129651100Y-112003600D03*
X129651100Y-114903600D03*
%TD*%
D22*
%TO.C,J2*%
X143001100Y-118503600D03*
X138001100Y-118503600D03*
D30*
X146001100Y-128503600D03*
X135001100Y-128503600D03*
%TD*%
D32*
%TO.C,C62*%
X149006100Y-105853600D03*
X147506100Y-105853600D03*
%TD*%
D17*
%TO.C,R11*%
X128800000Y-95380000D03*
X128800000Y-94280000D03*
%TD*%
D23*
%TO.C,C5*%
X136370000Y-88970000D03*
X136370000Y-90070000D03*
%TD*%
D25*
%TO.C,C19*%
X149710000Y-83470000D03*
X150670000Y-83470000D03*
%TD*%
D22*
%TO.C,B0*%
X148501100Y-116703600D03*
%TD*%
D16*
%TO.C,C10*%
X162960000Y-80560000D03*
X161860000Y-80560000D03*
%TD*%
D15*
%TO.C,C26*%
X156751100Y-105553600D03*
X156751100Y-102653600D03*
%TD*%
D26*
%TO.C,D11*%
X154251100Y-102853600D03*
X154251100Y-104453600D03*
%TD*%
D33*
%TO.C,Q3*%
X149596100Y-113453600D03*
X150866100Y-113453600D03*
X152136100Y-113453600D03*
X153406100Y-113453600D03*
D34*
X153426100Y-107753600D03*
X152138600Y-107753600D03*
X150863600Y-107753600D03*
X149576100Y-107753600D03*
D35*
X151501100Y-110153600D03*
%TD*%
D15*
%TO.C,C28*%
X129641100Y-105763600D03*
X129641100Y-102863600D03*
%TD*%
D26*
%TO.C,D8*%
X144931800Y-99161800D03*
X144931800Y-100761800D03*
%TD*%
D36*
%TO.C,SWD0*%
X143651100Y-83803600D03*
X142151100Y-83803600D03*
X140651100Y-83803600D03*
X139151100Y-83803600D03*
X137651100Y-83803600D03*
X136151100Y-83803600D03*
D37*
X145601100Y-80053600D03*
X134201100Y-80053600D03*
%TD*%
D15*
%TO.C,C35*%
X163731100Y-100538600D03*
X163731100Y-97638600D03*
%TD*%
D17*
%TO.C,R15*%
X159590000Y-95460000D03*
X159590000Y-94360000D03*
%TD*%
D38*
%TO.C,L1*%
X134970000Y-89800000D03*
X132845000Y-89800000D03*
%TD*%
D19*
%TO.C,TEMP1*%
X147490000Y-81570000D03*
%TD*%
%TO.C,DA0*%
X140301100Y-115503600D03*
%TD*%
D25*
%TO.C,C38*%
X149720000Y-81430000D03*
X150680000Y-81430000D03*
%TD*%
D16*
%TO.C,C57*%
X154120000Y-93030000D03*
X153020000Y-93030000D03*
%TD*%
D26*
%TO.C,D1*%
X141946100Y-102018600D03*
X141946100Y-103618600D03*
%TD*%
D39*
%TO.C,RA0*%
X142261100Y-105733600D03*
X139461100Y-105733600D03*
%TD*%
D19*
%TO.C,DBG1*%
X147400000Y-83250000D03*
%TD*%
D29*
%TO.C,C33*%
X166180000Y-105270000D03*
X169080000Y-105270000D03*
%TD*%
D20*
%TO.C,R13*%
X148980000Y-89590000D03*
X150080000Y-89590000D03*
%TD*%
D15*
%TO.C,C27*%
X153120000Y-100220000D03*
X153120000Y-97320000D03*
%TD*%
D26*
%TO.C,D10*%
X135951100Y-99803600D03*
X135951100Y-101403600D03*
%TD*%
D23*
%TO.C,R25*%
X144111800Y-99561800D03*
X144111800Y-100661800D03*
%TD*%
D40*
%TO.C,C34*%
X158440000Y-99990000D03*
X155540000Y-99990000D03*
%TD*%
D17*
%TO.C,R6*%
X153000000Y-95420000D03*
X153000000Y-94320000D03*
%TD*%
D33*
%TO.C,Q5*%
X155596100Y-113453600D03*
X156866100Y-113453600D03*
X158136100Y-113453600D03*
X159406100Y-113453600D03*
D34*
X159426100Y-107753600D03*
X158138600Y-107753600D03*
X156863600Y-107753600D03*
X155576100Y-107753600D03*
D35*
X157501100Y-110153600D03*
%TD*%
D21*
%TO.C,M2*%
X168501100Y-81503600D03*
%TD*%
D19*
%TO.C,DC0*%
X158101100Y-115503600D03*
%TD*%
D16*
%TO.C,C16*%
X149430000Y-86580000D03*
X148330000Y-86580000D03*
%TD*%
%TO.C,C3*%
X158110000Y-92830000D03*
X157010000Y-92830000D03*
%TD*%
D41*
%TO.C,U1*%
X130550000Y-91615000D03*
X130550000Y-92885000D03*
X130550000Y-94155000D03*
X130550000Y-95425000D03*
X135950000Y-95425000D03*
X135950000Y-94155000D03*
X135950000Y-92885000D03*
X135950000Y-91615000D03*
D42*
X133250000Y-93520000D03*
%TD*%
D16*
%TO.C,C17*%
X163230000Y-88160000D03*
X162130000Y-88160000D03*
%TD*%
D31*
%TO.C,C31*%
X132001100Y-98303600D03*
X132001100Y-101203600D03*
%TD*%
D23*
%TO.C,C13*%
X153301100Y-115053600D03*
X153301100Y-116153600D03*
%TD*%
D31*
%TO.C,C37*%
X167501100Y-112003600D03*
X167501100Y-114903600D03*
%TD*%
D22*
%TO.C,A0*%
X134001100Y-116703600D03*
%TD*%
D33*
%TO.C,Q1*%
X131596100Y-113453600D03*
X132866100Y-113453600D03*
X134136100Y-113453600D03*
X135406100Y-113453600D03*
D34*
X135426100Y-107753600D03*
X134138600Y-107753600D03*
X132863600Y-107753600D03*
X131576100Y-107753600D03*
D35*
X133501100Y-110153600D03*
%TD*%
D43*
%TO.C,D5*%
X144001100Y-106653600D03*
X144001100Y-105053600D03*
%TD*%
D19*
%TO.C,TEMP2*%
X162701100Y-79303600D03*
%TD*%
D44*
%TO.C,Q2*%
X141406100Y-107853600D03*
X140136100Y-107853600D03*
X138866100Y-107853600D03*
X137596100Y-107853600D03*
D45*
X137576100Y-113553600D03*
X138863600Y-113553600D03*
X140138600Y-113553600D03*
X141426100Y-113553600D03*
D46*
X139501100Y-111153600D03*
%TD*%
D20*
%TO.C,R10*%
X132001100Y-120003600D03*
X133101100Y-120003600D03*
%TD*%
D47*
%TO.C,R18*%
X128670000Y-93000000D03*
X128670000Y-91350000D03*
%TD*%
D29*
%TO.C,C63*%
X158601100Y-105253600D03*
X161501100Y-105253600D03*
%TD*%
D17*
%TO.C,R17*%
X157160000Y-95460000D03*
X157160000Y-94360000D03*
%TD*%
D48*
%TO.C,ABS0*%
X166131100Y-92053600D03*
X166131100Y-90553600D03*
X166131100Y-89053600D03*
X166131100Y-87553600D03*
D49*
X169881100Y-94003600D03*
X169881100Y-85603600D03*
%TD*%
D15*
%TO.C,C24*%
X150301100Y-105553600D03*
X150301100Y-102653600D03*
%TD*%
D23*
%TO.C,R22*%
X136801100Y-99903600D03*
X136801100Y-101003600D03*
%TD*%
D28*
%TO.C,D2*%
X147701100Y-126353600D03*
X147701100Y-124853600D03*
%TD*%
D21*
%TO.C,M3*%
X128501100Y-119503600D03*
%TD*%
D20*
%TO.C,R2*%
X145280200Y-121767600D03*
X146380200Y-121767600D03*
%TD*%
D44*
%TO.C,Q6*%
X165406100Y-107853600D03*
X164136100Y-107853600D03*
X162866100Y-107853600D03*
X161596100Y-107853600D03*
D45*
X161576100Y-113553600D03*
X162863600Y-113553600D03*
X164138600Y-113553600D03*
X165426100Y-113553600D03*
D46*
X163501100Y-111153600D03*
%TD*%
D44*
%TO.C,Q4*%
X147406100Y-107853600D03*
X146136100Y-107853600D03*
X144866100Y-107853600D03*
X143596100Y-107853600D03*
D45*
X143576100Y-113553600D03*
X144863600Y-113553600D03*
X146138600Y-113553600D03*
X147426100Y-113553600D03*
D46*
X145501100Y-111153600D03*
%TD*%
D20*
%TO.C,R7*%
X164051100Y-79303600D03*
X165151100Y-79303600D03*
%TD*%
D19*
%TO.C,DBG2*%
X147310000Y-84750000D03*
%TD*%
D31*
%TO.C,C36*%
X167501100Y-107653600D03*
X167501100Y-110553600D03*
%TD*%
D19*
%TO.C,D33*%
X128001100Y-85403600D03*
%TD*%
D17*
%TO.C,C11*%
X164701100Y-96303600D03*
X164701100Y-95203600D03*
%TD*%
D31*
%TO.C,C30*%
X129651100Y-107653600D03*
X129651100Y-110553600D03*
%TD*%
D27*
%TO.C,C2*%
X130840000Y-86875000D03*
X130840000Y-89825000D03*
%TD*%
D50*
%TO.C,C4*%
X138070000Y-94970000D03*
X138070000Y-93070000D03*
%TD*%
D51*
%TO.C,D6*%
X160501100Y-103203600D03*
X162101100Y-103203600D03*
%TD*%
D19*
%TO.C,DAC0*%
X150280000Y-92180000D03*
%TD*%
D26*
%TO.C,D7*%
X139745000Y-98670000D03*
X139745000Y-100270000D03*
%TD*%
D17*
%TO.C,R16*%
X155930000Y-95460000D03*
X155930000Y-94360000D03*
%TD*%
D21*
%TO.C,M4*%
X168501100Y-119503600D03*
%TD*%
D15*
%TO.C,C25*%
X152601100Y-105553600D03*
X152601100Y-102653600D03*
%TD*%
D16*
%TO.C,C65*%
X162030000Y-92890000D03*
X160930000Y-92890000D03*
%TD*%
D19*
%TO.C,DB0*%
X145601100Y-115503600D03*
%TD*%
D23*
%TO.C,R9*%
X154501100Y-115053600D03*
X154501100Y-116153600D03*
%TD*%
D31*
%TO.C,C29*%
X129641100Y-98303600D03*
X129641100Y-101203600D03*
%TD*%
M02*
