M48
; DRILL file {KiCad 7.0.6} date Sun Aug  6 04:52:03 2023
; FORMAT={-:-/ absolute / inch / decimal}
; #@! TF.CreationDate,2023-08-06T04:52:03+10:00
; #@! TF.GenerationSoftware,Kicad,Pcbnew,7.0.6
; #@! TF.FileFunction,Plated,1,4,PTH
FMAT,2
INCH
; #@! TA.AperFunction,Plated,PTH,ViaDrill
T1C0.0118
; #@! TA.AperFunction,Plated,PTH,ComponentDrill
T2C0.0118
; #@! TA.AperFunction,Plated,PTH,ViaDrill
T3C0.0120
; #@! TA.AperFunction,Plated,PTH,ViaDrill
T4C0.0138
; #@! TA.AperFunction,Plated,PTH,ViaDrill
T5C0.0236
; #@! TA.AperFunction,Plated,PTH,ComponentDrill
T6C0.0276
; #@! TA.AperFunction,Plated,PTH,ComponentDrill
T7C0.0492
; #@! TA.AperFunction,Plated,PTH,ComponentDrill
T8C0.0787
; #@! TA.AperFunction,Plated,PTH,ComponentDrill
T9C0.1063
%
G90
G05
T1
X4.9639Y-3.6064
X5.0492Y-3.5821
X5.1559Y-3.4898
X5.4591Y-3.9807
X5.4618Y-3.4893
X5.5886Y-3.5276
X5.5886Y-3.5618
X5.6169Y-3.5445
X5.6453Y-3.5268
X5.6461Y-3.563
X5.72Y-4.886
X5.8016Y-3.8453
X5.802Y-3.4102
X5.8063Y-3.6843
X5.8398Y-4.2969
X5.8563Y-3.6839
X5.8571Y-3.2287
X5.8618Y-3.2937
X5.9063Y-3.6909
X5.957Y-3.6857
X5.9744Y-3.2307
X6.0106Y-3.7933
X6.0218Y-3.5603
X6.0256Y-3.3587
X6.0605Y-3.5604
X6.0882Y-4.4713
X6.0969Y-3.4685
X6.0982Y-3.3516
X6.102Y-3.4228
X6.1083Y-3.315
X6.1086Y-3.6408
X6.1169Y-3.2094
X6.1591Y-3.3516
X6.1602Y-3.4224
X6.1602Y-3.4685
X6.1742Y-3.2913
X6.187Y-3.5555
X6.2126Y-3.6283
X6.2162Y-3.3582
X6.2209Y-3.4685
X6.2252Y-3.3886
X6.2303Y-3.2
X6.2701Y-3.4583
X6.3881Y-4.3272
X6.3937Y-3.3236
X6.4115Y-3.5729
X6.4256Y-3.6555
X6.4573Y-3.7006
X6.4681Y-4.1173
X6.5067Y-3.2024
X6.5146Y-3.7311
X6.5386Y-3.4071
X6.5705Y-3.7331
X6.598Y-4.095
X6.6315Y-4.095
X6.6898Y-4.0913
T2
X5.2224Y-3.611
X5.2224Y-3.6583
X5.2224Y-3.7094
X5.2224Y-3.7528
X5.2697Y-3.611
X5.2697Y-3.6583
X5.2697Y-3.7094
X5.2697Y-3.7528
T3
X4.9922Y-3.449
X5.0237Y-3.9017
X5.0237Y-3.9312
X5.0237Y-3.9608
X5.0237Y-3.9903
X5.0237Y-4.0198
X5.0237Y-4.0494
X5.0237Y-4.0789
X5.0237Y-4.1084
X5.0237Y-4.1379
X5.0237Y-4.1675
X5.0237Y-4.197
X5.0237Y-4.2265
X5.0237Y-4.256
X5.0237Y-4.2856
X5.0237Y-4.3151
X5.0237Y-4.3446
X5.0237Y-4.3742
X5.0237Y-4.4037
X5.0237Y-4.4332
X5.0237Y-4.4627
X5.0512Y-4.4431
X5.055Y-4.195
X5.0552Y-4.2698
X5.0689Y-3.9017
X5.0689Y-3.9431
X5.0699Y-4.1208
X5.0709Y-4.0887
X5.0768Y-4.4431
X5.0788Y-4.195
X5.0788Y-4.319
X5.0788Y-4.4923
X5.0808Y-4.2698
X5.0896Y-4.1346
X5.0906Y-3.9549
X5.0926Y-3.9017
X5.0926Y-4.0789
X5.102Y-4.195
X5.1024Y-4.4431
X5.103Y-4.319
X5.1044Y-4.4923
X5.1063Y-4.2698
X5.1093Y-4.1208
X5.1122Y-3.9431
X5.1142Y-4.0868
X5.117Y-3.902
X5.126Y-4.195
X5.126Y-4.319
X5.128Y-4.4431
X5.128Y-4.4923
X5.129Y-4.1346
X5.1319Y-4.2698
X5.1339Y-3.9549
X5.1359Y-4.0789
X5.1398Y-3.9017
X5.1496Y-4.2088
X5.1556Y-3.9431
X5.1575Y-4.0887
X5.1634Y-3.9017
X5.171Y-4.194
X5.1772Y-3.9549
X5.1792Y-4.0789
X5.1871Y-3.9017
X5.189Y-4.2088
X5.1989Y-3.9431
X5.2008Y-4.0887
X5.2087Y-4.195
X5.2107Y-3.9017
X5.2205Y-3.9549
X5.2225Y-4.0789
X5.2284Y-4.2088
X5.2422Y-3.9431
X5.244Y-4.09
X5.2481Y-4.195
X5.2579Y-4.0159
X5.2658Y-4.0789
X5.2678Y-4.2088
X5.2737Y-3.9982
X5.2874Y-4.195
X5.2894Y-4.0887
X5.2914Y-3.9411
X5.2914Y-3.9686
X5.2914Y-4.0159
X5.2953Y-4.7836
X5.3071Y-4.2088
X5.311Y-3.999
X5.3111Y-4.0789
X5.3189Y-3.2954
X5.3209Y-3.9411
X5.3209Y-3.9686
X5.3268Y-4.0159
X5.3268Y-4.195
X5.3977Y-4.7836
X5.412Y-3.6362
X5.4201Y-3.7083
X5.4205Y-3.7693
X5.4336Y-3.6244
X5.4512Y-3.7079
X5.4528Y-3.7705
X5.4553Y-3.6381
X5.4748Y-3.6248
X5.4748Y-3.6587
X5.504Y-3.2974
X5.6182Y-4.0809
X5.6182Y-4.1045
X5.6437Y-4.0809
X5.6437Y-4.1045
X5.6437Y-4.1793
X5.644Y-4.155
X5.7185Y-4.1183
X5.7422Y-4.1183
X5.7481Y-4.0257
X5.761Y-4.0051
X5.7717Y-4.0257
X5.7973Y-4.0257
X5.8032Y-4.0474
X5.8032Y-4.071
X5.8859Y-4.2088
X5.8917Y-4.0846
X5.9115Y-4.2088
X5.912Y-4.185
X5.9177Y-4.0858
X5.9371Y-4.1852
X5.9371Y-4.2088
X5.9445Y-4.0862
X5.9626Y-4.1852
X5.9626Y-4.2088
X5.9685Y-4.6419
X5.9878Y-4.087
X5.9882Y-4.1852
X5.9882Y-4.2088
X6.0138Y-4.1852
X6.0138Y-4.2088
X6.0142Y-4.0866
X6.0283Y-3.9165
X6.039Y-4.0874
X6.0394Y-4.1852
X6.0394Y-4.2088
X6.1201Y-4.1852
X6.1201Y-4.2088
X6.1319Y-3.9962
X6.1457Y-4.1852
X6.1457Y-4.2088
X6.1516Y-4.012
X6.161Y-3.9268
X6.161Y-3.9563
X6.171Y-4.209
X6.1713Y-4.1852
X6.1717Y-4.089
X6.1733Y-3.9962
X6.1886Y-3.9268
X6.1886Y-3.9563
X6.193Y-4.012
X6.1969Y-4.1852
X6.1969Y-4.2088
X6.1984Y-4.0902
X6.2146Y-3.9962
X6.2225Y-4.2088
X6.226Y-3.874
X6.2481Y-4.2088
X6.2524Y-3.8744
X6.4016Y-3.8368
X6.4252Y-4.0198
X6.4292Y-3.8742
X6.431Y-3.915
X6.439Y-4.0001
X6.4508Y-3.9273
X6.4528Y-4.0198
X6.4548Y-3.8742
X6.4666Y-4.0001
X6.4725Y-3.9155
X6.4784Y-4.0198
X6.491Y-3.957
X6.5069Y-3.7761
X6.5272Y-4.0996
X6.5276Y-3.1222
X6.5563Y-4.1004
X6.563Y-4.4824
X6.565Y-4.2777
X6.567Y-4.319
X6.5772Y-4.1283
X6.5788Y-4.1635
X6.5827Y-4.4942
X6.5847Y-4.4391
X6.5867Y-4.2659
X6.5926Y-4.319
X6.6024Y-4.4824
X6.6044Y-4.449
X6.6063Y-4.2777
X6.6182Y-4.319
X6.6221Y-4.4942
X6.6241Y-4.4391
X6.626Y-4.2659
X6.6713Y-4.2895
X6.6713Y-4.319
X6.6713Y-4.3486
X6.6713Y-4.3801
X6.6713Y-4.4116
X6.6713Y-4.4431
T4
X5.7717Y-4.7305
X5.8504Y-4.7521
X5.8544Y-4.8112
T5
X5.4382Y-3.9323
X5.535Y-3.8461
X5.6737Y-3.8631
X6.0528Y-3.4303
X6.0996Y-4.0118
X6.2409Y-3.5555
X6.2945Y-3.5528
X6.3051Y-3.9063
X6.3528Y-3.8969
X6.3657Y-3.7343
X6.372Y-3.8004
X6.4185Y-3.6977
T6
X5.0394Y-3.3623
X5.5237Y-4.5474
X5.7323Y-4.5474
X5.7996Y-3.3366
X5.8031Y-3.2776
X5.8067Y-3.2114
X5.9165Y-3.6291
X6.1835Y-3.1272
X6.2245Y-4.5474
X6.4056Y-3.1222
T7
X5.315Y-5.0592
X5.7481Y-5.0592
X5.9449Y-5.0592
X6.378Y-5.0592
T8
X5.2756Y-4.5946
X5.4331Y-4.6655
X5.63Y-4.6655
X5.8465Y-4.5946
X6.063Y-4.6655
X6.2599Y-4.6655
X6.4174Y-4.5946
T9
X5.0591Y-3.2088
X5.0591Y-4.7049
X6.6339Y-3.2088
X6.6339Y-4.7049
T0
M30
