%TF.GenerationSoftware,KiCad,Pcbnew,7.0.6*%
%TF.CreationDate,2023-08-06T04:52:03+10:00*%
%TF.ProjectId,controller,636f6e74-726f-46c6-9c65-722e6b696361,rev?*%
%TF.SameCoordinates,Original*%
%TF.FileFunction,Copper,L2,Inr*%
%TF.FilePolarity,Positive*%
%FSLAX46Y46*%
G04 Gerber Fmt 4.6, Leading zero omitted, Abs format (unit mm)*
G04 Created by KiCad (PCBNEW 7.0.6) date 2023-08-06 04:52:03*
%MOMM*%
%LPD*%
G01*
G04 APERTURE LIST*
%TA.AperFunction,ComponentPad*%
%ADD10C,1.050000*%
%TD*%
%TA.AperFunction,ComponentPad*%
%ADD11C,4.700000*%
%TD*%
%TA.AperFunction,ComponentPad*%
%ADD12C,3.000000*%
%TD*%
%TA.AperFunction,ComponentPad*%
%ADD13C,1.875000*%
%TD*%
%TA.AperFunction,ComponentPad*%
%ADD14C,0.600000*%
%TD*%
%TA.AperFunction,ViaPad*%
%ADD15C,0.600000*%
%TD*%
%TA.AperFunction,ViaPad*%
%ADD16C,0.508000*%
%TD*%
%TA.AperFunction,ViaPad*%
%ADD17C,0.800000*%
%TD*%
%TA.AperFunction,ViaPad*%
%ADD18C,0.553200*%
%TD*%
G04 APERTURE END LIST*
D10*
%TO.N,GND*%
%TO.C,DG2*%
X157060000Y-79430000D03*
%TD*%
D11*
%TO.N,N/C*%
%TO.C,M1*%
X128501100Y-81503600D03*
%TD*%
D12*
%TO.N,/SHC*%
%TO.C,C0*%
X163001100Y-116703600D03*
%TD*%
%TO.N,V+*%
%TO.C,J1*%
X159001100Y-118503600D03*
%TO.N,GND*%
X154001100Y-118503600D03*
D13*
%TO.N,N/C*%
X162001100Y-128503600D03*
X151001100Y-128503600D03*
%TD*%
D12*
%TO.N,V+*%
%TO.C,J2*%
X143001100Y-118503600D03*
%TO.N,GND*%
X138001100Y-118503600D03*
D13*
%TO.N,N/C*%
X146001100Y-128503600D03*
X135001100Y-128503600D03*
%TD*%
D12*
%TO.N,/SHB*%
%TO.C,B0*%
X148501100Y-116703600D03*
%TD*%
D10*
%TO.N,+3V3*%
%TO.C,TEMP1*%
X147490000Y-81570000D03*
%TD*%
%TO.N,/SHA*%
%TO.C,DA0*%
X140301100Y-115503600D03*
%TD*%
%TO.N,/DEBUG1*%
%TO.C,DBG1*%
X147400000Y-83250000D03*
%TD*%
D11*
%TO.N,N/C*%
%TO.C,M2*%
X168501100Y-81503600D03*
%TD*%
D10*
%TO.N,/SHC*%
%TO.C,DC0*%
X158101100Y-115503600D03*
%TD*%
D14*
%TO.N,GND*%
%TO.C,U1*%
X132650000Y-91720000D03*
X132650000Y-92920000D03*
X132650000Y-94220000D03*
X132650000Y-95320000D03*
X133850000Y-91720000D03*
X133850000Y-92920000D03*
X133850000Y-94220000D03*
X133850000Y-95320000D03*
%TD*%
D12*
%TO.N,/SHA*%
%TO.C,A0*%
X134001100Y-116703600D03*
%TD*%
D10*
%TO.N,/VTEMP_MOT*%
%TO.C,TEMP2*%
X162701100Y-79303600D03*
%TD*%
D11*
%TO.N,N/C*%
%TO.C,M3*%
X128501100Y-119503600D03*
%TD*%
D10*
%TO.N,/DEBUG2*%
%TO.C,DBG2*%
X147310000Y-84750000D03*
%TD*%
%TO.N,+3V3*%
%TO.C,D33*%
X128001100Y-85403600D03*
%TD*%
%TO.N,/DAC*%
%TO.C,DAC0*%
X150280000Y-92180000D03*
%TD*%
D11*
%TO.N,N/C*%
%TO.C,M4*%
X168501100Y-119503600D03*
%TD*%
D10*
%TO.N,/SHB*%
%TO.C,DB0*%
X145601100Y-115503600D03*
%TD*%
D15*
%TO.N,+3V3*%
X162400000Y-84420000D03*
X147360000Y-97670000D03*
D16*
X165276100Y-95913600D03*
D15*
X155150000Y-84200000D03*
D16*
X134501100Y-121503600D03*
D15*
X157150000Y-90310000D03*
X159260000Y-87840000D03*
X145288000Y-124104400D03*
X130960000Y-88640000D03*
X151750000Y-82060000D03*
X126084000Y-91603600D03*
X165270000Y-81340000D03*
D16*
X135101100Y-83703600D03*
D15*
%TO.N,/SHA*%
X153935776Y-90433364D03*
X138660000Y-101110000D03*
%TO.N,/SHB*%
X148330000Y-109140000D03*
X163209192Y-92849192D03*
%TO.N,/SHC*%
X164015000Y-93995000D03*
X162258886Y-109911386D03*
%TO.N,/VTEMP_FET*%
X155370000Y-81520000D03*
X154640000Y-113570000D03*
%TO.N,/AS5047_SDA*%
X153050736Y-85310734D03*
X150020000Y-93748900D03*
D16*
%TO.N,V+*%
X150151100Y-106903600D03*
X153401100Y-106903600D03*
X137463600Y-92358900D03*
X132301100Y-106553600D03*
X133801100Y-106903600D03*
X129701100Y-108453600D03*
X134801100Y-106903600D03*
X166530000Y-104150000D03*
X150801100Y-106903600D03*
X149501100Y-106903600D03*
X127601100Y-105853600D03*
X131751100Y-99103600D03*
X165790000Y-104130000D03*
X127601100Y-105103600D03*
X153120000Y-99480000D03*
X134301100Y-106553600D03*
X127601100Y-102103600D03*
X129590800Y-106553000D03*
X128301100Y-112853600D03*
X131343400Y-106527600D03*
X127601100Y-108103600D03*
X166751100Y-108653600D03*
X127601100Y-103603600D03*
X158140000Y-98400000D03*
X163347400Y-99441000D03*
X152751100Y-106303600D03*
X129001100Y-106553600D03*
X151451100Y-106303600D03*
X128751100Y-99103600D03*
X128951100Y-112853600D03*
X127601100Y-99853600D03*
X129351100Y-99103600D03*
X132351100Y-99103600D03*
X167251100Y-112753600D03*
X128776100Y-104668600D03*
X157401100Y-106903600D03*
X169451100Y-109703600D03*
X127601100Y-108853600D03*
X157401100Y-106303600D03*
X127601100Y-111853600D03*
X139060000Y-92070000D03*
X152101100Y-106303600D03*
X168301100Y-108353600D03*
X163851100Y-99753600D03*
X130351100Y-108453600D03*
X158701100Y-106903600D03*
X156751100Y-106303600D03*
X164401100Y-99453600D03*
X127601100Y-102853600D03*
X133301100Y-106553600D03*
X169451100Y-112853600D03*
X130276100Y-105018600D03*
X150801100Y-106303600D03*
X156101100Y-106903600D03*
X128401100Y-108453600D03*
X150164800Y-106299000D03*
X127601100Y-111103600D03*
X138013600Y-92058900D03*
X152101100Y-106903600D03*
X158810000Y-98410000D03*
X127601100Y-107353600D03*
X127601100Y-100603600D03*
X127601100Y-99103600D03*
X168251100Y-112753600D03*
X130801100Y-106903600D03*
X129776100Y-104668600D03*
X138563600Y-92408900D03*
X167751100Y-113003600D03*
X132801100Y-106903600D03*
X127601100Y-109603600D03*
X169451100Y-110453600D03*
X167101102Y-105753599D03*
X127601100Y-106603600D03*
X155451100Y-106903600D03*
X127601100Y-104353600D03*
X153401100Y-106303600D03*
X139060000Y-92930000D03*
X151451100Y-106903600D03*
X169451100Y-112053600D03*
X129276100Y-105018600D03*
X167060000Y-104860000D03*
X131151100Y-99103600D03*
X135301100Y-106553600D03*
X164871400Y-100507800D03*
X131801100Y-106903600D03*
X129051100Y-108453600D03*
X167801100Y-108653600D03*
X129971800Y-99110800D03*
X167301100Y-108353600D03*
X156743400Y-106908600D03*
X156101100Y-106303600D03*
X127601100Y-110353600D03*
X158051100Y-106903600D03*
X130251100Y-112853600D03*
X127601100Y-113353600D03*
X169451100Y-111253600D03*
X130200400Y-106553000D03*
X129601100Y-112853600D03*
X152751100Y-106903600D03*
X155451100Y-106303600D03*
X130551100Y-99103600D03*
X127601100Y-112603600D03*
X128397000Y-106553000D03*
X127601100Y-101353600D03*
X169451100Y-108953600D03*
D17*
%TO.N,/GLA*%
X159880000Y-90240000D03*
X140589997Y-97690006D03*
%TO.N,/GLB*%
X144111808Y-98121684D03*
X158520000Y-90310000D03*
%TO.N,/GLC*%
X161850000Y-96530000D03*
X161360000Y-98980000D03*
%TO.N,/GHA*%
X138130000Y-99880000D03*
X153740000Y-87130000D03*
%TO.N,/GHB*%
X163030676Y-93921259D03*
X154930000Y-101900000D03*
%TO.N,/GHC*%
X160150000Y-99220000D03*
X161689998Y-94850000D03*
D16*
%TO.N,GND*%
X126801100Y-87603600D03*
X133751100Y-103603600D03*
X135301100Y-102003600D03*
D15*
X164290000Y-104580000D03*
D16*
X165801100Y-79303600D03*
X157440000Y-103890000D03*
X129301100Y-100453600D03*
D15*
X148770000Y-82010000D03*
D16*
X137680000Y-95740000D03*
X166801100Y-109703600D03*
D15*
X169920000Y-103920000D03*
D16*
X134899400Y-101574600D03*
X145251100Y-104603600D03*
D15*
X162852209Y-90752371D03*
D16*
X133551100Y-102003600D03*
X150310000Y-103780000D03*
X130951100Y-100153600D03*
X134901100Y-103603600D03*
X129351100Y-103603600D03*
X129901100Y-103803600D03*
X153390000Y-103820000D03*
X163951100Y-98403600D03*
D15*
X148890000Y-83660000D03*
D16*
X152760000Y-103800000D03*
D15*
X128250000Y-90984659D03*
D16*
X167451100Y-109703600D03*
X135151100Y-100103600D03*
X130451100Y-103603600D03*
X129001100Y-114103600D03*
X152090000Y-103810000D03*
X168101100Y-109703600D03*
X147401100Y-103403600D03*
X139801100Y-83753600D03*
X146001100Y-102253600D03*
D15*
X142669998Y-90029999D03*
D16*
X156251100Y-101903600D03*
X134401100Y-102003600D03*
X149650000Y-103750000D03*
X128751100Y-100153600D03*
D15*
X152670000Y-96350000D03*
D16*
X147251100Y-102253600D03*
X147401100Y-102803600D03*
X131001100Y-103853600D03*
X133197600Y-103886000D03*
D15*
X166890000Y-94820000D03*
X141950000Y-90470000D03*
D16*
X133151100Y-100153600D03*
X164551100Y-102103600D03*
D15*
X156440000Y-85131100D03*
D16*
X132601100Y-100453600D03*
D15*
X143390000Y-89580000D03*
D18*
X146601100Y-120153600D03*
D16*
X137670000Y-94190000D03*
X130251100Y-114103600D03*
X129851100Y-100153600D03*
X132651100Y-103603600D03*
X151601100Y-117903600D03*
X168201100Y-114153600D03*
X131551100Y-103603600D03*
X142701100Y-104253600D03*
D15*
X141950000Y-89600000D03*
D16*
X162601100Y-97453600D03*
X138460000Y-94180000D03*
X156760000Y-103860000D03*
X163301100Y-98403600D03*
D15*
X156470000Y-86930000D03*
D16*
X155751100Y-101503600D03*
X134351100Y-103853600D03*
X163551100Y-101603600D03*
X129651100Y-114103600D03*
D15*
X154990000Y-86940000D03*
D16*
X156490000Y-99740000D03*
X137101100Y-121503600D03*
X129001100Y-109703600D03*
X132101100Y-103853600D03*
D15*
X165470000Y-94770000D03*
D16*
X135151100Y-100803600D03*
X163901100Y-102103600D03*
X131501100Y-100453600D03*
X145851100Y-104603600D03*
X132051100Y-100153600D03*
X156801100Y-101503600D03*
X157301100Y-101903600D03*
D15*
X154860000Y-88100000D03*
X157800000Y-92160000D03*
D16*
X130201100Y-109703600D03*
X157851100Y-101503600D03*
D15*
X158120000Y-86070000D03*
D16*
X150990000Y-103790000D03*
D15*
X156470000Y-88100000D03*
D16*
X166701100Y-113853600D03*
D15*
X157891452Y-85298548D03*
D16*
X129616200Y-109702600D03*
X133951100Y-101553600D03*
X164251100Y-101603600D03*
X143351100Y-103653600D03*
X128801100Y-103853600D03*
X138500000Y-95770000D03*
X167201100Y-114153600D03*
X146330000Y-101730000D03*
D15*
X143410000Y-90500000D03*
D16*
X156490000Y-100490000D03*
X142701100Y-103653600D03*
X143351100Y-104253600D03*
X157190000Y-100490000D03*
X130401100Y-100453600D03*
X134401100Y-100803600D03*
D15*
X154894265Y-85131100D03*
D16*
X143357600Y-105537000D03*
X146601100Y-102253600D03*
D15*
X158010000Y-88100000D03*
D16*
X167701100Y-113853600D03*
D15*
X166080000Y-86540000D03*
D16*
X134401100Y-100103600D03*
X163201100Y-102103600D03*
D15*
X147370000Y-86620000D03*
D16*
X143351100Y-106153600D03*
X157190000Y-99740000D03*
D15*
%TO.N,/CAN_P*%
X168440000Y-104012895D03*
D18*
X148701100Y-122203600D03*
%TO.N,/CAN_N*%
X148601100Y-120703600D03*
D15*
X167590000Y-104012895D03*
%TO.N,/AS5047_SCL*%
X148750000Y-93570000D03*
X155157516Y-92477411D03*
%TO.N,/AS5047_DIR*%
X152954618Y-90430676D03*
X138730000Y-88628900D03*
X147480000Y-93579998D03*
%TO.N,/AS5047_PGO*%
X156825735Y-83600000D03*
X151308499Y-93615758D03*
%TO.N,/VTEMP_MOT*%
X158250000Y-81280000D03*
%TD*%
%TA.AperFunction,Conductor*%
%TO.N,GND*%
G36*
X130172011Y-92494906D02*
G01*
X132203706Y-94526600D01*
X133348494Y-94526600D01*
X135230189Y-92644906D01*
X135274383Y-92626600D01*
X137129969Y-92626600D01*
X137174163Y-92644906D01*
X137221449Y-92692192D01*
X137336294Y-92750709D01*
X137463600Y-92770872D01*
X137590906Y-92750709D01*
X137705751Y-92692192D01*
X137753037Y-92644906D01*
X137797231Y-92626600D01*
X138180698Y-92626600D01*
X138224892Y-92644906D01*
X138229162Y-92649905D01*
X138230308Y-92651051D01*
X138321449Y-92742192D01*
X138436294Y-92800709D01*
X138563600Y-92820872D01*
X138582962Y-92817805D01*
X138629476Y-92828971D01*
X138654471Y-92869756D01*
X138654472Y-92889311D01*
X138648028Y-92929999D01*
X138668191Y-93057306D01*
X138668191Y-93057307D01*
X138721973Y-93162858D01*
X138726708Y-93172151D01*
X138817849Y-93263292D01*
X138932694Y-93321809D01*
X139060000Y-93341972D01*
X139187306Y-93321809D01*
X139302151Y-93263292D01*
X139393292Y-93172151D01*
X139451809Y-93057306D01*
X139471972Y-92930000D01*
X139451809Y-92802694D01*
X139408386Y-92717474D01*
X139404634Y-92669787D01*
X139435700Y-92633412D01*
X139464075Y-92626600D01*
X144165600Y-92626600D01*
X144209794Y-92644906D01*
X144228100Y-92689099D01*
X144228100Y-97300994D01*
X144469457Y-97542352D01*
X144469458Y-97542352D01*
X144487764Y-97586546D01*
X144469458Y-97630740D01*
X144425264Y-97649046D01*
X144394015Y-97640673D01*
X144390642Y-97638726D01*
X144256147Y-97583016D01*
X144256137Y-97583013D01*
X144111810Y-97564013D01*
X144111806Y-97564013D01*
X143967478Y-97583013D01*
X143967468Y-97583016D01*
X143832975Y-97638725D01*
X143832972Y-97638727D01*
X143717475Y-97727351D01*
X143628851Y-97842848D01*
X143628849Y-97842851D01*
X143573140Y-97977344D01*
X143573137Y-97977354D01*
X143554137Y-98121682D01*
X143554137Y-98121685D01*
X143573137Y-98266013D01*
X143573140Y-98266023D01*
X143628849Y-98400517D01*
X143628851Y-98400520D01*
X143717474Y-98516017D01*
X143806097Y-98584019D01*
X143832972Y-98604641D01*
X143967472Y-98660353D01*
X143967476Y-98660353D01*
X143967478Y-98660354D01*
X144111806Y-98679355D01*
X144111808Y-98679355D01*
X144111810Y-98679355D01*
X144256137Y-98660354D01*
X144256137Y-98660353D01*
X144256144Y-98660353D01*
X144390644Y-98604641D01*
X144506141Y-98516017D01*
X144594765Y-98400520D01*
X144650477Y-98266020D01*
X144663401Y-98167849D01*
X144669479Y-98121685D01*
X144669479Y-98121682D01*
X144650478Y-97977354D01*
X144650477Y-97977352D01*
X144650477Y-97977348D01*
X144594765Y-97842849D01*
X144594762Y-97842845D01*
X144592818Y-97839477D01*
X144586573Y-97792051D01*
X144615693Y-97754100D01*
X144663119Y-97747855D01*
X144691138Y-97764032D01*
X147903706Y-100976600D01*
X151824100Y-100976600D01*
X151822380Y-100507800D01*
X164459428Y-100507800D01*
X164479591Y-100635106D01*
X164479591Y-100635107D01*
X164538107Y-100749951D01*
X164538108Y-100749951D01*
X164629249Y-100841092D01*
X164744094Y-100899609D01*
X164871400Y-100919772D01*
X164998706Y-100899609D01*
X165113551Y-100841092D01*
X165204692Y-100749951D01*
X165263209Y-100635106D01*
X165283372Y-100507800D01*
X165263209Y-100380494D01*
X165204692Y-100265649D01*
X165113551Y-100174508D01*
X164998706Y-100115991D01*
X164871400Y-100095828D01*
X164744093Y-100115991D01*
X164744092Y-100115991D01*
X164629248Y-100174508D01*
X164538108Y-100265648D01*
X164479591Y-100380492D01*
X164479591Y-100380493D01*
X164459428Y-100507800D01*
X151822380Y-100507800D01*
X151818608Y-99480000D01*
X152708028Y-99480000D01*
X152728191Y-99607306D01*
X152728191Y-99607307D01*
X152776928Y-99702957D01*
X152786708Y-99722151D01*
X152877849Y-99813292D01*
X152992694Y-99871809D01*
X153120000Y-99891972D01*
X153247306Y-99871809D01*
X153362151Y-99813292D01*
X153453292Y-99722151D01*
X153511809Y-99607306D01*
X153531972Y-99480000D01*
X153511809Y-99352694D01*
X153453292Y-99237849D01*
X153435444Y-99220001D01*
X159592329Y-99220001D01*
X159611329Y-99364329D01*
X159611332Y-99364339D01*
X159667041Y-99498833D01*
X159667043Y-99498836D01*
X159755666Y-99614333D01*
X159844289Y-99682335D01*
X159871164Y-99702957D01*
X160005664Y-99758669D01*
X160005668Y-99758669D01*
X160005670Y-99758670D01*
X160149998Y-99777671D01*
X160150000Y-99777671D01*
X160150002Y-99777671D01*
X160294329Y-99758670D01*
X160294329Y-99758669D01*
X160294336Y-99758669D01*
X160428836Y-99702957D01*
X160544333Y-99614333D01*
X160632957Y-99498836D01*
X160688669Y-99364336D01*
X160707671Y-99220000D01*
X160706545Y-99211449D01*
X160688670Y-99075670D01*
X160688669Y-99075668D01*
X160688669Y-99075664D01*
X160649044Y-98980001D01*
X160802329Y-98980001D01*
X160821329Y-99124329D01*
X160821332Y-99124339D01*
X160877041Y-99258833D01*
X160877043Y-99258836D01*
X160965666Y-99374333D01*
X161052548Y-99440999D01*
X161081164Y-99462957D01*
X161215664Y-99518669D01*
X161215668Y-99518669D01*
X161215670Y-99518670D01*
X161359998Y-99537671D01*
X161360000Y-99537671D01*
X161360002Y-99537671D01*
X161504329Y-99518670D01*
X161504329Y-99518669D01*
X161504336Y-99518669D01*
X161638836Y-99462957D01*
X161667451Y-99441000D01*
X162935428Y-99441000D01*
X162944588Y-99498833D01*
X162955591Y-99568306D01*
X162955591Y-99568307D01*
X162979043Y-99614333D01*
X163014108Y-99683151D01*
X163105249Y-99774292D01*
X163220094Y-99832809D01*
X163347400Y-99852972D01*
X163392914Y-99845763D01*
X163439428Y-99856929D01*
X163458380Y-99879118D01*
X163459290Y-99880905D01*
X163459291Y-99880906D01*
X163517808Y-99995751D01*
X163608949Y-100086892D01*
X163723794Y-100145409D01*
X163851100Y-100165572D01*
X163978406Y-100145409D01*
X164093251Y-100086892D01*
X164184392Y-99995751D01*
X164241336Y-99883992D01*
X164277711Y-99852926D01*
X164306797Y-99850636D01*
X164401100Y-99865572D01*
X164528406Y-99845409D01*
X164643251Y-99786892D01*
X164734392Y-99695751D01*
X164792909Y-99580906D01*
X164813072Y-99453600D01*
X164792909Y-99326294D01*
X164734392Y-99211449D01*
X164643251Y-99120308D01*
X164528406Y-99061791D01*
X164401100Y-99041628D01*
X164273793Y-99061791D01*
X164273792Y-99061791D01*
X164158948Y-99120308D01*
X164067808Y-99211448D01*
X164010863Y-99323207D01*
X163974488Y-99354273D01*
X163945398Y-99356563D01*
X163896610Y-99348836D01*
X163851100Y-99341628D01*
X163851099Y-99341628D01*
X163851098Y-99341628D01*
X163805582Y-99348836D01*
X163759069Y-99337668D01*
X163740119Y-99315480D01*
X163711257Y-99258836D01*
X163680692Y-99198849D01*
X163589551Y-99107708D01*
X163474706Y-99049191D01*
X163347400Y-99029028D01*
X163220093Y-99049191D01*
X163220092Y-99049191D01*
X163105248Y-99107708D01*
X163014108Y-99198848D01*
X162955591Y-99313692D01*
X162955591Y-99313693D01*
X162936032Y-99437189D01*
X162935428Y-99441000D01*
X161667451Y-99441000D01*
X161754333Y-99374333D01*
X161842957Y-99258836D01*
X161898669Y-99124336D01*
X161909558Y-99041628D01*
X161917671Y-98980001D01*
X161917671Y-98979998D01*
X161898670Y-98835670D01*
X161898669Y-98835668D01*
X161898669Y-98835664D01*
X161850341Y-98718991D01*
X161842958Y-98701167D01*
X161842956Y-98701164D01*
X161834110Y-98689635D01*
X161754333Y-98585667D01*
X161754331Y-98585666D01*
X161754331Y-98585665D01*
X161638836Y-98497043D01*
X161638833Y-98497041D01*
X161504339Y-98441332D01*
X161504329Y-98441329D01*
X161360002Y-98422329D01*
X161359998Y-98422329D01*
X161215670Y-98441329D01*
X161215660Y-98441332D01*
X161081167Y-98497041D01*
X161081164Y-98497043D01*
X160965667Y-98585667D01*
X160877043Y-98701164D01*
X160877041Y-98701167D01*
X160821332Y-98835660D01*
X160821329Y-98835670D01*
X160802329Y-98979998D01*
X160802329Y-98980001D01*
X160649044Y-98980001D01*
X160632957Y-98941165D01*
X160544333Y-98825667D01*
X160544331Y-98825666D01*
X160544331Y-98825665D01*
X160428836Y-98737043D01*
X160428833Y-98737041D01*
X160294339Y-98681332D01*
X160294329Y-98681329D01*
X160150002Y-98662329D01*
X160149998Y-98662329D01*
X160005670Y-98681329D01*
X160005660Y-98681332D01*
X159871167Y-98737041D01*
X159871164Y-98737043D01*
X159755667Y-98825667D01*
X159667043Y-98941164D01*
X159667041Y-98941167D01*
X159611332Y-99075660D01*
X159611329Y-99075670D01*
X159592329Y-99219998D01*
X159592329Y-99220001D01*
X153435444Y-99220001D01*
X153362151Y-99146708D01*
X153247306Y-99088191D01*
X153120000Y-99068028D01*
X152992693Y-99088191D01*
X152992692Y-99088191D01*
X152877848Y-99146708D01*
X152786708Y-99237848D01*
X152728191Y-99352692D01*
X152728191Y-99352693D01*
X152708028Y-99480000D01*
X151818608Y-99480000D01*
X151814645Y-98400000D01*
X157728028Y-98400000D01*
X157748191Y-98527306D01*
X157748191Y-98527307D01*
X157787596Y-98604642D01*
X157806708Y-98642151D01*
X157897849Y-98733292D01*
X158012694Y-98791809D01*
X158140000Y-98811972D01*
X158267306Y-98791809D01*
X158382151Y-98733292D01*
X158425806Y-98689635D01*
X158469998Y-98671330D01*
X158514192Y-98689635D01*
X158567849Y-98743292D01*
X158682694Y-98801809D01*
X158810000Y-98821972D01*
X158937306Y-98801809D01*
X159052151Y-98743292D01*
X159143292Y-98652151D01*
X159201809Y-98537306D01*
X159221972Y-98410000D01*
X159201809Y-98282694D01*
X159143292Y-98167849D01*
X159052151Y-98076708D01*
X158937306Y-98018191D01*
X158810000Y-97998028D01*
X158682693Y-98018191D01*
X158682692Y-98018191D01*
X158567848Y-98076708D01*
X158524192Y-98120363D01*
X158479998Y-98138668D01*
X158435805Y-98120362D01*
X158382151Y-98066708D01*
X158267306Y-98008191D01*
X158140000Y-97988028D01*
X158012693Y-98008191D01*
X158012692Y-98008191D01*
X157897848Y-98066708D01*
X157806708Y-98157848D01*
X157748191Y-98272692D01*
X157748191Y-98272693D01*
X157728028Y-98400000D01*
X151814645Y-98400000D01*
X151804330Y-95589328D01*
X151822474Y-95545068D01*
X151866601Y-95526600D01*
X158524458Y-95526600D01*
X158568652Y-95544906D01*
X158572859Y-95549558D01*
X158574099Y-95551076D01*
X158574107Y-95551085D01*
X161350247Y-98274844D01*
X161350248Y-98274845D01*
X161509750Y-98115345D01*
X161600427Y-98018191D01*
X162460715Y-97096455D01*
X162504252Y-97076637D01*
X162506406Y-97076600D01*
X165765600Y-97076600D01*
X165809794Y-97094906D01*
X165828100Y-97139100D01*
X165828100Y-100526600D01*
X171015600Y-100526600D01*
X171059794Y-100544906D01*
X171078100Y-100589100D01*
X171078100Y-118994269D01*
X171059794Y-119038463D01*
X171015600Y-119056769D01*
X170971406Y-119038463D01*
X170954207Y-119005980D01*
X170930160Y-118879923D01*
X170832840Y-118580403D01*
X170832839Y-118580399D01*
X170698745Y-118295435D01*
X170698741Y-118295429D01*
X170698734Y-118295416D01*
X170529995Y-118029526D01*
X170529993Y-118029524D01*
X170329242Y-117786858D01*
X170213484Y-117678154D01*
X170099663Y-117571269D01*
X169844873Y-117386153D01*
X169844867Y-117386150D01*
X169844862Y-117386146D01*
X169657458Y-117283120D01*
X169568890Y-117234430D01*
X169568888Y-117234429D01*
X169568886Y-117234428D01*
X169276073Y-117118495D01*
X169276054Y-117118489D01*
X168971026Y-117040172D01*
X168971028Y-117040172D01*
X168721059Y-117008594D01*
X168658569Y-117000700D01*
X168343631Y-117000700D01*
X168281139Y-117008594D01*
X168031172Y-117040172D01*
X167726145Y-117118489D01*
X167726126Y-117118495D01*
X167433313Y-117234428D01*
X167433308Y-117234431D01*
X167157337Y-117386146D01*
X167157330Y-117386151D01*
X166902538Y-117571268D01*
X166672957Y-117786858D01*
X166472206Y-118029524D01*
X166472204Y-118029526D01*
X166303465Y-118295416D01*
X166303455Y-118295434D01*
X166169362Y-118580396D01*
X166169359Y-118580403D01*
X166072039Y-118879923D01*
X166013027Y-119189275D01*
X166013026Y-119189279D01*
X165993251Y-119503600D01*
X166013026Y-119817920D01*
X166013027Y-119817924D01*
X166072039Y-120127276D01*
X166169359Y-120426796D01*
X166169362Y-120426803D01*
X166303455Y-120711765D01*
X166303465Y-120711783D01*
X166472204Y-120977673D01*
X166472206Y-120977675D01*
X166566476Y-121091628D01*
X166672957Y-121220341D01*
X166902537Y-121435931D01*
X167157327Y-121621047D01*
X167157333Y-121621050D01*
X167157337Y-121621053D01*
X167175260Y-121630906D01*
X167433310Y-121772770D01*
X167497774Y-121798293D01*
X167726126Y-121888704D01*
X167726145Y-121888710D01*
X167952605Y-121946854D01*
X168031172Y-121967027D01*
X168031173Y-121967027D01*
X168031176Y-121967028D01*
X168343631Y-122006500D01*
X168343632Y-122006500D01*
X168658568Y-122006500D01*
X168658569Y-122006500D01*
X168971024Y-121967028D01*
X169081355Y-121938699D01*
X169276054Y-121888710D01*
X169276060Y-121888707D01*
X169276068Y-121888706D01*
X169568890Y-121772770D01*
X169844873Y-121621047D01*
X170099663Y-121435931D01*
X170329243Y-121220341D01*
X170529992Y-120977677D01*
X170544287Y-120955153D01*
X170698734Y-120711783D01*
X170698736Y-120711777D01*
X170698745Y-120711765D01*
X170832839Y-120426801D01*
X170930160Y-120127277D01*
X170954207Y-120001218D01*
X170980470Y-119961237D01*
X171027311Y-119951537D01*
X171067293Y-119977800D01*
X171078100Y-120012930D01*
X171078100Y-121024695D01*
X171069226Y-121056797D01*
X170930705Y-121288191D01*
X170929020Y-121290718D01*
X170743237Y-121542037D01*
X170741315Y-121544388D01*
X170532021Y-121776508D01*
X170529880Y-121778662D01*
X170299062Y-121989377D01*
X170296723Y-121991313D01*
X170046553Y-122178645D01*
X170044036Y-122180346D01*
X169776862Y-122342532D01*
X169774193Y-122343980D01*
X169492964Y-122479282D01*
X169490387Y-122480383D01*
X165515321Y-123971032D01*
X165513462Y-123970979D01*
X165490805Y-123980226D01*
X165484274Y-123982676D01*
X165482056Y-123983805D01*
X165391342Y-124020918D01*
X165391332Y-124020923D01*
X165203605Y-124128390D01*
X165203601Y-124128392D01*
X165031686Y-124259674D01*
X165031674Y-124259684D01*
X164878577Y-124412484D01*
X164878569Y-124412493D01*
X164746950Y-124584159D01*
X164639116Y-124771684D01*
X164639109Y-124771697D01*
X164556950Y-124971795D01*
X164556948Y-124971801D01*
X164501891Y-125180994D01*
X164474900Y-125395625D01*
X164475600Y-125503627D01*
X164475600Y-130502237D01*
X164475481Y-130504962D01*
X164461271Y-130667373D01*
X164459379Y-130678102D01*
X164418245Y-130831617D01*
X164414519Y-130841855D01*
X164347354Y-130985890D01*
X164341907Y-130995324D01*
X164265849Y-131103948D01*
X164225506Y-131129650D01*
X164214652Y-131130600D01*
X132787548Y-131130600D01*
X132743354Y-131112294D01*
X132736351Y-131103948D01*
X132660292Y-130995324D01*
X132654845Y-130985890D01*
X132632817Y-130938650D01*
X132587676Y-130841845D01*
X132583956Y-130831624D01*
X132542819Y-130678098D01*
X132540928Y-130667373D01*
X132534449Y-130593320D01*
X132526718Y-130504958D01*
X132526600Y-130502237D01*
X132526600Y-128503604D01*
X133906029Y-128503604D01*
X133924673Y-128704811D01*
X133924675Y-128704822D01*
X133979976Y-128899185D01*
X133979977Y-128899185D01*
X134070052Y-129080081D01*
X134191833Y-129241345D01*
X134279698Y-129321445D01*
X134341170Y-129377485D01*
X134341172Y-129377486D01*
X134512985Y-129483867D01*
X134701420Y-129556867D01*
X134900060Y-129594000D01*
X134900063Y-129594000D01*
X135102137Y-129594000D01*
X135102140Y-129594000D01*
X135300780Y-129556867D01*
X135489215Y-129483867D01*
X135661028Y-129377486D01*
X135810367Y-129241345D01*
X135932148Y-129080081D01*
X136022223Y-128899185D01*
X136077525Y-128704819D01*
X136096171Y-128503604D01*
X144906029Y-128503604D01*
X144924673Y-128704811D01*
X144924675Y-128704822D01*
X144979976Y-128899185D01*
X144979977Y-128899185D01*
X145070052Y-129080081D01*
X145191833Y-129241345D01*
X145279698Y-129321445D01*
X145341170Y-129377485D01*
X145341172Y-129377486D01*
X145512985Y-129483867D01*
X145701420Y-129556867D01*
X145900060Y-129594000D01*
X145900063Y-129594000D01*
X146102137Y-129594000D01*
X146102140Y-129594000D01*
X146300780Y-129556867D01*
X146489215Y-129483867D01*
X146661028Y-129377486D01*
X146810367Y-129241345D01*
X146932148Y-129080081D01*
X147022223Y-128899185D01*
X147077525Y-128704819D01*
X147096171Y-128503604D01*
X149906029Y-128503604D01*
X149924673Y-128704811D01*
X149924675Y-128704822D01*
X149979976Y-128899185D01*
X149979977Y-128899185D01*
X150070052Y-129080081D01*
X150191833Y-129241345D01*
X150279698Y-129321445D01*
X150341170Y-129377485D01*
X150341172Y-129377486D01*
X150512985Y-129483867D01*
X150701420Y-129556867D01*
X150900060Y-129594000D01*
X150900063Y-129594000D01*
X151102137Y-129594000D01*
X151102140Y-129594000D01*
X151300780Y-129556867D01*
X151489215Y-129483867D01*
X151661028Y-129377486D01*
X151810367Y-129241345D01*
X151932148Y-129080081D01*
X152022223Y-128899185D01*
X152077525Y-128704819D01*
X152096171Y-128503604D01*
X160906029Y-128503604D01*
X160924673Y-128704811D01*
X160924675Y-128704822D01*
X160979976Y-128899185D01*
X160979977Y-128899185D01*
X161070052Y-129080081D01*
X161191833Y-129241345D01*
X161279698Y-129321445D01*
X161341170Y-129377485D01*
X161341172Y-129377486D01*
X161512985Y-129483867D01*
X161701420Y-129556867D01*
X161900060Y-129594000D01*
X161900063Y-129594000D01*
X162102137Y-129594000D01*
X162102140Y-129594000D01*
X162300780Y-129556867D01*
X162489215Y-129483867D01*
X162661028Y-129377486D01*
X162810367Y-129241345D01*
X162932148Y-129080081D01*
X163022223Y-128899185D01*
X163077525Y-128704819D01*
X163096171Y-128503600D01*
X163077525Y-128302381D01*
X163022223Y-128108015D01*
X162932148Y-127927119D01*
X162810367Y-127765855D01*
X162729099Y-127691769D01*
X162661029Y-127629714D01*
X162489213Y-127523332D01*
X162300777Y-127450332D01*
X162102142Y-127413200D01*
X162102140Y-127413200D01*
X161900060Y-127413200D01*
X161900057Y-127413200D01*
X161701422Y-127450332D01*
X161512986Y-127523332D01*
X161341170Y-127629714D01*
X161191831Y-127765857D01*
X161191829Y-127765859D01*
X161070052Y-127927119D01*
X160979977Y-128108014D01*
X160924675Y-128302377D01*
X160924673Y-128302388D01*
X160906029Y-128503595D01*
X160906029Y-128503604D01*
X152096171Y-128503604D01*
X152096171Y-128503600D01*
X152077525Y-128302381D01*
X152022223Y-128108015D01*
X151932148Y-127927119D01*
X151810367Y-127765855D01*
X151729099Y-127691769D01*
X151661029Y-127629714D01*
X151489213Y-127523332D01*
X151300777Y-127450332D01*
X151102142Y-127413200D01*
X151102140Y-127413200D01*
X150900060Y-127413200D01*
X150900057Y-127413200D01*
X150701422Y-127450332D01*
X150512986Y-127523332D01*
X150341170Y-127629714D01*
X150191831Y-127765857D01*
X150191829Y-127765859D01*
X150070052Y-127927119D01*
X149979977Y-128108014D01*
X149924675Y-128302377D01*
X149924673Y-128302388D01*
X149906029Y-128503595D01*
X149906029Y-128503604D01*
X147096171Y-128503604D01*
X147096171Y-128503600D01*
X147077525Y-128302381D01*
X147022223Y-128108015D01*
X146932148Y-127927119D01*
X146810367Y-127765855D01*
X146729099Y-127691769D01*
X146661029Y-127629714D01*
X146489213Y-127523332D01*
X146300777Y-127450332D01*
X146102142Y-127413200D01*
X146102140Y-127413200D01*
X145900060Y-127413200D01*
X145900057Y-127413200D01*
X145701422Y-127450332D01*
X145512986Y-127523332D01*
X145341170Y-127629714D01*
X145191831Y-127765857D01*
X145191829Y-127765859D01*
X145070052Y-127927119D01*
X144979977Y-128108014D01*
X144924675Y-128302377D01*
X144924673Y-128302388D01*
X144906029Y-128503595D01*
X144906029Y-128503604D01*
X136096171Y-128503604D01*
X136096171Y-128503600D01*
X136077525Y-128302381D01*
X136022223Y-128108015D01*
X135932148Y-127927119D01*
X135810367Y-127765855D01*
X135729099Y-127691769D01*
X135661029Y-127629714D01*
X135489213Y-127523332D01*
X135300777Y-127450332D01*
X135102142Y-127413200D01*
X135102140Y-127413200D01*
X134900060Y-127413200D01*
X134900057Y-127413200D01*
X134701422Y-127450332D01*
X134512986Y-127523332D01*
X134341170Y-127629714D01*
X134191831Y-127765857D01*
X134191829Y-127765859D01*
X134070052Y-127927119D01*
X133979977Y-128108014D01*
X133924675Y-128302377D01*
X133924673Y-128302388D01*
X133906029Y-128503595D01*
X133906029Y-128503604D01*
X132526600Y-128503604D01*
X132526600Y-125498843D01*
X132527269Y-125395625D01*
X132500278Y-125180999D01*
X132445221Y-124971806D01*
X132363058Y-124771701D01*
X132255225Y-124584177D01*
X132123606Y-124412511D01*
X131970498Y-124259701D01*
X131798577Y-124128415D01*
X131798574Y-124128413D01*
X131798568Y-124128409D01*
X131756626Y-124104399D01*
X144830443Y-124104399D01*
X144848976Y-124233308D01*
X144864337Y-124266943D01*
X144903079Y-124351774D01*
X144988364Y-124450199D01*
X145097924Y-124520608D01*
X145097926Y-124520608D01*
X145097927Y-124520609D01*
X145222881Y-124557300D01*
X145222883Y-124557300D01*
X145353119Y-124557300D01*
X145449444Y-124529015D01*
X145478076Y-124520608D01*
X145587636Y-124450199D01*
X145672921Y-124351774D01*
X145727023Y-124233309D01*
X145745557Y-124104400D01*
X145727023Y-123975491D01*
X145672921Y-123857026D01*
X145587636Y-123758601D01*
X145478076Y-123688192D01*
X145478074Y-123688191D01*
X145478072Y-123688190D01*
X145353119Y-123651500D01*
X145353117Y-123651500D01*
X145222883Y-123651500D01*
X145222881Y-123651500D01*
X145097927Y-123688190D01*
X144988364Y-123758601D01*
X144903078Y-123857027D01*
X144848976Y-123975491D01*
X144830443Y-124104399D01*
X131756626Y-124104399D01*
X131610856Y-124020952D01*
X131610853Y-124020950D01*
X131610845Y-124020946D01*
X131572708Y-124005343D01*
X131520334Y-123983916D01*
X131517837Y-123982643D01*
X131510420Y-123979861D01*
X131496803Y-123974302D01*
X131493886Y-123973660D01*
X128308622Y-122779186D01*
X127512127Y-122480500D01*
X127509553Y-122479401D01*
X127228023Y-122343953D01*
X127225354Y-122342506D01*
X126996530Y-122203600D01*
X148267183Y-122203600D01*
X148284759Y-122325847D01*
X148284760Y-122325850D01*
X148336064Y-122438190D01*
X148336066Y-122438194D01*
X148416945Y-122531534D01*
X148433548Y-122542203D01*
X148440229Y-122546496D01*
X148443801Y-122549375D01*
X148443902Y-122549238D01*
X148447874Y-122552124D01*
X148447878Y-122552126D01*
X148447880Y-122552128D01*
X148451868Y-122554159D01*
X148454540Y-122555694D01*
X148520844Y-122598305D01*
X148530736Y-122601209D01*
X148556950Y-122608907D01*
X148567718Y-122613188D01*
X148567974Y-122613319D01*
X148574690Y-122614382D01*
X148578586Y-122615258D01*
X148611934Y-122625050D01*
X148639345Y-122633100D01*
X148639347Y-122633100D01*
X148687950Y-122633100D01*
X148697727Y-122633869D01*
X148701100Y-122634404D01*
X148704472Y-122633869D01*
X148714250Y-122633100D01*
X148762854Y-122633100D01*
X148772881Y-122630155D01*
X148823617Y-122615257D01*
X148827506Y-122614382D01*
X148834226Y-122613319D01*
X148834488Y-122613185D01*
X148845246Y-122608907D01*
X148881356Y-122598305D01*
X148947656Y-122555695D01*
X148950335Y-122554157D01*
X148954320Y-122552128D01*
X148954325Y-122552122D01*
X148958305Y-122549232D01*
X148958406Y-122549372D01*
X148961972Y-122546495D01*
X148985255Y-122531533D01*
X149066134Y-122438193D01*
X149117440Y-122325849D01*
X149135017Y-122203600D01*
X149117440Y-122081351D01*
X149066134Y-121969007D01*
X149066133Y-121969005D01*
X148985256Y-121875668D01*
X148985255Y-121875667D01*
X148961969Y-121860702D01*
X148958403Y-121857828D01*
X148958304Y-121857966D01*
X148954324Y-121855074D01*
X148954104Y-121854962D01*
X148950334Y-121853041D01*
X148947643Y-121851495D01*
X148921150Y-121834469D01*
X148881360Y-121808897D01*
X148881351Y-121808893D01*
X148845250Y-121798293D01*
X148834490Y-121794015D01*
X148834226Y-121793881D01*
X148834223Y-121793880D01*
X148834222Y-121793880D01*
X148834221Y-121793879D01*
X148827511Y-121792816D01*
X148823594Y-121791935D01*
X148762855Y-121774100D01*
X148762853Y-121774100D01*
X148714250Y-121774100D01*
X148704472Y-121773330D01*
X148701100Y-121772796D01*
X148697727Y-121773330D01*
X148687950Y-121774100D01*
X148639345Y-121774100D01*
X148578598Y-121791937D01*
X148574680Y-121792818D01*
X148574101Y-121792910D01*
X148567974Y-121793880D01*
X148567968Y-121793882D01*
X148567693Y-121794023D01*
X148556950Y-121798292D01*
X148520845Y-121808894D01*
X148454552Y-121851496D01*
X148451849Y-121853048D01*
X148447880Y-121855071D01*
X148443907Y-121857958D01*
X148443807Y-121857821D01*
X148440238Y-121860696D01*
X148416945Y-121875666D01*
X148416944Y-121875667D01*
X148336066Y-121969005D01*
X148336064Y-121969009D01*
X148284760Y-122081349D01*
X148284759Y-122081352D01*
X148267183Y-122203600D01*
X126996530Y-122203600D01*
X126958182Y-122180321D01*
X126955675Y-122178628D01*
X126825765Y-122081349D01*
X126705497Y-121991290D01*
X126703157Y-121989354D01*
X126622335Y-121915571D01*
X126472331Y-121778631D01*
X126470206Y-121776493D01*
X126468048Y-121774100D01*
X126400993Y-121699731D01*
X126260905Y-121544363D01*
X126258983Y-121542012D01*
X126230587Y-121503600D01*
X126073204Y-121290700D01*
X126071520Y-121288174D01*
X126028792Y-121216799D01*
X125910981Y-121020000D01*
X125909556Y-121017331D01*
X125880113Y-120955153D01*
X125874100Y-120928405D01*
X125874100Y-119598530D01*
X125892406Y-119554336D01*
X125936600Y-119536030D01*
X125980794Y-119554336D01*
X125998976Y-119594604D01*
X126003354Y-119664179D01*
X126013026Y-119817920D01*
X126013027Y-119817924D01*
X126072039Y-120127276D01*
X126169359Y-120426796D01*
X126169362Y-120426803D01*
X126303455Y-120711765D01*
X126303465Y-120711783D01*
X126472204Y-120977673D01*
X126472206Y-120977675D01*
X126566476Y-121091628D01*
X126672957Y-121220341D01*
X126902537Y-121435931D01*
X127157327Y-121621047D01*
X127157333Y-121621050D01*
X127157337Y-121621053D01*
X127175260Y-121630906D01*
X127433310Y-121772770D01*
X127497774Y-121798293D01*
X127726126Y-121888704D01*
X127726145Y-121888710D01*
X127952605Y-121946854D01*
X128031172Y-121967027D01*
X128031173Y-121967027D01*
X128031176Y-121967028D01*
X128343631Y-122006500D01*
X128343632Y-122006500D01*
X128658568Y-122006500D01*
X128658569Y-122006500D01*
X128971024Y-121967028D01*
X129081355Y-121938699D01*
X129276054Y-121888710D01*
X129276060Y-121888707D01*
X129276068Y-121888706D01*
X129568890Y-121772770D01*
X129844873Y-121621047D01*
X130006525Y-121503600D01*
X134089128Y-121503600D01*
X134095584Y-121544363D01*
X134109291Y-121630906D01*
X134109291Y-121630907D01*
X134167808Y-121745750D01*
X134167808Y-121745751D01*
X134258949Y-121836892D01*
X134373794Y-121895409D01*
X134501100Y-121915572D01*
X134628406Y-121895409D01*
X134743251Y-121836892D01*
X134834392Y-121745751D01*
X134892909Y-121630906D01*
X134913072Y-121503600D01*
X134892909Y-121376294D01*
X134834392Y-121261449D01*
X134743251Y-121170308D01*
X134628406Y-121111791D01*
X134501100Y-121091628D01*
X134501099Y-121091628D01*
X134373793Y-121111791D01*
X134373792Y-121111791D01*
X134258948Y-121170308D01*
X134167808Y-121261448D01*
X134109291Y-121376292D01*
X134109291Y-121376293D01*
X134099846Y-121435931D01*
X134089128Y-121503600D01*
X130006525Y-121503600D01*
X130099663Y-121435931D01*
X130329243Y-121220341D01*
X130529992Y-120977677D01*
X130544287Y-120955153D01*
X130698734Y-120711783D01*
X130698736Y-120711777D01*
X130698745Y-120711765D01*
X130702587Y-120703600D01*
X148167183Y-120703600D01*
X148184759Y-120825847D01*
X148184760Y-120825850D01*
X148236064Y-120938190D01*
X148236066Y-120938194D01*
X148316945Y-121031534D01*
X148333548Y-121042203D01*
X148340229Y-121046496D01*
X148343801Y-121049375D01*
X148343902Y-121049238D01*
X148347874Y-121052124D01*
X148347878Y-121052126D01*
X148347880Y-121052128D01*
X148351868Y-121054159D01*
X148354540Y-121055694D01*
X148420844Y-121098305D01*
X148430736Y-121101209D01*
X148456950Y-121108907D01*
X148467718Y-121113188D01*
X148467974Y-121113319D01*
X148474690Y-121114382D01*
X148478586Y-121115258D01*
X148511934Y-121125050D01*
X148539345Y-121133100D01*
X148539347Y-121133100D01*
X148587950Y-121133100D01*
X148597727Y-121133869D01*
X148601100Y-121134404D01*
X148604472Y-121133869D01*
X148614250Y-121133100D01*
X148662854Y-121133100D01*
X148672881Y-121130155D01*
X148723617Y-121115257D01*
X148727506Y-121114382D01*
X148734226Y-121113319D01*
X148734488Y-121113185D01*
X148745246Y-121108907D01*
X148781356Y-121098305D01*
X148847656Y-121055695D01*
X148850335Y-121054157D01*
X148854320Y-121052128D01*
X148854325Y-121052122D01*
X148858305Y-121049232D01*
X148858406Y-121049372D01*
X148861972Y-121046495D01*
X148885255Y-121031533D01*
X148966134Y-120938193D01*
X149017440Y-120825849D01*
X149035017Y-120703600D01*
X149017440Y-120581351D01*
X148966134Y-120469007D01*
X148966133Y-120469005D01*
X148885256Y-120375668D01*
X148885255Y-120375667D01*
X148861969Y-120360702D01*
X148858403Y-120357828D01*
X148858304Y-120357966D01*
X148854324Y-120355074D01*
X148854104Y-120354962D01*
X148850334Y-120353041D01*
X148847643Y-120351495D01*
X148821150Y-120334469D01*
X148781360Y-120308897D01*
X148781351Y-120308893D01*
X148745250Y-120298293D01*
X148734490Y-120294015D01*
X148734226Y-120293881D01*
X148734223Y-120293880D01*
X148734222Y-120293880D01*
X148734221Y-120293879D01*
X148727511Y-120292816D01*
X148723594Y-120291935D01*
X148662855Y-120274100D01*
X148662853Y-120274100D01*
X148614250Y-120274100D01*
X148604472Y-120273330D01*
X148601100Y-120272796D01*
X148597727Y-120273330D01*
X148587950Y-120274100D01*
X148539345Y-120274100D01*
X148478598Y-120291937D01*
X148474680Y-120292818D01*
X148474101Y-120292910D01*
X148467974Y-120293880D01*
X148467968Y-120293882D01*
X148467693Y-120294023D01*
X148456950Y-120298292D01*
X148420845Y-120308894D01*
X148354552Y-120351496D01*
X148351849Y-120353048D01*
X148347880Y-120355071D01*
X148343907Y-120357958D01*
X148343807Y-120357821D01*
X148340238Y-120360696D01*
X148316945Y-120375666D01*
X148316944Y-120375667D01*
X148236066Y-120469005D01*
X148236064Y-120469009D01*
X148184760Y-120581349D01*
X148184759Y-120581352D01*
X148167183Y-120703600D01*
X130702587Y-120703600D01*
X130832839Y-120426801D01*
X130930160Y-120127277D01*
X130989174Y-119817917D01*
X131008949Y-119503600D01*
X130989174Y-119189283D01*
X130930160Y-118879923D01*
X130832839Y-118580399D01*
X130796702Y-118503604D01*
X141343089Y-118503604D01*
X141363500Y-118762963D01*
X141363501Y-118762967D01*
X141363502Y-118762970D01*
X141424238Y-119015954D01*
X141523801Y-119256321D01*
X141523802Y-119256322D01*
X141659738Y-119478150D01*
X141659739Y-119478152D01*
X141659741Y-119478154D01*
X141681583Y-119503728D01*
X141828708Y-119675991D01*
X141948012Y-119777885D01*
X142026546Y-119844959D01*
X142248379Y-119980899D01*
X142488746Y-120080462D01*
X142741730Y-120141198D01*
X142741732Y-120141198D01*
X142741736Y-120141199D01*
X143001096Y-120161611D01*
X143001100Y-120161611D01*
X143001104Y-120161611D01*
X143260463Y-120141199D01*
X143260465Y-120141198D01*
X143260470Y-120141198D01*
X143513454Y-120080462D01*
X143753821Y-119980899D01*
X143975654Y-119844959D01*
X144173491Y-119675991D01*
X144342459Y-119478154D01*
X144478399Y-119256321D01*
X144577962Y-119015954D01*
X144638698Y-118762970D01*
X144653067Y-118580403D01*
X144659111Y-118503604D01*
X157343089Y-118503604D01*
X157363500Y-118762963D01*
X157363501Y-118762967D01*
X157363502Y-118762970D01*
X157424238Y-119015954D01*
X157523801Y-119256321D01*
X157523802Y-119256322D01*
X157659738Y-119478150D01*
X157659739Y-119478152D01*
X157659741Y-119478154D01*
X157681583Y-119503728D01*
X157828708Y-119675991D01*
X157948012Y-119777885D01*
X158026546Y-119844959D01*
X158248379Y-119980899D01*
X158488746Y-120080462D01*
X158741730Y-120141198D01*
X158741732Y-120141198D01*
X158741736Y-120141199D01*
X159001096Y-120161611D01*
X159001100Y-120161611D01*
X159001104Y-120161611D01*
X159260463Y-120141199D01*
X159260465Y-120141198D01*
X159260470Y-120141198D01*
X159513454Y-120080462D01*
X159753821Y-119980899D01*
X159975654Y-119844959D01*
X160173491Y-119675991D01*
X160342459Y-119478154D01*
X160478399Y-119256321D01*
X160577962Y-119015954D01*
X160638698Y-118762970D01*
X160653067Y-118580403D01*
X160659111Y-118503604D01*
X160659111Y-118503595D01*
X160638699Y-118244236D01*
X160638698Y-118244232D01*
X160623493Y-118180899D01*
X160577962Y-117991246D01*
X160478399Y-117750879D01*
X160342459Y-117529046D01*
X160275385Y-117450512D01*
X160173491Y-117331208D01*
X159975650Y-117162238D01*
X159776456Y-117040172D01*
X159753821Y-117026301D01*
X159513454Y-116926738D01*
X159513448Y-116926736D01*
X159513447Y-116926736D01*
X159260467Y-116866001D01*
X159260463Y-116866000D01*
X159001104Y-116845589D01*
X159001096Y-116845589D01*
X158741736Y-116866000D01*
X158741732Y-116866001D01*
X158488752Y-116926736D01*
X158488748Y-116926737D01*
X158488746Y-116926738D01*
X158248379Y-117026301D01*
X158248377Y-117026302D01*
X158026549Y-117162238D01*
X157828708Y-117331208D01*
X157659738Y-117529049D01*
X157523802Y-117750877D01*
X157424236Y-117991252D01*
X157363501Y-118244232D01*
X157363500Y-118244236D01*
X157343089Y-118503595D01*
X157343089Y-118503604D01*
X144659111Y-118503604D01*
X144659111Y-118503595D01*
X144638699Y-118244236D01*
X144638698Y-118244232D01*
X144623493Y-118180899D01*
X144577962Y-117991246D01*
X144478399Y-117750879D01*
X144342459Y-117529046D01*
X144275385Y-117450512D01*
X144173491Y-117331208D01*
X143975650Y-117162238D01*
X143776456Y-117040172D01*
X143753821Y-117026301D01*
X143513454Y-116926738D01*
X143513448Y-116926736D01*
X143513447Y-116926736D01*
X143260467Y-116866001D01*
X143260463Y-116866000D01*
X143001104Y-116845589D01*
X143001096Y-116845589D01*
X142741736Y-116866000D01*
X142741732Y-116866001D01*
X142488752Y-116926736D01*
X142488748Y-116926737D01*
X142488746Y-116926738D01*
X142248379Y-117026301D01*
X142248377Y-117026302D01*
X142026549Y-117162238D01*
X141828708Y-117331208D01*
X141659738Y-117529049D01*
X141523802Y-117750877D01*
X141424236Y-117991252D01*
X141363501Y-118244232D01*
X141363500Y-118244236D01*
X141343089Y-118503595D01*
X141343089Y-118503604D01*
X130796702Y-118503604D01*
X130698745Y-118295435D01*
X130698741Y-118295429D01*
X130698734Y-118295416D01*
X130529995Y-118029526D01*
X130529993Y-118029524D01*
X130329242Y-117786858D01*
X130213484Y-117678154D01*
X130099663Y-117571269D01*
X129844873Y-117386153D01*
X129844867Y-117386150D01*
X129844862Y-117386146D01*
X129657458Y-117283120D01*
X129568890Y-117234430D01*
X129568888Y-117234429D01*
X129568886Y-117234428D01*
X129276073Y-117118495D01*
X129276054Y-117118489D01*
X128971026Y-117040172D01*
X128971028Y-117040172D01*
X128721059Y-117008594D01*
X128658569Y-117000700D01*
X128343631Y-117000700D01*
X128281139Y-117008594D01*
X128031172Y-117040172D01*
X127726145Y-117118489D01*
X127726126Y-117118495D01*
X127433313Y-117234428D01*
X127433308Y-117234431D01*
X127157337Y-117386146D01*
X127157330Y-117386151D01*
X126902538Y-117571268D01*
X126672957Y-117786858D01*
X126472206Y-118029524D01*
X126472204Y-118029526D01*
X126303465Y-118295416D01*
X126303455Y-118295434D01*
X126169362Y-118580396D01*
X126169359Y-118580403D01*
X126072039Y-118879923D01*
X126013027Y-119189275D01*
X126013026Y-119189279D01*
X125998977Y-119412593D01*
X125977932Y-119455551D01*
X125932676Y-119471046D01*
X125889718Y-119450001D01*
X125874100Y-119408669D01*
X125874100Y-116703604D01*
X132343089Y-116703604D01*
X132363500Y-116962963D01*
X132363501Y-116962967D01*
X132411342Y-117162241D01*
X132424238Y-117215954D01*
X132523801Y-117456321D01*
X132523802Y-117456322D01*
X132659738Y-117678150D01*
X132828708Y-117875991D01*
X132948012Y-117977885D01*
X133026546Y-118044959D01*
X133248379Y-118180899D01*
X133488746Y-118280462D01*
X133741730Y-118341198D01*
X133741732Y-118341198D01*
X133741736Y-118341199D01*
X134001096Y-118361611D01*
X134001100Y-118361611D01*
X134001104Y-118361611D01*
X134260463Y-118341199D01*
X134260465Y-118341198D01*
X134260470Y-118341198D01*
X134513454Y-118280462D01*
X134753821Y-118180899D01*
X134975654Y-118044959D01*
X135173491Y-117875991D01*
X135342459Y-117678154D01*
X135478399Y-117456321D01*
X135577962Y-117215954D01*
X135638698Y-116962970D01*
X135647937Y-116845589D01*
X135659111Y-116703604D01*
X146843089Y-116703604D01*
X146863500Y-116962963D01*
X146863501Y-116962967D01*
X146911342Y-117162241D01*
X146924238Y-117215954D01*
X147023801Y-117456321D01*
X147023802Y-117456322D01*
X147159738Y-117678150D01*
X147328708Y-117875991D01*
X147448012Y-117977885D01*
X147526546Y-118044959D01*
X147748379Y-118180899D01*
X147988746Y-118280462D01*
X148241730Y-118341198D01*
X148241732Y-118341198D01*
X148241736Y-118341199D01*
X148501096Y-118361611D01*
X148501100Y-118361611D01*
X148501104Y-118361611D01*
X148760463Y-118341199D01*
X148760465Y-118341198D01*
X148760470Y-118341198D01*
X149013454Y-118280462D01*
X149253821Y-118180899D01*
X149475654Y-118044959D01*
X149673491Y-117875991D01*
X149842459Y-117678154D01*
X149978399Y-117456321D01*
X150077962Y-117215954D01*
X150138698Y-116962970D01*
X150147937Y-116845589D01*
X150159111Y-116703604D01*
X161343089Y-116703604D01*
X161363500Y-116962963D01*
X161363501Y-116962967D01*
X161411342Y-117162241D01*
X161424238Y-117215954D01*
X161523801Y-117456321D01*
X161523802Y-117456322D01*
X161659738Y-117678150D01*
X161828708Y-117875991D01*
X161948012Y-117977885D01*
X162026546Y-118044959D01*
X162248379Y-118180899D01*
X162488746Y-118280462D01*
X162741730Y-118341198D01*
X162741732Y-118341198D01*
X162741736Y-118341199D01*
X163001096Y-118361611D01*
X163001100Y-118361611D01*
X163001104Y-118361611D01*
X163260463Y-118341199D01*
X163260465Y-118341198D01*
X163260470Y-118341198D01*
X163513454Y-118280462D01*
X163753821Y-118180899D01*
X163975654Y-118044959D01*
X164173491Y-117875991D01*
X164342459Y-117678154D01*
X164478399Y-117456321D01*
X164577962Y-117215954D01*
X164638698Y-116962970D01*
X164647937Y-116845589D01*
X164659111Y-116703604D01*
X164659111Y-116703595D01*
X164638699Y-116444236D01*
X164638698Y-116444232D01*
X164577963Y-116191252D01*
X164577962Y-116191246D01*
X164478399Y-115950879D01*
X164342459Y-115729046D01*
X164275385Y-115650512D01*
X164173491Y-115531208D01*
X163975650Y-115362238D01*
X163845587Y-115282535D01*
X163753821Y-115226301D01*
X163513454Y-115126738D01*
X163513448Y-115126736D01*
X163513447Y-115126736D01*
X163260467Y-115066001D01*
X163260463Y-115066000D01*
X163001104Y-115045589D01*
X163001096Y-115045589D01*
X162741736Y-115066000D01*
X162741732Y-115066001D01*
X162488752Y-115126736D01*
X162488748Y-115126737D01*
X162488746Y-115126738D01*
X162248379Y-115226301D01*
X162248377Y-115226302D01*
X162026549Y-115362238D01*
X161828708Y-115531208D01*
X161659738Y-115729049D01*
X161523802Y-115950877D01*
X161523801Y-115950879D01*
X161428276Y-116181499D01*
X161424236Y-116191252D01*
X161363501Y-116444232D01*
X161363500Y-116444236D01*
X161343089Y-116703595D01*
X161343089Y-116703604D01*
X150159111Y-116703604D01*
X150159111Y-116703595D01*
X150138699Y-116444236D01*
X150138698Y-116444232D01*
X150077963Y-116191252D01*
X150077962Y-116191246D01*
X149978399Y-115950879D01*
X149842459Y-115729046D01*
X149775385Y-115650512D01*
X149673491Y-115531208D01*
X149641169Y-115503603D01*
X157418221Y-115503603D01*
X157438062Y-115667016D01*
X157438064Y-115667027D01*
X157496440Y-115820949D01*
X157589955Y-115956430D01*
X157589958Y-115956433D01*
X157713181Y-116065598D01*
X157858948Y-116142103D01*
X158018788Y-116181500D01*
X158183412Y-116181500D01*
X158343252Y-116142103D01*
X158489019Y-116065598D01*
X158612242Y-115956433D01*
X158705759Y-115820950D01*
X158764136Y-115667024D01*
X158783979Y-115503600D01*
X158764136Y-115340176D01*
X158764135Y-115340174D01*
X158764135Y-115340172D01*
X158705759Y-115186250D01*
X158612244Y-115050769D01*
X158612240Y-115050765D01*
X158489018Y-114941601D01*
X158343253Y-114865097D01*
X158183415Y-114825700D01*
X158183412Y-114825700D01*
X158018788Y-114825700D01*
X158018784Y-114825700D01*
X157858946Y-114865097D01*
X157713181Y-114941601D01*
X157589959Y-115050765D01*
X157589955Y-115050769D01*
X157496440Y-115186250D01*
X157438064Y-115340172D01*
X157438062Y-115340183D01*
X157418221Y-115503596D01*
X157418221Y-115503603D01*
X149641169Y-115503603D01*
X149475650Y-115362238D01*
X149345587Y-115282535D01*
X149253821Y-115226301D01*
X149013454Y-115126738D01*
X149013448Y-115126736D01*
X149013447Y-115126736D01*
X148760467Y-115066001D01*
X148760463Y-115066000D01*
X148501104Y-115045589D01*
X148501096Y-115045589D01*
X148241736Y-115066000D01*
X148241732Y-115066001D01*
X147988752Y-115126736D01*
X147988748Y-115126737D01*
X147988746Y-115126738D01*
X147748379Y-115226301D01*
X147748377Y-115226302D01*
X147526549Y-115362238D01*
X147328708Y-115531208D01*
X147159738Y-115729049D01*
X147023802Y-115950877D01*
X147023801Y-115950879D01*
X146928276Y-116181499D01*
X146924236Y-116191252D01*
X146863501Y-116444232D01*
X146863500Y-116444236D01*
X146843089Y-116703595D01*
X146843089Y-116703604D01*
X135659111Y-116703604D01*
X135659111Y-116703595D01*
X135638699Y-116444236D01*
X135638698Y-116444232D01*
X135577963Y-116191252D01*
X135577962Y-116191246D01*
X135478399Y-115950879D01*
X135342459Y-115729046D01*
X135275385Y-115650512D01*
X135173491Y-115531208D01*
X135141169Y-115503603D01*
X139618221Y-115503603D01*
X139638062Y-115667016D01*
X139638064Y-115667027D01*
X139696440Y-115820949D01*
X139789955Y-115956430D01*
X139789958Y-115956433D01*
X139913181Y-116065598D01*
X140058948Y-116142103D01*
X140218788Y-116181500D01*
X140383412Y-116181500D01*
X140543252Y-116142103D01*
X140689019Y-116065598D01*
X140812242Y-115956433D01*
X140905759Y-115820950D01*
X140964136Y-115667024D01*
X140983979Y-115503603D01*
X144918221Y-115503603D01*
X144938062Y-115667016D01*
X144938064Y-115667027D01*
X144996440Y-115820949D01*
X145089955Y-115956430D01*
X145089958Y-115956433D01*
X145213181Y-116065598D01*
X145358948Y-116142103D01*
X145518788Y-116181500D01*
X145683412Y-116181500D01*
X145843252Y-116142103D01*
X145989019Y-116065598D01*
X146112242Y-115956433D01*
X146205759Y-115820950D01*
X146264136Y-115667024D01*
X146283979Y-115503600D01*
X146264136Y-115340176D01*
X146264135Y-115340174D01*
X146264135Y-115340172D01*
X146205759Y-115186250D01*
X146112244Y-115050769D01*
X146112240Y-115050765D01*
X145989018Y-114941601D01*
X145843253Y-114865097D01*
X145683415Y-114825700D01*
X145683412Y-114825700D01*
X145518788Y-114825700D01*
X145518784Y-114825700D01*
X145358946Y-114865097D01*
X145213181Y-114941601D01*
X145089959Y-115050765D01*
X145089955Y-115050769D01*
X144996440Y-115186250D01*
X144938064Y-115340172D01*
X144938062Y-115340183D01*
X144918221Y-115503596D01*
X144918221Y-115503603D01*
X140983979Y-115503603D01*
X140983979Y-115503600D01*
X140964136Y-115340176D01*
X140964135Y-115340174D01*
X140964135Y-115340172D01*
X140905759Y-115186250D01*
X140812244Y-115050769D01*
X140812240Y-115050765D01*
X140689018Y-114941601D01*
X140543253Y-114865097D01*
X140383415Y-114825700D01*
X140383412Y-114825700D01*
X140218788Y-114825700D01*
X140218784Y-114825700D01*
X140058946Y-114865097D01*
X139913181Y-114941601D01*
X139789959Y-115050765D01*
X139789955Y-115050769D01*
X139696440Y-115186250D01*
X139638064Y-115340172D01*
X139638062Y-115340183D01*
X139618221Y-115503596D01*
X139618221Y-115503603D01*
X135141169Y-115503603D01*
X134975650Y-115362238D01*
X134845587Y-115282535D01*
X134753821Y-115226301D01*
X134513454Y-115126738D01*
X134513448Y-115126736D01*
X134513447Y-115126736D01*
X134260467Y-115066001D01*
X134260463Y-115066000D01*
X134001104Y-115045589D01*
X134001096Y-115045589D01*
X133741736Y-115066000D01*
X133741732Y-115066001D01*
X133488752Y-115126736D01*
X133488748Y-115126737D01*
X133488746Y-115126738D01*
X133248379Y-115226301D01*
X133248377Y-115226302D01*
X133026549Y-115362238D01*
X132828708Y-115531208D01*
X132659738Y-115729049D01*
X132523802Y-115950877D01*
X132523801Y-115950879D01*
X132428276Y-116181499D01*
X132424236Y-116191252D01*
X132363501Y-116444232D01*
X132363500Y-116444236D01*
X132343089Y-116703595D01*
X132343089Y-116703604D01*
X125874100Y-116703604D01*
X125874100Y-113353600D01*
X127189128Y-113353600D01*
X127209291Y-113480906D01*
X127209291Y-113480907D01*
X127254687Y-113570000D01*
X127267808Y-113595751D01*
X127358949Y-113686892D01*
X127473794Y-113745409D01*
X127601100Y-113765572D01*
X127728406Y-113745409D01*
X127843251Y-113686892D01*
X127934392Y-113595751D01*
X127947513Y-113569999D01*
X154182443Y-113569999D01*
X154200976Y-113698908D01*
X154222213Y-113745409D01*
X154255079Y-113817374D01*
X154340364Y-113915799D01*
X154449924Y-113986208D01*
X154449926Y-113986208D01*
X154449927Y-113986209D01*
X154574881Y-114022900D01*
X154574883Y-114022900D01*
X154705119Y-114022900D01*
X154801444Y-113994615D01*
X154830076Y-113986208D01*
X154939636Y-113915799D01*
X155024921Y-113817374D01*
X155079023Y-113698909D01*
X155097557Y-113570000D01*
X155079023Y-113441091D01*
X155024921Y-113322626D01*
X154939636Y-113224201D01*
X154830076Y-113153792D01*
X154830074Y-113153791D01*
X154830072Y-113153790D01*
X154705119Y-113117100D01*
X154705117Y-113117100D01*
X154574883Y-113117100D01*
X154574881Y-113117100D01*
X154449927Y-113153790D01*
X154340364Y-113224201D01*
X154255078Y-113322627D01*
X154200976Y-113441091D01*
X154182443Y-113569999D01*
X127947513Y-113569999D01*
X127992909Y-113480906D01*
X128013072Y-113353600D01*
X127999511Y-113267981D01*
X128010678Y-113221470D01*
X128051465Y-113196475D01*
X128089616Y-113202517D01*
X128173794Y-113245409D01*
X128301100Y-113265572D01*
X128428406Y-113245409D01*
X128543251Y-113186892D01*
X128581906Y-113148236D01*
X128626100Y-113129931D01*
X128670294Y-113148236D01*
X128708949Y-113186892D01*
X128823794Y-113245409D01*
X128951100Y-113265572D01*
X129078406Y-113245409D01*
X129193251Y-113186892D01*
X129231906Y-113148236D01*
X129276100Y-113129931D01*
X129320294Y-113148236D01*
X129358949Y-113186892D01*
X129473794Y-113245409D01*
X129601100Y-113265572D01*
X129728406Y-113245409D01*
X129843251Y-113186892D01*
X129881905Y-113148237D01*
X129926100Y-113129931D01*
X129970294Y-113148236D01*
X130008949Y-113186892D01*
X130123794Y-113245409D01*
X130251100Y-113265572D01*
X130378406Y-113245409D01*
X130493251Y-113186892D01*
X130584392Y-113095751D01*
X130642909Y-112980906D01*
X130663072Y-112853600D01*
X130647234Y-112753600D01*
X166839128Y-112753600D01*
X166859291Y-112880906D01*
X166859291Y-112880907D01*
X166917808Y-112995750D01*
X166917808Y-112995751D01*
X167008949Y-113086892D01*
X167123794Y-113145409D01*
X167251100Y-113165572D01*
X167251101Y-113165571D01*
X167251103Y-113165572D01*
X167322706Y-113154231D01*
X167369219Y-113165397D01*
X167388171Y-113187586D01*
X167417808Y-113245751D01*
X167508949Y-113336892D01*
X167623794Y-113395409D01*
X167751100Y-113415572D01*
X167878406Y-113395409D01*
X167993251Y-113336892D01*
X168084392Y-113245751D01*
X168114027Y-113187587D01*
X168150400Y-113156520D01*
X168179490Y-113154230D01*
X168251100Y-113165572D01*
X168378406Y-113145409D01*
X168493251Y-113086892D01*
X168584392Y-112995751D01*
X168642909Y-112880906D01*
X168647234Y-112853600D01*
X169039128Y-112853600D01*
X169059291Y-112980906D01*
X169059291Y-112980907D01*
X169080634Y-113022794D01*
X169117808Y-113095751D01*
X169208949Y-113186892D01*
X169323794Y-113245409D01*
X169451100Y-113265572D01*
X169578406Y-113245409D01*
X169693251Y-113186892D01*
X169784392Y-113095751D01*
X169842909Y-112980906D01*
X169863072Y-112853600D01*
X169842909Y-112726294D01*
X169784392Y-112611449D01*
X169693251Y-112520308D01*
X169693250Y-112520308D01*
X169693250Y-112520307D01*
X169671623Y-112509288D01*
X169640556Y-112472914D01*
X169644309Y-112425226D01*
X169671623Y-112397912D01*
X169671627Y-112397910D01*
X169693251Y-112386892D01*
X169784392Y-112295751D01*
X169842909Y-112180906D01*
X169863072Y-112053600D01*
X169842909Y-111926294D01*
X169784392Y-111811449D01*
X169693251Y-111720308D01*
X169693250Y-111720308D01*
X169693250Y-111720307D01*
X169671623Y-111709288D01*
X169640556Y-111672914D01*
X169644309Y-111625226D01*
X169671623Y-111597912D01*
X169671627Y-111597910D01*
X169693251Y-111586892D01*
X169784392Y-111495751D01*
X169842909Y-111380906D01*
X169863072Y-111253600D01*
X169842909Y-111126294D01*
X169784392Y-111011449D01*
X169693251Y-110920308D01*
X169693250Y-110920308D01*
X169693250Y-110920307D01*
X169671623Y-110909288D01*
X169640556Y-110872914D01*
X169644309Y-110825226D01*
X169671623Y-110797912D01*
X169671627Y-110797910D01*
X169693251Y-110786892D01*
X169784392Y-110695751D01*
X169842909Y-110580906D01*
X169863072Y-110453600D01*
X169842909Y-110326294D01*
X169784392Y-110211449D01*
X169695737Y-110122794D01*
X169677431Y-110078600D01*
X169695737Y-110034406D01*
X169709835Y-110020308D01*
X169784392Y-109945751D01*
X169842909Y-109830906D01*
X169863072Y-109703600D01*
X169842909Y-109576294D01*
X169784392Y-109461449D01*
X169695737Y-109372793D01*
X169677431Y-109328600D01*
X169695737Y-109284406D01*
X169711235Y-109268908D01*
X169784392Y-109195751D01*
X169842909Y-109080906D01*
X169863072Y-108953600D01*
X169842909Y-108826294D01*
X169784392Y-108711449D01*
X169693251Y-108620308D01*
X169578406Y-108561791D01*
X169451100Y-108541628D01*
X169451099Y-108541628D01*
X169323793Y-108561791D01*
X169323792Y-108561791D01*
X169208948Y-108620308D01*
X169117808Y-108711448D01*
X169059291Y-108826292D01*
X169059291Y-108826293D01*
X169039128Y-108953600D01*
X169059291Y-109080906D01*
X169059291Y-109080907D01*
X169117808Y-109195751D01*
X169206463Y-109284406D01*
X169224769Y-109328600D01*
X169206463Y-109372794D01*
X169117808Y-109461448D01*
X169059291Y-109576292D01*
X169059291Y-109576293D01*
X169039128Y-109703600D01*
X169059291Y-109830906D01*
X169059291Y-109830907D01*
X169117808Y-109945751D01*
X169206463Y-110034406D01*
X169224769Y-110078600D01*
X169206463Y-110122794D01*
X169117808Y-110211448D01*
X169059291Y-110326292D01*
X169059291Y-110326293D01*
X169039128Y-110453600D01*
X169059291Y-110580906D01*
X169059291Y-110580907D01*
X169066855Y-110595751D01*
X169117808Y-110695751D01*
X169208949Y-110786892D01*
X169230576Y-110797911D01*
X169261643Y-110834284D01*
X169257891Y-110881972D01*
X169230579Y-110909286D01*
X169208948Y-110920308D01*
X169117808Y-111011448D01*
X169059291Y-111126292D01*
X169059291Y-111126293D01*
X169039128Y-111253600D01*
X169059291Y-111380906D01*
X169059291Y-111380907D01*
X169109069Y-111478600D01*
X169117808Y-111495751D01*
X169208949Y-111586892D01*
X169230576Y-111597911D01*
X169261643Y-111634284D01*
X169257891Y-111681972D01*
X169230579Y-111709286D01*
X169208948Y-111720308D01*
X169117808Y-111811448D01*
X169059291Y-111926292D01*
X169059291Y-111926293D01*
X169039128Y-112053600D01*
X169059291Y-112180906D01*
X169059291Y-112180907D01*
X169104844Y-112270308D01*
X169117808Y-112295751D01*
X169208949Y-112386892D01*
X169230576Y-112397911D01*
X169261643Y-112434284D01*
X169257891Y-112481972D01*
X169230579Y-112509286D01*
X169208948Y-112520308D01*
X169117808Y-112611448D01*
X169059291Y-112726292D01*
X169059291Y-112726293D01*
X169039128Y-112853600D01*
X168647234Y-112853600D01*
X168663072Y-112753600D01*
X168642909Y-112626294D01*
X168584392Y-112511449D01*
X168493251Y-112420308D01*
X168378406Y-112361791D01*
X168251100Y-112341628D01*
X168251099Y-112341628D01*
X168123793Y-112361791D01*
X168123792Y-112361791D01*
X168008948Y-112420308D01*
X167917807Y-112511449D01*
X167888170Y-112569613D01*
X167851795Y-112600678D01*
X167822707Y-112602968D01*
X167751100Y-112591628D01*
X167679491Y-112602969D01*
X167632978Y-112591801D01*
X167614028Y-112569613D01*
X167584392Y-112511449D01*
X167493251Y-112420308D01*
X167378406Y-112361791D01*
X167251100Y-112341628D01*
X167251099Y-112341628D01*
X167123793Y-112361791D01*
X167123792Y-112361791D01*
X167008948Y-112420308D01*
X166917808Y-112511448D01*
X166859291Y-112626292D01*
X166859291Y-112626293D01*
X166839128Y-112753600D01*
X130647234Y-112753600D01*
X130642909Y-112726294D01*
X130584392Y-112611449D01*
X130493251Y-112520308D01*
X130378406Y-112461791D01*
X130251100Y-112441628D01*
X130123793Y-112461791D01*
X130123792Y-112461791D01*
X130008948Y-112520308D01*
X129970294Y-112558963D01*
X129926100Y-112577269D01*
X129881906Y-112558963D01*
X129843251Y-112520308D01*
X129728406Y-112461791D01*
X129601100Y-112441628D01*
X129473793Y-112461791D01*
X129473792Y-112461791D01*
X129358948Y-112520308D01*
X129320294Y-112558963D01*
X129276100Y-112577269D01*
X129231906Y-112558963D01*
X129193251Y-112520308D01*
X129078406Y-112461791D01*
X129026689Y-112453600D01*
X128951100Y-112441628D01*
X128951099Y-112441628D01*
X128823793Y-112461791D01*
X128823792Y-112461791D01*
X128708948Y-112520308D01*
X128670294Y-112558963D01*
X128626100Y-112577269D01*
X128581906Y-112558963D01*
X128543251Y-112520308D01*
X128428406Y-112461791D01*
X128301100Y-112441628D01*
X128173793Y-112461791D01*
X128173789Y-112461792D01*
X128079760Y-112509703D01*
X128032072Y-112513456D01*
X127995698Y-112482389D01*
X127994326Y-112479076D01*
X127992909Y-112476295D01*
X127992909Y-112476294D01*
X127934392Y-112361449D01*
X127845737Y-112272794D01*
X127827431Y-112228600D01*
X127845737Y-112184406D01*
X127849237Y-112180906D01*
X127934392Y-112095751D01*
X127992909Y-111980906D01*
X128013072Y-111853600D01*
X127992909Y-111726294D01*
X127934392Y-111611449D01*
X127909834Y-111586891D01*
X127845737Y-111522793D01*
X127827431Y-111478599D01*
X127845736Y-111434406D01*
X127934392Y-111345751D01*
X127992909Y-111230906D01*
X128013072Y-111103600D01*
X127992909Y-110976294D01*
X127934392Y-110861449D01*
X127845737Y-110772794D01*
X127827431Y-110728600D01*
X127845737Y-110684406D01*
X127845736Y-110684406D01*
X127934392Y-110595751D01*
X127992909Y-110480906D01*
X128013072Y-110353600D01*
X127992909Y-110226294D01*
X127934392Y-110111449D01*
X127845736Y-110022793D01*
X127827431Y-109978600D01*
X127845737Y-109934406D01*
X127868758Y-109911385D01*
X161801329Y-109911385D01*
X161819862Y-110040294D01*
X161873964Y-110158758D01*
X161873965Y-110158760D01*
X161959250Y-110257185D01*
X162068810Y-110327594D01*
X162068812Y-110327594D01*
X162068813Y-110327595D01*
X162193767Y-110364286D01*
X162193769Y-110364286D01*
X162324005Y-110364286D01*
X162420330Y-110336001D01*
X162448962Y-110327594D01*
X162558522Y-110257185D01*
X162643807Y-110158760D01*
X162697909Y-110040295D01*
X162716443Y-109911386D01*
X162697909Y-109782477D01*
X162643807Y-109664012D01*
X162558522Y-109565587D01*
X162448962Y-109495178D01*
X162448960Y-109495177D01*
X162448958Y-109495176D01*
X162324005Y-109458486D01*
X162324003Y-109458486D01*
X162193769Y-109458486D01*
X162193767Y-109458486D01*
X162068813Y-109495176D01*
X161959250Y-109565587D01*
X161873964Y-109664013D01*
X161819862Y-109782477D01*
X161801329Y-109911385D01*
X127868758Y-109911385D01*
X127934392Y-109845751D01*
X127992909Y-109730906D01*
X128013072Y-109603600D01*
X127992909Y-109476294D01*
X127934392Y-109361449D01*
X127845737Y-109272794D01*
X127827431Y-109228600D01*
X127845737Y-109184406D01*
X127845737Y-109184405D01*
X127890143Y-109140000D01*
X147872443Y-109140000D01*
X147890976Y-109268908D01*
X147918237Y-109328600D01*
X147945079Y-109387374D01*
X148030364Y-109485799D01*
X148139924Y-109556208D01*
X148139926Y-109556208D01*
X148139927Y-109556209D01*
X148264881Y-109592900D01*
X148264883Y-109592900D01*
X148395119Y-109592900D01*
X148491444Y-109564615D01*
X148520076Y-109556208D01*
X148629636Y-109485799D01*
X148714921Y-109387374D01*
X148769023Y-109268909D01*
X148787557Y-109140000D01*
X148769023Y-109011091D01*
X148714921Y-108892626D01*
X148629636Y-108794201D01*
X148520076Y-108723792D01*
X148520074Y-108723791D01*
X148520072Y-108723790D01*
X148395119Y-108687100D01*
X148395117Y-108687100D01*
X148264883Y-108687100D01*
X148264881Y-108687100D01*
X148139927Y-108723790D01*
X148030364Y-108794201D01*
X147945078Y-108892627D01*
X147890976Y-109011091D01*
X147872443Y-109140000D01*
X127890143Y-109140000D01*
X127934392Y-109095751D01*
X127992909Y-108980906D01*
X128013072Y-108853600D01*
X128003156Y-108790993D01*
X128014322Y-108744481D01*
X128055108Y-108719487D01*
X128101622Y-108730653D01*
X128109080Y-108737023D01*
X128158949Y-108786892D01*
X128273794Y-108845409D01*
X128401100Y-108865572D01*
X128528406Y-108845409D01*
X128643251Y-108786892D01*
X128681905Y-108748237D01*
X128726100Y-108729931D01*
X128770294Y-108748236D01*
X128808949Y-108786892D01*
X128923794Y-108845409D01*
X129051100Y-108865572D01*
X129178406Y-108845409D01*
X129293251Y-108786892D01*
X129331905Y-108748237D01*
X129376100Y-108729931D01*
X129420294Y-108748236D01*
X129458949Y-108786892D01*
X129573794Y-108845409D01*
X129701100Y-108865572D01*
X129828406Y-108845409D01*
X129943251Y-108786892D01*
X129981906Y-108748236D01*
X130026100Y-108729931D01*
X130070294Y-108748236D01*
X130108949Y-108786892D01*
X130223794Y-108845409D01*
X130351100Y-108865572D01*
X130478406Y-108845409D01*
X130593251Y-108786892D01*
X130684392Y-108695751D01*
X130705869Y-108653600D01*
X166339128Y-108653600D01*
X166355657Y-108757964D01*
X166359291Y-108780906D01*
X166359291Y-108780907D01*
X166392157Y-108845409D01*
X166417808Y-108895751D01*
X166508949Y-108986892D01*
X166623794Y-109045409D01*
X166751100Y-109065572D01*
X166878406Y-109045409D01*
X166993251Y-108986892D01*
X167084392Y-108895751D01*
X167141336Y-108783992D01*
X167177711Y-108752926D01*
X167206797Y-108750636D01*
X167301100Y-108765572D01*
X167349133Y-108757964D01*
X167395646Y-108769131D01*
X167414597Y-108791320D01*
X167442157Y-108845408D01*
X167467808Y-108895751D01*
X167558949Y-108986892D01*
X167673794Y-109045409D01*
X167801100Y-109065572D01*
X167928406Y-109045409D01*
X168043251Y-108986892D01*
X168134392Y-108895751D01*
X168187603Y-108791319D01*
X168223975Y-108760254D01*
X168253064Y-108757964D01*
X168301100Y-108765572D01*
X168428406Y-108745409D01*
X168543251Y-108686892D01*
X168634392Y-108595751D01*
X168692909Y-108480906D01*
X168713072Y-108353600D01*
X168692909Y-108226294D01*
X168634392Y-108111449D01*
X168543251Y-108020308D01*
X168428406Y-107961791D01*
X168301100Y-107941628D01*
X168173793Y-107961791D01*
X168173792Y-107961791D01*
X168058948Y-108020308D01*
X167967808Y-108111448D01*
X167914597Y-108215879D01*
X167878222Y-108246945D01*
X167849133Y-108249235D01*
X167801100Y-108241628D01*
X167753066Y-108249235D01*
X167706552Y-108238067D01*
X167687602Y-108215879D01*
X167685345Y-108211449D01*
X167634392Y-108111449D01*
X167543251Y-108020308D01*
X167428406Y-107961791D01*
X167301100Y-107941628D01*
X167173793Y-107961791D01*
X167173792Y-107961791D01*
X167058948Y-108020308D01*
X166967808Y-108111448D01*
X166910863Y-108223207D01*
X166874488Y-108254273D01*
X166845398Y-108256563D01*
X166751100Y-108241628D01*
X166623793Y-108261791D01*
X166623792Y-108261791D01*
X166508948Y-108320308D01*
X166417808Y-108411448D01*
X166359291Y-108526292D01*
X166359291Y-108526293D01*
X166359290Y-108526294D01*
X166359291Y-108526294D01*
X166339128Y-108653600D01*
X130705869Y-108653600D01*
X130742909Y-108580906D01*
X130763072Y-108453600D01*
X130742909Y-108326294D01*
X130684392Y-108211449D01*
X130593251Y-108120308D01*
X130478406Y-108061791D01*
X130351100Y-108041628D01*
X130351099Y-108041628D01*
X130223793Y-108061791D01*
X130223792Y-108061791D01*
X130108948Y-108120308D01*
X130070294Y-108158963D01*
X130026100Y-108177269D01*
X129981906Y-108158963D01*
X129943251Y-108120308D01*
X129828406Y-108061791D01*
X129828405Y-108061791D01*
X129701100Y-108041628D01*
X129701099Y-108041628D01*
X129573793Y-108061791D01*
X129573792Y-108061791D01*
X129458950Y-108120307D01*
X129420293Y-108158964D01*
X129376098Y-108177269D01*
X129331906Y-108158964D01*
X129293251Y-108120308D01*
X129178406Y-108061791D01*
X129051100Y-108041628D01*
X128923793Y-108061791D01*
X128923792Y-108061791D01*
X128808948Y-108120308D01*
X128770294Y-108158963D01*
X128726100Y-108177269D01*
X128681906Y-108158963D01*
X128643251Y-108120308D01*
X128528406Y-108061791D01*
X128401100Y-108041628D01*
X128273793Y-108061791D01*
X128273792Y-108061791D01*
X128158950Y-108120307D01*
X128118490Y-108160767D01*
X128074295Y-108179072D01*
X128030101Y-108160766D01*
X128011796Y-108116571D01*
X128012565Y-108106798D01*
X128013072Y-108103600D01*
X127992909Y-107976294D01*
X127934392Y-107861449D01*
X127845737Y-107772794D01*
X127827431Y-107728600D01*
X127845737Y-107684406D01*
X127845736Y-107684405D01*
X127934392Y-107595751D01*
X127992909Y-107480906D01*
X128013072Y-107353600D01*
X127992909Y-107226294D01*
X127934392Y-107111449D01*
X127845736Y-107022794D01*
X127827431Y-106978600D01*
X127845737Y-106934406D01*
X127876544Y-106903599D01*
X127934392Y-106845751D01*
X127956549Y-106802264D01*
X127992923Y-106771198D01*
X128040611Y-106774951D01*
X128060212Y-106791690D01*
X128060230Y-106791673D01*
X128060449Y-106791892D01*
X128062798Y-106793898D01*
X128063707Y-106795149D01*
X128063708Y-106795151D01*
X128154849Y-106886292D01*
X128269694Y-106944809D01*
X128397000Y-106964972D01*
X128524306Y-106944809D01*
X128639151Y-106886292D01*
X128654556Y-106870887D01*
X128698750Y-106852581D01*
X128742944Y-106870887D01*
X128758949Y-106886892D01*
X128873794Y-106945409D01*
X129001100Y-106965572D01*
X129128406Y-106945409D01*
X129243251Y-106886892D01*
X129252055Y-106878087D01*
X129296250Y-106859781D01*
X129340444Y-106878087D01*
X129348649Y-106886292D01*
X129463494Y-106944809D01*
X129590800Y-106964972D01*
X129718106Y-106944809D01*
X129832951Y-106886292D01*
X129851406Y-106867837D01*
X129895600Y-106849531D01*
X129939794Y-106867837D01*
X129958249Y-106886292D01*
X130073094Y-106944809D01*
X130200400Y-106964972D01*
X130327706Y-106944809D01*
X130327707Y-106944808D01*
X130332261Y-106944087D01*
X130378775Y-106955254D01*
X130403768Y-106996040D01*
X130409290Y-107030903D01*
X130409290Y-107030904D01*
X130409290Y-107030905D01*
X130409291Y-107030906D01*
X130467808Y-107145751D01*
X130558949Y-107236892D01*
X130673794Y-107295409D01*
X130801100Y-107315572D01*
X130928406Y-107295409D01*
X131043251Y-107236892D01*
X131134392Y-107145751D01*
X131192909Y-107030906D01*
X131200926Y-106980283D01*
X131225919Y-106939499D01*
X131272429Y-106928331D01*
X131300768Y-106932819D01*
X131348259Y-106940342D01*
X131347953Y-106942268D01*
X131385639Y-106957878D01*
X131403175Y-106992293D01*
X131409291Y-107030906D01*
X131467808Y-107145751D01*
X131558949Y-107236892D01*
X131673794Y-107295409D01*
X131801100Y-107315572D01*
X131928406Y-107295409D01*
X132043251Y-107236892D01*
X132134392Y-107145751D01*
X132192909Y-107030906D01*
X132195874Y-107012184D01*
X132220866Y-106971399D01*
X132267376Y-106960230D01*
X132294268Y-106964489D01*
X132301099Y-106965572D01*
X132301100Y-106965572D01*
X132301101Y-106965572D01*
X132307140Y-106964615D01*
X132334817Y-106960231D01*
X132381330Y-106971396D01*
X132406325Y-107012182D01*
X132406325Y-107012183D01*
X132409290Y-107030903D01*
X132409290Y-107030904D01*
X132409290Y-107030905D01*
X132409291Y-107030906D01*
X132467808Y-107145751D01*
X132558949Y-107236892D01*
X132673794Y-107295409D01*
X132801100Y-107315572D01*
X132928406Y-107295409D01*
X133043251Y-107236892D01*
X133134392Y-107145751D01*
X133192909Y-107030906D01*
X133195874Y-107012184D01*
X133220866Y-106971399D01*
X133267376Y-106960230D01*
X133294268Y-106964489D01*
X133301099Y-106965572D01*
X133301100Y-106965572D01*
X133301101Y-106965572D01*
X133307140Y-106964615D01*
X133334817Y-106960231D01*
X133381330Y-106971396D01*
X133406325Y-107012182D01*
X133406325Y-107012183D01*
X133409290Y-107030903D01*
X133409290Y-107030904D01*
X133409290Y-107030905D01*
X133409291Y-107030906D01*
X133467808Y-107145751D01*
X133558949Y-107236892D01*
X133673794Y-107295409D01*
X133801100Y-107315572D01*
X133928406Y-107295409D01*
X134043251Y-107236892D01*
X134134392Y-107145751D01*
X134192909Y-107030906D01*
X134195874Y-107012184D01*
X134220866Y-106971399D01*
X134267376Y-106960230D01*
X134294268Y-106964489D01*
X134301099Y-106965572D01*
X134301100Y-106965572D01*
X134301101Y-106965572D01*
X134307140Y-106964615D01*
X134334817Y-106960231D01*
X134381330Y-106971396D01*
X134406325Y-107012182D01*
X134406325Y-107012183D01*
X134409290Y-107030903D01*
X134409290Y-107030904D01*
X134409290Y-107030905D01*
X134409291Y-107030906D01*
X134467808Y-107145751D01*
X134558949Y-107236892D01*
X134673794Y-107295409D01*
X134801100Y-107315572D01*
X134928406Y-107295409D01*
X135043251Y-107236892D01*
X135134392Y-107145751D01*
X135192909Y-107030906D01*
X135195874Y-107012184D01*
X135220866Y-106971399D01*
X135267376Y-106960230D01*
X135301100Y-106965572D01*
X135428406Y-106945409D01*
X135510460Y-106903600D01*
X149089128Y-106903600D01*
X149095655Y-106944808D01*
X149109291Y-107030906D01*
X149109291Y-107030907D01*
X149150330Y-107111449D01*
X149167808Y-107145751D01*
X149258949Y-107236892D01*
X149373794Y-107295409D01*
X149501100Y-107315572D01*
X149628406Y-107295409D01*
X149743251Y-107236892D01*
X149781907Y-107198235D01*
X149826098Y-107179931D01*
X149870293Y-107198236D01*
X149908949Y-107236892D01*
X150023794Y-107295409D01*
X150151100Y-107315572D01*
X150278406Y-107295409D01*
X150393251Y-107236892D01*
X150431907Y-107198235D01*
X150476098Y-107179931D01*
X150520292Y-107198235D01*
X150558949Y-107236892D01*
X150673794Y-107295409D01*
X150801100Y-107315572D01*
X150928406Y-107295409D01*
X151043251Y-107236892D01*
X151081905Y-107198237D01*
X151126100Y-107179931D01*
X151170294Y-107198236D01*
X151208949Y-107236892D01*
X151323794Y-107295409D01*
X151451100Y-107315572D01*
X151578406Y-107295409D01*
X151693251Y-107236892D01*
X151731906Y-107198236D01*
X151776100Y-107179931D01*
X151820294Y-107198236D01*
X151858949Y-107236892D01*
X151973794Y-107295409D01*
X152101100Y-107315572D01*
X152228406Y-107295409D01*
X152343251Y-107236892D01*
X152381906Y-107198236D01*
X152426100Y-107179931D01*
X152470294Y-107198236D01*
X152508949Y-107236892D01*
X152623794Y-107295409D01*
X152751100Y-107315572D01*
X152878406Y-107295409D01*
X152993251Y-107236892D01*
X153031905Y-107198237D01*
X153076100Y-107179931D01*
X153120294Y-107198236D01*
X153158949Y-107236892D01*
X153273794Y-107295409D01*
X153401100Y-107315572D01*
X153528406Y-107295409D01*
X153643251Y-107236892D01*
X153734392Y-107145751D01*
X153792909Y-107030906D01*
X153813072Y-106903600D01*
X155039128Y-106903600D01*
X155059291Y-107030906D01*
X155059291Y-107030907D01*
X155100330Y-107111449D01*
X155117808Y-107145751D01*
X155208949Y-107236892D01*
X155323794Y-107295409D01*
X155451100Y-107315572D01*
X155578406Y-107295409D01*
X155693251Y-107236892D01*
X155731906Y-107198236D01*
X155776100Y-107179931D01*
X155820294Y-107198236D01*
X155858949Y-107236892D01*
X155973794Y-107295409D01*
X156101100Y-107315572D01*
X156228406Y-107295409D01*
X156343251Y-107236892D01*
X156375556Y-107204586D01*
X156419750Y-107186281D01*
X156463944Y-107204587D01*
X156501249Y-107241892D01*
X156616094Y-107300409D01*
X156743400Y-107320572D01*
X156870706Y-107300409D01*
X156985551Y-107241892D01*
X157030556Y-107196887D01*
X157074750Y-107178581D01*
X157118944Y-107196887D01*
X157158949Y-107236892D01*
X157273794Y-107295409D01*
X157401100Y-107315572D01*
X157528406Y-107295409D01*
X157643251Y-107236892D01*
X157681905Y-107198237D01*
X157726100Y-107179931D01*
X157770294Y-107198236D01*
X157808949Y-107236892D01*
X157923794Y-107295409D01*
X158051100Y-107315572D01*
X158178406Y-107295409D01*
X158293251Y-107236892D01*
X158331906Y-107198236D01*
X158376100Y-107179931D01*
X158420294Y-107198236D01*
X158458949Y-107236892D01*
X158573794Y-107295409D01*
X158701100Y-107315572D01*
X158828406Y-107295409D01*
X158943251Y-107236892D01*
X159034392Y-107145751D01*
X159092909Y-107030906D01*
X159113072Y-106903600D01*
X159092909Y-106776294D01*
X159034392Y-106661449D01*
X158943251Y-106570308D01*
X158828406Y-106511791D01*
X158701100Y-106491628D01*
X158701099Y-106491628D01*
X158573793Y-106511791D01*
X158573792Y-106511791D01*
X158458950Y-106570307D01*
X158420294Y-106608963D01*
X158376099Y-106627268D01*
X158331906Y-106608963D01*
X158317392Y-106594449D01*
X158293251Y-106570308D01*
X158178406Y-106511791D01*
X158051100Y-106491628D01*
X157923793Y-106511791D01*
X157923789Y-106511792D01*
X157862738Y-106542900D01*
X157815050Y-106546653D01*
X157778676Y-106515586D01*
X157774923Y-106467898D01*
X157778673Y-106458844D01*
X157792909Y-106430906D01*
X157813072Y-106303600D01*
X157792909Y-106176294D01*
X157734392Y-106061449D01*
X157643251Y-105970308D01*
X157528406Y-105911791D01*
X157401100Y-105891628D01*
X157273793Y-105911791D01*
X157273792Y-105911791D01*
X157158948Y-105970308D01*
X157120294Y-106008963D01*
X157076100Y-106027269D01*
X157031906Y-106008963D01*
X156993251Y-105970308D01*
X156878406Y-105911791D01*
X156849362Y-105907191D01*
X156751100Y-105891628D01*
X156751099Y-105891628D01*
X156623793Y-105911791D01*
X156623792Y-105911791D01*
X156508948Y-105970308D01*
X156470294Y-106008963D01*
X156426100Y-106027269D01*
X156381906Y-106008963D01*
X156343251Y-105970308D01*
X156228406Y-105911791D01*
X156199362Y-105907191D01*
X156101100Y-105891628D01*
X156101099Y-105891628D01*
X155973793Y-105911791D01*
X155973792Y-105911791D01*
X155858948Y-105970308D01*
X155820294Y-106008963D01*
X155776100Y-106027269D01*
X155731906Y-106008963D01*
X155693251Y-105970308D01*
X155578406Y-105911791D01*
X155451100Y-105891628D01*
X155323793Y-105911791D01*
X155323792Y-105911791D01*
X155208948Y-105970308D01*
X155117808Y-106061448D01*
X155059291Y-106176292D01*
X155059291Y-106176293D01*
X155039128Y-106303600D01*
X155059291Y-106430906D01*
X155059291Y-106430907D01*
X155117808Y-106545751D01*
X155131463Y-106559406D01*
X155149769Y-106603600D01*
X155131463Y-106647794D01*
X155117808Y-106661448D01*
X155059291Y-106776292D01*
X155059291Y-106776293D01*
X155039128Y-106903600D01*
X153813072Y-106903600D01*
X153792909Y-106776294D01*
X153734392Y-106661449D01*
X153720736Y-106647794D01*
X153702431Y-106603600D01*
X153720737Y-106559406D01*
X153726543Y-106553600D01*
X153734392Y-106545751D01*
X153792909Y-106430906D01*
X153813072Y-106303600D01*
X153792909Y-106176294D01*
X153734392Y-106061449D01*
X153643251Y-105970308D01*
X153528406Y-105911791D01*
X153401100Y-105891628D01*
X153273793Y-105911791D01*
X153273792Y-105911791D01*
X153158948Y-105970308D01*
X153120294Y-106008963D01*
X153076100Y-106027269D01*
X153031906Y-106008963D01*
X152993251Y-105970308D01*
X152878406Y-105911791D01*
X152849362Y-105907191D01*
X152751100Y-105891628D01*
X152751099Y-105891628D01*
X152623793Y-105911791D01*
X152623792Y-105911791D01*
X152508948Y-105970308D01*
X152470294Y-106008963D01*
X152426100Y-106027269D01*
X152381906Y-106008963D01*
X152343251Y-105970308D01*
X152228406Y-105911791D01*
X152199362Y-105907191D01*
X152101100Y-105891628D01*
X152101099Y-105891628D01*
X151973793Y-105911791D01*
X151973792Y-105911791D01*
X151858948Y-105970308D01*
X151820294Y-106008963D01*
X151776100Y-106027269D01*
X151731906Y-106008963D01*
X151693251Y-105970308D01*
X151578406Y-105911791D01*
X151451100Y-105891628D01*
X151323793Y-105911791D01*
X151323792Y-105911791D01*
X151208948Y-105970308D01*
X151170294Y-106008963D01*
X151126100Y-106027269D01*
X151081906Y-106008963D01*
X151043251Y-105970308D01*
X150928406Y-105911791D01*
X150899362Y-105907191D01*
X150801100Y-105891628D01*
X150801099Y-105891628D01*
X150673793Y-105911791D01*
X150673792Y-105911791D01*
X150558950Y-105970307D01*
X150529444Y-105999813D01*
X150485249Y-106018118D01*
X150441056Y-105999813D01*
X150436993Y-105995750D01*
X150406951Y-105965708D01*
X150292106Y-105907191D01*
X150164800Y-105887028D01*
X150037493Y-105907191D01*
X150037492Y-105907191D01*
X149922648Y-105965708D01*
X149831508Y-106056848D01*
X149772991Y-106171692D01*
X149772991Y-106171693D01*
X149752828Y-106299000D01*
X149772991Y-106426306D01*
X149772992Y-106426310D01*
X149795192Y-106469879D01*
X149798945Y-106517567D01*
X149767878Y-106553941D01*
X149720190Y-106557694D01*
X149711129Y-106553941D01*
X149695055Y-106545751D01*
X149628406Y-106511791D01*
X149501100Y-106491628D01*
X149501099Y-106491628D01*
X149373793Y-106511791D01*
X149373792Y-106511791D01*
X149258948Y-106570308D01*
X149167808Y-106661448D01*
X149109291Y-106776292D01*
X149109291Y-106776293D01*
X149097692Y-106849531D01*
X149089128Y-106903600D01*
X135510460Y-106903600D01*
X135543251Y-106886892D01*
X135634392Y-106795751D01*
X135692909Y-106680906D01*
X135713072Y-106553600D01*
X135692909Y-106426294D01*
X135634392Y-106311449D01*
X135543251Y-106220308D01*
X135428406Y-106161791D01*
X135301100Y-106141628D01*
X135173793Y-106161791D01*
X135173792Y-106161791D01*
X135058948Y-106220308D01*
X134967808Y-106311448D01*
X134909290Y-106426295D01*
X134909289Y-106426297D01*
X134906325Y-106445015D01*
X134881331Y-106485801D01*
X134834819Y-106496968D01*
X134810731Y-106493153D01*
X134801100Y-106491628D01*
X134801099Y-106491628D01*
X134767380Y-106496968D01*
X134720866Y-106485800D01*
X134695874Y-106445014D01*
X134692909Y-106426294D01*
X134634392Y-106311449D01*
X134543251Y-106220308D01*
X134428406Y-106161791D01*
X134301100Y-106141628D01*
X134173793Y-106161791D01*
X134173792Y-106161791D01*
X134058948Y-106220308D01*
X133967808Y-106311448D01*
X133909290Y-106426295D01*
X133909289Y-106426297D01*
X133906325Y-106445015D01*
X133881331Y-106485801D01*
X133834819Y-106496968D01*
X133810731Y-106493153D01*
X133801100Y-106491628D01*
X133801099Y-106491628D01*
X133767380Y-106496968D01*
X133720866Y-106485800D01*
X133695874Y-106445014D01*
X133692909Y-106426294D01*
X133634392Y-106311449D01*
X133543251Y-106220308D01*
X133428406Y-106161791D01*
X133301100Y-106141628D01*
X133173793Y-106161791D01*
X133173792Y-106161791D01*
X133058948Y-106220308D01*
X132967808Y-106311448D01*
X132909290Y-106426295D01*
X132909289Y-106426297D01*
X132906325Y-106445015D01*
X132881331Y-106485801D01*
X132834819Y-106496968D01*
X132810731Y-106493153D01*
X132801100Y-106491628D01*
X132801099Y-106491628D01*
X132767380Y-106496968D01*
X132720866Y-106485800D01*
X132695874Y-106445014D01*
X132692909Y-106426294D01*
X132634392Y-106311449D01*
X132543251Y-106220308D01*
X132428406Y-106161791D01*
X132301100Y-106141628D01*
X132173793Y-106161791D01*
X132173792Y-106161791D01*
X132058948Y-106220308D01*
X131967808Y-106311448D01*
X131909290Y-106426295D01*
X131909289Y-106426297D01*
X131906325Y-106445015D01*
X131881331Y-106485801D01*
X131834819Y-106496968D01*
X131811130Y-106493216D01*
X131801100Y-106491628D01*
X131801099Y-106491628D01*
X131796243Y-106490859D01*
X131796548Y-106488932D01*
X131758861Y-106473322D01*
X131741325Y-106438905D01*
X131735210Y-106400299D01*
X131735208Y-106400292D01*
X131711791Y-106354335D01*
X131676692Y-106285449D01*
X131585551Y-106194308D01*
X131470706Y-106135791D01*
X131343400Y-106115628D01*
X131343399Y-106115628D01*
X131216093Y-106135791D01*
X131216092Y-106135791D01*
X131101248Y-106194308D01*
X131010108Y-106285448D01*
X130951590Y-106400295D01*
X130951589Y-106400297D01*
X130943572Y-106450915D01*
X130918578Y-106491701D01*
X130872066Y-106502867D01*
X130801100Y-106491628D01*
X130673794Y-106511791D01*
X130673792Y-106511791D01*
X130669238Y-106512513D01*
X130622724Y-106501345D01*
X130597731Y-106460561D01*
X130592209Y-106425694D01*
X130533692Y-106310849D01*
X130442551Y-106219708D01*
X130327706Y-106161191D01*
X130200400Y-106141028D01*
X130073093Y-106161191D01*
X130073092Y-106161191D01*
X129958248Y-106219708D01*
X129939794Y-106238163D01*
X129895600Y-106256469D01*
X129851406Y-106238163D01*
X129832951Y-106219708D01*
X129718106Y-106161191D01*
X129718105Y-106161191D01*
X129590800Y-106141028D01*
X129590799Y-106141028D01*
X129463493Y-106161191D01*
X129463492Y-106161191D01*
X129348645Y-106219709D01*
X129339841Y-106228514D01*
X129295646Y-106246818D01*
X129251455Y-106228512D01*
X129243251Y-106220308D01*
X129128406Y-106161791D01*
X129001100Y-106141628D01*
X128873793Y-106161791D01*
X128873792Y-106161791D01*
X128758948Y-106220308D01*
X128743544Y-106235713D01*
X128699350Y-106254019D01*
X128655156Y-106235713D01*
X128639151Y-106219708D01*
X128524306Y-106161191D01*
X128397000Y-106141028D01*
X128269693Y-106161191D01*
X128269692Y-106161191D01*
X128154848Y-106219708D01*
X128063706Y-106310850D01*
X128041549Y-106354335D01*
X128005175Y-106385401D01*
X127957487Y-106381647D01*
X127937887Y-106364909D01*
X127937870Y-106364927D01*
X127937642Y-106364699D01*
X127935300Y-106362699D01*
X127934391Y-106361448D01*
X127845737Y-106272794D01*
X127827431Y-106228600D01*
X127845737Y-106184406D01*
X127889115Y-106141028D01*
X127934392Y-106095751D01*
X127992909Y-105980906D01*
X128013072Y-105853600D01*
X127992909Y-105726294D01*
X127934392Y-105611449D01*
X127845736Y-105522794D01*
X127827431Y-105478600D01*
X127845737Y-105434406D01*
X127869735Y-105410408D01*
X127934392Y-105345751D01*
X127992909Y-105230906D01*
X128013072Y-105103600D01*
X127992909Y-104976294D01*
X127934392Y-104861449D01*
X127845737Y-104772794D01*
X127827431Y-104728600D01*
X127845737Y-104684406D01*
X127861543Y-104668600D01*
X128364128Y-104668600D01*
X128384291Y-104795906D01*
X128384291Y-104795907D01*
X128432894Y-104891294D01*
X128442808Y-104910751D01*
X128533949Y-105001892D01*
X128648794Y-105060409D01*
X128776100Y-105080572D01*
X128809817Y-105075231D01*
X128856330Y-105086396D01*
X128881325Y-105127182D01*
X128881325Y-105127183D01*
X128884290Y-105145903D01*
X128884290Y-105145904D01*
X128884290Y-105145905D01*
X128884291Y-105145906D01*
X128942808Y-105260751D01*
X129033949Y-105351892D01*
X129148794Y-105410409D01*
X129276100Y-105430572D01*
X129403406Y-105410409D01*
X129518251Y-105351892D01*
X129609392Y-105260751D01*
X129667909Y-105145906D01*
X129670874Y-105127184D01*
X129695866Y-105086399D01*
X129742376Y-105075230D01*
X129769268Y-105079489D01*
X129776099Y-105080572D01*
X129776100Y-105080572D01*
X129776101Y-105080572D01*
X129782140Y-105079615D01*
X129809817Y-105075231D01*
X129856330Y-105086396D01*
X129881325Y-105127182D01*
X129881325Y-105127183D01*
X129884290Y-105145903D01*
X129884290Y-105145904D01*
X129884290Y-105145905D01*
X129884291Y-105145906D01*
X129942808Y-105260751D01*
X130033949Y-105351892D01*
X130148794Y-105410409D01*
X130276100Y-105430572D01*
X130403406Y-105410409D01*
X130518251Y-105351892D01*
X130609392Y-105260751D01*
X130667909Y-105145906D01*
X130688072Y-105018600D01*
X130667909Y-104891294D01*
X130609392Y-104776449D01*
X130518251Y-104685308D01*
X130403406Y-104626791D01*
X130276100Y-104606628D01*
X130276099Y-104606628D01*
X130242380Y-104611968D01*
X130195866Y-104600800D01*
X130170874Y-104560014D01*
X130167909Y-104541294D01*
X130109392Y-104426449D01*
X130018251Y-104335308D01*
X129903406Y-104276791D01*
X129776100Y-104256628D01*
X129776099Y-104256628D01*
X129648793Y-104276791D01*
X129648792Y-104276791D01*
X129533948Y-104335308D01*
X129442808Y-104426448D01*
X129384290Y-104541295D01*
X129384289Y-104541297D01*
X129381325Y-104560015D01*
X129356331Y-104600801D01*
X129309819Y-104611968D01*
X129285731Y-104608153D01*
X129276100Y-104606628D01*
X129276099Y-104606628D01*
X129242380Y-104611968D01*
X129195866Y-104600800D01*
X129170874Y-104560014D01*
X129167909Y-104541294D01*
X129109392Y-104426449D01*
X129018251Y-104335308D01*
X128903406Y-104276791D01*
X128776100Y-104256628D01*
X128648793Y-104276791D01*
X128648792Y-104276791D01*
X128533948Y-104335308D01*
X128442808Y-104426448D01*
X128384291Y-104541292D01*
X128384291Y-104541293D01*
X128364128Y-104668600D01*
X127861543Y-104668600D01*
X127934392Y-104595751D01*
X127992909Y-104480906D01*
X128013072Y-104353600D01*
X127992909Y-104226294D01*
X127943844Y-104130000D01*
X165378028Y-104130000D01*
X165398191Y-104257306D01*
X165398191Y-104257307D01*
X165408382Y-104277307D01*
X165456708Y-104372151D01*
X165547849Y-104463292D01*
X165662694Y-104521809D01*
X165790000Y-104541972D01*
X165917306Y-104521809D01*
X166032151Y-104463292D01*
X166105805Y-104389637D01*
X166150000Y-104371331D01*
X166194194Y-104389637D01*
X166196708Y-104392151D01*
X166287849Y-104483292D01*
X166402694Y-104541809D01*
X166530000Y-104561972D01*
X166653792Y-104542365D01*
X166700305Y-104553531D01*
X166725299Y-104594317D01*
X166719257Y-104632469D01*
X166668192Y-104732689D01*
X166668191Y-104732693D01*
X166662234Y-104770308D01*
X166648028Y-104860000D01*
X166656066Y-104910751D01*
X166668191Y-104987306D01*
X166668191Y-104987307D01*
X166705439Y-105060409D01*
X166726708Y-105102151D01*
X166817849Y-105193292D01*
X166932694Y-105251809D01*
X166938723Y-105252763D01*
X166979510Y-105277754D01*
X166990680Y-105324267D01*
X166965689Y-105365055D01*
X166957324Y-105370182D01*
X166858950Y-105420307D01*
X166767810Y-105511447D01*
X166709293Y-105626291D01*
X166709293Y-105626292D01*
X166689130Y-105753599D01*
X166709293Y-105880905D01*
X166709293Y-105880906D01*
X166760247Y-105980907D01*
X166767810Y-105995750D01*
X166858951Y-106086891D01*
X166973796Y-106145408D01*
X167101102Y-106165571D01*
X167228408Y-106145408D01*
X167343253Y-106086891D01*
X167434394Y-105995750D01*
X167492911Y-105880905D01*
X167513074Y-105753599D01*
X167492911Y-105626293D01*
X167434394Y-105511448D01*
X167343253Y-105420307D01*
X167323825Y-105410408D01*
X167228409Y-105361790D01*
X167228402Y-105361788D01*
X167222375Y-105360834D01*
X167181588Y-105335840D01*
X167170422Y-105289327D01*
X167195416Y-105248540D01*
X167203778Y-105243416D01*
X167228330Y-105230906D01*
X167302151Y-105193292D01*
X167393292Y-105102151D01*
X167451809Y-104987306D01*
X167471972Y-104860000D01*
X167451809Y-104732694D01*
X167393292Y-104617849D01*
X167302151Y-104526708D01*
X167187306Y-104468191D01*
X167060000Y-104448028D01*
X167059999Y-104448028D01*
X167024667Y-104453624D01*
X166936206Y-104467634D01*
X166889693Y-104456467D01*
X166864699Y-104415681D01*
X166870742Y-104377529D01*
X166921809Y-104277306D01*
X166941972Y-104150000D01*
X166921809Y-104022694D01*
X166916816Y-104012894D01*
X167132443Y-104012894D01*
X167150976Y-104141803D01*
X167189562Y-104226292D01*
X167205079Y-104260269D01*
X167290364Y-104358694D01*
X167399924Y-104429103D01*
X167399926Y-104429103D01*
X167399927Y-104429104D01*
X167524881Y-104465795D01*
X167524883Y-104465795D01*
X167655119Y-104465795D01*
X167751444Y-104437510D01*
X167780076Y-104429103D01*
X167889636Y-104358694D01*
X167967765Y-104268526D01*
X168010541Y-104247114D01*
X168055928Y-104262220D01*
X168062231Y-104268523D01*
X168140364Y-104358694D01*
X168249924Y-104429103D01*
X168249926Y-104429103D01*
X168249927Y-104429104D01*
X168374881Y-104465795D01*
X168374883Y-104465795D01*
X168505119Y-104465795D01*
X168601444Y-104437510D01*
X168630076Y-104429103D01*
X168739636Y-104358694D01*
X168824921Y-104260269D01*
X168879023Y-104141804D01*
X168897557Y-104012895D01*
X168879023Y-103883986D01*
X168824921Y-103765521D01*
X168739636Y-103667096D01*
X168630076Y-103596687D01*
X168630074Y-103596686D01*
X168630072Y-103596685D01*
X168505119Y-103559995D01*
X168505117Y-103559995D01*
X168374883Y-103559995D01*
X168374881Y-103559995D01*
X168249927Y-103596685D01*
X168140362Y-103667097D01*
X168062234Y-103757263D01*
X168019459Y-103778675D01*
X167974071Y-103763568D01*
X167967766Y-103757263D01*
X167889637Y-103667097D01*
X167889636Y-103667096D01*
X167780076Y-103596687D01*
X167780074Y-103596686D01*
X167780072Y-103596685D01*
X167655119Y-103559995D01*
X167655117Y-103559995D01*
X167524883Y-103559995D01*
X167524881Y-103559995D01*
X167399927Y-103596685D01*
X167290364Y-103667096D01*
X167205078Y-103765522D01*
X167150976Y-103883986D01*
X167132443Y-104012894D01*
X166916816Y-104012894D01*
X166863292Y-103907849D01*
X166772151Y-103816708D01*
X166657306Y-103758191D01*
X166530000Y-103738028D01*
X166529999Y-103738028D01*
X166402693Y-103758191D01*
X166402692Y-103758191D01*
X166287848Y-103816708D01*
X166214194Y-103890363D01*
X166170000Y-103908669D01*
X166125806Y-103890363D01*
X166032151Y-103796708D01*
X165917306Y-103738191D01*
X165790000Y-103718028D01*
X165662693Y-103738191D01*
X165662692Y-103738191D01*
X165547848Y-103796708D01*
X165456708Y-103887848D01*
X165398191Y-104002692D01*
X165398191Y-104002693D01*
X165378028Y-104130000D01*
X127943844Y-104130000D01*
X127934392Y-104111449D01*
X127845736Y-104022794D01*
X127827431Y-103978600D01*
X127845737Y-103934406D01*
X127889780Y-103890363D01*
X127934392Y-103845751D01*
X127992909Y-103730906D01*
X128013072Y-103603600D01*
X127992909Y-103476294D01*
X127934392Y-103361449D01*
X127845737Y-103272794D01*
X127827431Y-103228600D01*
X127845737Y-103184406D01*
X127845737Y-103184405D01*
X127934392Y-103095751D01*
X127992909Y-102980906D01*
X128013072Y-102853600D01*
X127992909Y-102726294D01*
X127934392Y-102611449D01*
X127845736Y-102522794D01*
X127827431Y-102478600D01*
X127845737Y-102434406D01*
X127845736Y-102434406D01*
X127934392Y-102345751D01*
X127992909Y-102230906D01*
X128013072Y-102103600D01*
X127992909Y-101976294D01*
X127954035Y-101900001D01*
X154372329Y-101900001D01*
X154391329Y-102044329D01*
X154391332Y-102044339D01*
X154447041Y-102178833D01*
X154447043Y-102178836D01*
X154535666Y-102294333D01*
X154602676Y-102345751D01*
X154651164Y-102382957D01*
X154785664Y-102438669D01*
X154785668Y-102438669D01*
X154785670Y-102438670D01*
X154929998Y-102457671D01*
X154930000Y-102457671D01*
X154930002Y-102457671D01*
X155074329Y-102438670D01*
X155074329Y-102438669D01*
X155074336Y-102438669D01*
X155208836Y-102382957D01*
X155324333Y-102294333D01*
X155412957Y-102178836D01*
X155468669Y-102044336D01*
X155487671Y-101900000D01*
X155468669Y-101755664D01*
X155412957Y-101621165D01*
X155324333Y-101505667D01*
X155324331Y-101505666D01*
X155324331Y-101505665D01*
X155208836Y-101417043D01*
X155208833Y-101417041D01*
X155074339Y-101361332D01*
X155074329Y-101361329D01*
X154930002Y-101342329D01*
X154929998Y-101342329D01*
X154785670Y-101361329D01*
X154785660Y-101361332D01*
X154651167Y-101417041D01*
X154651164Y-101417043D01*
X154535667Y-101505667D01*
X154447043Y-101621164D01*
X154447041Y-101621167D01*
X154391332Y-101755660D01*
X154391329Y-101755670D01*
X154372329Y-101899998D01*
X154372329Y-101900001D01*
X127954035Y-101900001D01*
X127934392Y-101861449D01*
X127845737Y-101772794D01*
X127827431Y-101728600D01*
X127845737Y-101684406D01*
X127845736Y-101684406D01*
X127934392Y-101595751D01*
X127992909Y-101480906D01*
X128013072Y-101353600D01*
X127992909Y-101226294D01*
X127934392Y-101111449D01*
X127932942Y-101109999D01*
X138202443Y-101109999D01*
X138220976Y-101238908D01*
X138268208Y-101342329D01*
X138275079Y-101357374D01*
X138360364Y-101455799D01*
X138469924Y-101526208D01*
X138469926Y-101526208D01*
X138469927Y-101526209D01*
X138594881Y-101562900D01*
X138594883Y-101562900D01*
X138725119Y-101562900D01*
X138821444Y-101534615D01*
X138850076Y-101526208D01*
X138959636Y-101455799D01*
X139044921Y-101357374D01*
X139099023Y-101238909D01*
X139117557Y-101110000D01*
X139099023Y-100981091D01*
X139044921Y-100862626D01*
X138959636Y-100764201D01*
X138850076Y-100693792D01*
X138850074Y-100693791D01*
X138850072Y-100693790D01*
X138725119Y-100657100D01*
X138725117Y-100657100D01*
X138594883Y-100657100D01*
X138594881Y-100657100D01*
X138469927Y-100693790D01*
X138360364Y-100764201D01*
X138275078Y-100862627D01*
X138220976Y-100981091D01*
X138202443Y-101109999D01*
X127932942Y-101109999D01*
X127845736Y-101022794D01*
X127827431Y-100978600D01*
X127845737Y-100934406D01*
X127880535Y-100899608D01*
X127934392Y-100845751D01*
X127992909Y-100730906D01*
X128013072Y-100603600D01*
X127992909Y-100476294D01*
X127934392Y-100361449D01*
X127845737Y-100272794D01*
X127827431Y-100228600D01*
X127845737Y-100184406D01*
X127884735Y-100145408D01*
X127934392Y-100095751D01*
X127992909Y-99980906D01*
X128008891Y-99880001D01*
X137572329Y-99880001D01*
X137591329Y-100024329D01*
X137591332Y-100024339D01*
X137647041Y-100158833D01*
X137647043Y-100158836D01*
X137735666Y-100274333D01*
X137824289Y-100342335D01*
X137851164Y-100362957D01*
X137985664Y-100418669D01*
X137985668Y-100418669D01*
X137985670Y-100418670D01*
X138129998Y-100437671D01*
X138130000Y-100437671D01*
X138130002Y-100437671D01*
X138274329Y-100418670D01*
X138274329Y-100418669D01*
X138274336Y-100418669D01*
X138408836Y-100362957D01*
X138524333Y-100274333D01*
X138612957Y-100158836D01*
X138668669Y-100024336D01*
X138672432Y-99995750D01*
X138687671Y-99880001D01*
X138687671Y-99879998D01*
X138668670Y-99735670D01*
X138668669Y-99735668D01*
X138668669Y-99735664D01*
X138631527Y-99645997D01*
X138612958Y-99601167D01*
X138612956Y-99601164D01*
X138524333Y-99485667D01*
X138524331Y-99485666D01*
X138524331Y-99485665D01*
X138408836Y-99397043D01*
X138408833Y-99397041D01*
X138274339Y-99341332D01*
X138274329Y-99341329D01*
X138130002Y-99322329D01*
X138129998Y-99322329D01*
X137985670Y-99341329D01*
X137985660Y-99341332D01*
X137851167Y-99397041D01*
X137851164Y-99397043D01*
X137735667Y-99485667D01*
X137647043Y-99601164D01*
X137647041Y-99601167D01*
X137591332Y-99735660D01*
X137591329Y-99735670D01*
X137572329Y-99879998D01*
X137572329Y-99880001D01*
X128008891Y-99880001D01*
X128013072Y-99853600D01*
X127992909Y-99726294D01*
X127934392Y-99611449D01*
X127891249Y-99568306D01*
X127845737Y-99522793D01*
X127827431Y-99478599D01*
X127845736Y-99434406D01*
X127934392Y-99345751D01*
X127992909Y-99230906D01*
X128013072Y-99103600D01*
X128013072Y-99103599D01*
X128339128Y-99103599D01*
X128359291Y-99230906D01*
X128359291Y-99230907D01*
X128407894Y-99326294D01*
X128417808Y-99345751D01*
X128508949Y-99436892D01*
X128623794Y-99495409D01*
X128751100Y-99515572D01*
X128878406Y-99495409D01*
X128993251Y-99436892D01*
X129006906Y-99423237D01*
X129051100Y-99404931D01*
X129095294Y-99423237D01*
X129108949Y-99436892D01*
X129223794Y-99495409D01*
X129351100Y-99515572D01*
X129478406Y-99495409D01*
X129593251Y-99436892D01*
X129613655Y-99416487D01*
X129657848Y-99398181D01*
X129702042Y-99416486D01*
X129719557Y-99434000D01*
X129729649Y-99444092D01*
X129844494Y-99502609D01*
X129971800Y-99522772D01*
X130099106Y-99502609D01*
X130213951Y-99444092D01*
X130220854Y-99437188D01*
X130265046Y-99418881D01*
X130304176Y-99435087D01*
X130304967Y-99434000D01*
X130308944Y-99436889D01*
X130308948Y-99436891D01*
X130308949Y-99436892D01*
X130423794Y-99495409D01*
X130551100Y-99515572D01*
X130678406Y-99495409D01*
X130793251Y-99436892D01*
X130806906Y-99423237D01*
X130851100Y-99404931D01*
X130895294Y-99423237D01*
X130908949Y-99436892D01*
X131023794Y-99495409D01*
X131151100Y-99515572D01*
X131278406Y-99495409D01*
X131393251Y-99436892D01*
X131406906Y-99423237D01*
X131451100Y-99404931D01*
X131495294Y-99423237D01*
X131508949Y-99436892D01*
X131623794Y-99495409D01*
X131751100Y-99515572D01*
X131878406Y-99495409D01*
X131993251Y-99436892D01*
X132006906Y-99423237D01*
X132051100Y-99404931D01*
X132095294Y-99423237D01*
X132108949Y-99436892D01*
X132223794Y-99495409D01*
X132351100Y-99515572D01*
X132478406Y-99495409D01*
X132593251Y-99436892D01*
X132684392Y-99345751D01*
X132742909Y-99230906D01*
X132763072Y-99103600D01*
X132742909Y-98976294D01*
X132684392Y-98861449D01*
X132593251Y-98770308D01*
X132478406Y-98711791D01*
X132351100Y-98691628D01*
X132351099Y-98691628D01*
X132223793Y-98711791D01*
X132223792Y-98711791D01*
X132108948Y-98770308D01*
X132095294Y-98783963D01*
X132051100Y-98802269D01*
X132006906Y-98783963D01*
X131993251Y-98770308D01*
X131878406Y-98711791D01*
X131878405Y-98711791D01*
X131751100Y-98691628D01*
X131751099Y-98691628D01*
X131623793Y-98711791D01*
X131623792Y-98711791D01*
X131508948Y-98770308D01*
X131495294Y-98783963D01*
X131451100Y-98802269D01*
X131406906Y-98783963D01*
X131393251Y-98770308D01*
X131278406Y-98711791D01*
X131151100Y-98691628D01*
X131151099Y-98691628D01*
X131023793Y-98711791D01*
X131023792Y-98711791D01*
X130908948Y-98770308D01*
X130895294Y-98783963D01*
X130851100Y-98802269D01*
X130806906Y-98783963D01*
X130793251Y-98770308D01*
X130678406Y-98711791D01*
X130678405Y-98711791D01*
X130551100Y-98691628D01*
X130551099Y-98691628D01*
X130423793Y-98711791D01*
X130423792Y-98711791D01*
X130308948Y-98770308D01*
X130302044Y-98777213D01*
X130257850Y-98795519D01*
X130218719Y-98779310D01*
X130217929Y-98780398D01*
X130213953Y-98777509D01*
X130099106Y-98718991D01*
X130053646Y-98711791D01*
X129971800Y-98698828D01*
X129971799Y-98698828D01*
X129844493Y-98718991D01*
X129844492Y-98718991D01*
X129729648Y-98777508D01*
X129709243Y-98797913D01*
X129665049Y-98816218D01*
X129620857Y-98797913D01*
X129593251Y-98770308D01*
X129478406Y-98711791D01*
X129478405Y-98711791D01*
X129351100Y-98691628D01*
X129351099Y-98691628D01*
X129223793Y-98711791D01*
X129223792Y-98711791D01*
X129108948Y-98770308D01*
X129095294Y-98783963D01*
X129051100Y-98802269D01*
X129006906Y-98783963D01*
X128993251Y-98770308D01*
X128878406Y-98711791D01*
X128751100Y-98691628D01*
X128751099Y-98691628D01*
X128623793Y-98711791D01*
X128623792Y-98711791D01*
X128508948Y-98770308D01*
X128417808Y-98861448D01*
X128359291Y-98976292D01*
X128359291Y-98976293D01*
X128339128Y-99103599D01*
X128013072Y-99103599D01*
X127992909Y-98976294D01*
X127934392Y-98861449D01*
X127843251Y-98770308D01*
X127728406Y-98711791D01*
X127601100Y-98691628D01*
X127601099Y-98691628D01*
X127473793Y-98711791D01*
X127473792Y-98711791D01*
X127358948Y-98770308D01*
X127267808Y-98861448D01*
X127209291Y-98976292D01*
X127209291Y-98976293D01*
X127189128Y-99103599D01*
X127209291Y-99230906D01*
X127209291Y-99230907D01*
X127267808Y-99345751D01*
X127356463Y-99434406D01*
X127374769Y-99478600D01*
X127356463Y-99522794D01*
X127267808Y-99611448D01*
X127209291Y-99726292D01*
X127209291Y-99726293D01*
X127189128Y-99853600D01*
X127209291Y-99980906D01*
X127209291Y-99980907D01*
X127267808Y-100095751D01*
X127356462Y-100184406D01*
X127374768Y-100228600D01*
X127356462Y-100272794D01*
X127267808Y-100361448D01*
X127209291Y-100476292D01*
X127209291Y-100476293D01*
X127189128Y-100603600D01*
X127209291Y-100730906D01*
X127209291Y-100730907D01*
X127267808Y-100845751D01*
X127356462Y-100934406D01*
X127374768Y-100978600D01*
X127356462Y-101022794D01*
X127267808Y-101111448D01*
X127209291Y-101226292D01*
X127209291Y-101226293D01*
X127189128Y-101353600D01*
X127209291Y-101480906D01*
X127209291Y-101480907D01*
X127267808Y-101595751D01*
X127356463Y-101684406D01*
X127374769Y-101728600D01*
X127356463Y-101772794D01*
X127267808Y-101861448D01*
X127209291Y-101976292D01*
X127209291Y-101976293D01*
X127189128Y-102103600D01*
X127209291Y-102230906D01*
X127209291Y-102230907D01*
X127267808Y-102345751D01*
X127356462Y-102434406D01*
X127374768Y-102478600D01*
X127356462Y-102522794D01*
X127267808Y-102611448D01*
X127209291Y-102726292D01*
X127209291Y-102726293D01*
X127189128Y-102853599D01*
X127209291Y-102980906D01*
X127209291Y-102980907D01*
X127267808Y-103095751D01*
X127356462Y-103184406D01*
X127374768Y-103228600D01*
X127356462Y-103272794D01*
X127267808Y-103361448D01*
X127209291Y-103476292D01*
X127209291Y-103476293D01*
X127189128Y-103603599D01*
X127209291Y-103730906D01*
X127209291Y-103730907D01*
X127267808Y-103845751D01*
X127356463Y-103934406D01*
X127374769Y-103978600D01*
X127356463Y-104022794D01*
X127267808Y-104111448D01*
X127209291Y-104226292D01*
X127209291Y-104226293D01*
X127189128Y-104353600D01*
X127209291Y-104480906D01*
X127209291Y-104480907D01*
X127267808Y-104595751D01*
X127356463Y-104684406D01*
X127374769Y-104728600D01*
X127356463Y-104772794D01*
X127267808Y-104861448D01*
X127209291Y-104976292D01*
X127209291Y-104976293D01*
X127195170Y-105065454D01*
X127189128Y-105103600D01*
X127203334Y-105193292D01*
X127209291Y-105230906D01*
X127209291Y-105230907D01*
X127267808Y-105345751D01*
X127356462Y-105434405D01*
X127374768Y-105478599D01*
X127356463Y-105522793D01*
X127267807Y-105611450D01*
X127209291Y-105726292D01*
X127209291Y-105726293D01*
X127189128Y-105853600D01*
X127209291Y-105980906D01*
X127209291Y-105980907D01*
X127267808Y-106095751D01*
X127356463Y-106184406D01*
X127374769Y-106228600D01*
X127356463Y-106272794D01*
X127267808Y-106361448D01*
X127209291Y-106476292D01*
X127209291Y-106476293D01*
X127189128Y-106603600D01*
X127209291Y-106730906D01*
X127209291Y-106730907D01*
X127267808Y-106845751D01*
X127356463Y-106934406D01*
X127374769Y-106978600D01*
X127356463Y-107022794D01*
X127267808Y-107111448D01*
X127209291Y-107226292D01*
X127209291Y-107226293D01*
X127189128Y-107353600D01*
X127209291Y-107480906D01*
X127209291Y-107480907D01*
X127267808Y-107595751D01*
X127356462Y-107684405D01*
X127374768Y-107728599D01*
X127356463Y-107772793D01*
X127267807Y-107861450D01*
X127209291Y-107976292D01*
X127209291Y-107976293D01*
X127189128Y-108103600D01*
X127209291Y-108230906D01*
X127209291Y-108230907D01*
X127267808Y-108345751D01*
X127356462Y-108434406D01*
X127374768Y-108478600D01*
X127356462Y-108522794D01*
X127267808Y-108611448D01*
X127209291Y-108726292D01*
X127209291Y-108726293D01*
X127189128Y-108853599D01*
X127209291Y-108980906D01*
X127209291Y-108980907D01*
X127267808Y-109095751D01*
X127356463Y-109184406D01*
X127374769Y-109228600D01*
X127356463Y-109272794D01*
X127267808Y-109361448D01*
X127209291Y-109476292D01*
X127209291Y-109476293D01*
X127189128Y-109603599D01*
X127209291Y-109730906D01*
X127209291Y-109730907D01*
X127267808Y-109845751D01*
X127356462Y-109934406D01*
X127374768Y-109978600D01*
X127356462Y-110022794D01*
X127267808Y-110111448D01*
X127209291Y-110226292D01*
X127209291Y-110226293D01*
X127189128Y-110353600D01*
X127209291Y-110480906D01*
X127209291Y-110480907D01*
X127267808Y-110595751D01*
X127356462Y-110684406D01*
X127374768Y-110728600D01*
X127356462Y-110772794D01*
X127267808Y-110861448D01*
X127209291Y-110976292D01*
X127209291Y-110976293D01*
X127189128Y-111103599D01*
X127209291Y-111230906D01*
X127209291Y-111230907D01*
X127267808Y-111345751D01*
X127356463Y-111434406D01*
X127374769Y-111478600D01*
X127356463Y-111522794D01*
X127267808Y-111611448D01*
X127209291Y-111726292D01*
X127209291Y-111726293D01*
X127189128Y-111853600D01*
X127209291Y-111980906D01*
X127209291Y-111980907D01*
X127267808Y-112095751D01*
X127356462Y-112184406D01*
X127374768Y-112228600D01*
X127356462Y-112272794D01*
X127267808Y-112361448D01*
X127209291Y-112476292D01*
X127209291Y-112476293D01*
X127189128Y-112603600D01*
X127209291Y-112730906D01*
X127209291Y-112730907D01*
X127267808Y-112845751D01*
X127356463Y-112934406D01*
X127374769Y-112978600D01*
X127356463Y-113022794D01*
X127267808Y-113111448D01*
X127209291Y-113226292D01*
X127209291Y-113226293D01*
X127189128Y-113353600D01*
X125874100Y-113353600D01*
X125874100Y-97690007D01*
X140032326Y-97690007D01*
X140051326Y-97834335D01*
X140051329Y-97834345D01*
X140107038Y-97968839D01*
X140107040Y-97968842D01*
X140195663Y-98084339D01*
X140266467Y-98138668D01*
X140311161Y-98172963D01*
X140445661Y-98228675D01*
X140445665Y-98228675D01*
X140445667Y-98228676D01*
X140589995Y-98247677D01*
X140589997Y-98247677D01*
X140589999Y-98247677D01*
X140734326Y-98228676D01*
X140734326Y-98228675D01*
X140734333Y-98228675D01*
X140868833Y-98172963D01*
X140984330Y-98084339D01*
X141072954Y-97968842D01*
X141128666Y-97834342D01*
X141141242Y-97738816D01*
X141147668Y-97690007D01*
X141147668Y-97690004D01*
X141128667Y-97545676D01*
X141128666Y-97545674D01*
X141128666Y-97545670D01*
X141072954Y-97411171D01*
X140984330Y-97295673D01*
X140984328Y-97295672D01*
X140984328Y-97295671D01*
X140868833Y-97207049D01*
X140868830Y-97207047D01*
X140734336Y-97151338D01*
X140734326Y-97151335D01*
X140589999Y-97132335D01*
X140589995Y-97132335D01*
X140445667Y-97151335D01*
X140445657Y-97151338D01*
X140311164Y-97207047D01*
X140311161Y-97207049D01*
X140195664Y-97295673D01*
X140107040Y-97411170D01*
X140107038Y-97411173D01*
X140051329Y-97545666D01*
X140051326Y-97545676D01*
X140032326Y-97690004D01*
X140032326Y-97690007D01*
X125874100Y-97690007D01*
X125874100Y-92539100D01*
X125892406Y-92494906D01*
X125936600Y-92476600D01*
X130127817Y-92476600D01*
X130172011Y-92494906D01*
G37*
%TD.AperFunction*%
%TD*%
%TA.AperFunction,Conductor*%
%TO.N,GND*%
G36*
X162097237Y-78894906D02*
G01*
X162115543Y-78939100D01*
X162104480Y-78974603D01*
X162096441Y-78986250D01*
X162096439Y-78986253D01*
X162038064Y-79140172D01*
X162038062Y-79140183D01*
X162018221Y-79303596D01*
X162018221Y-79303603D01*
X162038062Y-79467016D01*
X162038064Y-79467027D01*
X162096440Y-79620949D01*
X162189955Y-79756430D01*
X162189958Y-79756433D01*
X162313181Y-79865598D01*
X162458948Y-79942103D01*
X162618788Y-79981500D01*
X162783412Y-79981500D01*
X162943252Y-79942103D01*
X163089019Y-79865598D01*
X163212242Y-79756433D01*
X163305759Y-79620950D01*
X163364136Y-79467024D01*
X163364137Y-79467016D01*
X163383979Y-79303603D01*
X163383979Y-79303596D01*
X163364137Y-79140183D01*
X163364135Y-79140172D01*
X163318041Y-79018636D01*
X163305759Y-78986250D01*
X163297719Y-78974603D01*
X163287681Y-78927834D01*
X163313653Y-78887663D01*
X163349157Y-78876600D01*
X168332577Y-78876600D01*
X168376771Y-78894906D01*
X168395077Y-78939100D01*
X168376771Y-78983294D01*
X168340410Y-79001106D01*
X168291209Y-79007322D01*
X168031172Y-79040172D01*
X167726145Y-79118489D01*
X167726126Y-79118495D01*
X167433313Y-79234428D01*
X167433308Y-79234431D01*
X167157337Y-79386146D01*
X167157330Y-79386151D01*
X166902538Y-79571268D01*
X166672957Y-79786858D01*
X166472206Y-80029524D01*
X166472204Y-80029526D01*
X166303465Y-80295416D01*
X166303455Y-80295434D01*
X166169362Y-80580396D01*
X166169359Y-80580403D01*
X166072039Y-80879923D01*
X166013027Y-81189275D01*
X166013026Y-81189279D01*
X165993251Y-81503599D01*
X166013026Y-81817920D01*
X166013027Y-81817924D01*
X166072039Y-82127276D01*
X166169359Y-82426796D01*
X166169362Y-82426803D01*
X166303455Y-82711765D01*
X166303465Y-82711783D01*
X166472204Y-82977673D01*
X166472206Y-82977675D01*
X166472208Y-82977677D01*
X166672957Y-83220341D01*
X166902537Y-83435931D01*
X167157327Y-83621047D01*
X167157333Y-83621050D01*
X167157337Y-83621053D01*
X167256173Y-83675388D01*
X167433310Y-83772770D01*
X167530917Y-83811415D01*
X167726126Y-83888704D01*
X167726145Y-83888710D01*
X167952605Y-83946854D01*
X168031172Y-83967027D01*
X168031173Y-83967027D01*
X168031176Y-83967028D01*
X168343631Y-84006500D01*
X168343632Y-84006500D01*
X168658568Y-84006500D01*
X168658569Y-84006500D01*
X168971024Y-83967028D01*
X169081355Y-83938699D01*
X169276054Y-83888710D01*
X169276060Y-83888707D01*
X169276068Y-83888706D01*
X169568890Y-83772770D01*
X169844873Y-83621047D01*
X170099663Y-83435931D01*
X170329243Y-83220341D01*
X170529992Y-82977677D01*
X170644548Y-82797167D01*
X170698734Y-82711783D01*
X170698736Y-82711777D01*
X170698745Y-82711765D01*
X170832839Y-82426801D01*
X170903768Y-82208503D01*
X170906159Y-82201145D01*
X170937226Y-82164770D01*
X170984913Y-82161017D01*
X171021288Y-82192084D01*
X171028100Y-82220458D01*
X171028100Y-99918100D01*
X171009794Y-99962294D01*
X170965600Y-99980600D01*
X166536600Y-99980600D01*
X166492406Y-99962294D01*
X166474100Y-99918100D01*
X166474100Y-96556206D01*
X166448494Y-96530600D01*
X162462561Y-96530600D01*
X162418367Y-96512294D01*
X162400596Y-96476258D01*
X162388670Y-96385670D01*
X162388669Y-96385668D01*
X162388669Y-96385664D01*
X162332957Y-96251165D01*
X162244333Y-96135667D01*
X162244331Y-96135666D01*
X162244331Y-96135665D01*
X162128836Y-96047043D01*
X162128833Y-96047041D01*
X161994339Y-95991332D01*
X161994329Y-95991329D01*
X161850002Y-95972329D01*
X161849998Y-95972329D01*
X161705670Y-95991329D01*
X161705660Y-95991332D01*
X161571167Y-96047041D01*
X161571164Y-96047043D01*
X161455667Y-96135667D01*
X161367043Y-96251164D01*
X161367041Y-96251167D01*
X161311332Y-96385660D01*
X161311329Y-96385670D01*
X161292329Y-96529998D01*
X161292329Y-96530001D01*
X161311329Y-96674329D01*
X161311332Y-96674339D01*
X161367041Y-96808833D01*
X161367043Y-96808836D01*
X161455666Y-96924333D01*
X161507222Y-96963893D01*
X161564172Y-97007592D01*
X161588090Y-97049018D01*
X161575710Y-97095223D01*
X161569006Y-97102646D01*
X161540000Y-97130000D01*
X161342755Y-97319025D01*
X161298181Y-97336387D01*
X161256782Y-97319513D01*
X159756026Y-95913600D01*
X164864128Y-95913600D01*
X164884291Y-96040906D01*
X164884291Y-96040907D01*
X164932575Y-96135667D01*
X164942808Y-96155751D01*
X165033949Y-96246892D01*
X165148794Y-96305409D01*
X165276100Y-96325572D01*
X165403406Y-96305409D01*
X165518251Y-96246892D01*
X165609392Y-96155751D01*
X165667909Y-96040906D01*
X165688072Y-95913600D01*
X165667909Y-95786294D01*
X165609392Y-95671449D01*
X165518251Y-95580308D01*
X165403406Y-95521791D01*
X165276100Y-95501628D01*
X165148793Y-95521791D01*
X165148792Y-95521791D01*
X165033948Y-95580308D01*
X164942808Y-95671448D01*
X164884291Y-95786292D01*
X164884291Y-95786293D01*
X164864128Y-95913600D01*
X159756026Y-95913600D01*
X158620677Y-94850001D01*
X161132327Y-94850001D01*
X161151327Y-94994329D01*
X161151330Y-94994339D01*
X161207039Y-95128833D01*
X161207041Y-95128836D01*
X161295664Y-95244333D01*
X161384288Y-95312335D01*
X161411162Y-95332957D01*
X161545662Y-95388669D01*
X161545666Y-95388669D01*
X161545668Y-95388670D01*
X161689996Y-95407671D01*
X161689998Y-95407671D01*
X161690000Y-95407671D01*
X161834327Y-95388670D01*
X161834327Y-95388669D01*
X161834334Y-95388669D01*
X161968834Y-95332957D01*
X162084331Y-95244333D01*
X162172955Y-95128836D01*
X162228667Y-94994336D01*
X162247669Y-94850000D01*
X162246352Y-94840000D01*
X162228668Y-94705670D01*
X162228667Y-94705668D01*
X162228667Y-94705664D01*
X162172955Y-94571165D01*
X162084331Y-94455667D01*
X162084329Y-94455666D01*
X162084329Y-94455665D01*
X161968834Y-94367043D01*
X161968831Y-94367041D01*
X161834337Y-94311332D01*
X161834327Y-94311329D01*
X161690000Y-94292329D01*
X161689996Y-94292329D01*
X161545668Y-94311329D01*
X161545658Y-94311332D01*
X161411165Y-94367041D01*
X161411162Y-94367043D01*
X161295665Y-94455667D01*
X161207041Y-94571164D01*
X161207039Y-94571167D01*
X161151330Y-94705660D01*
X161151327Y-94705670D01*
X161132327Y-94849998D01*
X161132327Y-94850001D01*
X158620677Y-94850001D01*
X158610001Y-94840000D01*
X158609999Y-94839999D01*
X151289999Y-94790339D01*
X151240000Y-94790000D01*
X151239999Y-94790000D01*
X151277663Y-100217666D01*
X151259665Y-100261986D01*
X151215599Y-100280598D01*
X151215165Y-100280600D01*
X148074731Y-100280600D01*
X148030537Y-100262294D01*
X148030120Y-100261874D01*
X147986741Y-100217666D01*
X145486868Y-97670000D01*
X146902443Y-97670000D01*
X146920976Y-97798908D01*
X146937159Y-97834342D01*
X146975079Y-97917374D01*
X147060364Y-98015799D01*
X147169924Y-98086208D01*
X147169926Y-98086208D01*
X147169927Y-98086209D01*
X147294881Y-98122900D01*
X147294883Y-98122900D01*
X147425119Y-98122900D01*
X147521444Y-98094615D01*
X147550076Y-98086208D01*
X147659636Y-98015799D01*
X147675580Y-97997397D01*
X147718356Y-97975985D01*
X147763743Y-97991091D01*
X147783588Y-98023736D01*
X147818186Y-98167849D01*
X147835654Y-98240605D01*
X147933164Y-98476016D01*
X147988238Y-98565889D01*
X148066297Y-98693271D01*
X148231783Y-98887032D01*
X148336296Y-98976294D01*
X148425541Y-99052516D01*
X148642800Y-99185652D01*
X148878211Y-99283162D01*
X149125978Y-99342646D01*
X149125980Y-99342646D01*
X149125984Y-99342647D01*
X149379996Y-99362638D01*
X149380000Y-99362638D01*
X149380004Y-99362638D01*
X149634015Y-99342647D01*
X149634017Y-99342646D01*
X149634022Y-99342646D01*
X149881789Y-99283162D01*
X150117200Y-99185652D01*
X150334459Y-99052516D01*
X150528216Y-98887032D01*
X150693700Y-98693275D01*
X150826836Y-98476016D01*
X150924346Y-98240605D01*
X150983830Y-97992838D01*
X150983968Y-97991091D01*
X151003822Y-97738820D01*
X151003822Y-97738811D01*
X150983831Y-97484800D01*
X150983830Y-97484796D01*
X150968904Y-97422627D01*
X150924346Y-97237027D01*
X150826836Y-97001616D01*
X150693700Y-96784357D01*
X150599733Y-96674336D01*
X150528216Y-96590599D01*
X150334455Y-96425113D01*
X150172017Y-96325572D01*
X150117200Y-96291980D01*
X149881789Y-96194470D01*
X149881783Y-96194468D01*
X149881782Y-96194468D01*
X149634019Y-96134985D01*
X149634015Y-96134984D01*
X149380004Y-96114994D01*
X149379996Y-96114994D01*
X149125984Y-96134984D01*
X149125980Y-96134985D01*
X148878217Y-96194468D01*
X148878213Y-96194469D01*
X148878211Y-96194470D01*
X148741337Y-96251165D01*
X148642798Y-96291981D01*
X148425544Y-96425113D01*
X148231783Y-96590599D01*
X148066297Y-96784360D01*
X147967959Y-96944835D01*
X147933164Y-97001616D01*
X147922632Y-97027042D01*
X147835652Y-97237032D01*
X147809461Y-97346124D01*
X147781344Y-97384823D01*
X147734097Y-97392306D01*
X147701455Y-97372463D01*
X147659636Y-97324201D01*
X147550076Y-97253792D01*
X147550074Y-97253791D01*
X147550072Y-97253790D01*
X147425119Y-97217100D01*
X147425117Y-97217100D01*
X147294883Y-97217100D01*
X147294881Y-97217100D01*
X147169927Y-97253790D01*
X147060364Y-97324201D01*
X146975078Y-97422627D01*
X146920976Y-97541091D01*
X146902443Y-97670000D01*
X145486868Y-97670000D01*
X144817625Y-96987962D01*
X144799740Y-96944835D01*
X144796946Y-96674339D01*
X144764979Y-93579997D01*
X147022443Y-93579997D01*
X147040976Y-93708906D01*
X147072039Y-93776923D01*
X147095079Y-93827372D01*
X147180364Y-93925797D01*
X147289924Y-93996206D01*
X147289926Y-93996206D01*
X147289927Y-93996207D01*
X147414881Y-94032898D01*
X147414883Y-94032898D01*
X147545119Y-94032898D01*
X147669851Y-93996272D01*
X147670076Y-93996206D01*
X147779636Y-93925797D01*
X147864921Y-93827372D01*
X147919023Y-93708907D01*
X147937557Y-93579998D01*
X147936120Y-93570000D01*
X148292443Y-93570000D01*
X148295107Y-93588532D01*
X148310976Y-93698908D01*
X148346605Y-93776923D01*
X148365079Y-93817374D01*
X148450364Y-93915799D01*
X148559924Y-93986208D01*
X148559926Y-93986208D01*
X148559927Y-93986209D01*
X148684881Y-94022900D01*
X148684883Y-94022900D01*
X148815119Y-94022900D01*
X148911444Y-93994615D01*
X148940076Y-93986208D01*
X149049636Y-93915799D01*
X149134921Y-93817374D01*
X149166193Y-93748900D01*
X149562443Y-93748900D01*
X149580976Y-93877808D01*
X149619224Y-93961557D01*
X149635079Y-93996274D01*
X149720364Y-94094699D01*
X149829924Y-94165108D01*
X149829926Y-94165108D01*
X149829927Y-94165109D01*
X149954881Y-94201800D01*
X149954883Y-94201800D01*
X150085119Y-94201800D01*
X150181444Y-94173515D01*
X150210076Y-94165108D01*
X150319636Y-94094699D01*
X150404921Y-93996274D01*
X150459023Y-93877809D01*
X150477557Y-93748900D01*
X150459023Y-93619991D01*
X150457089Y-93615757D01*
X150850942Y-93615757D01*
X150869475Y-93744666D01*
X150920965Y-93857410D01*
X150923578Y-93863132D01*
X151008863Y-93961557D01*
X151118423Y-94031966D01*
X151118425Y-94031966D01*
X151118426Y-94031967D01*
X151243380Y-94068658D01*
X151243382Y-94068658D01*
X151373618Y-94068658D01*
X151469943Y-94040373D01*
X151498575Y-94031966D01*
X151608135Y-93961557D01*
X151643052Y-93921260D01*
X162473005Y-93921260D01*
X162492005Y-94065588D01*
X162492008Y-94065598D01*
X162547717Y-94200092D01*
X162547719Y-94200095D01*
X162636342Y-94315592D01*
X162751839Y-94404215D01*
X162751842Y-94404217D01*
X162796673Y-94422786D01*
X162886340Y-94459928D01*
X162886344Y-94459928D01*
X162886346Y-94459929D01*
X163030674Y-94478930D01*
X163030676Y-94478930D01*
X163030678Y-94478930D01*
X163175005Y-94459929D01*
X163175005Y-94459928D01*
X163175012Y-94459928D01*
X163309512Y-94404216D01*
X163425009Y-94315592D01*
X163511263Y-94203183D01*
X163552689Y-94179266D01*
X163598894Y-94191646D01*
X163617698Y-94215266D01*
X163630076Y-94242370D01*
X163630078Y-94242372D01*
X163630079Y-94242374D01*
X163715364Y-94340799D01*
X163824924Y-94411208D01*
X163824926Y-94411208D01*
X163824927Y-94411209D01*
X163949881Y-94447900D01*
X163949883Y-94447900D01*
X164080119Y-94447900D01*
X164176444Y-94419615D01*
X164205076Y-94411208D01*
X164314636Y-94340799D01*
X164399921Y-94242374D01*
X164454023Y-94123909D01*
X164472557Y-93995000D01*
X164454023Y-93866091D01*
X164399921Y-93747626D01*
X164314636Y-93649201D01*
X164205076Y-93578792D01*
X164205074Y-93578791D01*
X164205072Y-93578790D01*
X164080119Y-93542100D01*
X164080117Y-93542100D01*
X163949883Y-93542100D01*
X163949881Y-93542100D01*
X163824927Y-93578790D01*
X163715362Y-93649202D01*
X163647034Y-93728058D01*
X163604259Y-93749470D01*
X163558871Y-93734363D01*
X163542058Y-93711047D01*
X163513634Y-93642426D01*
X163513632Y-93642423D01*
X163425009Y-93526926D01*
X163425007Y-93526925D01*
X163425007Y-93526924D01*
X163309512Y-93438302D01*
X163309508Y-93438300D01*
X163266157Y-93420343D01*
X163232332Y-93386518D01*
X163232333Y-93338683D01*
X163266158Y-93304858D01*
X163272467Y-93302633D01*
X163274309Y-93302092D01*
X163399268Y-93265400D01*
X163508828Y-93194991D01*
X163594113Y-93096566D01*
X163648215Y-92978101D01*
X163666749Y-92849192D01*
X163648215Y-92720283D01*
X163594113Y-92601818D01*
X163508828Y-92503393D01*
X163399268Y-92432984D01*
X163399266Y-92432983D01*
X163399264Y-92432982D01*
X163274311Y-92396292D01*
X163274309Y-92396292D01*
X163144075Y-92396292D01*
X163144073Y-92396292D01*
X163019119Y-92432982D01*
X162909556Y-92503393D01*
X162824270Y-92601819D01*
X162770168Y-92720283D01*
X162751635Y-92849191D01*
X162770168Y-92978100D01*
X162806341Y-93057306D01*
X162824271Y-93096566D01*
X162909556Y-93194991D01*
X163004316Y-93255889D01*
X163031598Y-93295181D01*
X163023105Y-93342257D01*
X162983812Y-93369539D01*
X162978684Y-93370432D01*
X162886346Y-93382588D01*
X162886336Y-93382591D01*
X162751843Y-93438300D01*
X162751840Y-93438302D01*
X162636343Y-93526926D01*
X162547719Y-93642423D01*
X162547717Y-93642426D01*
X162492008Y-93776919D01*
X162492005Y-93776929D01*
X162473005Y-93921257D01*
X162473005Y-93921260D01*
X151643052Y-93921260D01*
X151693420Y-93863132D01*
X151747522Y-93744667D01*
X151766056Y-93615758D01*
X151747522Y-93486849D01*
X151693420Y-93368384D01*
X151608135Y-93269959D01*
X151498575Y-93199550D01*
X151498573Y-93199549D01*
X151498571Y-93199548D01*
X151373618Y-93162858D01*
X151373616Y-93162858D01*
X151243382Y-93162858D01*
X151243380Y-93162858D01*
X151118426Y-93199548D01*
X151008863Y-93269959D01*
X150923577Y-93368385D01*
X150869475Y-93486849D01*
X150850942Y-93615757D01*
X150457089Y-93615757D01*
X150404921Y-93501526D01*
X150319636Y-93403101D01*
X150210076Y-93332692D01*
X150210074Y-93332691D01*
X150210072Y-93332690D01*
X150085119Y-93296000D01*
X150085117Y-93296000D01*
X149954883Y-93296000D01*
X149954881Y-93296000D01*
X149829927Y-93332690D01*
X149720364Y-93403101D01*
X149635078Y-93501527D01*
X149580976Y-93619991D01*
X149562443Y-93748900D01*
X149166193Y-93748900D01*
X149189023Y-93698909D01*
X149207557Y-93570000D01*
X149189023Y-93441091D01*
X149134921Y-93322626D01*
X149049636Y-93224201D01*
X148940076Y-93153792D01*
X148940074Y-93153791D01*
X148940072Y-93153790D01*
X148815119Y-93117100D01*
X148815117Y-93117100D01*
X148684883Y-93117100D01*
X148684881Y-93117100D01*
X148559927Y-93153790D01*
X148450364Y-93224201D01*
X148365078Y-93322627D01*
X148310976Y-93441091D01*
X148298636Y-93526924D01*
X148292443Y-93570000D01*
X147936120Y-93570000D01*
X147919023Y-93451089D01*
X147864921Y-93332624D01*
X147779636Y-93234199D01*
X147670076Y-93163790D01*
X147670074Y-93163789D01*
X147670072Y-93163788D01*
X147545119Y-93127098D01*
X147545117Y-93127098D01*
X147414883Y-93127098D01*
X147414881Y-93127098D01*
X147289927Y-93163788D01*
X147180364Y-93234199D01*
X147095078Y-93332625D01*
X147040976Y-93451089D01*
X147022443Y-93579997D01*
X144764979Y-93579997D01*
X144750517Y-92180003D01*
X149597121Y-92180003D01*
X149616962Y-92343416D01*
X149616964Y-92343427D01*
X149675340Y-92497349D01*
X149768855Y-92632830D01*
X149768858Y-92632833D01*
X149892081Y-92741998D01*
X150037848Y-92818503D01*
X150197688Y-92857900D01*
X150362312Y-92857900D01*
X150522152Y-92818503D01*
X150667919Y-92741998D01*
X150791142Y-92632833D01*
X150884659Y-92497350D01*
X150892221Y-92477411D01*
X154699959Y-92477411D01*
X154718492Y-92606319D01*
X154757710Y-92692192D01*
X154772595Y-92724785D01*
X154857880Y-92823210D01*
X154967440Y-92893619D01*
X154967442Y-92893619D01*
X154967443Y-92893620D01*
X155092397Y-92930311D01*
X155092399Y-92930311D01*
X155222635Y-92930311D01*
X155318960Y-92902026D01*
X155347592Y-92893619D01*
X155457152Y-92823210D01*
X155542437Y-92724785D01*
X155596539Y-92606320D01*
X155615073Y-92477411D01*
X155596539Y-92348502D01*
X155542437Y-92230037D01*
X155457152Y-92131612D01*
X155347592Y-92061203D01*
X155347590Y-92061202D01*
X155347588Y-92061201D01*
X155222635Y-92024511D01*
X155222633Y-92024511D01*
X155092399Y-92024511D01*
X155092397Y-92024511D01*
X154967443Y-92061201D01*
X154857880Y-92131612D01*
X154772594Y-92230038D01*
X154718492Y-92348502D01*
X154699959Y-92477411D01*
X150892221Y-92477411D01*
X150943036Y-92343424D01*
X150946833Y-92312151D01*
X150962879Y-92180003D01*
X150962879Y-92179996D01*
X150943037Y-92016583D01*
X150943035Y-92016572D01*
X150884659Y-91862650D01*
X150791144Y-91727169D01*
X150791140Y-91727165D01*
X150667918Y-91618001D01*
X150522153Y-91541497D01*
X150362315Y-91502100D01*
X150362312Y-91502100D01*
X150197688Y-91502100D01*
X150197684Y-91502100D01*
X150037846Y-91541497D01*
X149892081Y-91618001D01*
X149768859Y-91727165D01*
X149768855Y-91727169D01*
X149675340Y-91862650D01*
X149616964Y-92016572D01*
X149616962Y-92016583D01*
X149597121Y-92179996D01*
X149597121Y-92180003D01*
X144750517Y-92180003D01*
X144750000Y-92130000D01*
X144749999Y-92130000D01*
X144749999Y-92129999D01*
X139527545Y-92185324D01*
X139483159Y-92167488D01*
X139464387Y-92123490D01*
X139465152Y-92113057D01*
X139471972Y-92070000D01*
X139451809Y-91942694D01*
X139393292Y-91827849D01*
X139302151Y-91736708D01*
X139187306Y-91678191D01*
X139060000Y-91658028D01*
X138932693Y-91678191D01*
X138932692Y-91678191D01*
X138817848Y-91736708D01*
X138726708Y-91827848D01*
X138668190Y-91942695D01*
X138668190Y-91942696D01*
X138667028Y-91950032D01*
X138642032Y-91990818D01*
X138595523Y-92001983D01*
X138563601Y-91996928D01*
X138563600Y-91996928D01*
X138481104Y-92009993D01*
X138434591Y-91998826D01*
X138409597Y-91958040D01*
X138408329Y-91950032D01*
X138405409Y-91931594D01*
X138346892Y-91816749D01*
X138255751Y-91725608D01*
X138140906Y-91667091D01*
X138013600Y-91646928D01*
X137886293Y-91667091D01*
X137886292Y-91667091D01*
X137771448Y-91725608D01*
X137680308Y-91816748D01*
X137623363Y-91928507D01*
X137586988Y-91959573D01*
X137557898Y-91961863D01*
X137463600Y-91946928D01*
X137336293Y-91967091D01*
X137336292Y-91967091D01*
X137221448Y-92025608D01*
X137130306Y-92116750D01*
X137099347Y-92177509D01*
X137062972Y-92208575D01*
X137044322Y-92211630D01*
X135253706Y-92230599D01*
X133372011Y-94112294D01*
X133327817Y-94130600D01*
X132274383Y-94130600D01*
X132230189Y-94112294D01*
X130048494Y-91930600D01*
X126529809Y-91930600D01*
X126485615Y-91912294D01*
X126467309Y-91868100D01*
X126472957Y-91842136D01*
X126484551Y-91816749D01*
X126523023Y-91732509D01*
X126541557Y-91603600D01*
X126523023Y-91474691D01*
X126468921Y-91356226D01*
X126383636Y-91257801D01*
X126274076Y-91187392D01*
X126274074Y-91187391D01*
X126274072Y-91187390D01*
X126149119Y-91150700D01*
X126149117Y-91150700D01*
X126018883Y-91150700D01*
X126018881Y-91150700D01*
X125954208Y-91169690D01*
X125906646Y-91164577D01*
X125876631Y-91127331D01*
X125874100Y-91109728D01*
X125874100Y-90430676D01*
X152497061Y-90430676D01*
X152498245Y-90438908D01*
X152515594Y-90559584D01*
X152549732Y-90634333D01*
X152569697Y-90678050D01*
X152654982Y-90776475D01*
X152764542Y-90846884D01*
X152764544Y-90846884D01*
X152764545Y-90846885D01*
X152889499Y-90883576D01*
X152889501Y-90883576D01*
X153019737Y-90883576D01*
X153135536Y-90849573D01*
X153144694Y-90846884D01*
X153254254Y-90776475D01*
X153339539Y-90678050D01*
X153387731Y-90572524D01*
X153422742Y-90539930D01*
X153470547Y-90541637D01*
X153501435Y-90572525D01*
X153539465Y-90655799D01*
X153550855Y-90680738D01*
X153636140Y-90779163D01*
X153745700Y-90849572D01*
X153745702Y-90849572D01*
X153745703Y-90849573D01*
X153870657Y-90886264D01*
X153870659Y-90886264D01*
X154000895Y-90886264D01*
X154097220Y-90857979D01*
X154125852Y-90849572D01*
X154235412Y-90779163D01*
X154320697Y-90680738D01*
X154374799Y-90562273D01*
X154393333Y-90433364D01*
X154375596Y-90309999D01*
X156692443Y-90309999D01*
X156710976Y-90438908D01*
X156747479Y-90518836D01*
X156765079Y-90557374D01*
X156850364Y-90655799D01*
X156959924Y-90726208D01*
X156959926Y-90726208D01*
X156959927Y-90726209D01*
X157084881Y-90762900D01*
X157084883Y-90762900D01*
X157215119Y-90762900D01*
X157311444Y-90734615D01*
X157340076Y-90726208D01*
X157449636Y-90655799D01*
X157534921Y-90557374D01*
X157589023Y-90438909D01*
X157607557Y-90310001D01*
X157962329Y-90310001D01*
X157981329Y-90454329D01*
X157981332Y-90454339D01*
X158037041Y-90588833D01*
X158037043Y-90588836D01*
X158125666Y-90704333D01*
X158241163Y-90792956D01*
X158241166Y-90792958D01*
X158285997Y-90811527D01*
X158375664Y-90848669D01*
X158375668Y-90848669D01*
X158375670Y-90848670D01*
X158519998Y-90867671D01*
X158520000Y-90867671D01*
X158520002Y-90867671D01*
X158664329Y-90848670D01*
X158664329Y-90848669D01*
X158664336Y-90848669D01*
X158798836Y-90792957D01*
X158914333Y-90704333D01*
X159002957Y-90588836D01*
X159058669Y-90454336D01*
X159067886Y-90384329D01*
X159077671Y-90310001D01*
X159077671Y-90309998D01*
X159068456Y-90240001D01*
X159322329Y-90240001D01*
X159341329Y-90384329D01*
X159341332Y-90384339D01*
X159397041Y-90518833D01*
X159397043Y-90518836D01*
X159485666Y-90634333D01*
X159601163Y-90722956D01*
X159601166Y-90722958D01*
X159609015Y-90726209D01*
X159735664Y-90778669D01*
X159735668Y-90778669D01*
X159735670Y-90778670D01*
X159879998Y-90797671D01*
X159880000Y-90797671D01*
X159880002Y-90797671D01*
X160024329Y-90778670D01*
X160024329Y-90778669D01*
X160024336Y-90778669D01*
X160158836Y-90722957D01*
X160274333Y-90634333D01*
X160362957Y-90518836D01*
X160418669Y-90384336D01*
X160428455Y-90310001D01*
X160437671Y-90240001D01*
X160437671Y-90239998D01*
X160418670Y-90095670D01*
X160418669Y-90095668D01*
X160418669Y-90095664D01*
X160362957Y-89961165D01*
X160274333Y-89845667D01*
X160274331Y-89845666D01*
X160274331Y-89845665D01*
X160158836Y-89757043D01*
X160158833Y-89757041D01*
X160024339Y-89701332D01*
X160024329Y-89701329D01*
X159880002Y-89682329D01*
X159879998Y-89682329D01*
X159735670Y-89701329D01*
X159735660Y-89701332D01*
X159601167Y-89757041D01*
X159601164Y-89757043D01*
X159485667Y-89845667D01*
X159397043Y-89961164D01*
X159397041Y-89961167D01*
X159341332Y-90095660D01*
X159341329Y-90095670D01*
X159322329Y-90239998D01*
X159322329Y-90240001D01*
X159068456Y-90240001D01*
X159058670Y-90165670D01*
X159058669Y-90165668D01*
X159058669Y-90165664D01*
X159002957Y-90031165D01*
X158914333Y-89915667D01*
X158914331Y-89915666D01*
X158914331Y-89915665D01*
X158798836Y-89827043D01*
X158798833Y-89827041D01*
X158664339Y-89771332D01*
X158664329Y-89771329D01*
X158520002Y-89752329D01*
X158519998Y-89752329D01*
X158375670Y-89771329D01*
X158375660Y-89771332D01*
X158241167Y-89827041D01*
X158241164Y-89827043D01*
X158125667Y-89915667D01*
X158037043Y-90031164D01*
X158037041Y-90031167D01*
X157981332Y-90165660D01*
X157981329Y-90165670D01*
X157962329Y-90309998D01*
X157962329Y-90310001D01*
X157607557Y-90310001D01*
X157607557Y-90310000D01*
X157589023Y-90181091D01*
X157534921Y-90062626D01*
X157449636Y-89964201D01*
X157340076Y-89893792D01*
X157340074Y-89893791D01*
X157340072Y-89893790D01*
X157215119Y-89857100D01*
X157215117Y-89857100D01*
X157084883Y-89857100D01*
X157084881Y-89857100D01*
X156959927Y-89893790D01*
X156850364Y-89964201D01*
X156765078Y-90062627D01*
X156710976Y-90181091D01*
X156692443Y-90309999D01*
X154375596Y-90309999D01*
X154374799Y-90304455D01*
X154320697Y-90185990D01*
X154235412Y-90087565D01*
X154125852Y-90017156D01*
X154125850Y-90017155D01*
X154125848Y-90017154D01*
X154000895Y-89980464D01*
X154000893Y-89980464D01*
X153870659Y-89980464D01*
X153870657Y-89980464D01*
X153745703Y-90017154D01*
X153745699Y-90017156D01*
X153745700Y-90017156D01*
X153636140Y-90087565D01*
X153550855Y-90185990D01*
X153550854Y-90185991D01*
X153550854Y-90185992D01*
X153502662Y-90291514D01*
X153467651Y-90324110D01*
X153419846Y-90322402D01*
X153388958Y-90291514D01*
X153339539Y-90183302D01*
X153254254Y-90084877D01*
X153144694Y-90014468D01*
X153144692Y-90014467D01*
X153144690Y-90014466D01*
X153019737Y-89977776D01*
X153019735Y-89977776D01*
X152889501Y-89977776D01*
X152889499Y-89977776D01*
X152764545Y-90014466D01*
X152654982Y-90084877D01*
X152569696Y-90183303D01*
X152515594Y-90301767D01*
X152503723Y-90384339D01*
X152497061Y-90430676D01*
X125874100Y-90430676D01*
X125874100Y-88640000D01*
X130502443Y-88640000D01*
X130520976Y-88768908D01*
X130570009Y-88876272D01*
X130575079Y-88887374D01*
X130660364Y-88985799D01*
X130769924Y-89056208D01*
X130769926Y-89056208D01*
X130769927Y-89056209D01*
X130894881Y-89092900D01*
X130894883Y-89092900D01*
X131025119Y-89092900D01*
X131121444Y-89064615D01*
X131150076Y-89056208D01*
X131259636Y-88985799D01*
X131344921Y-88887374D01*
X131399023Y-88768909D01*
X131417557Y-88640000D01*
X131415961Y-88628900D01*
X138272443Y-88628900D01*
X138290976Y-88757808D01*
X138296046Y-88768909D01*
X138345079Y-88876274D01*
X138430364Y-88974699D01*
X138539924Y-89045108D01*
X138539926Y-89045108D01*
X138539927Y-89045109D01*
X138664881Y-89081800D01*
X138664883Y-89081800D01*
X138795119Y-89081800D01*
X138891444Y-89053515D01*
X138920076Y-89045108D01*
X139029636Y-88974699D01*
X139114921Y-88876274D01*
X139169023Y-88757809D01*
X139187557Y-88628900D01*
X139169023Y-88499991D01*
X139114921Y-88381526D01*
X139029636Y-88283101D01*
X138920076Y-88212692D01*
X138920074Y-88212691D01*
X138920072Y-88212690D01*
X138795119Y-88176000D01*
X138795117Y-88176000D01*
X138664883Y-88176000D01*
X138664881Y-88176000D01*
X138539927Y-88212690D01*
X138430364Y-88283101D01*
X138345078Y-88381527D01*
X138290976Y-88499991D01*
X138272443Y-88628900D01*
X131415961Y-88628900D01*
X131399023Y-88511091D01*
X131344921Y-88392626D01*
X131259636Y-88294201D01*
X131150076Y-88223792D01*
X131150074Y-88223791D01*
X131150072Y-88223790D01*
X131025119Y-88187100D01*
X131025117Y-88187100D01*
X130894883Y-88187100D01*
X130894881Y-88187100D01*
X130769927Y-88223790D01*
X130660364Y-88294201D01*
X130575078Y-88392627D01*
X130520976Y-88511091D01*
X130502443Y-88640000D01*
X125874100Y-88640000D01*
X125874100Y-87840000D01*
X158802443Y-87840000D01*
X158820976Y-87968908D01*
X158875078Y-88087372D01*
X158875079Y-88087374D01*
X158960364Y-88185799D01*
X159069924Y-88256208D01*
X159069926Y-88256208D01*
X159069927Y-88256209D01*
X159194881Y-88292900D01*
X159194883Y-88292900D01*
X159325119Y-88292900D01*
X159421444Y-88264615D01*
X159450076Y-88256208D01*
X159559636Y-88185799D01*
X159644921Y-88087374D01*
X159699023Y-87968909D01*
X159717557Y-87840000D01*
X159699023Y-87711091D01*
X159644921Y-87592626D01*
X159559636Y-87494201D01*
X159450076Y-87423792D01*
X159450074Y-87423791D01*
X159450072Y-87423790D01*
X159325119Y-87387100D01*
X159325117Y-87387100D01*
X159194883Y-87387100D01*
X159194881Y-87387100D01*
X159069927Y-87423790D01*
X158960364Y-87494201D01*
X158875078Y-87592627D01*
X158820976Y-87711091D01*
X158802443Y-87840000D01*
X125874100Y-87840000D01*
X125874100Y-87130001D01*
X153182329Y-87130001D01*
X153201329Y-87274329D01*
X153201332Y-87274339D01*
X153257041Y-87408833D01*
X153257043Y-87408836D01*
X153345666Y-87524333D01*
X153434289Y-87592335D01*
X153461164Y-87612957D01*
X153595664Y-87668669D01*
X153595668Y-87668669D01*
X153595670Y-87668670D01*
X153739998Y-87687671D01*
X153740000Y-87687671D01*
X153740002Y-87687671D01*
X153884329Y-87668670D01*
X153884329Y-87668669D01*
X153884336Y-87668669D01*
X154018836Y-87612957D01*
X154134333Y-87524333D01*
X154222957Y-87408836D01*
X154278669Y-87274336D01*
X154297671Y-87130000D01*
X154278669Y-86985664D01*
X154222957Y-86851165D01*
X154134333Y-86735667D01*
X154134331Y-86735666D01*
X154134331Y-86735665D01*
X154018836Y-86647043D01*
X154018833Y-86647041D01*
X153884339Y-86591332D01*
X153884329Y-86591329D01*
X153740002Y-86572329D01*
X153739998Y-86572329D01*
X153595670Y-86591329D01*
X153595660Y-86591332D01*
X153461167Y-86647041D01*
X153461164Y-86647043D01*
X153345667Y-86735667D01*
X153257043Y-86851164D01*
X153257041Y-86851167D01*
X153201332Y-86985660D01*
X153201329Y-86985670D01*
X153182329Y-87129998D01*
X153182329Y-87130001D01*
X125874100Y-87130001D01*
X125874099Y-85403603D01*
X127318221Y-85403603D01*
X127338062Y-85567016D01*
X127338064Y-85567027D01*
X127396440Y-85720949D01*
X127489955Y-85856430D01*
X127489958Y-85856433D01*
X127613181Y-85965598D01*
X127758948Y-86042103D01*
X127918788Y-86081500D01*
X128083412Y-86081500D01*
X128243252Y-86042103D01*
X128389019Y-85965598D01*
X128512242Y-85856433D01*
X128605759Y-85720950D01*
X128664136Y-85567024D01*
X128679603Y-85439642D01*
X128683979Y-85403603D01*
X128683979Y-85403596D01*
X128664137Y-85240183D01*
X128664135Y-85240172D01*
X128605759Y-85086250D01*
X128512244Y-84950769D01*
X128512240Y-84950765D01*
X128389018Y-84841601D01*
X128243253Y-84765097D01*
X128182015Y-84750003D01*
X146627121Y-84750003D01*
X146646962Y-84913416D01*
X146646964Y-84913427D01*
X146705340Y-85067349D01*
X146798855Y-85202830D01*
X146798858Y-85202833D01*
X146922081Y-85311998D01*
X147067848Y-85388503D01*
X147227688Y-85427900D01*
X147392312Y-85427900D01*
X147552152Y-85388503D01*
X147697919Y-85311998D01*
X147699347Y-85310733D01*
X152593179Y-85310733D01*
X152611712Y-85439642D01*
X152665814Y-85558106D01*
X152665815Y-85558108D01*
X152751100Y-85656533D01*
X152860660Y-85726942D01*
X152860662Y-85726942D01*
X152860663Y-85726943D01*
X152985617Y-85763634D01*
X152985619Y-85763634D01*
X153115855Y-85763634D01*
X153212180Y-85735349D01*
X153240812Y-85726942D01*
X153350372Y-85656533D01*
X153435657Y-85558108D01*
X153489759Y-85439643D01*
X153508293Y-85310734D01*
X153489759Y-85181825D01*
X153435657Y-85063360D01*
X153350372Y-84964935D01*
X153240812Y-84894526D01*
X153240810Y-84894525D01*
X153240808Y-84894524D01*
X153115855Y-84857834D01*
X153115853Y-84857834D01*
X152985619Y-84857834D01*
X152985617Y-84857834D01*
X152860663Y-84894524D01*
X152751100Y-84964935D01*
X152665814Y-85063361D01*
X152611712Y-85181825D01*
X152593179Y-85310733D01*
X147699347Y-85310733D01*
X147821142Y-85202833D01*
X147914659Y-85067350D01*
X147973036Y-84913424D01*
X147975331Y-84894524D01*
X147992879Y-84750003D01*
X147992879Y-84749996D01*
X147973037Y-84586583D01*
X147973035Y-84586572D01*
X147914659Y-84432650D01*
X147821144Y-84297169D01*
X147821140Y-84297165D01*
X147711462Y-84200000D01*
X154692443Y-84200000D01*
X154710976Y-84328908D01*
X154758355Y-84432650D01*
X154765079Y-84447374D01*
X154850364Y-84545799D01*
X154959924Y-84616208D01*
X154959926Y-84616208D01*
X154959927Y-84616209D01*
X155084881Y-84652900D01*
X155084883Y-84652900D01*
X155215119Y-84652900D01*
X155311444Y-84624615D01*
X155340076Y-84616208D01*
X155449636Y-84545799D01*
X155534921Y-84447374D01*
X155547423Y-84419999D01*
X161942443Y-84419999D01*
X161960976Y-84548908D01*
X161978177Y-84586572D01*
X162015079Y-84667374D01*
X162100364Y-84765799D01*
X162209924Y-84836208D01*
X162209926Y-84836208D01*
X162209927Y-84836209D01*
X162334881Y-84872900D01*
X162334883Y-84872900D01*
X162465119Y-84872900D01*
X162571709Y-84841601D01*
X162590076Y-84836208D01*
X162699636Y-84765799D01*
X162784921Y-84667374D01*
X162839023Y-84548909D01*
X162857557Y-84420000D01*
X162839023Y-84291091D01*
X162784921Y-84172626D01*
X162699636Y-84074201D01*
X162590076Y-84003792D01*
X162590074Y-84003791D01*
X162590072Y-84003790D01*
X162465119Y-83967100D01*
X162465117Y-83967100D01*
X162334883Y-83967100D01*
X162334881Y-83967100D01*
X162209927Y-84003790D01*
X162100364Y-84074201D01*
X162015078Y-84172627D01*
X161960976Y-84291091D01*
X161942443Y-84419999D01*
X155547423Y-84419999D01*
X155589023Y-84328909D01*
X155607557Y-84200000D01*
X155589023Y-84071091D01*
X155534921Y-83952626D01*
X155449636Y-83854201D01*
X155340076Y-83783792D01*
X155340074Y-83783791D01*
X155340072Y-83783790D01*
X155215119Y-83747100D01*
X155215117Y-83747100D01*
X155084883Y-83747100D01*
X155084881Y-83747100D01*
X154959927Y-83783790D01*
X154850364Y-83854201D01*
X154765078Y-83952627D01*
X154710976Y-84071091D01*
X154692443Y-84200000D01*
X147711462Y-84200000D01*
X147697918Y-84188001D01*
X147552153Y-84111497D01*
X147392315Y-84072100D01*
X147392312Y-84072100D01*
X147227688Y-84072100D01*
X147227684Y-84072100D01*
X147067846Y-84111497D01*
X146922081Y-84188001D01*
X146798859Y-84297165D01*
X146798855Y-84297169D01*
X146705340Y-84432650D01*
X146646964Y-84586572D01*
X146646962Y-84586583D01*
X146627121Y-84749996D01*
X146627121Y-84750003D01*
X128182015Y-84750003D01*
X128083415Y-84725700D01*
X128083412Y-84725700D01*
X127918788Y-84725700D01*
X127918784Y-84725700D01*
X127758946Y-84765097D01*
X127613181Y-84841601D01*
X127489959Y-84950765D01*
X127489955Y-84950769D01*
X127396440Y-85086250D01*
X127338064Y-85240172D01*
X127338062Y-85240183D01*
X127318221Y-85403596D01*
X127318221Y-85403603D01*
X125874099Y-85403603D01*
X125874099Y-81598525D01*
X125892405Y-81554334D01*
X125936599Y-81536028D01*
X125980793Y-81554334D01*
X125998976Y-81594603D01*
X126013026Y-81817920D01*
X126013027Y-81817924D01*
X126072039Y-82127276D01*
X126169359Y-82426796D01*
X126169362Y-82426803D01*
X126303455Y-82711765D01*
X126303465Y-82711783D01*
X126472204Y-82977673D01*
X126472206Y-82977675D01*
X126472208Y-82977677D01*
X126672957Y-83220341D01*
X126902537Y-83435931D01*
X127157327Y-83621047D01*
X127157333Y-83621050D01*
X127157337Y-83621053D01*
X127256173Y-83675388D01*
X127433310Y-83772770D01*
X127530917Y-83811415D01*
X127726126Y-83888704D01*
X127726145Y-83888710D01*
X127952605Y-83946854D01*
X128031172Y-83967027D01*
X128031173Y-83967027D01*
X128031176Y-83967028D01*
X128343631Y-84006500D01*
X128343632Y-84006500D01*
X128658568Y-84006500D01*
X128658569Y-84006500D01*
X128971024Y-83967028D01*
X129081355Y-83938699D01*
X129276054Y-83888710D01*
X129276060Y-83888707D01*
X129276068Y-83888706D01*
X129568890Y-83772770D01*
X129694710Y-83703600D01*
X134689128Y-83703600D01*
X134701829Y-83783790D01*
X134709291Y-83830906D01*
X134709291Y-83830907D01*
X134738638Y-83888502D01*
X134767808Y-83945751D01*
X134858949Y-84036892D01*
X134973794Y-84095409D01*
X135101100Y-84115572D01*
X135228406Y-84095409D01*
X135343251Y-84036892D01*
X135434392Y-83945751D01*
X135492909Y-83830906D01*
X135513072Y-83703600D01*
X135492909Y-83576294D01*
X135434392Y-83461449D01*
X135343251Y-83370308D01*
X135228406Y-83311791D01*
X135101100Y-83291628D01*
X134973793Y-83311791D01*
X134973792Y-83311791D01*
X134858948Y-83370308D01*
X134767808Y-83461448D01*
X134709291Y-83576292D01*
X134709291Y-83576293D01*
X134709290Y-83576294D01*
X134709291Y-83576294D01*
X134689128Y-83703600D01*
X129694710Y-83703600D01*
X129844873Y-83621047D01*
X130099663Y-83435931D01*
X130297656Y-83250003D01*
X146717121Y-83250003D01*
X146736962Y-83413416D01*
X146736964Y-83413427D01*
X146795340Y-83567349D01*
X146888855Y-83702830D01*
X146888858Y-83702833D01*
X147012081Y-83811998D01*
X147157848Y-83888503D01*
X147317688Y-83927900D01*
X147482312Y-83927900D01*
X147642152Y-83888503D01*
X147787919Y-83811998D01*
X147911142Y-83702833D01*
X147982122Y-83600000D01*
X156368178Y-83600000D01*
X156386711Y-83728908D01*
X156424658Y-83811998D01*
X156440814Y-83847374D01*
X156526099Y-83945799D01*
X156635659Y-84016208D01*
X156635661Y-84016208D01*
X156635662Y-84016209D01*
X156760616Y-84052900D01*
X156760618Y-84052900D01*
X156890854Y-84052900D01*
X156987179Y-84024615D01*
X157015811Y-84016208D01*
X157125371Y-83945799D01*
X157210656Y-83847374D01*
X157264758Y-83728909D01*
X157283292Y-83600000D01*
X157264758Y-83471091D01*
X157210656Y-83352626D01*
X157125371Y-83254201D01*
X157015811Y-83183792D01*
X157015809Y-83183791D01*
X157015807Y-83183790D01*
X156890854Y-83147100D01*
X156890852Y-83147100D01*
X156760618Y-83147100D01*
X156760616Y-83147100D01*
X156635662Y-83183790D01*
X156526099Y-83254201D01*
X156440813Y-83352627D01*
X156386711Y-83471091D01*
X156368178Y-83600000D01*
X147982122Y-83600000D01*
X148004659Y-83567350D01*
X148063036Y-83413424D01*
X148070418Y-83352626D01*
X148082879Y-83250003D01*
X148082879Y-83249996D01*
X148063037Y-83086583D01*
X148063035Y-83086572D01*
X148004659Y-82932650D01*
X147911144Y-82797169D01*
X147911140Y-82797165D01*
X147787918Y-82688001D01*
X147642153Y-82611497D01*
X147482315Y-82572100D01*
X147482312Y-82572100D01*
X147317688Y-82572100D01*
X147317684Y-82572100D01*
X147157846Y-82611497D01*
X147012081Y-82688001D01*
X146888859Y-82797165D01*
X146888855Y-82797169D01*
X146795340Y-82932650D01*
X146736964Y-83086572D01*
X146736962Y-83086583D01*
X146717121Y-83249996D01*
X146717121Y-83250003D01*
X130297656Y-83250003D01*
X130329243Y-83220341D01*
X130529992Y-82977677D01*
X130644548Y-82797167D01*
X130698734Y-82711783D01*
X130698736Y-82711777D01*
X130698745Y-82711765D01*
X130832839Y-82426801D01*
X130930160Y-82127277D01*
X130989174Y-81817917D01*
X131004771Y-81570003D01*
X146807121Y-81570003D01*
X146826962Y-81733416D01*
X146826964Y-81733427D01*
X146885340Y-81887349D01*
X146978855Y-82022830D01*
X146978858Y-82022833D01*
X147102081Y-82131998D01*
X147247848Y-82208503D01*
X147407688Y-82247900D01*
X147572312Y-82247900D01*
X147732152Y-82208503D01*
X147877919Y-82131998D01*
X147959189Y-82060000D01*
X151292443Y-82060000D01*
X151310976Y-82188908D01*
X151365078Y-82307372D01*
X151365079Y-82307374D01*
X151450364Y-82405799D01*
X151559924Y-82476208D01*
X151559926Y-82476208D01*
X151559927Y-82476209D01*
X151684881Y-82512900D01*
X151684883Y-82512900D01*
X151815119Y-82512900D01*
X151911444Y-82484615D01*
X151940076Y-82476208D01*
X152049636Y-82405799D01*
X152134921Y-82307374D01*
X152189023Y-82188909D01*
X152207557Y-82060000D01*
X152189023Y-81931091D01*
X152134921Y-81812626D01*
X152049636Y-81714201D01*
X151940076Y-81643792D01*
X151940074Y-81643791D01*
X151940072Y-81643790D01*
X151815119Y-81607100D01*
X151815117Y-81607100D01*
X151684883Y-81607100D01*
X151684881Y-81607100D01*
X151559927Y-81643790D01*
X151450364Y-81714201D01*
X151365078Y-81812627D01*
X151310976Y-81931091D01*
X151292443Y-82060000D01*
X147959189Y-82060000D01*
X148001142Y-82022833D01*
X148094659Y-81887350D01*
X148153036Y-81733424D01*
X148163919Y-81643792D01*
X148172879Y-81570003D01*
X148172879Y-81569996D01*
X148166808Y-81520000D01*
X154912443Y-81520000D01*
X154930976Y-81648908D01*
X154979980Y-81756209D01*
X154985079Y-81767374D01*
X155070364Y-81865799D01*
X155179924Y-81936208D01*
X155179926Y-81936208D01*
X155179927Y-81936209D01*
X155304881Y-81972900D01*
X155304883Y-81972900D01*
X155435119Y-81972900D01*
X155531444Y-81944615D01*
X155560076Y-81936208D01*
X155669636Y-81865799D01*
X155754921Y-81767374D01*
X155809023Y-81648909D01*
X155827557Y-81520000D01*
X155809023Y-81391091D01*
X155758289Y-81280000D01*
X157792443Y-81280000D01*
X157810976Y-81408908D01*
X157861711Y-81520000D01*
X157865079Y-81527374D01*
X157950364Y-81625799D01*
X158059924Y-81696208D01*
X158059926Y-81696208D01*
X158059927Y-81696209D01*
X158184881Y-81732900D01*
X158184883Y-81732900D01*
X158315119Y-81732900D01*
X158411444Y-81704615D01*
X158440076Y-81696208D01*
X158549636Y-81625799D01*
X158634921Y-81527374D01*
X158689023Y-81408909D01*
X158698930Y-81340000D01*
X164812443Y-81340000D01*
X164830976Y-81468908D01*
X164877144Y-81570000D01*
X164885079Y-81587374D01*
X164970364Y-81685799D01*
X165079924Y-81756208D01*
X165079926Y-81756208D01*
X165079927Y-81756209D01*
X165204881Y-81792900D01*
X165204883Y-81792900D01*
X165335119Y-81792900D01*
X165431444Y-81764615D01*
X165460076Y-81756208D01*
X165569636Y-81685799D01*
X165654921Y-81587374D01*
X165709023Y-81468909D01*
X165727557Y-81340000D01*
X165709023Y-81211091D01*
X165654921Y-81092626D01*
X165569636Y-80994201D01*
X165460076Y-80923792D01*
X165460074Y-80923791D01*
X165460072Y-80923790D01*
X165335119Y-80887100D01*
X165335117Y-80887100D01*
X165204883Y-80887100D01*
X165204881Y-80887100D01*
X165079927Y-80923790D01*
X164970364Y-80994201D01*
X164885078Y-81092627D01*
X164830976Y-81211091D01*
X164812443Y-81340000D01*
X158698930Y-81340000D01*
X158707557Y-81280000D01*
X158689023Y-81151091D01*
X158634921Y-81032626D01*
X158549636Y-80934201D01*
X158440076Y-80863792D01*
X158440074Y-80863791D01*
X158440072Y-80863790D01*
X158315119Y-80827100D01*
X158315117Y-80827100D01*
X158184883Y-80827100D01*
X158184881Y-80827100D01*
X158059927Y-80863790D01*
X157950364Y-80934201D01*
X157865078Y-81032627D01*
X157810976Y-81151091D01*
X157792443Y-81280000D01*
X155758289Y-81280000D01*
X155754921Y-81272626D01*
X155669636Y-81174201D01*
X155560076Y-81103792D01*
X155560074Y-81103791D01*
X155560072Y-81103790D01*
X155435119Y-81067100D01*
X155435117Y-81067100D01*
X155304883Y-81067100D01*
X155304881Y-81067100D01*
X155179927Y-81103790D01*
X155070364Y-81174201D01*
X154985078Y-81272627D01*
X154930976Y-81391091D01*
X154912443Y-81520000D01*
X148166808Y-81520000D01*
X148153037Y-81406583D01*
X148153035Y-81406572D01*
X148094659Y-81252650D01*
X148001144Y-81117169D01*
X148001140Y-81117165D01*
X147877918Y-81008001D01*
X147732153Y-80931497D01*
X147572315Y-80892100D01*
X147572312Y-80892100D01*
X147407688Y-80892100D01*
X147407684Y-80892100D01*
X147247846Y-80931497D01*
X147102081Y-81008001D01*
X146978859Y-81117165D01*
X146978855Y-81117169D01*
X146885340Y-81252650D01*
X146826964Y-81406572D01*
X146826962Y-81406583D01*
X146807121Y-81569996D01*
X146807121Y-81570003D01*
X131004771Y-81570003D01*
X131008949Y-81503600D01*
X130989174Y-81189283D01*
X130930160Y-80879923D01*
X130832839Y-80580399D01*
X130698745Y-80295435D01*
X130698741Y-80295429D01*
X130698734Y-80295416D01*
X130529995Y-80029526D01*
X130529993Y-80029524D01*
X130429617Y-79908191D01*
X130329243Y-79786859D01*
X130099663Y-79571269D01*
X129844873Y-79386153D01*
X129844867Y-79386150D01*
X129844862Y-79386146D01*
X129657458Y-79283120D01*
X129568890Y-79234430D01*
X129568888Y-79234429D01*
X129568886Y-79234428D01*
X129276073Y-79118495D01*
X129276054Y-79118489D01*
X128971026Y-79040172D01*
X128971028Y-79040172D01*
X128710990Y-79007322D01*
X128661789Y-79001106D01*
X128620238Y-78977407D01*
X128607616Y-78931267D01*
X128631316Y-78889715D01*
X128669623Y-78876600D01*
X162053043Y-78876600D01*
X162097237Y-78894906D01*
G37*
%TD.AperFunction*%
%TD*%
M02*
