%TF.GenerationSoftware,KiCad,Pcbnew,7.0.6*%
%TF.CreationDate,2023-08-06T04:52:03+10:00*%
%TF.ProjectId,controller,636f6e74-726f-46c6-9c65-722e6b696361,rev?*%
%TF.SameCoordinates,Original*%
%TF.FileFunction,Copper,L4,Bot*%
%TF.FilePolarity,Positive*%
%FSLAX46Y46*%
G04 Gerber Fmt 4.6, Leading zero omitted, Abs format (unit mm)*
G04 Created by KiCad (PCBNEW 7.0.6) date 2023-08-06 04:52:03*
%MOMM*%
%LPD*%
G01*
G04 APERTURE LIST*
%TA.AperFunction,ComponentPad*%
%ADD10C,1.050000*%
%TD*%
%TA.AperFunction,ComponentPad*%
%ADD11C,4.700000*%
%TD*%
%TA.AperFunction,ComponentPad*%
%ADD12C,3.000000*%
%TD*%
%TA.AperFunction,ComponentPad*%
%ADD13C,1.875000*%
%TD*%
%TA.AperFunction,ComponentPad*%
%ADD14C,0.600000*%
%TD*%
%TA.AperFunction,SMDPad,CuDef*%
%ADD15R,2.950000X4.500000*%
%TD*%
%TA.AperFunction,SMDPad,CuDef*%
%ADD16R,1.600000X0.900000*%
%TD*%
%TA.AperFunction,SMDPad,CuDef*%
%ADD17R,1.000000X3.500000*%
%TD*%
%TA.AperFunction,SMDPad,CuDef*%
%ADD18R,1.500000X3.400000*%
%TD*%
%TA.AperFunction,SMDPad,CuDef*%
%ADD19R,0.850000X7.000000*%
%TD*%
%TA.AperFunction,SMDPad,CuDef*%
%ADD20R,0.700000X1.550000*%
%TD*%
%TA.AperFunction,ViaPad*%
%ADD21C,0.600000*%
%TD*%
%TA.AperFunction,ViaPad*%
%ADD22C,0.508000*%
%TD*%
%TA.AperFunction,ViaPad*%
%ADD23C,0.800000*%
%TD*%
%TA.AperFunction,ViaPad*%
%ADD24C,0.553200*%
%TD*%
%TA.AperFunction,Conductor*%
%ADD25C,0.200000*%
%TD*%
%TA.AperFunction,Conductor*%
%ADD26C,0.500000*%
%TD*%
%TA.AperFunction,Conductor*%
%ADD27C,0.254000*%
%TD*%
%TA.AperFunction,Conductor*%
%ADD28C,0.380000*%
%TD*%
%TA.AperFunction,Conductor*%
%ADD29C,0.406400*%
%TD*%
%TA.AperFunction,Conductor*%
%ADD30C,0.215900*%
%TD*%
G04 APERTURE END LIST*
D10*
%TO.P,DG2,P$1,P$1*%
%TO.N,GND*%
X157060000Y-79430000D03*
%TD*%
D11*
%TO.P,M1,1*%
%TO.N,N/C*%
X128501100Y-81503600D03*
%TD*%
D12*
%TO.P,C0,1,P$1*%
%TO.N,/SHC*%
X163001100Y-116703600D03*
%TD*%
%TO.P,J1,1,1*%
%TO.N,V+*%
X159001100Y-118503600D03*
%TO.P,J1,2,2*%
%TO.N,GND*%
X154001100Y-118503600D03*
D13*
%TO.P,J1,M1*%
%TO.N,N/C*%
X162001100Y-128503600D03*
%TO.P,J1,M2*%
X151001100Y-128503600D03*
%TD*%
D12*
%TO.P,J2,1,1*%
%TO.N,V+*%
X143001100Y-118503600D03*
%TO.P,J2,2,2*%
%TO.N,GND*%
X138001100Y-118503600D03*
D13*
%TO.P,J2,M1*%
%TO.N,N/C*%
X146001100Y-128503600D03*
%TO.P,J2,M2*%
X135001100Y-128503600D03*
%TD*%
D12*
%TO.P,B0,1,P$1*%
%TO.N,/SHB*%
X148501100Y-116703600D03*
%TD*%
D10*
%TO.P,TEMP1,P$1,P$1*%
%TO.N,+3V3*%
X147490000Y-81570000D03*
%TD*%
%TO.P,DA0,P$1,P$1*%
%TO.N,/SHA*%
X140301100Y-115503600D03*
%TD*%
%TO.P,DBG1,P$1,P$1*%
%TO.N,/DEBUG1*%
X147400000Y-83250000D03*
%TD*%
D11*
%TO.P,M2,1*%
%TO.N,N/C*%
X168501100Y-81503600D03*
%TD*%
D10*
%TO.P,DC0,P$1,P$1*%
%TO.N,/SHC*%
X158101100Y-115503600D03*
%TD*%
D14*
%TO.P,U1,9,GNDPAD*%
%TO.N,GND*%
X132650000Y-91720000D03*
X132650000Y-92920000D03*
X132650000Y-94220000D03*
X132650000Y-95320000D03*
D15*
X133250000Y-93520000D03*
D14*
X133850000Y-91720000D03*
X133850000Y-92920000D03*
X133850000Y-94220000D03*
X133850000Y-95320000D03*
%TD*%
D12*
%TO.P,A0,1,P$1*%
%TO.N,/SHA*%
X134001100Y-116703600D03*
%TD*%
D10*
%TO.P,TEMP2,P$1,P$1*%
%TO.N,/VTEMP_MOT*%
X162701100Y-79303600D03*
%TD*%
D11*
%TO.P,M3,1*%
%TO.N,N/C*%
X128501100Y-119503600D03*
%TD*%
D10*
%TO.P,DBG2,P$1,P$1*%
%TO.N,/DEBUG2*%
X147310000Y-84750000D03*
%TD*%
%TO.P,D33,P$1,P$1*%
%TO.N,+3V3*%
X128001100Y-85403600D03*
%TD*%
%TO.P,DAC0,P$1,P$1*%
%TO.N,/DAC*%
X150280000Y-92180000D03*
%TD*%
D11*
%TO.P,M4,1*%
%TO.N,N/C*%
X168501100Y-119503600D03*
%TD*%
D10*
%TO.P,DB0,P$1,P$1*%
%TO.N,/SHB*%
X145601100Y-115503600D03*
%TD*%
D16*
%TO.P,C47,P$1,P$1*%
%TO.N,V+*%
X151701100Y-105753600D03*
%TO.P,C47,P$2,P$2*%
%TO.N,GND*%
X151701100Y-102853600D03*
%TD*%
D17*
%TO.P,CAN1,1,1*%
%TO.N,/CAN_P*%
X142501100Y-123923600D03*
%TO.P,CAN1,2,2*%
%TO.N,/CAN_N*%
X140501100Y-123923600D03*
%TO.P,CAN1,3,3*%
%TO.N,GND*%
X138501100Y-123923600D03*
D18*
%TO.P,CAN1,S1*%
%TO.N,N/C*%
X136151100Y-129473600D03*
%TO.P,CAN1,S2*%
X144851100Y-129473600D03*
%TD*%
D16*
%TO.P,C43,P$1,P$1*%
%TO.N,V+*%
X160501100Y-105753600D03*
%TO.P,C43,P$2,P$2*%
%TO.N,GND*%
X160501100Y-102853600D03*
%TD*%
%TO.P,C40,P$1,P$1*%
%TO.N,V+*%
X167101100Y-105753600D03*
%TO.P,C40,P$2,P$2*%
%TO.N,GND*%
X167101100Y-102853600D03*
%TD*%
D19*
%TO.P,ENC0,1,1*%
%TO.N,+3V3*%
X136151100Y-83353600D03*
%TO.P,ENC0,2,2*%
%TO.N,/AS5047_DIR*%
X137651100Y-83353600D03*
%TO.P,ENC0,3,3*%
%TO.N,GND*%
X139151100Y-83353600D03*
%TO.P,ENC0,4,4*%
%TO.N,/AS5047_SCL*%
X140651100Y-83353600D03*
%TO.P,ENC0,5,5*%
%TO.N,/AS5047_SDA*%
X142151100Y-83353600D03*
%TO.P,ENC0,6,6*%
%TO.N,/AS5047_PGO*%
X143651100Y-83353600D03*
%TD*%
D16*
%TO.P,C48,P$1,P$1*%
%TO.N,V+*%
X149501100Y-105753600D03*
%TO.P,C48,P$2,P$2*%
%TO.N,GND*%
X149501100Y-102853600D03*
%TD*%
D17*
%TO.P,CAN2,1,1*%
%TO.N,/CAN_P*%
X158501100Y-123923600D03*
%TO.P,CAN2,2,2*%
%TO.N,/CAN_N*%
X156501100Y-123923600D03*
%TO.P,CAN2,3,3*%
%TO.N,GND*%
X154501100Y-123923600D03*
D18*
%TO.P,CAN2,S1*%
%TO.N,N/C*%
X152151100Y-129473600D03*
%TO.P,CAN2,S2*%
X160851100Y-129473600D03*
%TD*%
D16*
%TO.P,C53,P$1,P$1*%
%TO.N,V+*%
X132301100Y-105753600D03*
%TO.P,C53,P$2,P$2*%
%TO.N,GND*%
X132301100Y-102853600D03*
%TD*%
%TO.P,C51,P$1,P$1*%
%TO.N,V+*%
X136701100Y-105753600D03*
%TO.P,C51,P$2,P$2*%
%TO.N,GND*%
X136701100Y-102853600D03*
%TD*%
%TO.P,C42,P$1,P$1*%
%TO.N,V+*%
X162701100Y-105753600D03*
%TO.P,C42,P$2,P$2*%
%TO.N,GND*%
X162701100Y-102853600D03*
%TD*%
%TO.P,C45,P$1,P$1*%
%TO.N,V+*%
X156101100Y-105753600D03*
%TO.P,C45,P$2,P$2*%
%TO.N,GND*%
X156101100Y-102853600D03*
%TD*%
%TO.P,C49,P$1,P$1*%
%TO.N,V+*%
X141101100Y-105753600D03*
%TO.P,C49,P$2,P$2*%
%TO.N,GND*%
X141101100Y-102853600D03*
%TD*%
%TO.P,C54,P$1,P$1*%
%TO.N,V+*%
X130101100Y-105753600D03*
%TO.P,C54,P$2,P$2*%
%TO.N,GND*%
X130101100Y-102853600D03*
%TD*%
%TO.P,C52,P$1,P$1*%
%TO.N,V+*%
X134501100Y-105753600D03*
%TO.P,C52,P$2,P$2*%
%TO.N,GND*%
X134501100Y-102853600D03*
%TD*%
%TO.P,C44,P$1,P$1*%
%TO.N,V+*%
X158301100Y-105753600D03*
%TO.P,C44,P$2,P$2*%
%TO.N,GND*%
X158301100Y-102853600D03*
%TD*%
%TO.P,C41,P$1,P$1*%
%TO.N,V+*%
X164901100Y-105753600D03*
%TO.P,C41,P$2,P$2*%
%TO.N,GND*%
X164901100Y-102853600D03*
%TD*%
D20*
%TO.P,IC4,1,VDD5V*%
%TO.N,unconnected-(IC4-VDD5V-Pad1)*%
X147476184Y-95013816D03*
%TO.P,IC4,2,VDD3V3*%
%TO.N,+3V3*%
X148746184Y-95013816D03*
%TO.P,IC4,3,OUT*%
%TO.N,unconnected-(IC4-OUT-Pad3)*%
X150016184Y-95013816D03*
%TO.P,IC4,4,GND*%
%TO.N,GND*%
X151286184Y-95013816D03*
%TO.P,IC4,5,PGO*%
%TO.N,/AS5047_PGO*%
X151286184Y-100463816D03*
%TO.P,IC4,6,SDA*%
%TO.N,/AS5047_SDA*%
X150016184Y-100463816D03*
%TO.P,IC4,7,SCL*%
%TO.N,/AS5047_SCL*%
X148746184Y-100463816D03*
%TO.P,IC4,8,DIR*%
%TO.N,/AS5047_DIR*%
X147476184Y-100463816D03*
%TD*%
D16*
%TO.P,C50,P$1,P$1*%
%TO.N,V+*%
X138901100Y-105753600D03*
%TO.P,C50,P$2,P$2*%
%TO.N,GND*%
X138901100Y-102853600D03*
%TD*%
%TO.P,C46,P$1,P$1*%
%TO.N,V+*%
X153901100Y-105753600D03*
%TO.P,C46,P$2,P$2*%
%TO.N,GND*%
X153901100Y-102853600D03*
%TD*%
D21*
%TO.N,+3V3*%
X162400000Y-84420000D03*
X147360000Y-97670000D03*
D22*
X165276100Y-95913600D03*
D21*
X155150000Y-84200000D03*
D22*
X134501100Y-121503600D03*
D21*
X157150000Y-90310000D03*
X159260000Y-87840000D03*
X145288000Y-124104400D03*
X130960000Y-88640000D03*
X151750000Y-82060000D03*
X126084000Y-91603600D03*
X165270000Y-81340000D03*
D22*
X135101100Y-83703600D03*
D21*
%TO.N,/SHA*%
X153935776Y-90433364D03*
X138660000Y-101110000D03*
%TO.N,/SHB*%
X148330000Y-109140000D03*
X163209192Y-92849192D03*
%TO.N,/SHC*%
X164015000Y-93995000D03*
X162258886Y-109911386D03*
%TO.N,/VTEMP_FET*%
X155370000Y-81520000D03*
X154640000Y-113570000D03*
%TO.N,/AS5047_SDA*%
X153050736Y-85310734D03*
X150020000Y-93748900D03*
D22*
%TO.N,V+*%
X150151100Y-106903600D03*
X153401100Y-106903600D03*
X137463600Y-92358900D03*
X132301100Y-106553600D03*
X133801100Y-106903600D03*
X129701100Y-108453600D03*
X134801100Y-106903600D03*
X166530000Y-104150000D03*
X150801100Y-106903600D03*
X149501100Y-106903600D03*
X127601100Y-105853600D03*
X131751100Y-99103600D03*
X165790000Y-104130000D03*
X127601100Y-105103600D03*
X153120000Y-99480000D03*
X134301100Y-106553600D03*
X127601100Y-102103600D03*
X129590800Y-106553000D03*
X128301100Y-112853600D03*
X131343400Y-106527600D03*
X127601100Y-108103600D03*
X166751100Y-108653600D03*
X127601100Y-103603600D03*
X158140000Y-98400000D03*
X163347400Y-99441000D03*
X152751100Y-106303600D03*
X129001100Y-106553600D03*
X151451100Y-106303600D03*
X128751100Y-99103600D03*
X128951100Y-112853600D03*
X127601100Y-99853600D03*
X129351100Y-99103600D03*
X132351100Y-99103600D03*
X167251100Y-112753600D03*
X128776100Y-104668600D03*
X157401100Y-106903600D03*
X169451100Y-109703600D03*
X127601100Y-108853600D03*
X157401100Y-106303600D03*
X127601100Y-111853600D03*
X139060000Y-92070000D03*
X152101100Y-106303600D03*
X168301100Y-108353600D03*
X163851100Y-99753600D03*
X130351100Y-108453600D03*
X158701100Y-106903600D03*
X156751100Y-106303600D03*
X164401100Y-99453600D03*
X127601100Y-102853600D03*
X133301100Y-106553600D03*
X169451100Y-112853600D03*
X130276100Y-105018600D03*
X150801100Y-106303600D03*
X156101100Y-106903600D03*
X128401100Y-108453600D03*
X150164800Y-106299000D03*
X127601100Y-111103600D03*
X138013600Y-92058900D03*
X152101100Y-106903600D03*
X158810000Y-98410000D03*
X127601100Y-107353600D03*
X127601100Y-100603600D03*
X127601100Y-99103600D03*
X168251100Y-112753600D03*
X130801100Y-106903600D03*
X129776100Y-104668600D03*
X138563600Y-92408900D03*
X167751100Y-113003600D03*
X132801100Y-106903600D03*
X127601100Y-109603600D03*
X169451100Y-110453600D03*
X167101102Y-105753599D03*
X127601100Y-106603600D03*
X155451100Y-106903600D03*
X127601100Y-104353600D03*
X153401100Y-106303600D03*
X139060000Y-92930000D03*
X151451100Y-106903600D03*
X169451100Y-112053600D03*
X129276100Y-105018600D03*
X167060000Y-104860000D03*
X131151100Y-99103600D03*
X135301100Y-106553600D03*
X164871400Y-100507800D03*
X131801100Y-106903600D03*
X129051100Y-108453600D03*
X167801100Y-108653600D03*
X129971800Y-99110800D03*
X167301100Y-108353600D03*
X156743400Y-106908600D03*
X156101100Y-106303600D03*
X127601100Y-110353600D03*
X158051100Y-106903600D03*
X130251100Y-112853600D03*
X127601100Y-113353600D03*
X169451100Y-111253600D03*
X130200400Y-106553000D03*
X129601100Y-112853600D03*
X152751100Y-106903600D03*
X155451100Y-106303600D03*
X130551100Y-99103600D03*
X127601100Y-112603600D03*
X128397000Y-106553000D03*
X127601100Y-101353600D03*
X169451100Y-108953600D03*
D23*
%TO.N,/GLA*%
X159880000Y-90240000D03*
X140589997Y-97690006D03*
%TO.N,/GLB*%
X144111808Y-98121684D03*
X158520000Y-90310000D03*
%TO.N,/GLC*%
X161850000Y-96530000D03*
X161360000Y-98980000D03*
%TO.N,/GHA*%
X138130000Y-99880000D03*
X153740000Y-87130000D03*
%TO.N,/GHB*%
X163030676Y-93921259D03*
X154930000Y-101900000D03*
%TO.N,/GHC*%
X160150000Y-99220000D03*
X161689998Y-94850000D03*
D22*
%TO.N,GND*%
X126801100Y-87603600D03*
X133751100Y-103603600D03*
X135301100Y-102003600D03*
D21*
X164290000Y-104580000D03*
D22*
X165801100Y-79303600D03*
X157440000Y-103890000D03*
X129301100Y-100453600D03*
D21*
X148770000Y-82010000D03*
D22*
X137680000Y-95740000D03*
X166801100Y-109703600D03*
D21*
X169920000Y-103920000D03*
D22*
X134899400Y-101574600D03*
X145251100Y-104603600D03*
D21*
X162852209Y-90752371D03*
D22*
X133551100Y-102003600D03*
X150310000Y-103780000D03*
X130951100Y-100153600D03*
X134901100Y-103603600D03*
X129351100Y-103603600D03*
X129901100Y-103803600D03*
X153390000Y-103820000D03*
X163951100Y-98403600D03*
D21*
X148890000Y-83660000D03*
D22*
X152760000Y-103800000D03*
D21*
X128250000Y-90984659D03*
D22*
X167451100Y-109703600D03*
X135151100Y-100103600D03*
X130451100Y-103603600D03*
X129001100Y-114103600D03*
X152090000Y-103810000D03*
X168101100Y-109703600D03*
X147401100Y-103403600D03*
X139801100Y-83753600D03*
X146001100Y-102253600D03*
D21*
X142669998Y-90029999D03*
D22*
X156251100Y-101903600D03*
X134401100Y-102003600D03*
X149650000Y-103750000D03*
X128751100Y-100153600D03*
D21*
X152670000Y-96350000D03*
D22*
X147251100Y-102253600D03*
X147401100Y-102803600D03*
X131001100Y-103853600D03*
X133197600Y-103886000D03*
D21*
X166890000Y-94820000D03*
X141950000Y-90470000D03*
D22*
X133151100Y-100153600D03*
X164551100Y-102103600D03*
D21*
X156440000Y-85131100D03*
D22*
X132601100Y-100453600D03*
D21*
X143390000Y-89580000D03*
D24*
X146601100Y-120153600D03*
D22*
X137670000Y-94190000D03*
X130251100Y-114103600D03*
X129851100Y-100153600D03*
X132651100Y-103603600D03*
X151601100Y-117903600D03*
X168201100Y-114153600D03*
X131551100Y-103603600D03*
X142701100Y-104253600D03*
D21*
X141950000Y-89600000D03*
D22*
X162601100Y-97453600D03*
X138460000Y-94180000D03*
X156760000Y-103860000D03*
X163301100Y-98403600D03*
D21*
X156470000Y-86930000D03*
D22*
X155751100Y-101503600D03*
X134351100Y-103853600D03*
X163551100Y-101603600D03*
X129651100Y-114103600D03*
D21*
X154990000Y-86940000D03*
D22*
X156490000Y-99740000D03*
X137101100Y-121503600D03*
X129001100Y-109703600D03*
X132101100Y-103853600D03*
D21*
X165470000Y-94770000D03*
D22*
X135151100Y-100803600D03*
X163901100Y-102103600D03*
X131501100Y-100453600D03*
X145851100Y-104603600D03*
X132051100Y-100153600D03*
X156801100Y-101503600D03*
X157301100Y-101903600D03*
D21*
X154860000Y-88100000D03*
X157800000Y-92160000D03*
D22*
X130201100Y-109703600D03*
X157851100Y-101503600D03*
D21*
X158120000Y-86070000D03*
D22*
X150990000Y-103790000D03*
D21*
X156470000Y-88100000D03*
D22*
X166701100Y-113853600D03*
D21*
X157891452Y-85298548D03*
D22*
X129616200Y-109702600D03*
X133951100Y-101553600D03*
X164251100Y-101603600D03*
X143351100Y-103653600D03*
X128801100Y-103853600D03*
X138500000Y-95770000D03*
X167201100Y-114153600D03*
X146330000Y-101730000D03*
D21*
X143410000Y-90500000D03*
D22*
X156490000Y-100490000D03*
X142701100Y-103653600D03*
X143351100Y-104253600D03*
X157190000Y-100490000D03*
X130401100Y-100453600D03*
X134401100Y-100803600D03*
D21*
X154894265Y-85131100D03*
D22*
X143357600Y-105537000D03*
X146601100Y-102253600D03*
D21*
X158010000Y-88100000D03*
D22*
X167701100Y-113853600D03*
D21*
X166080000Y-86540000D03*
D22*
X134401100Y-100103600D03*
X163201100Y-102103600D03*
D21*
X147370000Y-86620000D03*
D22*
X143351100Y-106153600D03*
X157190000Y-99740000D03*
D21*
%TO.N,/CAN_P*%
X168440000Y-104012895D03*
D24*
X148701100Y-122203600D03*
%TO.N,/CAN_N*%
X148601100Y-120703600D03*
D21*
X167590000Y-104012895D03*
%TO.N,/AS5047_SCL*%
X148750000Y-93570000D03*
X155157516Y-92477411D03*
%TO.N,/AS5047_DIR*%
X152954618Y-90430676D03*
X138730000Y-88628900D03*
X147480000Y-93579998D03*
%TO.N,/AS5047_PGO*%
X156825735Y-83600000D03*
X151308499Y-93615758D03*
%TO.N,/VTEMP_MOT*%
X158250000Y-81280000D03*
%TD*%
D25*
%TO.N,+3V3*%
X162400000Y-84420000D02*
X162400000Y-84210000D01*
D26*
X126101100Y-116503600D02*
X126101100Y-91603600D01*
D27*
X136151100Y-83353600D02*
X135801100Y-83703600D01*
D26*
X134601100Y-121403600D02*
X135301100Y-121403600D01*
D27*
X130960000Y-87844700D02*
X130960000Y-88640000D01*
X135101100Y-83703600D02*
X130960000Y-87844700D01*
D26*
X131501100Y-120303600D02*
X131501100Y-118353600D01*
D25*
X153890000Y-84200000D02*
X151750000Y-82060000D01*
D26*
X129651100Y-116503600D02*
X126101100Y-116503600D01*
X135301100Y-121403600D02*
X134401100Y-120553600D01*
D25*
X157150000Y-90310000D02*
X157930000Y-91090000D01*
X128001100Y-85403600D02*
X130960000Y-88362500D01*
D26*
X134501100Y-121503600D02*
X134601100Y-121403600D01*
X131501100Y-118353600D02*
X129651100Y-116503600D01*
X142988800Y-126403600D02*
X137201100Y-126403600D01*
X126101100Y-91603600D02*
X126084000Y-91603600D01*
D25*
X148746184Y-95013816D02*
X148746184Y-95573816D01*
D26*
X134251100Y-120403600D02*
X131601100Y-120403600D01*
D25*
X155150000Y-84200000D02*
X153890000Y-84200000D01*
X130960000Y-88362500D02*
X130960000Y-88640000D01*
D26*
X134401100Y-120553600D02*
X134251100Y-120403600D01*
D27*
X135801100Y-83703600D02*
X135101100Y-83703600D01*
D25*
X160062376Y-91090000D02*
X160770766Y-90381610D01*
X157930000Y-91090000D02*
X160062376Y-91090000D01*
X160770766Y-90381610D02*
X160770766Y-89350766D01*
D26*
X137201100Y-126403600D02*
X135301100Y-124403600D01*
D25*
X160770766Y-89350766D02*
X159260000Y-87840000D01*
X147360000Y-96960000D02*
X147360000Y-97670000D01*
D26*
X131601100Y-120403600D02*
X131501100Y-120303600D01*
D25*
X148746184Y-95573816D02*
X147360000Y-96960000D01*
D26*
X135301100Y-124403600D02*
X135301100Y-121403600D01*
D25*
X162400000Y-84210000D02*
X165270000Y-81340000D01*
D26*
X145288000Y-124104400D02*
X142988800Y-126403600D01*
D25*
%TO.N,/SHA*%
X142220000Y-101110000D02*
X138660000Y-101110000D01*
X144860000Y-98470000D02*
X142220000Y-101110000D01*
X150259324Y-89830676D02*
X144860000Y-95230000D01*
X153935776Y-90433364D02*
X153333088Y-89830676D01*
X144860000Y-95230000D02*
X144860000Y-98470000D01*
X153333088Y-89830676D02*
X150259324Y-89830676D01*
%TO.N,/SHB*%
X148340000Y-102386900D02*
X148766900Y-101960000D01*
X152889666Y-100978900D02*
X161019374Y-92849192D01*
X152527462Y-100978900D02*
X152889666Y-100978900D01*
X161019374Y-92849192D02*
X163209192Y-92849192D01*
X152113984Y-101392378D02*
X152527462Y-100978900D01*
X152113984Y-101547382D02*
X152113984Y-101392378D01*
X148766900Y-101960000D02*
X151701366Y-101960000D01*
X151701366Y-101960000D02*
X152113984Y-101547382D01*
X148330000Y-109140000D02*
X148340000Y-109130000D01*
X148340000Y-109130000D02*
X148340000Y-102386900D01*
%TO.N,/SHC*%
X162090000Y-98791062D02*
X162090000Y-101836900D01*
X162090000Y-101836900D02*
X161712200Y-102214700D01*
X161712200Y-102214700D02*
X161712200Y-109364700D01*
X164015000Y-93995000D02*
X164015000Y-96866062D01*
X161712200Y-109364700D02*
X162258886Y-109911386D01*
X164015000Y-96866062D02*
X162090000Y-98791062D01*
%TO.N,/VTEMP_FET*%
X147250000Y-110529999D02*
X150290001Y-113570000D01*
X150290001Y-113570000D02*
X154640000Y-113570000D01*
X152407796Y-100690000D02*
X151825084Y-101272712D01*
X155370000Y-81520000D02*
X155594264Y-81520000D01*
X151581700Y-101671100D02*
X148647234Y-101671100D01*
X151825084Y-101427716D02*
X151581700Y-101671100D01*
X152770000Y-100690000D02*
X152407796Y-100690000D01*
X151825084Y-101272712D02*
X151825084Y-101427716D01*
X148647234Y-101671100D02*
X148050000Y-102268334D01*
X162255600Y-90688664D02*
X161996700Y-90947564D01*
X147250000Y-109221471D02*
X147250000Y-110529999D01*
X155594264Y-81520000D02*
X162255600Y-88181336D01*
X162255600Y-88181336D02*
X162255600Y-90688664D01*
X148050000Y-108421471D02*
X147250000Y-109221471D01*
X148050000Y-102268334D02*
X148050000Y-108421471D01*
X161996700Y-90947564D02*
X161996700Y-91463300D01*
X161996700Y-91463300D02*
X152770000Y-100690000D01*
%TO.N,/AS5047_SDA*%
X150555084Y-94049916D02*
X150254068Y-93748900D01*
X161348566Y-90778566D02*
X161348566Y-88671471D01*
X151417134Y-98637866D02*
X151417134Y-96647566D01*
X142151100Y-83353600D02*
X142151100Y-86156400D01*
X158958232Y-93168900D02*
X161348566Y-90778566D01*
X150016184Y-100463816D02*
X150016184Y-100038816D01*
X154822260Y-92990684D02*
X155000476Y-93168900D01*
X151417134Y-96647566D02*
X150555084Y-95785516D01*
X153471102Y-85731100D02*
X153050736Y-85310734D01*
X156899666Y-85731100D02*
X153471102Y-85731100D01*
X161348566Y-88671471D02*
X159628195Y-86951100D01*
X145717500Y-85590000D02*
X152771470Y-85590000D01*
X150016184Y-100038816D02*
X151417134Y-98637866D01*
X143037200Y-87042500D02*
X144265000Y-87042500D01*
X155000476Y-93168900D02*
X158958232Y-93168900D01*
X150555084Y-95785516D02*
X150555084Y-94049916D01*
X150254068Y-93748900D02*
X150020000Y-93748900D01*
X158119666Y-86951100D02*
X156899666Y-85731100D01*
X152771470Y-85590000D02*
X153050736Y-85310734D01*
X144265000Y-87042500D02*
X145717500Y-85590000D01*
X150020000Y-93748900D02*
X150286393Y-93748900D01*
X150286393Y-93748900D02*
X151044609Y-92990684D01*
X151044609Y-92990684D02*
X154822260Y-92990684D01*
X159628195Y-86951100D02*
X158119666Y-86951100D01*
X142151100Y-86156400D02*
X143037200Y-87042500D01*
D28*
%TO.N,/GLA*%
X150848830Y-88982200D02*
X150848154Y-88982876D01*
X158622200Y-88982200D02*
X150848830Y-88982200D01*
X159880000Y-90240000D02*
X158622200Y-88982200D01*
X149908154Y-88982876D02*
X149868830Y-89022199D01*
X150848154Y-88982876D02*
X149908154Y-88982876D01*
X149868830Y-89022199D02*
X149257804Y-89022199D01*
X149257804Y-89022199D02*
X140589997Y-97690006D01*
%TO.N,/GLB*%
X150102378Y-89451776D02*
X144481100Y-95073054D01*
X151042378Y-89451776D02*
X150102378Y-89451776D01*
X157661100Y-89451100D02*
X151043054Y-89451100D01*
X158520000Y-90310000D02*
X157661100Y-89451100D01*
X144481099Y-95288901D02*
X144111808Y-95658192D01*
X144481100Y-95073054D02*
X144481099Y-95288901D01*
X151043054Y-89451100D02*
X151042378Y-89451776D01*
X144111808Y-95658192D02*
X144111808Y-98121684D01*
%TO.N,/GLC*%
X161850000Y-98490000D02*
X161850000Y-96530000D01*
X161360000Y-98980000D02*
X161850000Y-98490000D01*
%TO.N,/GHA*%
X138130000Y-99880000D02*
X138130000Y-97463114D01*
X138130000Y-97463114D02*
X148463114Y-87130000D01*
X148463114Y-87130000D02*
X153740000Y-87130000D01*
%TO.N,/GHB*%
X154930000Y-99869082D02*
X160877823Y-93921259D01*
X160877823Y-93921259D02*
X163030676Y-93921259D01*
X154930000Y-101900000D02*
X154930000Y-99869082D01*
%TO.N,/GHC*%
X160150000Y-96389998D02*
X161689998Y-94850000D01*
X160150000Y-99220000D02*
X160150000Y-96389998D01*
D26*
%TO.N,GND*%
X126801100Y-91939371D02*
X126801100Y-115803600D01*
X154501100Y-123898600D02*
X151381100Y-120778600D01*
X136201100Y-121103600D02*
X136201100Y-121503600D01*
X138501100Y-123923600D02*
X138501100Y-122403600D01*
X126801100Y-91267829D02*
X126833500Y-91300229D01*
X126801100Y-115803600D02*
X129976100Y-115803600D01*
D25*
X151333816Y-95013816D02*
X152670000Y-96350000D01*
D26*
X126833500Y-91906971D02*
X126801100Y-91939371D01*
X146601100Y-120803600D02*
X147601100Y-119903600D01*
D29*
X146601100Y-120153600D02*
X146601100Y-120803600D01*
D27*
X151381100Y-120778600D02*
X151381100Y-118123600D01*
D26*
X136201100Y-123923600D02*
X136201100Y-121503600D01*
X154501100Y-123898600D02*
X154501100Y-123923600D01*
D27*
X139151100Y-83353600D02*
X139401100Y-83353600D01*
D26*
X132251100Y-118078600D02*
X132251100Y-119653600D01*
D27*
X139401100Y-83353600D02*
X139801100Y-83753600D01*
D26*
X137101100Y-121503600D02*
X136201100Y-121503600D01*
X126833500Y-91300229D02*
X126833500Y-91906971D01*
X126801100Y-87603600D02*
X126801100Y-91267829D01*
X138501100Y-122403600D02*
X140101100Y-120803600D01*
X129976100Y-115803600D02*
X132251100Y-118078600D01*
D25*
X151286184Y-95013816D02*
X151333816Y-95013816D01*
D26*
X147601100Y-119903600D02*
X150481100Y-119903600D01*
X132251100Y-119653600D02*
X134795041Y-119653600D01*
D27*
X151381100Y-118123600D02*
X151601100Y-117903600D01*
D26*
X138501100Y-123923600D02*
X136201100Y-123923600D01*
X140101100Y-120803600D02*
X146601100Y-120803600D01*
X150481100Y-119903600D02*
X151381100Y-120803600D01*
D27*
X151381100Y-120803600D02*
X151381100Y-120778600D01*
D26*
X134795041Y-119653600D02*
X136201100Y-121103600D01*
D30*
%TO.N,/CAN_P*%
X148701100Y-121701300D02*
X148712350Y-121690050D01*
X141987119Y-121690050D02*
X148712350Y-121690050D01*
D25*
X167455000Y-115685000D02*
X169513200Y-115685000D01*
X170775000Y-106561498D02*
X168440000Y-104226498D01*
D30*
X151030081Y-121690050D02*
X148712350Y-121690050D01*
D25*
X169513200Y-115685000D02*
X170775000Y-114423200D01*
X168440000Y-104226498D02*
X168440000Y-104012895D01*
X158501100Y-123923600D02*
X159216400Y-123923600D01*
D30*
X151030081Y-121690050D02*
X152014650Y-122674618D01*
X157687550Y-126174618D02*
X157162118Y-126700050D01*
X141787550Y-121889618D02*
X141787550Y-123518600D01*
D25*
X170775000Y-114423200D02*
X170775000Y-106561498D01*
D30*
X157687550Y-124737150D02*
X157687550Y-126174618D01*
X152014650Y-125274618D02*
X152014650Y-122674618D01*
X141787550Y-121889618D02*
X141987119Y-121690050D01*
X158501100Y-123923600D02*
X157687550Y-124737150D01*
X153440081Y-126700050D02*
X152014650Y-125274618D01*
X148701100Y-122203600D02*
X148701100Y-121701300D01*
X157162118Y-126700050D02*
X153440081Y-126700050D01*
X141787550Y-123518600D02*
X142192550Y-123923600D01*
X142192550Y-123923600D02*
X142501100Y-123923600D01*
D25*
X159216400Y-123923600D02*
X167455000Y-115685000D01*
D30*
%TO.N,/CAN_N*%
X148601100Y-121277300D02*
X148564450Y-121313950D01*
D25*
X170325000Y-114236800D02*
X170325000Y-106747895D01*
D30*
X157314650Y-124737150D02*
X157314650Y-126017581D01*
D25*
X156501100Y-122673600D02*
X157190000Y-121984700D01*
X157190000Y-121984700D02*
X160536734Y-121984700D01*
D30*
X148564450Y-121313950D02*
X148561250Y-121317150D01*
X151188918Y-121313950D02*
X148564450Y-121313950D01*
X152387550Y-122512581D02*
X151188918Y-121313950D01*
X157015081Y-126317150D02*
X153582118Y-126317150D01*
D25*
X160536734Y-121984700D02*
X167286434Y-115235000D01*
D30*
X153582118Y-126317150D02*
X152387550Y-125122581D01*
D25*
X167286434Y-115235000D02*
X169326800Y-115235000D01*
D30*
X148601100Y-120703600D02*
X148601100Y-121277300D01*
D25*
X156501100Y-123923600D02*
X156501100Y-122673600D01*
D30*
X141409650Y-121737581D02*
X141830082Y-121317150D01*
X141409650Y-121737581D02*
X141409650Y-123523600D01*
X152387550Y-125122581D02*
X152387550Y-122512581D01*
X156501100Y-123923600D02*
X157314650Y-124737150D01*
X141409650Y-123523600D02*
X141009650Y-123923600D01*
X141830082Y-121317150D02*
X148561250Y-121317150D01*
D25*
X170325000Y-106747895D02*
X167590000Y-104012895D01*
X169326800Y-115235000D02*
X170325000Y-114236800D01*
D30*
X157314650Y-126017581D02*
X157015081Y-126317150D01*
X141009650Y-123923600D02*
X140501100Y-123923600D01*
D25*
%TO.N,/AS5047_SCL*%
X158000000Y-87240000D02*
X159508529Y-87240000D01*
X140651100Y-86428600D02*
X141553900Y-87331400D01*
X144384666Y-87331400D02*
X145696066Y-86020000D01*
X145696066Y-86020000D02*
X156780000Y-86020000D01*
X155560105Y-92880000D02*
X155157516Y-92477411D01*
X158838566Y-92880000D02*
X155560105Y-92880000D01*
X150621727Y-93005000D02*
X149315000Y-93005000D01*
X151149316Y-92477411D02*
X150621727Y-93005000D01*
X146760000Y-97151434D02*
X148207284Y-95704150D01*
X148746184Y-100038816D02*
X146760000Y-98052632D01*
X149315000Y-93005000D02*
X148750000Y-93570000D01*
X155157516Y-92477411D02*
X151149316Y-92477411D01*
X148207284Y-94049916D02*
X148687200Y-93570000D01*
X156780000Y-86020000D02*
X158000000Y-87240000D01*
X146760000Y-98052632D02*
X146760000Y-97151434D01*
X148687200Y-93570000D02*
X148750000Y-93570000D01*
X161059666Y-90658900D02*
X158838566Y-92880000D01*
X140651100Y-83353600D02*
X140651100Y-86428600D01*
X141553900Y-87331400D02*
X144384666Y-87331400D01*
X148746184Y-100463816D02*
X148746184Y-100038816D01*
X148207284Y-95704150D02*
X148207284Y-94049916D01*
X161059666Y-88791137D02*
X161059666Y-90658900D01*
X159508529Y-87240000D02*
X161059666Y-88791137D01*
%TO.N,/AS5047_DIR*%
X150629322Y-90430676D02*
X152954618Y-90430676D01*
X137651100Y-83353600D02*
X137651100Y-87550000D01*
X147480000Y-93579998D02*
X150629322Y-90430676D01*
X137651100Y-87550000D02*
X138730000Y-88628900D01*
X147476184Y-100463816D02*
X146471100Y-99458732D01*
X146471100Y-99458732D02*
X146471100Y-94588898D01*
X146471100Y-94588898D02*
X147480000Y-93579998D01*
%TO.N,/AS5047_PGO*%
X153270000Y-98480000D02*
X153270000Y-95577259D01*
X153270000Y-95577259D02*
X151308499Y-93615758D01*
X157041434Y-83600000D02*
X156825735Y-83600000D01*
X161707800Y-90827898D02*
X161966700Y-90568998D01*
X143651100Y-80278600D02*
X144276100Y-79653600D01*
X151308499Y-93615758D02*
X158949940Y-93615758D01*
X151286184Y-100463816D02*
X153270000Y-98480000D01*
X161707800Y-89592102D02*
X161707800Y-88266366D01*
X144276100Y-79653600D02*
X152655070Y-79653600D01*
X161707800Y-90857898D02*
X161707800Y-90827898D01*
X156601470Y-83600000D02*
X156825735Y-83600000D01*
X161966700Y-90568998D02*
X161966700Y-89851002D01*
X161707800Y-88266366D02*
X157041434Y-83600000D01*
X158949940Y-93615758D02*
X161707800Y-90857898D01*
X152655070Y-79653600D02*
X156601470Y-83600000D01*
X143651100Y-83353600D02*
X143651100Y-80278600D01*
X161966700Y-89851002D02*
X161707800Y-89592102D01*
%TO.N,/VTEMP_MOT*%
X158250000Y-81280000D02*
X160724700Y-81280000D01*
X160724700Y-81280000D02*
X162701100Y-79303600D01*
%TD*%
%TA.AperFunction,Conductor*%
%TO.N,V+*%
G36*
X166614600Y-112291465D02*
G01*
X166614600Y-113200831D01*
X166467311Y-113237135D01*
X166467306Y-113237137D01*
X166393442Y-113275904D01*
X166326571Y-113311001D01*
X166326570Y-113311002D01*
X166326569Y-113311002D01*
X166207601Y-113416400D01*
X166124262Y-113537137D01*
X166117313Y-113547205D01*
X166062731Y-113691126D01*
X166060950Y-113695821D01*
X166041793Y-113853599D01*
X166060950Y-114011378D01*
X166060950Y-114011379D01*
X166060951Y-114011382D01*
X166117313Y-114159995D01*
X166207602Y-114290801D01*
X166326571Y-114396199D01*
X166467307Y-114470063D01*
X166591213Y-114500603D01*
X166610165Y-114514549D01*
X166614600Y-114530457D01*
X166614600Y-115217164D01*
X166605594Y-115238908D01*
X164946692Y-116897809D01*
X164924948Y-116906815D01*
X164903204Y-116897809D01*
X164894198Y-116876065D01*
X164894275Y-116873893D01*
X164906455Y-116703600D01*
X164887061Y-116432440D01*
X164860322Y-116309522D01*
X164829276Y-116166801D01*
X164829275Y-116166799D01*
X164734274Y-115912093D01*
X164734272Y-115912087D01*
X164603987Y-115673487D01*
X164441071Y-115455858D01*
X164248842Y-115263629D01*
X164031213Y-115100713D01*
X163792613Y-114970428D01*
X163792609Y-114970426D01*
X163792606Y-114970425D01*
X163537900Y-114875424D01*
X163537898Y-114875423D01*
X163272268Y-114817640D01*
X163272262Y-114817639D01*
X163272260Y-114817639D01*
X163001100Y-114798245D01*
X162729940Y-114817639D01*
X162729937Y-114817639D01*
X162729931Y-114817640D01*
X162464301Y-114875423D01*
X162464299Y-114875424D01*
X162209593Y-114970425D01*
X162209587Y-114970428D01*
X161970987Y-115100713D01*
X161970985Y-115100714D01*
X161970984Y-115100715D01*
X161938415Y-115125096D01*
X161753358Y-115263629D01*
X161561129Y-115455858D01*
X161398213Y-115673487D01*
X161385328Y-115697085D01*
X161267930Y-115912083D01*
X161267925Y-115912093D01*
X161172924Y-116166799D01*
X161172923Y-116166801D01*
X161115140Y-116432431D01*
X161115139Y-116432437D01*
X161115139Y-116432440D01*
X161095745Y-116703600D01*
X161110279Y-116906815D01*
X161115140Y-116974768D01*
X161172923Y-117240398D01*
X161172924Y-117240400D01*
X161267925Y-117495106D01*
X161267928Y-117495113D01*
X161398213Y-117733713D01*
X161561129Y-117951342D01*
X161753358Y-118143571D01*
X161970987Y-118306487D01*
X162209587Y-118436772D01*
X162388759Y-118503600D01*
X162464299Y-118531775D01*
X162464301Y-118531776D01*
X162711470Y-118585543D01*
X162729940Y-118589561D01*
X163001100Y-118608955D01*
X163272260Y-118589561D01*
X163416886Y-118558100D01*
X163537898Y-118531776D01*
X163537899Y-118531775D01*
X163537901Y-118531775D01*
X163698758Y-118471778D01*
X163722277Y-118472618D01*
X163738314Y-118489843D01*
X163737474Y-118513363D01*
X163731247Y-118522333D01*
X162295487Y-119958094D01*
X162273743Y-119967100D01*
X156768350Y-119967100D01*
X156746606Y-119958094D01*
X156737600Y-119936350D01*
X156737600Y-119217101D01*
X156737600Y-119217100D01*
X156737599Y-119217100D01*
X155807657Y-119217100D01*
X155785913Y-119208094D01*
X155776907Y-119186350D01*
X155778845Y-119175607D01*
X155829275Y-119040401D01*
X155887061Y-118774760D01*
X155906455Y-118503600D01*
X155887061Y-118232440D01*
X155849850Y-118061382D01*
X155829276Y-117966801D01*
X155829275Y-117966799D01*
X155805703Y-117903600D01*
X155734272Y-117712087D01*
X155603987Y-117473487D01*
X155441071Y-117255858D01*
X155248842Y-117063629D01*
X155031213Y-116900713D01*
X154792613Y-116770428D01*
X154792609Y-116770426D01*
X154792606Y-116770425D01*
X154537900Y-116675424D01*
X154537898Y-116675423D01*
X154272268Y-116617640D01*
X154272262Y-116617639D01*
X154272260Y-116617639D01*
X154001100Y-116598245D01*
X153729940Y-116617639D01*
X153729937Y-116617639D01*
X153729931Y-116617640D01*
X153464301Y-116675423D01*
X153464299Y-116675424D01*
X153209593Y-116770425D01*
X153209587Y-116770428D01*
X152970987Y-116900713D01*
X152970985Y-116900714D01*
X152970984Y-116900715D01*
X152935689Y-116927137D01*
X152753358Y-117063629D01*
X152561129Y-117255858D01*
X152398213Y-117473487D01*
X152386405Y-117495113D01*
X152276671Y-117696076D01*
X152258345Y-117710843D01*
X152234945Y-117708328D01*
X152220930Y-117692243D01*
X152214902Y-117676348D01*
X152184887Y-117597205D01*
X152094598Y-117466399D01*
X151975629Y-117361001D01*
X151834893Y-117287137D01*
X151834888Y-117287135D01*
X151680574Y-117249100D01*
X151680571Y-117249100D01*
X151521629Y-117249100D01*
X151521626Y-117249100D01*
X151367311Y-117287135D01*
X151367306Y-117287137D01*
X151293442Y-117325904D01*
X151226571Y-117361001D01*
X151226570Y-117361002D01*
X151226569Y-117361002D01*
X151107601Y-117466400D01*
X151017313Y-117597205D01*
X150960950Y-117745821D01*
X150941793Y-117903600D01*
X150960950Y-118061378D01*
X150960950Y-118061379D01*
X150960951Y-118061382D01*
X151017313Y-118209995D01*
X151107602Y-118340801D01*
X151154341Y-118382208D01*
X151164644Y-118403367D01*
X151164700Y-118405224D01*
X151164700Y-119217100D01*
X149489631Y-119217100D01*
X149461259Y-118344684D01*
X149531213Y-118306487D01*
X149748842Y-118143571D01*
X149941071Y-117951342D01*
X150103987Y-117733713D01*
X150234272Y-117495113D01*
X150329275Y-117240401D01*
X150387061Y-116974760D01*
X150406455Y-116703600D01*
X150387061Y-116432440D01*
X150360322Y-116309522D01*
X150329276Y-116166801D01*
X150329275Y-116166799D01*
X150234274Y-115912093D01*
X150234272Y-115912087D01*
X150103987Y-115673487D01*
X149976810Y-115503600D01*
X157170502Y-115503600D01*
X157190838Y-115697085D01*
X157250954Y-115882103D01*
X157250957Y-115882111D01*
X157348226Y-116050586D01*
X157348227Y-116050587D01*
X157348230Y-116050592D01*
X157478408Y-116195169D01*
X157544084Y-116242885D01*
X157635796Y-116309519D01*
X157635798Y-116309520D01*
X157635801Y-116309522D01*
X157813529Y-116388651D01*
X158003826Y-116429100D01*
X158198374Y-116429100D01*
X158388671Y-116388651D01*
X158566399Y-116309522D01*
X158723792Y-116195169D01*
X158853970Y-116050592D01*
X158951244Y-115882108D01*
X159011362Y-115697082D01*
X159031698Y-115503600D01*
X159011362Y-115310118D01*
X158951244Y-115125092D01*
X158919729Y-115070507D01*
X158853973Y-114956613D01*
X158853972Y-114956612D01*
X158853970Y-114956608D01*
X158723792Y-114812031D01*
X158666028Y-114770063D01*
X158566403Y-114697680D01*
X158563077Y-114696199D01*
X158388671Y-114618549D01*
X158388669Y-114618548D01*
X158388668Y-114618548D01*
X158198374Y-114578100D01*
X158003826Y-114578100D01*
X157813532Y-114618548D01*
X157813530Y-114618548D01*
X157635796Y-114697680D01*
X157478410Y-114812029D01*
X157478408Y-114812030D01*
X157478408Y-114812031D01*
X157348230Y-114956608D01*
X157348229Y-114956609D01*
X157348226Y-114956613D01*
X157250957Y-115125088D01*
X157250954Y-115125096D01*
X157190838Y-115310114D01*
X157170502Y-115503600D01*
X149976810Y-115503600D01*
X149941071Y-115455858D01*
X149748842Y-115263629D01*
X149531213Y-115100713D01*
X149402385Y-115030367D01*
X149352591Y-115003178D01*
X149281911Y-112829762D01*
X150129626Y-113677477D01*
X150135586Y-113685877D01*
X150138113Y-113691125D01*
X150138114Y-113691126D01*
X150162918Y-113710906D01*
X150164199Y-113712051D01*
X150171165Y-113719017D01*
X150175535Y-113721762D01*
X150179507Y-113724257D01*
X150180893Y-113725241D01*
X150205710Y-113745032D01*
X150211385Y-113746327D01*
X150220906Y-113750269D01*
X150225838Y-113753369D01*
X150257370Y-113756921D01*
X150259058Y-113757208D01*
X150268660Y-113759400D01*
X150278494Y-113759400D01*
X150280217Y-113759497D01*
X150311752Y-113763050D01*
X150311752Y-113763049D01*
X150311753Y-113763050D01*
X150317252Y-113761125D01*
X150327408Y-113759400D01*
X153941420Y-113759400D01*
X153963164Y-113768406D01*
X153970170Y-113779244D01*
X154015182Y-113897930D01*
X154111817Y-114037929D01*
X154239148Y-114150734D01*
X154389775Y-114229790D01*
X154389778Y-114229790D01*
X154389779Y-114229791D01*
X154554940Y-114270500D01*
X154554944Y-114270500D01*
X154725059Y-114270500D01*
X154850727Y-114239525D01*
X154890225Y-114229790D01*
X155040852Y-114150734D01*
X155168183Y-114037929D01*
X155264818Y-113897930D01*
X155325140Y-113738872D01*
X155345645Y-113570000D01*
X155325140Y-113401128D01*
X155264818Y-113242070D01*
X155168183Y-113102071D01*
X155040852Y-112989266D01*
X154890225Y-112910210D01*
X154890220Y-112910208D01*
X154725059Y-112869500D01*
X154725056Y-112869500D01*
X154554944Y-112869500D01*
X154554941Y-112869500D01*
X154389779Y-112910208D01*
X154389774Y-112910210D01*
X154310718Y-112951702D01*
X154239148Y-112989266D01*
X154239147Y-112989267D01*
X154239146Y-112989267D01*
X154111816Y-113102072D01*
X154015182Y-113242070D01*
X153970172Y-113360754D01*
X153954040Y-113377891D01*
X153941420Y-113380600D01*
X150381191Y-113380600D01*
X150359447Y-113371594D01*
X149263904Y-112276051D01*
X149262735Y-112240100D01*
X164251790Y-112240100D01*
X166614600Y-112291465D01*
G37*
%TD.AperFunction*%
%TD*%
%TA.AperFunction,Conductor*%
%TO.N,V+*%
G36*
X150129626Y-113677477D02*
G01*
X150135586Y-113685877D01*
X150138113Y-113691125D01*
X150138114Y-113691126D01*
X150162918Y-113710906D01*
X150164199Y-113712051D01*
X150171165Y-113719017D01*
X150175535Y-113721762D01*
X150179507Y-113724257D01*
X150180893Y-113725241D01*
X150205710Y-113745032D01*
X150211385Y-113746327D01*
X150220906Y-113750269D01*
X150225838Y-113753369D01*
X150257370Y-113756921D01*
X150259058Y-113757208D01*
X150268660Y-113759400D01*
X150278494Y-113759400D01*
X150280217Y-113759497D01*
X150311752Y-113763050D01*
X150311752Y-113763049D01*
X150311753Y-113763050D01*
X150317252Y-113761125D01*
X150327408Y-113759400D01*
X151196703Y-113759400D01*
X151789600Y-114352297D01*
X151789600Y-117275972D01*
X151680574Y-117249100D01*
X151680571Y-117249100D01*
X151521629Y-117249100D01*
X151521626Y-117249100D01*
X151367311Y-117287135D01*
X151367306Y-117287137D01*
X151293442Y-117325904D01*
X151226571Y-117361001D01*
X151226570Y-117361002D01*
X151226569Y-117361002D01*
X151107601Y-117466400D01*
X151017313Y-117597205D01*
X150960950Y-117745821D01*
X150941793Y-117903600D01*
X150960950Y-118061378D01*
X150960950Y-118061379D01*
X150960951Y-118061382D01*
X151017313Y-118209995D01*
X151107602Y-118340801D01*
X151154341Y-118382208D01*
X151164644Y-118403367D01*
X151164700Y-118405224D01*
X151164700Y-119936350D01*
X151155694Y-119958094D01*
X151133950Y-119967100D01*
X151037323Y-119967100D01*
X151015579Y-119958094D01*
X150732039Y-119674553D01*
X150731132Y-119673564D01*
X150702628Y-119639593D01*
X150677835Y-119625279D01*
X150664210Y-119617413D01*
X150663100Y-119616706D01*
X150630321Y-119593754D01*
X150626749Y-119591253D01*
X150626750Y-119591253D01*
X150616012Y-119588376D01*
X150608596Y-119585304D01*
X150604213Y-119582774D01*
X150598971Y-119579747D01*
X150555277Y-119572042D01*
X150553967Y-119571752D01*
X150511139Y-119560276D01*
X150511136Y-119560276D01*
X150495404Y-119561652D01*
X150466950Y-119564141D01*
X150465610Y-119564200D01*
X147625950Y-119564200D01*
X147623804Y-119564050D01*
X147589150Y-119559172D01*
X147589149Y-119559172D01*
X147536385Y-119570374D01*
X147536386Y-119570374D01*
X147483226Y-119579748D01*
X147482205Y-119580338D01*
X147473224Y-119583785D01*
X147472721Y-119583892D01*
X147472066Y-119584031D01*
X147426295Y-119612618D01*
X147379574Y-119639592D01*
X147379571Y-119639594D01*
X147357079Y-119666398D01*
X147355585Y-119667945D01*
X147216917Y-119792747D01*
X147194730Y-119800599D01*
X147173490Y-119790462D01*
X147171039Y-119787359D01*
X147111639Y-119701302D01*
X146988562Y-119592265D01*
X146842966Y-119515851D01*
X146842961Y-119515849D01*
X146683318Y-119476500D01*
X146683315Y-119476500D01*
X146518885Y-119476500D01*
X146518882Y-119476500D01*
X146359238Y-119515849D01*
X146359233Y-119515851D01*
X146282818Y-119555956D01*
X146213638Y-119592265D01*
X146213637Y-119592266D01*
X146213636Y-119592266D01*
X146090560Y-119701303D01*
X146022021Y-119800599D01*
X145997154Y-119836625D01*
X145955197Y-119947255D01*
X145939067Y-119964391D01*
X145926447Y-119967100D01*
X139818350Y-119967100D01*
X139796606Y-119958094D01*
X139787600Y-119936350D01*
X139787600Y-119157682D01*
X139789539Y-119146936D01*
X139829275Y-119040400D01*
X139829276Y-119040398D01*
X139887059Y-118774768D01*
X139887061Y-118774760D01*
X139906455Y-118503600D01*
X139887061Y-118232440D01*
X139849850Y-118061382D01*
X139829276Y-117966801D01*
X139829275Y-117966799D01*
X139734274Y-117712093D01*
X139734272Y-117712087D01*
X139603987Y-117473487D01*
X139441071Y-117255858D01*
X139248842Y-117063629D01*
X139031213Y-116900713D01*
X138792613Y-116770428D01*
X138792609Y-116770426D01*
X138792606Y-116770425D01*
X138613442Y-116703600D01*
X146595745Y-116703600D01*
X146600524Y-116770425D01*
X146615140Y-116974768D01*
X146672923Y-117240398D01*
X146672924Y-117240400D01*
X146767925Y-117495106D01*
X146767928Y-117495113D01*
X146898213Y-117733713D01*
X147061129Y-117951342D01*
X147253358Y-118143571D01*
X147470987Y-118306487D01*
X147709587Y-118436772D01*
X147888759Y-118503600D01*
X147964299Y-118531775D01*
X147964301Y-118531776D01*
X148211470Y-118585543D01*
X148229940Y-118589561D01*
X148501100Y-118608955D01*
X148772260Y-118589561D01*
X148916886Y-118558100D01*
X149037898Y-118531776D01*
X149037899Y-118531775D01*
X149037901Y-118531775D01*
X149292613Y-118436772D01*
X149531213Y-118306487D01*
X149748842Y-118143571D01*
X149941071Y-117951342D01*
X150103987Y-117733713D01*
X150234272Y-117495113D01*
X150329275Y-117240401D01*
X150387061Y-116974760D01*
X150406455Y-116703600D01*
X150387061Y-116432440D01*
X150360322Y-116309522D01*
X150329276Y-116166801D01*
X150329275Y-116166799D01*
X150234274Y-115912093D01*
X150234272Y-115912087D01*
X150103987Y-115673487D01*
X149941071Y-115455858D01*
X149748842Y-115263629D01*
X149531213Y-115100713D01*
X149292613Y-114970428D01*
X149292609Y-114970426D01*
X149292606Y-114970425D01*
X149037900Y-114875424D01*
X149037898Y-114875423D01*
X148772268Y-114817640D01*
X148772262Y-114817639D01*
X148772260Y-114817639D01*
X148501100Y-114798245D01*
X148229940Y-114817639D01*
X148229937Y-114817639D01*
X148229931Y-114817640D01*
X147964301Y-114875423D01*
X147964299Y-114875424D01*
X147709593Y-114970425D01*
X147709587Y-114970428D01*
X147470987Y-115100713D01*
X147470985Y-115100714D01*
X147470984Y-115100715D01*
X147253358Y-115263629D01*
X147061129Y-115455858D01*
X146948790Y-115605925D01*
X146898213Y-115673487D01*
X146811869Y-115831612D01*
X146767930Y-115912083D01*
X146767925Y-115912093D01*
X146672924Y-116166799D01*
X146672923Y-116166801D01*
X146615140Y-116432431D01*
X146615139Y-116432437D01*
X146615139Y-116432440D01*
X146595745Y-116703600D01*
X138613442Y-116703600D01*
X138537900Y-116675424D01*
X138537898Y-116675423D01*
X138272268Y-116617640D01*
X138272262Y-116617639D01*
X138272260Y-116617639D01*
X138001100Y-116598245D01*
X138001099Y-116598245D01*
X137955765Y-116601487D01*
X137729940Y-116617639D01*
X137729937Y-116617639D01*
X137729931Y-116617640D01*
X137496167Y-116668491D01*
X137473006Y-116664312D01*
X137467887Y-116660188D01*
X136675060Y-115867361D01*
X136675058Y-115867360D01*
X135733490Y-115876683D01*
X135711659Y-115867893D01*
X135706197Y-115860672D01*
X135603987Y-115673487D01*
X135476810Y-115503599D01*
X139370502Y-115503599D01*
X139390838Y-115697085D01*
X139450954Y-115882103D01*
X139450957Y-115882111D01*
X139548226Y-116050586D01*
X139548227Y-116050587D01*
X139548230Y-116050592D01*
X139678408Y-116195169D01*
X139714362Y-116221291D01*
X139835796Y-116309519D01*
X139835798Y-116309520D01*
X139835801Y-116309522D01*
X140013529Y-116388651D01*
X140203826Y-116429100D01*
X140398374Y-116429100D01*
X140588671Y-116388651D01*
X140766399Y-116309522D01*
X140923792Y-116195169D01*
X141053970Y-116050592D01*
X141151244Y-115882108D01*
X141211362Y-115697082D01*
X141231698Y-115503600D01*
X144670502Y-115503600D01*
X144690838Y-115697085D01*
X144750954Y-115882103D01*
X144750957Y-115882111D01*
X144848226Y-116050586D01*
X144848227Y-116050587D01*
X144848230Y-116050592D01*
X144978408Y-116195169D01*
X145014362Y-116221291D01*
X145135796Y-116309519D01*
X145135798Y-116309520D01*
X145135801Y-116309522D01*
X145313529Y-116388651D01*
X145503826Y-116429100D01*
X145698374Y-116429100D01*
X145888671Y-116388651D01*
X146066399Y-116309522D01*
X146223792Y-116195169D01*
X146353970Y-116050592D01*
X146451244Y-115882108D01*
X146511362Y-115697082D01*
X146531698Y-115503600D01*
X146511362Y-115310118D01*
X146451244Y-115125092D01*
X146353970Y-114956608D01*
X146223792Y-114812031D01*
X146197751Y-114793111D01*
X146066403Y-114697680D01*
X146066399Y-114697678D01*
X145888671Y-114618549D01*
X145888669Y-114618548D01*
X145888668Y-114618548D01*
X145698374Y-114578100D01*
X145503826Y-114578100D01*
X145313532Y-114618548D01*
X145313530Y-114618548D01*
X145135796Y-114697680D01*
X144978410Y-114812029D01*
X144978408Y-114812030D01*
X144978408Y-114812031D01*
X144848230Y-114956608D01*
X144848229Y-114956609D01*
X144848226Y-114956613D01*
X144750957Y-115125088D01*
X144750954Y-115125096D01*
X144690838Y-115310114D01*
X144670502Y-115503600D01*
X141231698Y-115503600D01*
X141211362Y-115310118D01*
X141151244Y-115125092D01*
X141053970Y-114956608D01*
X140923792Y-114812031D01*
X140897751Y-114793111D01*
X140766403Y-114697680D01*
X140766399Y-114697678D01*
X140588671Y-114618549D01*
X140588669Y-114618548D01*
X140588668Y-114618548D01*
X140398374Y-114578100D01*
X140203826Y-114578100D01*
X140013532Y-114618548D01*
X140013530Y-114618548D01*
X139835796Y-114697680D01*
X139678410Y-114812029D01*
X139678408Y-114812030D01*
X139678408Y-114812031D01*
X139548230Y-114956608D01*
X139548229Y-114956609D01*
X139548226Y-114956613D01*
X139450957Y-115125088D01*
X139450954Y-115125096D01*
X139390838Y-115310114D01*
X139370502Y-115503599D01*
X135476810Y-115503599D01*
X135441071Y-115455858D01*
X135248842Y-115263629D01*
X135031213Y-115100713D01*
X134792613Y-114970428D01*
X134792609Y-114970426D01*
X134792606Y-114970425D01*
X134537900Y-114875424D01*
X134537898Y-114875423D01*
X134272268Y-114817640D01*
X134272262Y-114817639D01*
X134272260Y-114817639D01*
X134001100Y-114798245D01*
X133729940Y-114817639D01*
X133729937Y-114817639D01*
X133729931Y-114817640D01*
X133464301Y-114875423D01*
X133464299Y-114875424D01*
X133209593Y-114970425D01*
X133209587Y-114970428D01*
X132970987Y-115100713D01*
X132970985Y-115100714D01*
X132970984Y-115100715D01*
X132753358Y-115263629D01*
X132561129Y-115455858D01*
X132398215Y-115673484D01*
X132277171Y-115895157D01*
X132258845Y-115909924D01*
X132250486Y-115911168D01*
X131617985Y-115917431D01*
X131596154Y-115908641D01*
X131586933Y-115886987D01*
X131586936Y-115886102D01*
X131637600Y-113352965D01*
X131637600Y-111840100D01*
X148292249Y-111840100D01*
X150129626Y-113677477D01*
G37*
%TD.AperFunction*%
%TA.AperFunction,Conductor*%
G36*
X150817903Y-113380600D02*
G01*
X150381191Y-113380600D01*
X150359447Y-113371594D01*
X148827953Y-111840100D01*
X149277403Y-111840100D01*
X150817903Y-113380600D01*
G37*
%TD.AperFunction*%
%TD*%
%TA.AperFunction,Conductor*%
%TO.N,V+*%
G36*
X142323094Y-105949106D02*
G01*
X142332100Y-105970850D01*
X142332100Y-106536350D01*
X142334995Y-106590372D01*
X142370572Y-106729778D01*
X142370573Y-106729779D01*
X142370577Y-106729793D01*
X142379576Y-106751520D01*
X142379578Y-106751525D01*
X142379580Y-106751528D01*
X142431385Y-106846403D01*
X142529431Y-106951706D01*
X142653172Y-107025120D01*
X142674906Y-107034122D01*
X142674921Y-107034128D01*
X142674922Y-107034128D01*
X142725934Y-107052124D01*
X142868350Y-107072600D01*
X142868352Y-107072600D01*
X143883851Y-107072600D01*
X143886465Y-107072459D01*
X143937872Y-107069705D01*
X144077284Y-107034126D01*
X144099028Y-107025120D01*
X144193903Y-106973315D01*
X144299206Y-106875269D01*
X144372620Y-106751528D01*
X144381626Y-106729784D01*
X144399624Y-106678766D01*
X144420100Y-106536350D01*
X144420100Y-105970849D01*
X144429106Y-105949106D01*
X144450850Y-105940100D01*
X147829850Y-105940100D01*
X147851594Y-105949106D01*
X147860600Y-105970850D01*
X147860600Y-108330279D01*
X147851594Y-108352023D01*
X147142521Y-109061096D01*
X147134122Y-109067055D01*
X147128875Y-109069582D01*
X147128874Y-109069582D01*
X147109087Y-109094393D01*
X147107939Y-109095678D01*
X147100985Y-109102633D01*
X147100981Y-109102638D01*
X147095746Y-109110967D01*
X147094750Y-109112371D01*
X147074968Y-109137177D01*
X147074966Y-109137182D01*
X147073670Y-109142861D01*
X147069731Y-109152372D01*
X147066631Y-109157305D01*
X147066629Y-109157311D01*
X147063076Y-109188837D01*
X147062788Y-109190534D01*
X147060600Y-109200126D01*
X147060600Y-109209967D01*
X147060503Y-109211689D01*
X147056950Y-109243221D01*
X147058017Y-109246270D01*
X147058874Y-109248718D01*
X147060600Y-109258874D01*
X147060600Y-110492594D01*
X147058875Y-110502749D01*
X147056951Y-110508247D01*
X147056951Y-110508248D01*
X147060503Y-110539778D01*
X147060600Y-110541501D01*
X147060600Y-110551340D01*
X147062788Y-110560933D01*
X147063077Y-110562633D01*
X147066630Y-110594162D01*
X147066631Y-110594163D01*
X147069730Y-110599096D01*
X147073670Y-110608609D01*
X147074966Y-110614285D01*
X147074967Y-110614288D01*
X147074968Y-110614290D01*
X147074969Y-110614291D01*
X147094748Y-110639093D01*
X147095747Y-110640501D01*
X147100981Y-110648832D01*
X147100985Y-110648836D01*
X147107947Y-110655799D01*
X147109093Y-110657081D01*
X147128874Y-110681886D01*
X147128875Y-110681886D01*
X147128876Y-110681887D01*
X147134119Y-110684412D01*
X147142522Y-110690373D01*
X148292249Y-111840100D01*
X131637600Y-111840100D01*
X131637600Y-113352965D01*
X131627317Y-113867100D01*
X130602780Y-113867100D01*
X130581037Y-113858094D01*
X130493251Y-113770308D01*
X130493248Y-113770306D01*
X130493244Y-113770303D01*
X130378407Y-113711791D01*
X130378402Y-113711789D01*
X130251103Y-113691628D01*
X130251097Y-113691628D01*
X130123797Y-113711789D01*
X130123792Y-113711791D01*
X130008955Y-113770303D01*
X130008947Y-113770309D01*
X129972843Y-113806413D01*
X129951100Y-113815419D01*
X129929357Y-113806413D01*
X129893252Y-113770309D01*
X129893244Y-113770303D01*
X129778407Y-113711791D01*
X129778402Y-113711789D01*
X129651103Y-113691628D01*
X129651097Y-113691628D01*
X129523797Y-113711789D01*
X129523792Y-113711791D01*
X129408955Y-113770303D01*
X129408947Y-113770309D01*
X129347842Y-113831413D01*
X129326099Y-113840419D01*
X129304357Y-113831414D01*
X129243251Y-113770308D01*
X129243248Y-113770306D01*
X129243244Y-113770303D01*
X129128407Y-113711791D01*
X129128402Y-113711789D01*
X129001103Y-113691628D01*
X129001101Y-113691628D01*
X129001100Y-113691628D01*
X128981370Y-113694752D01*
X128973160Y-113696053D01*
X128950275Y-113690558D01*
X128937978Y-113670491D01*
X128937600Y-113665681D01*
X128937600Y-110141517D01*
X128946606Y-110119773D01*
X128968350Y-110110767D01*
X128973147Y-110111144D01*
X129001100Y-110115572D01*
X129001103Y-110115572D01*
X129128402Y-110095410D01*
X129128403Y-110095409D01*
X129128406Y-110095409D01*
X129189379Y-110064341D01*
X129243244Y-110036896D01*
X129243246Y-110036894D01*
X129243251Y-110036892D01*
X129287407Y-109992735D01*
X129309148Y-109983729D01*
X129330892Y-109992735D01*
X129330893Y-109992735D01*
X129374049Y-110035892D01*
X129374051Y-110035893D01*
X129374055Y-110035896D01*
X129488892Y-110094408D01*
X129488894Y-110094409D01*
X129488897Y-110094410D01*
X129616197Y-110114572D01*
X129616200Y-110114572D01*
X129616203Y-110114572D01*
X129743502Y-110094410D01*
X129743503Y-110094409D01*
X129743506Y-110094409D01*
X129856381Y-110036896D01*
X129858344Y-110035896D01*
X129858345Y-110035894D01*
X129858351Y-110035892D01*
X129886405Y-110007836D01*
X129908148Y-109998830D01*
X129929892Y-110007836D01*
X129958949Y-110036892D01*
X129958951Y-110036893D01*
X129958955Y-110036896D01*
X130058680Y-110087708D01*
X130073794Y-110095409D01*
X130073797Y-110095410D01*
X130201097Y-110115572D01*
X130201100Y-110115572D01*
X130201103Y-110115572D01*
X130328402Y-110095410D01*
X130328403Y-110095409D01*
X130328406Y-110095409D01*
X130389379Y-110064341D01*
X130443244Y-110036896D01*
X130443245Y-110036894D01*
X130443251Y-110036892D01*
X130534392Y-109945751D01*
X130592909Y-109830906D01*
X130600580Y-109782477D01*
X130613072Y-109703602D01*
X130613072Y-109703597D01*
X130592910Y-109576297D01*
X130592908Y-109576292D01*
X130534396Y-109461455D01*
X130534393Y-109461451D01*
X130534392Y-109461449D01*
X130443251Y-109370308D01*
X130443248Y-109370306D01*
X130443244Y-109370303D01*
X130328407Y-109311791D01*
X130328402Y-109311789D01*
X130201103Y-109291628D01*
X130201097Y-109291628D01*
X130073797Y-109311789D01*
X130073792Y-109311791D01*
X129958955Y-109370303D01*
X129958947Y-109370309D01*
X129930893Y-109398363D01*
X129909149Y-109407369D01*
X129887407Y-109398363D01*
X129858352Y-109369309D01*
X129858344Y-109369303D01*
X129743507Y-109310791D01*
X129743502Y-109310789D01*
X129616203Y-109290628D01*
X129616197Y-109290628D01*
X129488897Y-109310789D01*
X129488892Y-109310791D01*
X129374055Y-109369303D01*
X129374047Y-109369309D01*
X129329892Y-109413463D01*
X129308148Y-109422469D01*
X129286406Y-109413463D01*
X129243251Y-109370308D01*
X129243248Y-109370306D01*
X129243244Y-109370303D01*
X129128407Y-109311791D01*
X129128402Y-109311789D01*
X129001103Y-109291628D01*
X129001101Y-109291628D01*
X129001100Y-109291628D01*
X128981370Y-109294752D01*
X128973160Y-109296053D01*
X128950275Y-109290558D01*
X128937978Y-109270491D01*
X128937600Y-109265681D01*
X128937600Y-105970850D01*
X128946606Y-105949106D01*
X128968350Y-105940100D01*
X142301350Y-105940100D01*
X142323094Y-105949106D01*
G37*
%TD.AperFunction*%
%TA.AperFunction,Conductor*%
G36*
X161513794Y-105949106D02*
G01*
X161522800Y-105970850D01*
X161522800Y-109327295D01*
X161521075Y-109337450D01*
X161519151Y-109342948D01*
X161519151Y-109342949D01*
X161522703Y-109374479D01*
X161522800Y-109376202D01*
X161522800Y-109386041D01*
X161524988Y-109395634D01*
X161525277Y-109397334D01*
X161528830Y-109428863D01*
X161528831Y-109428864D01*
X161531930Y-109433797D01*
X161535870Y-109443310D01*
X161537166Y-109448986D01*
X161537167Y-109448989D01*
X161537168Y-109448991D01*
X161556160Y-109472807D01*
X161556948Y-109473794D01*
X161557947Y-109475202D01*
X161563181Y-109483533D01*
X161563185Y-109483537D01*
X161570147Y-109490500D01*
X161571293Y-109491782D01*
X161591074Y-109516587D01*
X161591075Y-109516587D01*
X161591076Y-109516588D01*
X161596319Y-109519113D01*
X161604722Y-109525074D01*
X161818015Y-109738367D01*
X161827021Y-109760111D01*
X161824243Y-109772882D01*
X161819865Y-109782469D01*
X161819862Y-109782480D01*
X161801329Y-109911386D01*
X161819863Y-110040296D01*
X161819863Y-110040297D01*
X161873964Y-110158760D01*
X161959249Y-110257184D01*
X161959252Y-110257187D01*
X162068812Y-110327595D01*
X162068811Y-110327595D01*
X162175736Y-110358991D01*
X162193769Y-110364286D01*
X162324003Y-110364286D01*
X162448962Y-110327594D01*
X162558522Y-110257185D01*
X162643807Y-110158760D01*
X162697909Y-110040295D01*
X162716443Y-109911386D01*
X162697909Y-109782477D01*
X162697908Y-109782474D01*
X162643807Y-109664011D01*
X162558522Y-109565587D01*
X162558519Y-109565584D01*
X162448959Y-109495176D01*
X162448960Y-109495176D01*
X162324005Y-109458486D01*
X162324003Y-109458486D01*
X162193769Y-109458486D01*
X162193765Y-109458486D01*
X162118566Y-109480567D01*
X162095166Y-109478052D01*
X162088159Y-109472807D01*
X161910606Y-109295254D01*
X161901600Y-109273510D01*
X161901600Y-105970850D01*
X161910606Y-105949106D01*
X161932350Y-105940100D01*
X168283850Y-105940100D01*
X168305594Y-105949106D01*
X168314600Y-105970850D01*
X168314600Y-109305529D01*
X168305594Y-109327273D01*
X168283850Y-109336279D01*
X168269890Y-109332928D01*
X168228402Y-109311789D01*
X168101103Y-109291628D01*
X168101097Y-109291628D01*
X167973797Y-109311789D01*
X167973792Y-109311791D01*
X167858955Y-109370303D01*
X167858947Y-109370309D01*
X167797843Y-109431413D01*
X167776100Y-109440419D01*
X167754357Y-109431413D01*
X167693252Y-109370309D01*
X167693244Y-109370303D01*
X167578407Y-109311791D01*
X167578402Y-109311789D01*
X167451103Y-109291628D01*
X167451097Y-109291628D01*
X167323797Y-109311789D01*
X167323792Y-109311791D01*
X167208955Y-109370303D01*
X167208947Y-109370309D01*
X167147843Y-109431413D01*
X167126100Y-109440419D01*
X167104357Y-109431413D01*
X167043252Y-109370309D01*
X167043244Y-109370303D01*
X166928407Y-109311791D01*
X166928402Y-109311789D01*
X166801103Y-109291628D01*
X166801097Y-109291628D01*
X166673797Y-109311789D01*
X166673792Y-109311791D01*
X166558955Y-109370303D01*
X166558951Y-109370306D01*
X166467806Y-109461451D01*
X166467803Y-109461455D01*
X166409291Y-109576292D01*
X166409289Y-109576297D01*
X166389128Y-109703597D01*
X166389128Y-109703602D01*
X166409289Y-109830902D01*
X166409291Y-109830907D01*
X166467803Y-109945744D01*
X166467806Y-109945748D01*
X166467808Y-109945751D01*
X166558949Y-110036892D01*
X166558951Y-110036893D01*
X166558955Y-110036896D01*
X166658680Y-110087708D01*
X166673794Y-110095409D01*
X166673797Y-110095410D01*
X166801097Y-110115572D01*
X166801100Y-110115572D01*
X166801103Y-110115572D01*
X166928402Y-110095410D01*
X166928403Y-110095409D01*
X166928406Y-110095409D01*
X166989379Y-110064341D01*
X167043244Y-110036896D01*
X167043245Y-110036894D01*
X167043251Y-110036892D01*
X167104357Y-109975785D01*
X167126100Y-109966780D01*
X167147842Y-109975785D01*
X167208949Y-110036892D01*
X167208951Y-110036893D01*
X167208955Y-110036896D01*
X167308680Y-110087708D01*
X167323794Y-110095409D01*
X167323797Y-110095410D01*
X167451097Y-110115572D01*
X167451100Y-110115572D01*
X167451103Y-110115572D01*
X167578402Y-110095410D01*
X167578403Y-110095409D01*
X167578406Y-110095409D01*
X167639379Y-110064341D01*
X167693244Y-110036896D01*
X167693245Y-110036894D01*
X167693251Y-110036892D01*
X167754357Y-109975785D01*
X167776100Y-109966780D01*
X167797842Y-109975785D01*
X167858949Y-110036892D01*
X167858951Y-110036893D01*
X167858955Y-110036896D01*
X167958680Y-110087708D01*
X167973794Y-110095409D01*
X167973797Y-110095410D01*
X168101097Y-110115572D01*
X168101100Y-110115572D01*
X168101103Y-110115572D01*
X168228402Y-110095410D01*
X168228403Y-110095409D01*
X168228406Y-110095409D01*
X168269891Y-110074270D01*
X168293352Y-110072424D01*
X168311248Y-110087708D01*
X168314600Y-110101669D01*
X168314600Y-113723600D01*
X168305594Y-113745344D01*
X168283850Y-113754350D01*
X168279040Y-113753971D01*
X168201103Y-113741628D01*
X168201101Y-113741628D01*
X168201100Y-113741628D01*
X168146520Y-113750272D01*
X168128296Y-113753158D01*
X168105411Y-113747663D01*
X168093715Y-113728577D01*
X168093657Y-113728597D01*
X168093577Y-113728352D01*
X168093115Y-113727598D01*
X168092909Y-113726294D01*
X168092908Y-113726292D01*
X168092907Y-113726289D01*
X168034396Y-113611455D01*
X168034393Y-113611451D01*
X168034392Y-113611449D01*
X167943251Y-113520308D01*
X167943248Y-113520306D01*
X167943244Y-113520303D01*
X167828407Y-113461791D01*
X167828402Y-113461789D01*
X167701103Y-113441628D01*
X167701097Y-113441628D01*
X167573797Y-113461789D01*
X167573792Y-113461791D01*
X167458955Y-113520303D01*
X167458951Y-113520306D01*
X167367806Y-113611451D01*
X167367803Y-113611455D01*
X167309291Y-113726292D01*
X167309289Y-113726298D01*
X167309082Y-113727605D01*
X167308619Y-113728358D01*
X167308542Y-113728598D01*
X167308484Y-113728579D01*
X167296779Y-113747668D01*
X167273902Y-113753157D01*
X167201103Y-113741628D01*
X167201101Y-113741628D01*
X167201100Y-113741628D01*
X167146520Y-113750272D01*
X167128296Y-113753158D01*
X167105411Y-113747663D01*
X167093715Y-113728577D01*
X167093657Y-113728597D01*
X167093577Y-113728352D01*
X167093115Y-113727598D01*
X167092909Y-113726294D01*
X167092908Y-113726292D01*
X167092907Y-113726289D01*
X167034396Y-113611455D01*
X167034393Y-113611451D01*
X167034392Y-113611449D01*
X166943251Y-113520308D01*
X166943248Y-113520306D01*
X166943244Y-113520303D01*
X166828407Y-113461791D01*
X166828402Y-113461789D01*
X166701103Y-113441628D01*
X166701097Y-113441628D01*
X166614600Y-113455326D01*
X166614600Y-112291465D01*
X164251790Y-112240100D01*
X149677403Y-112240100D01*
X149277403Y-111840100D01*
X148827954Y-111840100D01*
X147448406Y-110460552D01*
X147439400Y-110438808D01*
X147439400Y-109312660D01*
X147448406Y-109290916D01*
X147678226Y-109061096D01*
X147974859Y-108764462D01*
X147986124Y-108759796D01*
X147994063Y-108745259D01*
X148098107Y-108641216D01*
X148119850Y-108632210D01*
X148141594Y-108641217D01*
X148150600Y-108662960D01*
X148150600Y-108700139D01*
X148141594Y-108721883D01*
X148136475Y-108726008D01*
X148032431Y-108792872D01*
X148024320Y-108794335D01*
X148019841Y-108806344D01*
X147945078Y-108892625D01*
X147890977Y-109011088D01*
X147890977Y-109011089D01*
X147872443Y-109140000D01*
X147890977Y-109268910D01*
X147890977Y-109268911D01*
X147945078Y-109387374D01*
X148030363Y-109485798D01*
X148030366Y-109485801D01*
X148139926Y-109556209D01*
X148139925Y-109556209D01*
X148208339Y-109576297D01*
X148264883Y-109592900D01*
X148395117Y-109592900D01*
X148520076Y-109556208D01*
X148629636Y-109485799D01*
X148714921Y-109387374D01*
X148769023Y-109268909D01*
X148787557Y-109140000D01*
X148769023Y-109011091D01*
X148714921Y-108892626D01*
X148714921Y-108892625D01*
X148629636Y-108794201D01*
X148543525Y-108738861D01*
X148530103Y-108719528D01*
X148529400Y-108712992D01*
X148529400Y-105970850D01*
X148538406Y-105949106D01*
X148560150Y-105940100D01*
X161492050Y-105940100D01*
X161513794Y-105949106D01*
G37*
%TD.AperFunction*%
%TD*%
%TA.AperFunction,Conductor*%
%TO.N,GND*%
G36*
X158686409Y-95649106D02*
G01*
X158698882Y-95661579D01*
X158707888Y-95683323D01*
X158698882Y-95705067D01*
X154768206Y-99635743D01*
X154760175Y-99641522D01*
X154758708Y-99642252D01*
X154758707Y-99642253D01*
X154728098Y-99675828D01*
X154727609Y-99676340D01*
X154714124Y-99689826D01*
X154711057Y-99694302D01*
X154709736Y-99695970D01*
X154688332Y-99719451D01*
X154682464Y-99734598D01*
X154679161Y-99740865D01*
X154669978Y-99754271D01*
X154662704Y-99785195D01*
X154662074Y-99787230D01*
X154650600Y-99816852D01*
X154650600Y-99833097D01*
X154649783Y-99840138D01*
X154646062Y-99855954D01*
X154650452Y-99887419D01*
X154650600Y-99889546D01*
X154650600Y-99917100D01*
X154219318Y-99917100D01*
X158487312Y-95649106D01*
X158509056Y-95640100D01*
X158664665Y-95640100D01*
X158686409Y-95649106D01*
G37*
%TD.AperFunction*%
%TA.AperFunction,Conductor*%
G36*
X159137500Y-96100197D02*
G01*
X159861594Y-96824292D01*
X159870600Y-96846035D01*
X159870600Y-98722311D01*
X159861594Y-98744055D01*
X159858569Y-98746707D01*
X159755671Y-98825663D01*
X159755663Y-98825671D01*
X159667042Y-98941165D01*
X159611331Y-99075661D01*
X159611331Y-99075662D01*
X159592329Y-99220000D01*
X159611331Y-99364337D01*
X159611331Y-99364338D01*
X159667042Y-99498835D01*
X159745135Y-99600608D01*
X159755667Y-99614333D01*
X159772386Y-99627162D01*
X159871164Y-99702957D01*
X160005661Y-99758668D01*
X160005664Y-99758669D01*
X160150000Y-99777671D01*
X160294336Y-99758669D01*
X160428836Y-99702957D01*
X160544333Y-99614333D01*
X160632957Y-99498836D01*
X160688669Y-99364336D01*
X160707671Y-99220000D01*
X160688669Y-99075664D01*
X160677703Y-99049191D01*
X160632957Y-98941165D01*
X160544336Y-98825671D01*
X160544333Y-98825667D01*
X160544328Y-98825663D01*
X160544327Y-98825662D01*
X160441430Y-98746705D01*
X160429663Y-98726323D01*
X160429400Y-98722310D01*
X160429400Y-97120850D01*
X160438406Y-97099106D01*
X160460150Y-97090100D01*
X161539849Y-97090100D01*
X161561593Y-97099106D01*
X161570599Y-97120850D01*
X161570599Y-98361531D01*
X161561593Y-98383275D01*
X161514353Y-98430515D01*
X161492609Y-98439521D01*
X161488596Y-98439258D01*
X161360000Y-98422329D01*
X161215662Y-98441331D01*
X161215661Y-98441331D01*
X161081165Y-98497042D01*
X160965671Y-98585663D01*
X160965663Y-98585671D01*
X160877042Y-98701165D01*
X160821331Y-98835661D01*
X160821331Y-98835662D01*
X160802329Y-98980000D01*
X160821331Y-99124337D01*
X160821331Y-99124338D01*
X160877042Y-99258835D01*
X160959627Y-99366462D01*
X160965667Y-99374333D01*
X160965671Y-99374336D01*
X161081164Y-99462957D01*
X161215661Y-99518668D01*
X161215664Y-99518669D01*
X161360000Y-99537671D01*
X161504336Y-99518669D01*
X161638836Y-99462957D01*
X161754333Y-99374333D01*
X161842957Y-99258836D01*
X161842958Y-99258831D01*
X161843219Y-99258383D01*
X161843427Y-99258223D01*
X161844184Y-99257237D01*
X161844448Y-99257439D01*
X161861890Y-99244054D01*
X161885223Y-99247125D01*
X161899552Y-99265796D01*
X161900600Y-99273756D01*
X161900600Y-99917100D01*
X155277113Y-99917100D01*
X156794211Y-98400002D01*
X157728028Y-98400002D01*
X157748189Y-98527302D01*
X157748191Y-98527307D01*
X157806703Y-98642144D01*
X157806706Y-98642148D01*
X157806708Y-98642151D01*
X157897849Y-98733292D01*
X157897851Y-98733293D01*
X157897855Y-98733296D01*
X158008659Y-98789753D01*
X158012694Y-98791809D01*
X158012697Y-98791810D01*
X158139997Y-98811972D01*
X158140000Y-98811972D01*
X158140003Y-98811972D01*
X158267302Y-98791810D01*
X158267303Y-98791809D01*
X158267306Y-98791809D01*
X158353994Y-98747639D01*
X158382144Y-98733296D01*
X158382145Y-98733294D01*
X158382151Y-98733292D01*
X158448257Y-98667185D01*
X158469999Y-98658179D01*
X158491742Y-98667185D01*
X158567849Y-98743292D01*
X158567851Y-98743293D01*
X158567855Y-98743296D01*
X158682692Y-98801808D01*
X158682694Y-98801809D01*
X158682697Y-98801810D01*
X158809997Y-98821972D01*
X158810000Y-98821972D01*
X158810003Y-98821972D01*
X158937302Y-98801810D01*
X158937303Y-98801809D01*
X158937306Y-98801809D01*
X159025835Y-98756701D01*
X159052144Y-98743296D01*
X159052145Y-98743294D01*
X159052151Y-98743292D01*
X159143292Y-98652151D01*
X159148388Y-98642151D01*
X159175421Y-98589095D01*
X159201809Y-98537306D01*
X159203394Y-98527302D01*
X159221972Y-98410002D01*
X159221972Y-98409997D01*
X159201810Y-98282697D01*
X159201808Y-98282692D01*
X159143296Y-98167855D01*
X159143293Y-98167851D01*
X159143292Y-98167849D01*
X159052151Y-98076708D01*
X159052148Y-98076706D01*
X159052144Y-98076703D01*
X158937307Y-98018191D01*
X158937302Y-98018189D01*
X158810003Y-97998028D01*
X158809997Y-97998028D01*
X158682697Y-98018189D01*
X158682692Y-98018191D01*
X158567855Y-98076703D01*
X158567847Y-98076709D01*
X158501742Y-98142813D01*
X158479999Y-98151819D01*
X158458256Y-98142813D01*
X158382151Y-98066708D01*
X158382148Y-98066706D01*
X158382144Y-98066703D01*
X158267307Y-98008191D01*
X158267302Y-98008189D01*
X158140003Y-97988028D01*
X158139997Y-97988028D01*
X158012697Y-98008189D01*
X158012692Y-98008191D01*
X157897855Y-98066703D01*
X157897851Y-98066706D01*
X157806706Y-98157851D01*
X157806703Y-98157855D01*
X157748191Y-98272692D01*
X157748189Y-98272697D01*
X157728028Y-98399997D01*
X157728028Y-98400002D01*
X156794211Y-98400002D01*
X159094016Y-96100196D01*
X159115757Y-96091192D01*
X159137500Y-96100197D01*
G37*
%TD.AperFunction*%
%TA.AperFunction,Conductor*%
G36*
X165055594Y-97099106D02*
G01*
X165064600Y-97120850D01*
X165064600Y-99917100D01*
X164224467Y-99917100D01*
X164242907Y-99880910D01*
X164242908Y-99880907D01*
X164242909Y-99880906D01*
X164244339Y-99871876D01*
X164256634Y-99851811D01*
X164279517Y-99846315D01*
X164279519Y-99846315D01*
X164279520Y-99846316D01*
X164401097Y-99865572D01*
X164401100Y-99865572D01*
X164401103Y-99865572D01*
X164528402Y-99845410D01*
X164528403Y-99845409D01*
X164528406Y-99845409D01*
X164591439Y-99813292D01*
X164643244Y-99786896D01*
X164643245Y-99786894D01*
X164643251Y-99786892D01*
X164734392Y-99695751D01*
X164735131Y-99694302D01*
X164769340Y-99627162D01*
X164792909Y-99580906D01*
X164793278Y-99578581D01*
X164813072Y-99453602D01*
X164813072Y-99453597D01*
X164792910Y-99326297D01*
X164792908Y-99326292D01*
X164734396Y-99211455D01*
X164734393Y-99211451D01*
X164734392Y-99211449D01*
X164643251Y-99120308D01*
X164643248Y-99120306D01*
X164643244Y-99120303D01*
X164528407Y-99061791D01*
X164528402Y-99061789D01*
X164401103Y-99041628D01*
X164401097Y-99041628D01*
X164273797Y-99061789D01*
X164273792Y-99061791D01*
X164158955Y-99120303D01*
X164158951Y-99120306D01*
X164067806Y-99211451D01*
X164067803Y-99211455D01*
X164009291Y-99326292D01*
X164009289Y-99326296D01*
X164007860Y-99335323D01*
X163995563Y-99355390D01*
X163972679Y-99360883D01*
X163851103Y-99341628D01*
X163851097Y-99341628D01*
X163776634Y-99353421D01*
X163753749Y-99347927D01*
X163741453Y-99327860D01*
X163739209Y-99313694D01*
X163739208Y-99313692D01*
X163739208Y-99313691D01*
X163680696Y-99198855D01*
X163680693Y-99198851D01*
X163680692Y-99198849D01*
X163589551Y-99107708D01*
X163589548Y-99107706D01*
X163589544Y-99107703D01*
X163474707Y-99049191D01*
X163474702Y-99049189D01*
X163347403Y-99029028D01*
X163347397Y-99029028D01*
X163220097Y-99049189D01*
X163220092Y-99049191D01*
X163105255Y-99107703D01*
X163105251Y-99107706D01*
X163014106Y-99198851D01*
X163014103Y-99198855D01*
X162955591Y-99313692D01*
X162955589Y-99313697D01*
X162935428Y-99440997D01*
X162935428Y-99441002D01*
X162955589Y-99568302D01*
X162955591Y-99568307D01*
X163014103Y-99683144D01*
X163014106Y-99683148D01*
X163014108Y-99683151D01*
X163105249Y-99774292D01*
X163105251Y-99774293D01*
X163105255Y-99774296D01*
X163220092Y-99832808D01*
X163220094Y-99832809D01*
X163220097Y-99832810D01*
X163347397Y-99852972D01*
X163347400Y-99852972D01*
X163347402Y-99852972D01*
X163372352Y-99849019D01*
X163421865Y-99841177D01*
X163444749Y-99846670D01*
X163457046Y-99866737D01*
X163459290Y-99880903D01*
X163459291Y-99880907D01*
X163477733Y-99917100D01*
X162279400Y-99917100D01*
X162279400Y-98882251D01*
X162288405Y-98860508D01*
X164049807Y-97099105D01*
X164071551Y-97090100D01*
X165033850Y-97090100D01*
X165055594Y-97099106D01*
G37*
%TD.AperFunction*%
%TA.AperFunction,Conductor*%
G36*
X153071594Y-95649106D02*
G01*
X153080600Y-95670850D01*
X153080600Y-98388809D01*
X153071594Y-98410553D01*
X151832965Y-99649181D01*
X151811221Y-99658187D01*
X151789477Y-99649181D01*
X151781063Y-99633436D01*
X151780212Y-99629158D01*
X151746418Y-99578582D01*
X151695842Y-99544788D01*
X151695841Y-99544787D01*
X151651242Y-99535916D01*
X151651241Y-99535916D01*
X151650759Y-99535916D01*
X150919618Y-99535917D01*
X150919618Y-99535370D01*
X150898826Y-99529048D01*
X150887746Y-99508284D01*
X150887600Y-99505291D01*
X150887600Y-99447988D01*
X150896605Y-99426245D01*
X151524613Y-98798237D01*
X151533016Y-98792278D01*
X151533992Y-98791808D01*
X151538260Y-98789753D01*
X151558048Y-98764938D01*
X151559178Y-98763672D01*
X151566150Y-98756702D01*
X151569834Y-98750838D01*
X151571385Y-98748370D01*
X151572378Y-98746968D01*
X151592166Y-98722157D01*
X151593461Y-98716481D01*
X151597402Y-98706963D01*
X151600503Y-98702030D01*
X151604056Y-98670489D01*
X151604340Y-98668818D01*
X151606534Y-98659207D01*
X151606534Y-98649368D01*
X151606631Y-98647645D01*
X151610183Y-98616115D01*
X151608259Y-98610616D01*
X151606534Y-98600461D01*
X151606534Y-96684969D01*
X151608259Y-96674813D01*
X151610183Y-96669317D01*
X151610183Y-96669316D01*
X151606631Y-96637784D01*
X151606534Y-96636062D01*
X151606534Y-96626229D01*
X151606534Y-96626225D01*
X151604343Y-96616628D01*
X151604054Y-96614926D01*
X151600503Y-96583404D01*
X151600503Y-96583403D01*
X151597403Y-96578471D01*
X151593460Y-96568948D01*
X151592166Y-96563276D01*
X151592166Y-96563275D01*
X151592165Y-96563274D01*
X151572378Y-96538462D01*
X151571386Y-96537063D01*
X151566150Y-96528728D01*
X151559181Y-96521759D01*
X151558036Y-96520478D01*
X151538260Y-96495679D01*
X151538259Y-96495678D01*
X151533013Y-96493152D01*
X151524613Y-96487192D01*
X150753490Y-95716069D01*
X150744484Y-95694325D01*
X150744484Y-95670850D01*
X150753490Y-95649106D01*
X150775234Y-95640100D01*
X153049850Y-95640100D01*
X153071594Y-95649106D01*
G37*
%TD.AperFunction*%
%TA.AperFunction,Conductor*%
G36*
X163470615Y-97099106D02*
G01*
X163479621Y-97120850D01*
X163470615Y-97142594D01*
X162181894Y-98431315D01*
X162160150Y-98440321D01*
X162138406Y-98431315D01*
X162129400Y-98409571D01*
X162129400Y-97120850D01*
X162138406Y-97099106D01*
X162160150Y-97090100D01*
X163448871Y-97090100D01*
X163470615Y-97099106D01*
G37*
%TD.AperFunction*%
%TA.AperFunction,Conductor*%
G36*
X146114600Y-94377297D02*
G01*
X146273986Y-94536684D01*
X146282992Y-94558427D01*
X146282223Y-94565262D01*
X146281700Y-94567556D01*
X146281700Y-94577394D01*
X146281603Y-94579116D01*
X146278050Y-94610648D01*
X146279117Y-94613697D01*
X146279974Y-94616145D01*
X146281700Y-94626301D01*
X146281700Y-98236350D01*
X146272694Y-98258094D01*
X146250950Y-98267100D01*
X146114600Y-98267100D01*
X145537600Y-98267100D01*
X145537600Y-94820251D01*
X146047577Y-94310274D01*
X146114600Y-94377297D01*
G37*
%TD.AperFunction*%
%TD*%
%TA.AperFunction,Conductor*%
%TO.N,GND*%
G36*
X143914600Y-104867100D02*
G01*
X143914600Y-104867101D01*
X143914600Y-106536350D01*
X143905594Y-106558094D01*
X143883850Y-106567100D01*
X142868350Y-106567100D01*
X142846606Y-106558094D01*
X142837600Y-106536350D01*
X142837600Y-104867101D01*
X142837600Y-103490100D01*
X143914600Y-103490100D01*
X143914600Y-104867100D01*
G37*
%TD.AperFunction*%
%TD*%
%TA.AperFunction,Conductor*%
%TO.N,GND*%
G36*
X128602999Y-99642442D02*
G01*
X128606343Y-99643827D01*
X128606346Y-99643828D01*
X128751100Y-99662885D01*
X128895854Y-99643828D01*
X128895856Y-99643827D01*
X128899201Y-99642442D01*
X128910971Y-99640100D01*
X129191229Y-99640100D01*
X129202999Y-99642442D01*
X129206343Y-99643827D01*
X129206346Y-99643828D01*
X129351100Y-99662885D01*
X129495854Y-99643828D01*
X129495856Y-99643827D01*
X129499201Y-99642442D01*
X129510971Y-99640100D01*
X129794547Y-99640100D01*
X129806315Y-99642441D01*
X129827043Y-99651027D01*
X129827046Y-99651028D01*
X129971800Y-99670085D01*
X130116554Y-99651028D01*
X130133939Y-99643827D01*
X130137285Y-99642441D01*
X130149053Y-99640100D01*
X130391229Y-99640100D01*
X130402999Y-99642442D01*
X130406343Y-99643827D01*
X130406346Y-99643828D01*
X130551100Y-99662885D01*
X130695854Y-99643828D01*
X130695856Y-99643827D01*
X130699201Y-99642442D01*
X130710971Y-99640100D01*
X130991229Y-99640100D01*
X131002999Y-99642442D01*
X131006343Y-99643827D01*
X131006346Y-99643828D01*
X131151100Y-99662885D01*
X131295854Y-99643828D01*
X131295856Y-99643827D01*
X131299201Y-99642442D01*
X131310971Y-99640100D01*
X131591229Y-99640100D01*
X131602999Y-99642442D01*
X131606343Y-99643827D01*
X131606346Y-99643828D01*
X131751100Y-99662885D01*
X131895854Y-99643828D01*
X131895856Y-99643827D01*
X131899201Y-99642442D01*
X131910971Y-99640100D01*
X132191229Y-99640100D01*
X132202999Y-99642442D01*
X132206343Y-99643827D01*
X132206346Y-99643828D01*
X132351100Y-99662885D01*
X132495854Y-99643828D01*
X132495856Y-99643827D01*
X132499201Y-99642442D01*
X132510971Y-99640100D01*
X134787599Y-99640100D01*
X137471797Y-99640100D01*
X137444859Y-99711130D01*
X137424380Y-99879790D01*
X137424355Y-99880000D01*
X137425514Y-99889546D01*
X137444859Y-100048869D01*
X137444859Y-100048871D01*
X137444860Y-100048872D01*
X137505182Y-100207930D01*
X137601817Y-100347929D01*
X137729148Y-100460734D01*
X137879775Y-100539790D01*
X137879778Y-100539790D01*
X137879779Y-100539791D01*
X138044940Y-100580500D01*
X138044944Y-100580500D01*
X138215059Y-100580500D01*
X138262225Y-100568874D01*
X138291355Y-100561694D01*
X138314621Y-100565235D01*
X138328569Y-100584191D01*
X138325028Y-100607458D01*
X138317433Y-100615945D01*
X138231723Y-100681713D01*
X138231714Y-100681722D01*
X138135463Y-100807159D01*
X138074956Y-100953237D01*
X138069833Y-100992155D01*
X138054318Y-101110000D01*
X138060102Y-101153931D01*
X138074956Y-101266762D01*
X138135463Y-101412840D01*
X138230275Y-101536402D01*
X138231718Y-101538282D01*
X138357159Y-101634536D01*
X138503238Y-101695044D01*
X138660000Y-101715682D01*
X138816762Y-101695044D01*
X138962841Y-101634536D01*
X139088282Y-101538282D01*
X139184536Y-101412841D01*
X139223661Y-101318383D01*
X139240303Y-101301741D01*
X139252071Y-101299400D01*
X142182595Y-101299400D01*
X142192750Y-101301125D01*
X142198249Y-101303049D01*
X142217639Y-101300864D01*
X142229780Y-101299497D01*
X142231503Y-101299400D01*
X142241337Y-101299400D01*
X142241341Y-101299400D01*
X142250952Y-101297206D01*
X142252623Y-101296922D01*
X142284164Y-101293369D01*
X142289097Y-101290268D01*
X142298615Y-101286327D01*
X142304291Y-101285032D01*
X142329102Y-101265244D01*
X142330504Y-101264251D01*
X142332972Y-101262700D01*
X142338836Y-101259016D01*
X142345806Y-101252044D01*
X142347076Y-101250911D01*
X142371887Y-101231126D01*
X142374412Y-101225881D01*
X142380371Y-101217479D01*
X143957752Y-99640100D01*
X146114601Y-99640100D01*
X146371878Y-99640100D01*
X146393622Y-99649106D01*
X146816678Y-100072162D01*
X146825684Y-100093906D01*
X146825684Y-101283685D01*
X146828597Y-101308800D01*
X146828598Y-101308804D01*
X146828599Y-101308807D01*
X146833218Y-101319268D01*
X146873976Y-101411578D01*
X146873977Y-101411579D01*
X146873978Y-101411581D01*
X146953419Y-101491022D01*
X147056193Y-101536401D01*
X147056196Y-101536401D01*
X147056198Y-101536402D01*
X147062584Y-101537142D01*
X147081319Y-101539316D01*
X147871048Y-101539315D01*
X147871053Y-101539315D01*
X147896168Y-101536402D01*
X147896168Y-101536401D01*
X147896175Y-101536401D01*
X147998949Y-101491022D01*
X148078390Y-101411581D01*
X148083053Y-101401018D01*
X148100076Y-101384765D01*
X148123604Y-101385308D01*
X148139314Y-101401018D01*
X148143976Y-101411578D01*
X148143977Y-101411579D01*
X148143978Y-101411581D01*
X148223419Y-101491022D01*
X148326193Y-101536401D01*
X148326196Y-101536401D01*
X148326198Y-101536402D01*
X148332584Y-101537142D01*
X148351319Y-101539316D01*
X148436928Y-101539315D01*
X148458670Y-101548321D01*
X148467677Y-101570065D01*
X148458671Y-101591808D01*
X148458671Y-101591809D01*
X147942521Y-102107959D01*
X147934122Y-102113918D01*
X147928875Y-102116445D01*
X147928874Y-102116445D01*
X147909087Y-102141256D01*
X147907939Y-102142541D01*
X147900985Y-102149496D01*
X147900981Y-102149501D01*
X147895746Y-102157830D01*
X147894750Y-102159234D01*
X147874968Y-102184040D01*
X147874966Y-102184045D01*
X147873670Y-102189724D01*
X147869731Y-102199235D01*
X147866631Y-102204168D01*
X147866629Y-102204174D01*
X147863076Y-102235700D01*
X147862788Y-102237397D01*
X147860600Y-102246989D01*
X147860600Y-102256830D01*
X147860503Y-102258552D01*
X147856950Y-102290084D01*
X147858017Y-102293133D01*
X147858874Y-102295581D01*
X147860600Y-102305737D01*
X147860600Y-104836350D01*
X147851594Y-104858094D01*
X147829850Y-104867100D01*
X130834080Y-104867100D01*
X130812336Y-104858094D01*
X130805671Y-104848118D01*
X130760455Y-104738958D01*
X130671577Y-104623130D01*
X130671574Y-104623126D01*
X130662077Y-104615839D01*
X130587760Y-104558813D01*
X130555743Y-104534245D01*
X130555741Y-104534244D01*
X130555738Y-104534242D01*
X130420856Y-104478372D01*
X130307976Y-104463511D01*
X130287594Y-104451743D01*
X130283585Y-104444801D01*
X130260455Y-104388958D01*
X130260454Y-104388957D01*
X130260454Y-104388956D01*
X130171577Y-104273130D01*
X130171574Y-104273126D01*
X130055743Y-104184245D01*
X130055741Y-104184244D01*
X130055738Y-104184242D01*
X129920854Y-104128372D01*
X129920854Y-104128371D01*
X129776100Y-104109315D01*
X129776099Y-104109315D01*
X129631344Y-104128372D01*
X129631343Y-104128372D01*
X129496458Y-104184244D01*
X129380630Y-104273122D01*
X129380621Y-104273131D01*
X129300494Y-104377554D01*
X129280112Y-104389321D01*
X129257379Y-104383229D01*
X129251704Y-104377554D01*
X129171574Y-104273126D01*
X129055743Y-104184245D01*
X129055741Y-104184244D01*
X129055738Y-104184242D01*
X128920854Y-104128372D01*
X128776100Y-104109315D01*
X128631344Y-104128372D01*
X128631343Y-104128372D01*
X128496458Y-104184244D01*
X128380630Y-104273122D01*
X128380622Y-104273130D01*
X128291744Y-104388958D01*
X128235872Y-104523843D01*
X128235872Y-104523844D01*
X128221323Y-104634355D01*
X128216815Y-104668600D01*
X128235872Y-104813354D01*
X128240264Y-104823958D01*
X128240523Y-104824582D01*
X128240524Y-104848117D01*
X128223882Y-104864759D01*
X128212114Y-104867100D01*
X128123872Y-104867100D01*
X128102128Y-104858094D01*
X128095463Y-104848118D01*
X128085455Y-104823958D01*
X128026647Y-104747318D01*
X128020556Y-104724585D01*
X128026646Y-104709882D01*
X128085455Y-104633243D01*
X128141328Y-104498354D01*
X128160385Y-104353600D01*
X128141328Y-104208846D01*
X128131137Y-104184244D01*
X128085455Y-104073958D01*
X128026647Y-103997318D01*
X128020556Y-103974585D01*
X128026646Y-103959882D01*
X128085455Y-103883243D01*
X128141328Y-103748354D01*
X128160385Y-103603600D01*
X128141328Y-103458846D01*
X128128489Y-103427851D01*
X128085455Y-103323958D01*
X128026647Y-103247318D01*
X128020556Y-103224585D01*
X128026646Y-103209882D01*
X128085455Y-103133243D01*
X128141328Y-102998354D01*
X128160385Y-102853600D01*
X128141328Y-102708846D01*
X128085455Y-102573958D01*
X128074584Y-102559791D01*
X128026647Y-102497318D01*
X128020556Y-102474585D01*
X128026646Y-102459882D01*
X128085455Y-102383243D01*
X128141328Y-102248354D01*
X128160385Y-102103600D01*
X128141328Y-101958846D01*
X128085455Y-101823958D01*
X128026647Y-101747318D01*
X128020556Y-101724585D01*
X128026646Y-101709882D01*
X128085455Y-101633243D01*
X128141328Y-101498354D01*
X128160385Y-101353600D01*
X128141328Y-101208846D01*
X128123546Y-101165918D01*
X128085455Y-101073958D01*
X128026647Y-100997318D01*
X128020556Y-100974585D01*
X128026646Y-100959882D01*
X128085455Y-100883243D01*
X128141328Y-100748354D01*
X128160385Y-100603600D01*
X128141328Y-100458846D01*
X128085455Y-100323958D01*
X128026647Y-100247318D01*
X128020556Y-100224585D01*
X128026646Y-100209882D01*
X128085455Y-100133243D01*
X128141328Y-99998354D01*
X128160385Y-99853600D01*
X128141328Y-99708846D01*
X128130464Y-99682618D01*
X128130463Y-99659083D01*
X128147105Y-99642441D01*
X128158873Y-99640100D01*
X128591229Y-99640100D01*
X128602999Y-99642442D01*
G37*
%TD.AperFunction*%
%TA.AperFunction,Conductor*%
G36*
X154760175Y-99641522D02*
G01*
X154758708Y-99642252D01*
X154758707Y-99642253D01*
X154728098Y-99675828D01*
X154727609Y-99676340D01*
X154714124Y-99689826D01*
X154711057Y-99694302D01*
X154709736Y-99695970D01*
X154688332Y-99719451D01*
X154682464Y-99734598D01*
X154679161Y-99740865D01*
X154669978Y-99754271D01*
X154662704Y-99785195D01*
X154662074Y-99787230D01*
X154650600Y-99816852D01*
X154650600Y-99833097D01*
X154649783Y-99840138D01*
X154646062Y-99855954D01*
X154650452Y-99887419D01*
X154650600Y-99889546D01*
X154650600Y-101236933D01*
X154641594Y-101258677D01*
X154634143Y-101264159D01*
X154529148Y-101319266D01*
X154529146Y-101319267D01*
X154529145Y-101319268D01*
X154401816Y-101432072D01*
X154305182Y-101572070D01*
X154244859Y-101731130D01*
X154224355Y-101900000D01*
X154244859Y-102068869D01*
X154244859Y-102068871D01*
X154244860Y-102068872D01*
X154305182Y-102227930D01*
X154401817Y-102367929D01*
X154529148Y-102480734D01*
X154679775Y-102559790D01*
X154679778Y-102559790D01*
X154679779Y-102559791D01*
X154844940Y-102600500D01*
X154844944Y-102600500D01*
X155015059Y-102600500D01*
X155140727Y-102569525D01*
X155180225Y-102559790D01*
X155330852Y-102480734D01*
X155458183Y-102367929D01*
X155554818Y-102227930D01*
X155615140Y-102068872D01*
X155635645Y-101900000D01*
X155615140Y-101731128D01*
X155554818Y-101572070D01*
X155458183Y-101432071D01*
X155330852Y-101319266D01*
X155225858Y-101264160D01*
X155210792Y-101246081D01*
X155209400Y-101236933D01*
X155209400Y-99997551D01*
X155218406Y-99975807D01*
X155554113Y-99640100D01*
X159588803Y-99640100D01*
X159621817Y-99687929D01*
X159749148Y-99800734D01*
X159899775Y-99879790D01*
X159899778Y-99879790D01*
X159899779Y-99879791D01*
X160064940Y-99920500D01*
X160064944Y-99920500D01*
X160235059Y-99920500D01*
X160364976Y-99888478D01*
X160400225Y-99879790D01*
X160550852Y-99800734D01*
X160678183Y-99687929D01*
X160711197Y-99640100D01*
X161111033Y-99640100D01*
X161274940Y-99680500D01*
X161274944Y-99680500D01*
X161445059Y-99680500D01*
X161572428Y-99649106D01*
X161608967Y-99640100D01*
X161900600Y-99640100D01*
X161900600Y-101745710D01*
X161891594Y-101767454D01*
X161891593Y-101767454D01*
X161604722Y-102054324D01*
X161596324Y-102060283D01*
X161591075Y-102062811D01*
X161591074Y-102062811D01*
X161571287Y-102087622D01*
X161570139Y-102088907D01*
X161563185Y-102095862D01*
X161563181Y-102095867D01*
X161557946Y-102104196D01*
X161556950Y-102105600D01*
X161537168Y-102130406D01*
X161537166Y-102130411D01*
X161535870Y-102136090D01*
X161531931Y-102145601D01*
X161528831Y-102150534D01*
X161528829Y-102150540D01*
X161525276Y-102182066D01*
X161524988Y-102183763D01*
X161522800Y-102193355D01*
X161522800Y-102203196D01*
X161522703Y-102204918D01*
X161519150Y-102236450D01*
X161519482Y-102237397D01*
X161521074Y-102241947D01*
X161522800Y-102252103D01*
X161522800Y-104836350D01*
X161513794Y-104858094D01*
X161492050Y-104867100D01*
X148560150Y-104867100D01*
X148538406Y-104858094D01*
X148529400Y-104836350D01*
X148529400Y-102478088D01*
X148538405Y-102456345D01*
X148836345Y-102158406D01*
X148858089Y-102149400D01*
X151663961Y-102149400D01*
X151674116Y-102151125D01*
X151679615Y-102153049D01*
X151699005Y-102150864D01*
X151711146Y-102149497D01*
X151712869Y-102149400D01*
X151722703Y-102149400D01*
X151722707Y-102149400D01*
X151732318Y-102147206D01*
X151733989Y-102146922D01*
X151765530Y-102143369D01*
X151770463Y-102140268D01*
X151779981Y-102136327D01*
X151785657Y-102135032D01*
X151810468Y-102115244D01*
X151811870Y-102114251D01*
X151816006Y-102111652D01*
X151820202Y-102109016D01*
X151827172Y-102102044D01*
X151828442Y-102100911D01*
X151853253Y-102081126D01*
X151855778Y-102075881D01*
X151861737Y-102067479D01*
X152221463Y-101707753D01*
X152229866Y-101701794D01*
X152235110Y-101699269D01*
X152254898Y-101674454D01*
X152256028Y-101673188D01*
X152263000Y-101666218D01*
X152268235Y-101657886D01*
X152269228Y-101656484D01*
X152289016Y-101631673D01*
X152290311Y-101625997D01*
X152294252Y-101616479D01*
X152297353Y-101611546D01*
X152300906Y-101580005D01*
X152301190Y-101578334D01*
X152303384Y-101568723D01*
X152303384Y-101558884D01*
X152303481Y-101557161D01*
X152307033Y-101525631D01*
X152305109Y-101520132D01*
X152303384Y-101509977D01*
X152303384Y-101483567D01*
X152312389Y-101461824D01*
X152312391Y-101461823D01*
X152596909Y-101177306D01*
X152618652Y-101168300D01*
X152852261Y-101168300D01*
X152862416Y-101170025D01*
X152867915Y-101171949D01*
X152887305Y-101169764D01*
X152899446Y-101168397D01*
X152901169Y-101168300D01*
X152911003Y-101168300D01*
X152911007Y-101168300D01*
X152920618Y-101166106D01*
X152922289Y-101165822D01*
X152953830Y-101162269D01*
X152958763Y-101159168D01*
X152968281Y-101155227D01*
X152973957Y-101153932D01*
X152998768Y-101134144D01*
X153000170Y-101133151D01*
X153002638Y-101131600D01*
X153008502Y-101127916D01*
X153015472Y-101120944D01*
X153016742Y-101119811D01*
X153041553Y-101100026D01*
X153044078Y-101094781D01*
X153050037Y-101086379D01*
X154496317Y-99640100D01*
X154762151Y-99640100D01*
X154760175Y-99641522D01*
G37*
%TD.AperFunction*%
%TA.AperFunction,Conductor*%
G36*
X162863041Y-99720636D02*
G01*
X162863044Y-99720641D01*
X162863045Y-99720643D01*
X162872714Y-99733244D01*
X162924501Y-99800734D01*
X162951926Y-99836474D01*
X163067757Y-99925355D01*
X163067759Y-99925356D01*
X163067761Y-99925357D01*
X163102019Y-99939547D01*
X163202646Y-99981228D01*
X163335819Y-99998760D01*
X163356201Y-100010527D01*
X163360214Y-100017478D01*
X163366743Y-100033240D01*
X163366744Y-100033242D01*
X163366745Y-100033243D01*
X163413294Y-100093906D01*
X163443474Y-100133238D01*
X163455626Y-100149074D01*
X163571457Y-100237955D01*
X163571459Y-100237956D01*
X163571461Y-100237957D01*
X163594061Y-100247318D01*
X163706346Y-100293828D01*
X163851100Y-100312885D01*
X163995854Y-100293828D01*
X164130743Y-100237955D01*
X164246574Y-100149074D01*
X164335455Y-100033243D01*
X164337816Y-100027541D01*
X164354454Y-100010900D01*
X164370236Y-100008821D01*
X164401100Y-100012885D01*
X164534078Y-99995378D01*
X164556810Y-100001469D01*
X164568578Y-100021851D01*
X164562487Y-100044584D01*
X164556811Y-100050260D01*
X164475931Y-100112322D01*
X164475926Y-100112326D01*
X164475922Y-100112330D01*
X164387044Y-100228158D01*
X164331172Y-100363043D01*
X164331172Y-100363044D01*
X164312115Y-100507800D01*
X164331172Y-100652554D01*
X164387042Y-100787438D01*
X164387046Y-100787444D01*
X164474654Y-100901617D01*
X164475926Y-100903274D01*
X164591757Y-100992155D01*
X164591759Y-100992156D01*
X164591761Y-100992157D01*
X164641586Y-101012795D01*
X164726646Y-101048028D01*
X164871400Y-101067085D01*
X165016154Y-101048028D01*
X165151043Y-100992155D01*
X165266874Y-100903274D01*
X165355755Y-100787443D01*
X165411628Y-100652554D01*
X165430685Y-100507800D01*
X165411628Y-100363046D01*
X165405365Y-100347927D01*
X165355755Y-100228158D01*
X165266877Y-100112330D01*
X165266874Y-100112326D01*
X165151043Y-100023445D01*
X165151041Y-100023444D01*
X165151038Y-100023442D01*
X165016154Y-99967572D01*
X164958099Y-99959929D01*
X164871400Y-99948515D01*
X164871399Y-99948515D01*
X164738422Y-99966021D01*
X164715689Y-99959929D01*
X164703922Y-99939547D01*
X164710014Y-99916814D01*
X164715685Y-99911142D01*
X164796574Y-99849074D01*
X164885455Y-99733243D01*
X164895561Y-99708846D01*
X164924037Y-99640100D01*
X165064600Y-99640100D01*
X165064601Y-99640100D01*
X168933850Y-99640100D01*
X168955594Y-99649106D01*
X168964600Y-99670850D01*
X168964600Y-103619550D01*
X168955594Y-103641294D01*
X168933850Y-103650300D01*
X168912106Y-103641294D01*
X168909454Y-103638270D01*
X168868282Y-103584613D01*
X168742841Y-103488359D01*
X168742840Y-103488358D01*
X168596762Y-103427851D01*
X168596761Y-103427850D01*
X168440000Y-103407213D01*
X168439999Y-103407213D01*
X168283237Y-103427851D01*
X168137159Y-103488358D01*
X168033719Y-103567730D01*
X168010986Y-103573821D01*
X167996281Y-103567730D01*
X167892840Y-103488358D01*
X167746762Y-103427851D01*
X167746761Y-103427850D01*
X167590000Y-103407213D01*
X167589999Y-103407213D01*
X167433237Y-103427851D01*
X167287159Y-103488358D01*
X167161722Y-103584609D01*
X167161714Y-103584617D01*
X167065463Y-103710054D01*
X167024805Y-103808210D01*
X167008163Y-103824851D01*
X166984628Y-103824851D01*
X166972001Y-103815162D01*
X166925474Y-103754526D01*
X166899404Y-103734522D01*
X166809644Y-103665646D01*
X166809643Y-103665645D01*
X166809641Y-103665644D01*
X166809638Y-103665642D01*
X166674754Y-103609772D01*
X166627865Y-103603599D01*
X166530000Y-103590715D01*
X166529999Y-103590715D01*
X166385244Y-103609772D01*
X166385243Y-103609772D01*
X166250358Y-103665644D01*
X166191751Y-103710615D01*
X166169018Y-103716706D01*
X166154313Y-103710615D01*
X166109970Y-103676590D01*
X166069643Y-103645645D01*
X166069641Y-103645644D01*
X166069638Y-103645642D01*
X165934754Y-103589772D01*
X165895567Y-103584613D01*
X165790000Y-103570715D01*
X165789999Y-103570715D01*
X165645244Y-103589772D01*
X165645243Y-103589772D01*
X165510358Y-103645644D01*
X165394530Y-103734522D01*
X165394522Y-103734530D01*
X165305644Y-103850358D01*
X165249772Y-103985243D01*
X165249772Y-103985244D01*
X165230715Y-104130000D01*
X165249772Y-104274754D01*
X165305642Y-104409638D01*
X165305644Y-104409641D01*
X165305645Y-104409643D01*
X165394526Y-104525474D01*
X165510357Y-104614355D01*
X165510359Y-104614356D01*
X165510361Y-104614357D01*
X165555961Y-104633245D01*
X165645246Y-104670228D01*
X165790000Y-104689285D01*
X165934754Y-104670228D01*
X166069643Y-104614355D01*
X166128248Y-104569384D01*
X166150980Y-104563293D01*
X166165683Y-104569382D01*
X166250357Y-104634355D01*
X166250358Y-104634355D01*
X166250359Y-104634356D01*
X166310635Y-104659323D01*
X166385246Y-104690228D01*
X166490231Y-104704049D01*
X166510613Y-104715816D01*
X166516704Y-104738550D01*
X166503300Y-104840364D01*
X166491532Y-104860746D01*
X166472813Y-104867100D01*
X161932350Y-104867100D01*
X161910606Y-104858094D01*
X161901600Y-104836350D01*
X161901600Y-102305888D01*
X161910605Y-102284146D01*
X162197477Y-101997273D01*
X162205876Y-101991314D01*
X162211126Y-101988787D01*
X162230914Y-101963972D01*
X162232044Y-101962706D01*
X162239016Y-101955736D01*
X162244249Y-101947405D01*
X162245247Y-101945999D01*
X162265031Y-101921192D01*
X162265032Y-101921191D01*
X162266327Y-101915514D01*
X162270272Y-101905991D01*
X162273368Y-101901064D01*
X162273369Y-101901063D01*
X162276921Y-101869530D01*
X162277211Y-101867826D01*
X162279400Y-101858240D01*
X162279400Y-101848402D01*
X162279497Y-101846679D01*
X162283049Y-101815149D01*
X162281125Y-101809650D01*
X162279400Y-101799495D01*
X162279400Y-99640100D01*
X162829682Y-99640100D01*
X162863041Y-99720636D01*
G37*
%TD.AperFunction*%
%TD*%
%TA.AperFunction,Conductor*%
%TO.N,GND*%
G36*
X137644844Y-91599106D02*
G01*
X137653850Y-91620850D01*
X137644844Y-91642594D01*
X137641819Y-91645246D01*
X137618130Y-91663422D01*
X137618122Y-91663430D01*
X137529246Y-91779256D01*
X137529241Y-91779264D01*
X137526882Y-91784960D01*
X137510239Y-91801600D01*
X137494461Y-91803677D01*
X137463600Y-91799615D01*
X137318844Y-91818672D01*
X137318843Y-91818672D01*
X137183958Y-91874544D01*
X137068130Y-91963422D01*
X137068122Y-91963430D01*
X136979244Y-92079258D01*
X136923372Y-92214143D01*
X136923372Y-92214144D01*
X136904315Y-92358900D01*
X136923372Y-92503654D01*
X136979242Y-92638538D01*
X136979244Y-92638541D01*
X136979245Y-92638543D01*
X137068126Y-92754374D01*
X137183957Y-92843255D01*
X137183959Y-92843256D01*
X137183961Y-92843257D01*
X137233786Y-92863895D01*
X137318846Y-92899128D01*
X137463600Y-92918185D01*
X137608354Y-92899128D01*
X137743243Y-92843255D01*
X137859074Y-92754374D01*
X137947955Y-92638543D01*
X137950316Y-92632841D01*
X137966954Y-92616200D01*
X137982736Y-92614121D01*
X138013600Y-92618185D01*
X138024821Y-92616707D01*
X138047552Y-92622797D01*
X138057243Y-92635427D01*
X138079241Y-92688536D01*
X138079244Y-92688541D01*
X138079245Y-92688543D01*
X138168126Y-92804374D01*
X138283957Y-92893255D01*
X138283959Y-92893256D01*
X138283961Y-92893257D01*
X138418845Y-92949128D01*
X138446191Y-92952727D01*
X138481326Y-92957353D01*
X138501708Y-92969120D01*
X138507800Y-92983826D01*
X138519772Y-93074755D01*
X138519772Y-93074756D01*
X138575642Y-93209638D01*
X138575644Y-93209641D01*
X138575645Y-93209643D01*
X138664526Y-93325474D01*
X138780357Y-93414355D01*
X138780359Y-93414356D01*
X138780361Y-93414357D01*
X138783133Y-93415505D01*
X138915246Y-93470228D01*
X139060000Y-93489285D01*
X139204754Y-93470228D01*
X139339643Y-93414355D01*
X139455474Y-93325474D01*
X139544355Y-93209643D01*
X139600228Y-93074754D01*
X139619285Y-92930000D01*
X139600228Y-92785246D01*
X139544355Y-92650358D01*
X139455474Y-92534526D01*
X139442271Y-92524395D01*
X139430504Y-92504014D01*
X139436595Y-92481281D01*
X139442272Y-92475604D01*
X139455474Y-92465474D01*
X139544355Y-92349643D01*
X139600228Y-92214754D01*
X139619285Y-92070000D01*
X139600228Y-91925246D01*
X139552491Y-91810001D01*
X139544355Y-91790358D01*
X139455477Y-91674530D01*
X139455474Y-91674526D01*
X139417314Y-91645244D01*
X139405548Y-91624863D01*
X139411639Y-91602130D01*
X139432022Y-91590363D01*
X139436035Y-91590100D01*
X143533645Y-91590100D01*
X143555389Y-91599106D01*
X143564395Y-91620850D01*
X143555389Y-91642593D01*
X142144555Y-93053427D01*
X137968206Y-97229775D01*
X137960175Y-97235554D01*
X137958708Y-97236284D01*
X137958707Y-97236285D01*
X137928098Y-97269860D01*
X137927609Y-97270372D01*
X137914124Y-97283858D01*
X137911057Y-97288334D01*
X137909736Y-97290002D01*
X137888332Y-97313483D01*
X137882464Y-97328630D01*
X137879161Y-97334897D01*
X137869978Y-97348303D01*
X137862704Y-97379227D01*
X137862074Y-97381262D01*
X137850600Y-97410884D01*
X137850600Y-97427129D01*
X137849783Y-97434170D01*
X137846062Y-97449986D01*
X137850452Y-97481451D01*
X137850600Y-97483578D01*
X137850600Y-99216933D01*
X137841594Y-99238677D01*
X137834143Y-99244159D01*
X137729148Y-99299266D01*
X137729146Y-99299267D01*
X137729145Y-99299268D01*
X137601816Y-99412072D01*
X137505182Y-99552070D01*
X137471797Y-99640100D01*
X134787600Y-99640100D01*
X134787600Y-91620850D01*
X134796606Y-91599106D01*
X134818350Y-91590100D01*
X137623100Y-91590100D01*
X137644844Y-91599106D01*
G37*
%TD.AperFunction*%
%TA.AperFunction,Conductor*%
G36*
X145537600Y-98267100D02*
G01*
X146114600Y-98267100D01*
X146114600Y-99640100D01*
X143957751Y-99640100D01*
X144967481Y-98630370D01*
X144975879Y-98624413D01*
X144981126Y-98621887D01*
X145000910Y-98597077D01*
X145002040Y-98595811D01*
X145009017Y-98588836D01*
X145014261Y-98580488D01*
X145015241Y-98579105D01*
X145035032Y-98554291D01*
X145036327Y-98548614D01*
X145040272Y-98539091D01*
X145043368Y-98534164D01*
X145043369Y-98534163D01*
X145046921Y-98502630D01*
X145047211Y-98500926D01*
X145049400Y-98491340D01*
X145049400Y-98481502D01*
X145049497Y-98479779D01*
X145053049Y-98448249D01*
X145051125Y-98442750D01*
X145049400Y-98432595D01*
X145049400Y-95321190D01*
X145058406Y-95299446D01*
X145537600Y-94820252D01*
X145537600Y-98267100D01*
G37*
%TD.AperFunction*%
%TA.AperFunction,Conductor*%
G36*
X146105594Y-94295746D02*
G01*
X146114600Y-94317489D01*
X146114600Y-94377297D01*
X146047577Y-94310274D01*
X146062106Y-94295746D01*
X146083850Y-94286740D01*
X146105594Y-94295746D01*
G37*
%TD.AperFunction*%
%TD*%
M02*
