%TF.GenerationSoftware,KiCad,Pcbnew,7.0.6*%
%TF.CreationDate,2023-08-06T04:21:24+10:00*%
%TF.ProjectId,controller,636f6e74-726f-46c6-9c65-722e6b696361,rev?*%
%TF.SameCoordinates,Original*%
%TF.FileFunction,Copper,L3,Inr*%
%TF.FilePolarity,Positive*%
%FSLAX46Y46*%
G04 Gerber Fmt 4.6, Leading zero omitted, Abs format (unit mm)*
G04 Created by KiCad (PCBNEW 7.0.6) date 2023-08-06 04:21:24*
%MOMM*%
%LPD*%
G01*
G04 APERTURE LIST*
%TA.AperFunction,ComponentPad*%
%ADD10C,1.050000*%
%TD*%
%TA.AperFunction,ComponentPad*%
%ADD11C,4.700000*%
%TD*%
%TA.AperFunction,ComponentPad*%
%ADD12C,3.000000*%
%TD*%
%TA.AperFunction,ComponentPad*%
%ADD13C,1.875000*%
%TD*%
%TA.AperFunction,ComponentPad*%
%ADD14C,0.600000*%
%TD*%
%TA.AperFunction,ViaPad*%
%ADD15C,0.600000*%
%TD*%
%TA.AperFunction,ViaPad*%
%ADD16C,0.508000*%
%TD*%
%TA.AperFunction,ViaPad*%
%ADD17C,0.800000*%
%TD*%
%TA.AperFunction,ViaPad*%
%ADD18C,0.553200*%
%TD*%
G04 APERTURE END LIST*
D10*
%TO.N,GND*%
%TO.C,DG2*%
X157060000Y-79430000D03*
%TD*%
D11*
%TO.N,N/C*%
%TO.C,M1*%
X128501100Y-81503600D03*
%TD*%
D12*
%TO.N,/SHC*%
%TO.C,C0*%
X163001100Y-116703600D03*
%TD*%
%TO.N,V+*%
%TO.C,J1*%
X159001100Y-118503600D03*
%TO.N,GND*%
X154001100Y-118503600D03*
D13*
%TO.N,N/C*%
X162001100Y-128503600D03*
X151001100Y-128503600D03*
%TD*%
D12*
%TO.N,V+*%
%TO.C,J2*%
X143001100Y-118503600D03*
%TO.N,GND*%
X138001100Y-118503600D03*
D13*
%TO.N,N/C*%
X146001100Y-128503600D03*
X135001100Y-128503600D03*
%TD*%
D12*
%TO.N,/SHB*%
%TO.C,B0*%
X148501100Y-116703600D03*
%TD*%
D10*
%TO.N,+3V3*%
%TO.C,TEMP1*%
X147490000Y-81570000D03*
%TD*%
%TO.N,/SHA*%
%TO.C,DA0*%
X140301100Y-115503600D03*
%TD*%
%TO.N,/DEBUG1*%
%TO.C,DBG1*%
X147400000Y-83250000D03*
%TD*%
D11*
%TO.N,N/C*%
%TO.C,M2*%
X168501100Y-81503600D03*
%TD*%
D10*
%TO.N,/SHC*%
%TO.C,DC0*%
X158101100Y-115503600D03*
%TD*%
D14*
%TO.N,GND*%
%TO.C,U1*%
X132650000Y-91720000D03*
X132650000Y-92920000D03*
X132650000Y-94220000D03*
X132650000Y-95320000D03*
X133850000Y-91720000D03*
X133850000Y-92920000D03*
X133850000Y-94220000D03*
X133850000Y-95320000D03*
%TD*%
D12*
%TO.N,/SHA*%
%TO.C,A0*%
X134001100Y-116703600D03*
%TD*%
D10*
%TO.N,/VTEMP_MOT*%
%TO.C,TEMP2*%
X162701100Y-79303600D03*
%TD*%
D11*
%TO.N,N/C*%
%TO.C,M3*%
X128501100Y-119503600D03*
%TD*%
D10*
%TO.N,/DEBUG2*%
%TO.C,DBG2*%
X147310000Y-84750000D03*
%TD*%
%TO.N,+3V3*%
%TO.C,D33*%
X128001100Y-85403600D03*
%TD*%
%TO.N,/DAC*%
%TO.C,DAC0*%
X150280000Y-92180000D03*
%TD*%
D11*
%TO.N,N/C*%
%TO.C,M4*%
X168501100Y-119503600D03*
%TD*%
D10*
%TO.N,/SHB*%
%TO.C,DB0*%
X145601100Y-115503600D03*
%TD*%
D15*
%TO.N,+3V3*%
X162400000Y-84420000D03*
X147360000Y-97670000D03*
D16*
X165276100Y-95913600D03*
D15*
X155150000Y-84200000D03*
D16*
X134501100Y-121503600D03*
D15*
X157150000Y-90310000D03*
X159260000Y-87840000D03*
X145288000Y-124104400D03*
X130960000Y-88640000D03*
X151750000Y-82060000D03*
X126084000Y-91603600D03*
X165270000Y-81340000D03*
D16*
X135101100Y-83703600D03*
D15*
%TO.N,/SHA*%
X153935776Y-90433364D03*
X138660000Y-101110000D03*
%TO.N,/SHB*%
X148330000Y-109140000D03*
X163209192Y-92849192D03*
%TO.N,/SHC*%
X164015000Y-93995000D03*
X162258886Y-109911386D03*
%TO.N,/VTEMP_FET*%
X155370000Y-81520000D03*
X154640000Y-113570000D03*
%TO.N,/AS5047_SDA*%
X153050736Y-85310734D03*
X150020000Y-93748900D03*
D16*
%TO.N,V+*%
X150151100Y-106903600D03*
X153401100Y-106903600D03*
X137463600Y-92358900D03*
X132301100Y-106553600D03*
X133801100Y-106903600D03*
X129701100Y-108453600D03*
X134801100Y-106903600D03*
X166530000Y-104150000D03*
X150801100Y-106903600D03*
X149501100Y-106903600D03*
X127601100Y-105853600D03*
X131751100Y-99103600D03*
X165790000Y-104130000D03*
X127601100Y-105103600D03*
X153120000Y-99480000D03*
X134301100Y-106553600D03*
X127601100Y-102103600D03*
X129590800Y-106553000D03*
X128301100Y-112853600D03*
X131343400Y-106527600D03*
X127601100Y-108103600D03*
X166751100Y-108653600D03*
X127601100Y-103603600D03*
X158140000Y-98400000D03*
X163347400Y-99441000D03*
X152751100Y-106303600D03*
X129001100Y-106553600D03*
X151451100Y-106303600D03*
X128751100Y-99103600D03*
X128951100Y-112853600D03*
X127601100Y-99853600D03*
X129351100Y-99103600D03*
X132351100Y-99103600D03*
X167251100Y-112753600D03*
X128776100Y-104668600D03*
X157401100Y-106903600D03*
X169451100Y-109703600D03*
X127601100Y-108853600D03*
X157401100Y-106303600D03*
X127601100Y-111853600D03*
X139060000Y-92070000D03*
X152101100Y-106303600D03*
X168301100Y-108353600D03*
X163851100Y-99753600D03*
X130351100Y-108453600D03*
X158701100Y-106903600D03*
X156751100Y-106303600D03*
X164401100Y-99453600D03*
X127601100Y-102853600D03*
X133301100Y-106553600D03*
X169451100Y-112853600D03*
X130276100Y-105018600D03*
X150801100Y-106303600D03*
X156101100Y-106903600D03*
X128401100Y-108453600D03*
X150164800Y-106299000D03*
X127601100Y-111103600D03*
X138013600Y-92058900D03*
X152101100Y-106903600D03*
X158810000Y-98410000D03*
X127601100Y-107353600D03*
X127601100Y-100603600D03*
X127601100Y-99103600D03*
X168251100Y-112753600D03*
X130801100Y-106903600D03*
X129776100Y-104668600D03*
X138563600Y-92408900D03*
X167751100Y-113003600D03*
X132801100Y-106903600D03*
X127601100Y-109603600D03*
X169451100Y-110453600D03*
X167101102Y-105753599D03*
X127601100Y-106603600D03*
X155451100Y-106903600D03*
X127601100Y-104353600D03*
X153401100Y-106303600D03*
X139060000Y-92930000D03*
X151451100Y-106903600D03*
X169451100Y-112053600D03*
X129276100Y-105018600D03*
X167060000Y-104860000D03*
X131151100Y-99103600D03*
X135301100Y-106553600D03*
X164871400Y-100507800D03*
X131801100Y-106903600D03*
X129051100Y-108453600D03*
X167801100Y-108653600D03*
X129971800Y-99110800D03*
X167301100Y-108353600D03*
X156743400Y-106908600D03*
X156101100Y-106303600D03*
X127601100Y-110353600D03*
X158051100Y-106903600D03*
X130251100Y-112853600D03*
X127601100Y-113353600D03*
X169451100Y-111253600D03*
X130200400Y-106553000D03*
X129601100Y-112853600D03*
X152751100Y-106903600D03*
X155451100Y-106303600D03*
X130551100Y-99103600D03*
X127601100Y-112603600D03*
X128397000Y-106553000D03*
X127601100Y-101353600D03*
X169451100Y-108953600D03*
D17*
%TO.N,/GLA*%
X159880000Y-90240000D03*
X140589997Y-97690006D03*
%TO.N,/GLB*%
X144111808Y-98121684D03*
X158520000Y-90310000D03*
%TO.N,/GLC*%
X161850000Y-96530000D03*
X161360000Y-98980000D03*
%TO.N,/GHA*%
X138130000Y-99880000D03*
X153740000Y-87130000D03*
%TO.N,/GHB*%
X163030676Y-93921259D03*
X154930000Y-101900000D03*
%TO.N,/GHC*%
X160150000Y-99220000D03*
X161689998Y-94850000D03*
D16*
%TO.N,GND*%
X126801100Y-87603600D03*
X133751100Y-103603600D03*
X135301100Y-102003600D03*
D15*
X164290000Y-104580000D03*
D16*
X165801100Y-79303600D03*
X157440000Y-103890000D03*
X129301100Y-100453600D03*
D15*
X148770000Y-82010000D03*
D16*
X137680000Y-95740000D03*
X166801100Y-109703600D03*
D15*
X169920000Y-103920000D03*
D16*
X134899400Y-101574600D03*
X145251100Y-104603600D03*
D15*
X162852209Y-90752371D03*
D16*
X133551100Y-102003600D03*
X150310000Y-103780000D03*
X130951100Y-100153600D03*
X134901100Y-103603600D03*
X129351100Y-103603600D03*
X129901100Y-103803600D03*
X153390000Y-103820000D03*
X163951100Y-98403600D03*
D15*
X148890000Y-83660000D03*
D16*
X152760000Y-103800000D03*
D15*
X128250000Y-90984659D03*
D16*
X167451100Y-109703600D03*
X135151100Y-100103600D03*
X130451100Y-103603600D03*
X129001100Y-114103600D03*
X152090000Y-103810000D03*
X168101100Y-109703600D03*
X147401100Y-103403600D03*
X139801100Y-83753600D03*
X146001100Y-102253600D03*
D15*
X142669998Y-90029999D03*
D16*
X156251100Y-101903600D03*
X134401100Y-102003600D03*
X149650000Y-103750000D03*
X128751100Y-100153600D03*
D15*
X152670000Y-96350000D03*
D16*
X147251100Y-102253600D03*
X147401100Y-102803600D03*
X131001100Y-103853600D03*
X133197600Y-103886000D03*
D15*
X166890000Y-94820000D03*
X141950000Y-90470000D03*
D16*
X133151100Y-100153600D03*
X164551100Y-102103600D03*
D15*
X156440000Y-85131100D03*
D16*
X132601100Y-100453600D03*
D15*
X143390000Y-89580000D03*
D18*
X146601100Y-120153600D03*
D16*
X137670000Y-94190000D03*
X130251100Y-114103600D03*
X129851100Y-100153600D03*
X132651100Y-103603600D03*
X151601100Y-117903600D03*
X168201100Y-114153600D03*
X131551100Y-103603600D03*
X142701100Y-104253600D03*
D15*
X141950000Y-89600000D03*
D16*
X162601100Y-97453600D03*
X138460000Y-94180000D03*
X156760000Y-103860000D03*
X163301100Y-98403600D03*
D15*
X156470000Y-86930000D03*
D16*
X155751100Y-101503600D03*
X134351100Y-103853600D03*
X163551100Y-101603600D03*
X129651100Y-114103600D03*
D15*
X154990000Y-86940000D03*
D16*
X156490000Y-99740000D03*
X137101100Y-121503600D03*
X129001100Y-109703600D03*
X132101100Y-103853600D03*
D15*
X165470000Y-94770000D03*
D16*
X135151100Y-100803600D03*
X163901100Y-102103600D03*
X131501100Y-100453600D03*
X145851100Y-104603600D03*
X132051100Y-100153600D03*
X156801100Y-101503600D03*
X157301100Y-101903600D03*
D15*
X154860000Y-88100000D03*
X157800000Y-92160000D03*
D16*
X130201100Y-109703600D03*
X157851100Y-101503600D03*
D15*
X158120000Y-86070000D03*
D16*
X150990000Y-103790000D03*
D15*
X156470000Y-88100000D03*
D16*
X166701100Y-113853600D03*
D15*
X157891452Y-85298548D03*
D16*
X129616200Y-109702600D03*
X133951100Y-101553600D03*
X164251100Y-101603600D03*
X143351100Y-103653600D03*
X128801100Y-103853600D03*
X138500000Y-95770000D03*
X167201100Y-114153600D03*
X146330000Y-101730000D03*
D15*
X143410000Y-90500000D03*
D16*
X156490000Y-100490000D03*
X142701100Y-103653600D03*
X143351100Y-104253600D03*
X157190000Y-100490000D03*
X130401100Y-100453600D03*
X134401100Y-100803600D03*
D15*
X154894265Y-85131100D03*
D16*
X143357600Y-105537000D03*
X146601100Y-102253600D03*
D15*
X158010000Y-88100000D03*
D16*
X167701100Y-113853600D03*
D15*
X166080000Y-86540000D03*
D16*
X134401100Y-100103600D03*
X163201100Y-102103600D03*
D15*
X147370000Y-86620000D03*
D16*
X143351100Y-106153600D03*
X157190000Y-99740000D03*
D15*
%TO.N,/CAN_P*%
X168440000Y-104012895D03*
D18*
X148701100Y-122203600D03*
%TO.N,/CAN_N*%
X148601100Y-120703600D03*
D15*
X167590000Y-104012895D03*
%TO.N,/AS5047_SCL*%
X148750000Y-93570000D03*
X155157516Y-92477411D03*
%TO.N,/AS5047_DIR*%
X152954618Y-90430676D03*
X138730000Y-88628900D03*
X147480000Y-93579998D03*
%TO.N,/AS5047_PGO*%
X156825735Y-83600000D03*
X151308499Y-93615758D03*
%TO.N,/VTEMP_MOT*%
X158250000Y-81280000D03*
%TD*%
%TA.AperFunction,Conductor*%
%TO.N,+3V3*%
G36*
X156362241Y-78894906D02*
G01*
X156380547Y-78939100D01*
X156372174Y-78970350D01*
X156301711Y-79092394D01*
X156248092Y-79257421D01*
X156229953Y-79430000D01*
X156248092Y-79602578D01*
X156301711Y-79767605D01*
X156301713Y-79767609D01*
X156301714Y-79767611D01*
X156345719Y-79843829D01*
X156388477Y-79917887D01*
X156388476Y-79917887D01*
X156504589Y-80046844D01*
X156504589Y-80046845D01*
X156644971Y-80148839D01*
X156644973Y-80148840D01*
X156644976Y-80148842D01*
X156734540Y-80188718D01*
X156803489Y-80219417D01*
X156803492Y-80219418D01*
X156803501Y-80219422D01*
X156973236Y-80255500D01*
X157146764Y-80255500D01*
X157316499Y-80219422D01*
X157475024Y-80148842D01*
X157615410Y-80046845D01*
X157731522Y-79917889D01*
X157818286Y-79767611D01*
X157871908Y-79602576D01*
X157890047Y-79430000D01*
X157871908Y-79257424D01*
X157839879Y-79158846D01*
X157818288Y-79092394D01*
X157818287Y-79092392D01*
X157818286Y-79092389D01*
X157747826Y-78970350D01*
X157741583Y-78922924D01*
X157770703Y-78884973D01*
X157801953Y-78876600D01*
X161886371Y-78876600D01*
X161930565Y-78894906D01*
X161948871Y-78939100D01*
X161943818Y-78962871D01*
X161943826Y-78962874D01*
X161943801Y-78962948D01*
X161943468Y-78964519D01*
X161942814Y-78965986D01*
X161889192Y-79131021D01*
X161871053Y-79303598D01*
X161871053Y-79303600D01*
X161872598Y-79318297D01*
X161889192Y-79476178D01*
X161942811Y-79641205D01*
X161942813Y-79641209D01*
X161942814Y-79641211D01*
X162015792Y-79767611D01*
X162029577Y-79791487D01*
X162029576Y-79791487D01*
X162145689Y-79920444D01*
X162145689Y-79920445D01*
X162286071Y-80022439D01*
X162286073Y-80022440D01*
X162286076Y-80022442D01*
X162340884Y-80046844D01*
X162444589Y-80093017D01*
X162444592Y-80093018D01*
X162444601Y-80093022D01*
X162614336Y-80129100D01*
X162787864Y-80129100D01*
X162957599Y-80093022D01*
X163116124Y-80022442D01*
X163256510Y-79920445D01*
X163372622Y-79791489D01*
X163459386Y-79641211D01*
X163513008Y-79476176D01*
X163531147Y-79303600D01*
X163513008Y-79131024D01*
X163459386Y-78965989D01*
X163459385Y-78965988D01*
X163459385Y-78965986D01*
X163458732Y-78964519D01*
X163458716Y-78963928D01*
X163458374Y-78962874D01*
X163458686Y-78962772D01*
X163457481Y-78916700D01*
X163490410Y-78882003D01*
X163515829Y-78876600D01*
X165303079Y-78876600D01*
X165347273Y-78894906D01*
X165365579Y-78939100D01*
X165352664Y-78977147D01*
X165316743Y-79023960D01*
X165260873Y-79158842D01*
X165260870Y-79158852D01*
X165241815Y-79303598D01*
X165241815Y-79303601D01*
X165260870Y-79448347D01*
X165260873Y-79448357D01*
X165287761Y-79513271D01*
X165316745Y-79583243D01*
X165405626Y-79699074D01*
X165521457Y-79787955D01*
X165656346Y-79843828D01*
X165656350Y-79843828D01*
X165656352Y-79843829D01*
X165801098Y-79862885D01*
X165801100Y-79862885D01*
X165801102Y-79862885D01*
X165945847Y-79843829D01*
X165945847Y-79843828D01*
X165945854Y-79843828D01*
X166080743Y-79787955D01*
X166196574Y-79699074D01*
X166285455Y-79583243D01*
X166341328Y-79448354D01*
X166343744Y-79430000D01*
X166360385Y-79303601D01*
X166360385Y-79303598D01*
X166341329Y-79158852D01*
X166341328Y-79158850D01*
X166341328Y-79158846D01*
X166285455Y-79023958D01*
X166263390Y-78995202D01*
X166249536Y-78977147D01*
X166237156Y-78930942D01*
X166261074Y-78889515D01*
X166299121Y-78876600D01*
X167611634Y-78876600D01*
X167655828Y-78894906D01*
X167674134Y-78939100D01*
X167655828Y-78983294D01*
X167630228Y-78998769D01*
X167612540Y-79004281D01*
X167559500Y-79020809D01*
X167267104Y-79152407D01*
X167267094Y-79152411D01*
X166992702Y-79318286D01*
X166992687Y-79318297D01*
X166740276Y-79516049D01*
X166513549Y-79742776D01*
X166315797Y-79995187D01*
X166315786Y-79995202D01*
X166149911Y-80269594D01*
X166149907Y-80269604D01*
X166018309Y-80562000D01*
X165922913Y-80868136D01*
X165865116Y-81183524D01*
X165865114Y-81183535D01*
X165845755Y-81503600D01*
X165865114Y-81823664D01*
X165865116Y-81823675D01*
X165922913Y-82139063D01*
X166018309Y-82445199D01*
X166149907Y-82737595D01*
X166149911Y-82737605D01*
X166315786Y-83011997D01*
X166315797Y-83012012D01*
X166513549Y-83264423D01*
X166740276Y-83491150D01*
X166992687Y-83688902D01*
X166992702Y-83688913D01*
X167267094Y-83854788D01*
X167267097Y-83854789D01*
X167267100Y-83854791D01*
X167559502Y-83986391D01*
X167865634Y-84081786D01*
X168181034Y-84139585D01*
X168501100Y-84158945D01*
X168821166Y-84139585D01*
X169136566Y-84081786D01*
X169442698Y-83986391D01*
X169735100Y-83854791D01*
X169798008Y-83816762D01*
X170009497Y-83688913D01*
X170009499Y-83688911D01*
X170009508Y-83688906D01*
X170261919Y-83491154D01*
X170488654Y-83264419D01*
X170686406Y-83012008D01*
X170852291Y-82737600D01*
X170983891Y-82445198D01*
X171079286Y-82139066D01*
X171104123Y-82003531D01*
X171130096Y-81963361D01*
X171176866Y-81953321D01*
X171217036Y-81979293D01*
X171228100Y-82014797D01*
X171228100Y-100068100D01*
X171209794Y-100112294D01*
X171165600Y-100130600D01*
X166536600Y-100130600D01*
X166492406Y-100112294D01*
X166474100Y-100068100D01*
X166474100Y-97380600D01*
X163205586Y-97380600D01*
X163161392Y-97362294D01*
X163143621Y-97326258D01*
X163141329Y-97308852D01*
X163141328Y-97308850D01*
X163141328Y-97308846D01*
X163105387Y-97222077D01*
X163085457Y-97173962D01*
X163085456Y-97173961D01*
X163085455Y-97173958D01*
X162996574Y-97058126D01*
X162996572Y-97058125D01*
X162996572Y-97058124D01*
X162922929Y-97001616D01*
X162880743Y-96969245D01*
X162880739Y-96969243D01*
X162745857Y-96913373D01*
X162745847Y-96913370D01*
X162601102Y-96894315D01*
X162601097Y-96894315D01*
X162557334Y-96900076D01*
X162511129Y-96887695D01*
X162487212Y-96846268D01*
X162490739Y-96815948D01*
X162535139Y-96698875D01*
X162535141Y-96698864D01*
X162555645Y-96530003D01*
X162555645Y-96529996D01*
X162535141Y-96361135D01*
X162535140Y-96361129D01*
X162530919Y-96350000D01*
X162474818Y-96202070D01*
X162468719Y-96193234D01*
X162378188Y-96062077D01*
X162378181Y-96062069D01*
X162250851Y-95949265D01*
X162100226Y-95870210D01*
X161935059Y-95829500D01*
X161935056Y-95829500D01*
X161764944Y-95829500D01*
X161764940Y-95829500D01*
X161599773Y-95870210D01*
X161449148Y-95949265D01*
X161321818Y-96062069D01*
X161321811Y-96062077D01*
X161225182Y-96202068D01*
X161164859Y-96361129D01*
X161164858Y-96361135D01*
X161144355Y-96529996D01*
X161144355Y-96530003D01*
X161164858Y-96698864D01*
X161164859Y-96698870D01*
X161225182Y-96857931D01*
X161321811Y-96997922D01*
X161321818Y-96997930D01*
X161325979Y-97001616D01*
X161449148Y-97110734D01*
X161599775Y-97189790D01*
X161764944Y-97230500D01*
X161764946Y-97230500D01*
X161935054Y-97230500D01*
X161935056Y-97230500D01*
X161991327Y-97216630D01*
X162038616Y-97223827D01*
X162066967Y-97262356D01*
X162064027Y-97301229D01*
X162060872Y-97308846D01*
X162060870Y-97308852D01*
X162058579Y-97326258D01*
X162034662Y-97367685D01*
X161996614Y-97380600D01*
X151008086Y-97380600D01*
X150963892Y-97362294D01*
X150947313Y-97332690D01*
X150924347Y-97237033D01*
X150924346Y-97237027D01*
X150826836Y-97001616D01*
X150693700Y-96784357D01*
X150581375Y-96652841D01*
X150528216Y-96590599D01*
X150334455Y-96425113D01*
X150211882Y-96350001D01*
X152064318Y-96350001D01*
X152084954Y-96506755D01*
X152084957Y-96506765D01*
X152145462Y-96652838D01*
X152145464Y-96652841D01*
X152241717Y-96778282D01*
X152367158Y-96874535D01*
X152367161Y-96874537D01*
X152414910Y-96894315D01*
X152513238Y-96935044D01*
X152513242Y-96935044D01*
X152513244Y-96935045D01*
X152669998Y-96955682D01*
X152670000Y-96955682D01*
X152670002Y-96955682D01*
X152826755Y-96935045D01*
X152826755Y-96935044D01*
X152826762Y-96935044D01*
X152972841Y-96874536D01*
X153098282Y-96778282D01*
X153194536Y-96652841D01*
X153255044Y-96506762D01*
X153275682Y-96350000D01*
X153274613Y-96341882D01*
X153255045Y-96193244D01*
X153255044Y-96193242D01*
X153255044Y-96193238D01*
X153194536Y-96047159D01*
X153172139Y-96017970D01*
X153098282Y-95921717D01*
X152972841Y-95825464D01*
X152972838Y-95825462D01*
X152826765Y-95764957D01*
X152826755Y-95764954D01*
X152670002Y-95744318D01*
X152669998Y-95744318D01*
X152513244Y-95764954D01*
X152513234Y-95764957D01*
X152367161Y-95825462D01*
X152367158Y-95825464D01*
X152241717Y-95921717D01*
X152145464Y-96047158D01*
X152145462Y-96047161D01*
X152084957Y-96193234D01*
X152084954Y-96193244D01*
X152064318Y-96349998D01*
X152064318Y-96350001D01*
X150211882Y-96350001D01*
X150146978Y-96310228D01*
X150117200Y-96291980D01*
X149881789Y-96194470D01*
X149881783Y-96194468D01*
X149881782Y-96194468D01*
X149634019Y-96134985D01*
X149634015Y-96134984D01*
X149380004Y-96114994D01*
X149379996Y-96114994D01*
X149125984Y-96134984D01*
X149125980Y-96134985D01*
X148878217Y-96194468D01*
X148878213Y-96194469D01*
X148878211Y-96194470D01*
X148671172Y-96280228D01*
X148642798Y-96291981D01*
X148425544Y-96425113D01*
X148231783Y-96590599D01*
X148066297Y-96784360D01*
X147935423Y-96997929D01*
X147933164Y-97001616D01*
X147841847Y-97222077D01*
X147835652Y-97237033D01*
X147776169Y-97484796D01*
X147776168Y-97484800D01*
X147756178Y-97738811D01*
X147756178Y-97738820D01*
X147776168Y-97992831D01*
X147776169Y-97992835D01*
X147815806Y-98157935D01*
X147835654Y-98240605D01*
X147933164Y-98476016D01*
X147959811Y-98519500D01*
X148067583Y-98695369D01*
X148067014Y-98695717D01*
X148078100Y-98729823D01*
X148078100Y-100218100D01*
X148059794Y-100262294D01*
X148015600Y-100280600D01*
X144786600Y-100280600D01*
X144742406Y-100262294D01*
X144724100Y-100218100D01*
X144724100Y-98487236D01*
X144735164Y-98451731D01*
X144736626Y-98449614D01*
X144796948Y-98290556D01*
X144796949Y-98290548D01*
X144817453Y-98121687D01*
X144817453Y-98121680D01*
X144796949Y-97952819D01*
X144796948Y-97952813D01*
X144791314Y-97937955D01*
X144736626Y-97793754D01*
X144735162Y-97791634D01*
X144724100Y-97756131D01*
X144724100Y-94850003D01*
X160984353Y-94850003D01*
X161004856Y-95018864D01*
X161004857Y-95018870D01*
X161065180Y-95177931D01*
X161161809Y-95317922D01*
X161161814Y-95317928D01*
X161161815Y-95317929D01*
X161289146Y-95430734D01*
X161439773Y-95509790D01*
X161604942Y-95550500D01*
X161604944Y-95550500D01*
X161775052Y-95550500D01*
X161775054Y-95550500D01*
X161940223Y-95509790D01*
X162090850Y-95430734D01*
X162218181Y-95317929D01*
X162234328Y-95294537D01*
X162300768Y-95198282D01*
X162314816Y-95177930D01*
X162375138Y-95018872D01*
X162386322Y-94926765D01*
X162395643Y-94850003D01*
X162395643Y-94849996D01*
X162385930Y-94770001D01*
X164864318Y-94770001D01*
X164884954Y-94926755D01*
X164884957Y-94926765D01*
X164945462Y-95072838D01*
X164945464Y-95072841D01*
X165041717Y-95198282D01*
X165106879Y-95248282D01*
X165167159Y-95294536D01*
X165313238Y-95355044D01*
X165313242Y-95355044D01*
X165313244Y-95355045D01*
X165469998Y-95375682D01*
X165470000Y-95375682D01*
X165470002Y-95375682D01*
X165626755Y-95355045D01*
X165626755Y-95355044D01*
X165626762Y-95355044D01*
X165772841Y-95294536D01*
X165898282Y-95198282D01*
X165994536Y-95072841D01*
X166055044Y-94926762D01*
X166059658Y-94891718D01*
X166069100Y-94820001D01*
X166284318Y-94820001D01*
X166304954Y-94976755D01*
X166304957Y-94976765D01*
X166365462Y-95122838D01*
X166365464Y-95122841D01*
X166461717Y-95248282D01*
X166587158Y-95344535D01*
X166587161Y-95344537D01*
X166612530Y-95355045D01*
X166733238Y-95405044D01*
X166733242Y-95405044D01*
X166733244Y-95405045D01*
X166889998Y-95425682D01*
X166890000Y-95425682D01*
X166890002Y-95425682D01*
X167046755Y-95405045D01*
X167046755Y-95405044D01*
X167046762Y-95405044D01*
X167192841Y-95344536D01*
X167318282Y-95248282D01*
X167414536Y-95122841D01*
X167475044Y-94976762D01*
X167491732Y-94850003D01*
X167495682Y-94820001D01*
X167495682Y-94819998D01*
X167475045Y-94663244D01*
X167475044Y-94663242D01*
X167475044Y-94663238D01*
X167416570Y-94522070D01*
X167414537Y-94517161D01*
X167414535Y-94517158D01*
X167318282Y-94391717D01*
X167192841Y-94295464D01*
X167192838Y-94295462D01*
X167046765Y-94234957D01*
X167046755Y-94234954D01*
X166890002Y-94214318D01*
X166889998Y-94214318D01*
X166733244Y-94234954D01*
X166733234Y-94234957D01*
X166587161Y-94295462D01*
X166587158Y-94295464D01*
X166461717Y-94391717D01*
X166365464Y-94517158D01*
X166365462Y-94517161D01*
X166304957Y-94663234D01*
X166304954Y-94663244D01*
X166284318Y-94819998D01*
X166284318Y-94820001D01*
X166069100Y-94820001D01*
X166075682Y-94770001D01*
X166075682Y-94769998D01*
X166055045Y-94613244D01*
X166055044Y-94613242D01*
X166055044Y-94613238D01*
X165994536Y-94467159D01*
X165960868Y-94423282D01*
X165898282Y-94341717D01*
X165772841Y-94245464D01*
X165772838Y-94245462D01*
X165626765Y-94184957D01*
X165626755Y-94184954D01*
X165470002Y-94164318D01*
X165469998Y-94164318D01*
X165313244Y-94184954D01*
X165313234Y-94184957D01*
X165167161Y-94245462D01*
X165167158Y-94245464D01*
X165041717Y-94341717D01*
X164945464Y-94467158D01*
X164945462Y-94467161D01*
X164884957Y-94613234D01*
X164884954Y-94613244D01*
X164864318Y-94769998D01*
X164864318Y-94770001D01*
X162385930Y-94770001D01*
X162375139Y-94681135D01*
X162375138Y-94681129D01*
X162368355Y-94663244D01*
X162314816Y-94522070D01*
X162313067Y-94519536D01*
X162218186Y-94382077D01*
X162218179Y-94382069D01*
X162090849Y-94269265D01*
X161940224Y-94190210D01*
X161775057Y-94149500D01*
X161775054Y-94149500D01*
X161604942Y-94149500D01*
X161604938Y-94149500D01*
X161439771Y-94190210D01*
X161289146Y-94269265D01*
X161161816Y-94382069D01*
X161161809Y-94382077D01*
X161065180Y-94522068D01*
X161004857Y-94681129D01*
X161004856Y-94681135D01*
X160984353Y-94849996D01*
X160984353Y-94850003D01*
X144724100Y-94850003D01*
X144724100Y-93579999D01*
X146874318Y-93579999D01*
X146894954Y-93736753D01*
X146894957Y-93736763D01*
X146955462Y-93882836D01*
X146955464Y-93882839D01*
X147051717Y-94008280D01*
X147123341Y-94063238D01*
X147177159Y-94104534D01*
X147323238Y-94165042D01*
X147323242Y-94165042D01*
X147323244Y-94165043D01*
X147479998Y-94185680D01*
X147480000Y-94185680D01*
X147480002Y-94185680D01*
X147636755Y-94165043D01*
X147636755Y-94165042D01*
X147636762Y-94165042D01*
X147782841Y-94104534D01*
X147908282Y-94008280D01*
X148004536Y-93882839D01*
X148059329Y-93750556D01*
X148093152Y-93716734D01*
X148140987Y-93716733D01*
X148174812Y-93750558D01*
X148225462Y-93872838D01*
X148225464Y-93872841D01*
X148321717Y-93998282D01*
X148417971Y-94072139D01*
X148441418Y-94090131D01*
X148447158Y-94094535D01*
X148447161Y-94094537D01*
X148495851Y-94114705D01*
X148593238Y-94155044D01*
X148593242Y-94155044D01*
X148593244Y-94155045D01*
X148749998Y-94175682D01*
X148750000Y-94175682D01*
X148750002Y-94175682D01*
X148906755Y-94155045D01*
X148906755Y-94155044D01*
X148906762Y-94155044D01*
X149052841Y-94094536D01*
X149178282Y-93998282D01*
X149274536Y-93872841D01*
X149303725Y-93802371D01*
X149337549Y-93768548D01*
X149385384Y-93768547D01*
X149419209Y-93802372D01*
X149423432Y-93818132D01*
X149434954Y-93905655D01*
X149434957Y-93905665D01*
X149495462Y-94051738D01*
X149495464Y-94051741D01*
X149591717Y-94177182D01*
X149649396Y-94221440D01*
X149717159Y-94273436D01*
X149863238Y-94333944D01*
X149863242Y-94333944D01*
X149863244Y-94333945D01*
X150019998Y-94354582D01*
X150020000Y-94354582D01*
X150020002Y-94354582D01*
X150176755Y-94333945D01*
X150176755Y-94333944D01*
X150176762Y-94333944D01*
X150322841Y-94273436D01*
X150448282Y-94177182D01*
X150544536Y-94051741D01*
X150605044Y-93905662D01*
X150613920Y-93838244D01*
X150616458Y-93818965D01*
X150640375Y-93777539D01*
X150686581Y-93765158D01*
X150728007Y-93789075D01*
X150736165Y-93803205D01*
X150783961Y-93918596D01*
X150783963Y-93918599D01*
X150880216Y-94044040D01*
X151005657Y-94140293D01*
X151005660Y-94140295D01*
X151041270Y-94155045D01*
X151151737Y-94200802D01*
X151151741Y-94200802D01*
X151151743Y-94200803D01*
X151308497Y-94221440D01*
X151308499Y-94221440D01*
X151308501Y-94221440D01*
X151465254Y-94200803D01*
X151465254Y-94200802D01*
X151465261Y-94200802D01*
X151611340Y-94140294D01*
X151736781Y-94044040D01*
X151830992Y-93921262D01*
X162325031Y-93921262D01*
X162345534Y-94090123D01*
X162345535Y-94090129D01*
X162405858Y-94249190D01*
X162502487Y-94389181D01*
X162502494Y-94389189D01*
X162540977Y-94423282D01*
X162629824Y-94501993D01*
X162780451Y-94581049D01*
X162945620Y-94621759D01*
X162945622Y-94621759D01*
X163115730Y-94621759D01*
X163115732Y-94621759D01*
X163280901Y-94581049D01*
X163431528Y-94501993D01*
X163512577Y-94430189D01*
X163557794Y-94414586D01*
X163592066Y-94427386D01*
X163712159Y-94519536D01*
X163858238Y-94580044D01*
X163858242Y-94580044D01*
X163858244Y-94580045D01*
X164014998Y-94600682D01*
X164015000Y-94600682D01*
X164015002Y-94600682D01*
X164171755Y-94580045D01*
X164171755Y-94580044D01*
X164171762Y-94580044D01*
X164317841Y-94519536D01*
X164443282Y-94423282D01*
X164539536Y-94297841D01*
X164600044Y-94151762D01*
X164620682Y-93995000D01*
X164610973Y-93921255D01*
X164600045Y-93838244D01*
X164600044Y-93838242D01*
X164600044Y-93838238D01*
X164539536Y-93692159D01*
X164512710Y-93657199D01*
X164443282Y-93566717D01*
X164317841Y-93470464D01*
X164317838Y-93470462D01*
X164171765Y-93409957D01*
X164171755Y-93409954D01*
X164015002Y-93389318D01*
X164014998Y-93389318D01*
X163858244Y-93409954D01*
X163858234Y-93409957D01*
X163712162Y-93470462D01*
X163712157Y-93470464D01*
X163671815Y-93501419D01*
X163625609Y-93513798D01*
X163584183Y-93489879D01*
X163582332Y-93487337D01*
X163558859Y-93453330D01*
X163545688Y-93441662D01*
X163524747Y-93398655D01*
X163540350Y-93353436D01*
X163549078Y-93345302D01*
X163637474Y-93277474D01*
X163733728Y-93152033D01*
X163794236Y-93005954D01*
X163795684Y-92994954D01*
X163814874Y-92849193D01*
X163814874Y-92849190D01*
X163794237Y-92692436D01*
X163794236Y-92692434D01*
X163794236Y-92692430D01*
X163733728Y-92546351D01*
X163691806Y-92491717D01*
X163637474Y-92420909D01*
X163512033Y-92324656D01*
X163512030Y-92324654D01*
X163365957Y-92264149D01*
X163365947Y-92264146D01*
X163209194Y-92243510D01*
X163209190Y-92243510D01*
X163052436Y-92264146D01*
X163052426Y-92264149D01*
X162906353Y-92324654D01*
X162906350Y-92324656D01*
X162780909Y-92420909D01*
X162684656Y-92546350D01*
X162684654Y-92546353D01*
X162624149Y-92692426D01*
X162624146Y-92692436D01*
X162603510Y-92849190D01*
X162603510Y-92849193D01*
X162624146Y-93005947D01*
X162624149Y-93005957D01*
X162684654Y-93152030D01*
X162684656Y-93152033D01*
X162726834Y-93207001D01*
X162739214Y-93253206D01*
X162715296Y-93294633D01*
X162706295Y-93300389D01*
X162629823Y-93340525D01*
X162502494Y-93453328D01*
X162502487Y-93453336D01*
X162405858Y-93593327D01*
X162345535Y-93752388D01*
X162345534Y-93752394D01*
X162325031Y-93921255D01*
X162325031Y-93921262D01*
X151830992Y-93921262D01*
X151833035Y-93918599D01*
X151893543Y-93772520D01*
X151896653Y-93748900D01*
X151914181Y-93615759D01*
X151914181Y-93615756D01*
X151893544Y-93459002D01*
X151893543Y-93459000D01*
X151893543Y-93458996D01*
X151836225Y-93320618D01*
X151833036Y-93312919D01*
X151833034Y-93312916D01*
X151736781Y-93187475D01*
X151611340Y-93091222D01*
X151611337Y-93091220D01*
X151465264Y-93030715D01*
X151465254Y-93030712D01*
X151308501Y-93010076D01*
X151308497Y-93010076D01*
X151151743Y-93030712D01*
X151151733Y-93030715D01*
X151005660Y-93091220D01*
X151005657Y-93091222D01*
X150880216Y-93187475D01*
X150783963Y-93312916D01*
X150783961Y-93312919D01*
X150723456Y-93458992D01*
X150723453Y-93459003D01*
X150712040Y-93545692D01*
X150688122Y-93587119D01*
X150641917Y-93599499D01*
X150600490Y-93575581D01*
X150592335Y-93561457D01*
X150544536Y-93446059D01*
X150489035Y-93373728D01*
X150448282Y-93320617D01*
X150322841Y-93224364D01*
X150322838Y-93224362D01*
X150176765Y-93163857D01*
X150176755Y-93163854D01*
X150020002Y-93143218D01*
X150019998Y-93143218D01*
X149863244Y-93163854D01*
X149863234Y-93163857D01*
X149717161Y-93224362D01*
X149717158Y-93224364D01*
X149591717Y-93320617D01*
X149495464Y-93446058D01*
X149495462Y-93446062D01*
X149466274Y-93516527D01*
X149432449Y-93550352D01*
X149384614Y-93550351D01*
X149350789Y-93516526D01*
X149346567Y-93500766D01*
X149335045Y-93413245D01*
X149335044Y-93413244D01*
X149335044Y-93413238D01*
X149278677Y-93277156D01*
X149274537Y-93267161D01*
X149274535Y-93267158D01*
X149263829Y-93253206D01*
X149241697Y-93224362D01*
X149178282Y-93141717D01*
X149052841Y-93045464D01*
X149052838Y-93045462D01*
X148906765Y-92984957D01*
X148906755Y-92984954D01*
X148750002Y-92964318D01*
X148749998Y-92964318D01*
X148593244Y-92984954D01*
X148593234Y-92984957D01*
X148447161Y-93045462D01*
X148447158Y-93045464D01*
X148321717Y-93141717D01*
X148225464Y-93267158D01*
X148225462Y-93267161D01*
X148170671Y-93399439D01*
X148136847Y-93433264D01*
X148089011Y-93433263D01*
X148055187Y-93399440D01*
X148004536Y-93277157D01*
X147930029Y-93180057D01*
X147908282Y-93151715D01*
X147782841Y-93055462D01*
X147782838Y-93055460D01*
X147636765Y-92994955D01*
X147636755Y-92994952D01*
X147480002Y-92974316D01*
X147479998Y-92974316D01*
X147323244Y-92994952D01*
X147323234Y-92994955D01*
X147177161Y-93055460D01*
X147177158Y-93055462D01*
X147051717Y-93151715D01*
X146955464Y-93277156D01*
X146955462Y-93277159D01*
X146894957Y-93423232D01*
X146894954Y-93423242D01*
X146874318Y-93579996D01*
X146874318Y-93579999D01*
X144724100Y-93579999D01*
X144724100Y-92180000D01*
X149449953Y-92180000D01*
X149468092Y-92352578D01*
X149521711Y-92517605D01*
X149521713Y-92517609D01*
X149521714Y-92517611D01*
X149603890Y-92659942D01*
X149608477Y-92667887D01*
X149608476Y-92667887D01*
X149724589Y-92796844D01*
X149724589Y-92796845D01*
X149864971Y-92898839D01*
X149864973Y-92898840D01*
X149864976Y-92898842D01*
X149912498Y-92920000D01*
X150023489Y-92969417D01*
X150023492Y-92969418D01*
X150023501Y-92969422D01*
X150193236Y-93005500D01*
X150366764Y-93005500D01*
X150536499Y-92969422D01*
X150695024Y-92898842D01*
X150835410Y-92796845D01*
X150951522Y-92667889D01*
X151038286Y-92517611D01*
X151051347Y-92477412D01*
X154551834Y-92477412D01*
X154572470Y-92634166D01*
X154572473Y-92634176D01*
X154632978Y-92780249D01*
X154632980Y-92780252D01*
X154729233Y-92905693D01*
X154854674Y-93001946D01*
X154854677Y-93001948D01*
X154864356Y-93005957D01*
X155000754Y-93062455D01*
X155000758Y-93062455D01*
X155000760Y-93062456D01*
X155157514Y-93083093D01*
X155157516Y-93083093D01*
X155157518Y-93083093D01*
X155314271Y-93062456D01*
X155314271Y-93062455D01*
X155314278Y-93062455D01*
X155460357Y-93001947D01*
X155585798Y-92905693D01*
X155682052Y-92780252D01*
X155742560Y-92634173D01*
X155757906Y-92517611D01*
X155763198Y-92477412D01*
X155763198Y-92477409D01*
X155742561Y-92320655D01*
X155742560Y-92320653D01*
X155742560Y-92320649D01*
X155682052Y-92174570D01*
X155670873Y-92160001D01*
X157194318Y-92160001D01*
X157214954Y-92316755D01*
X157214957Y-92316765D01*
X157275462Y-92462838D01*
X157275464Y-92462841D01*
X157371717Y-92588282D01*
X157497158Y-92684535D01*
X157497161Y-92684537D01*
X157545851Y-92704705D01*
X157643238Y-92745044D01*
X157643242Y-92745044D01*
X157643244Y-92745045D01*
X157799998Y-92765682D01*
X157800000Y-92765682D01*
X157800002Y-92765682D01*
X157956755Y-92745045D01*
X157956755Y-92745044D01*
X157956762Y-92745044D01*
X158102841Y-92684536D01*
X158228282Y-92588282D01*
X158324536Y-92462841D01*
X158385044Y-92316762D01*
X158386587Y-92305044D01*
X158405682Y-92160001D01*
X158405682Y-92159998D01*
X158385045Y-92003244D01*
X158385044Y-92003242D01*
X158385044Y-92003238D01*
X158324536Y-91857159D01*
X158295004Y-91818672D01*
X158228282Y-91731717D01*
X158102841Y-91635464D01*
X158102838Y-91635462D01*
X157956765Y-91574957D01*
X157956755Y-91574954D01*
X157800002Y-91554318D01*
X157799998Y-91554318D01*
X157643244Y-91574954D01*
X157643234Y-91574957D01*
X157497161Y-91635462D01*
X157497158Y-91635464D01*
X157371717Y-91731717D01*
X157275464Y-91857158D01*
X157275462Y-91857161D01*
X157214957Y-92003234D01*
X157214954Y-92003244D01*
X157194318Y-92159998D01*
X157194318Y-92160001D01*
X155670873Y-92160001D01*
X155604930Y-92074062D01*
X155585798Y-92049128D01*
X155460357Y-91952875D01*
X155460354Y-91952873D01*
X155314281Y-91892368D01*
X155314271Y-91892365D01*
X155157518Y-91871729D01*
X155157514Y-91871729D01*
X155000760Y-91892365D01*
X155000750Y-91892368D01*
X154854677Y-91952873D01*
X154854674Y-91952875D01*
X154729233Y-92049128D01*
X154632980Y-92174569D01*
X154632978Y-92174572D01*
X154572473Y-92320645D01*
X154572470Y-92320655D01*
X154551834Y-92477409D01*
X154551834Y-92477412D01*
X151051347Y-92477412D01*
X151091908Y-92352576D01*
X151110047Y-92180000D01*
X151091908Y-92007424D01*
X151083016Y-91980057D01*
X151038288Y-91842394D01*
X151038287Y-91842392D01*
X151038286Y-91842389D01*
X150951522Y-91692111D01*
X150935688Y-91674526D01*
X150835410Y-91563155D01*
X150835410Y-91563154D01*
X150695028Y-91461160D01*
X150695022Y-91461157D01*
X150536510Y-91390582D01*
X150536493Y-91390576D01*
X150366764Y-91354500D01*
X150193236Y-91354500D01*
X150023506Y-91390576D01*
X150023489Y-91390582D01*
X149864978Y-91461157D01*
X149724586Y-91563157D01*
X149608477Y-91692112D01*
X149521711Y-91842394D01*
X149468092Y-92007421D01*
X149449953Y-92180000D01*
X144724100Y-92180000D01*
X144724100Y-92130600D01*
X139681785Y-92130600D01*
X139637591Y-92112294D01*
X139621654Y-92073820D01*
X139619820Y-92074062D01*
X139600229Y-91925252D01*
X139600228Y-91925250D01*
X139600228Y-91925246D01*
X139556083Y-91818672D01*
X139544357Y-91790362D01*
X139544356Y-91790361D01*
X139544355Y-91790358D01*
X139455474Y-91674526D01*
X139455472Y-91674525D01*
X139455472Y-91674524D01*
X139404565Y-91635462D01*
X139339643Y-91585645D01*
X139339639Y-91585643D01*
X139204757Y-91529773D01*
X139204747Y-91529770D01*
X139060002Y-91510715D01*
X139059998Y-91510715D01*
X138915252Y-91529770D01*
X138915242Y-91529773D01*
X138780360Y-91585643D01*
X138664527Y-91674524D01*
X138590643Y-91770812D01*
X138549216Y-91794729D01*
X138503010Y-91782349D01*
X138491477Y-91770816D01*
X138409074Y-91663426D01*
X138409072Y-91663425D01*
X138409072Y-91663424D01*
X138373949Y-91636473D01*
X138293243Y-91574545D01*
X138293239Y-91574543D01*
X138158357Y-91518673D01*
X138158347Y-91518670D01*
X138013602Y-91499615D01*
X138013598Y-91499615D01*
X137868852Y-91518670D01*
X137868842Y-91518673D01*
X137733960Y-91574543D01*
X137618125Y-91663426D01*
X137531000Y-91776969D01*
X137489574Y-91800886D01*
X137473259Y-91800886D01*
X137463603Y-91799615D01*
X137463597Y-91799615D01*
X137318852Y-91818670D01*
X137318842Y-91818673D01*
X137183960Y-91874543D01*
X137068125Y-91963425D01*
X136979244Y-92079258D01*
X136973960Y-92092017D01*
X136940135Y-92125842D01*
X136916217Y-92130600D01*
X135153706Y-92130600D01*
X134526380Y-92757923D01*
X134482186Y-92776229D01*
X134437992Y-92757923D01*
X134424444Y-92737647D01*
X134374537Y-92617161D01*
X134374535Y-92617158D01*
X134371826Y-92613628D01*
X134320205Y-92546353D01*
X134278282Y-92491717D01*
X134152842Y-92395465D01*
X134152841Y-92395464D01*
X134110055Y-92377741D01*
X134076233Y-92343918D01*
X134076232Y-92296082D01*
X134110057Y-92262258D01*
X134110057Y-92262257D01*
X134152841Y-92244536D01*
X134278282Y-92148282D01*
X134374536Y-92022841D01*
X134435044Y-91876762D01*
X134454139Y-91731718D01*
X134455682Y-91720001D01*
X134455682Y-91719998D01*
X134435045Y-91563244D01*
X134435044Y-91563242D01*
X134435044Y-91563238D01*
X134374536Y-91417159D01*
X134352139Y-91387971D01*
X134278282Y-91291717D01*
X134152841Y-91195464D01*
X134152838Y-91195462D01*
X134006765Y-91134957D01*
X134006755Y-91134954D01*
X133850002Y-91114318D01*
X133849998Y-91114318D01*
X133693244Y-91134954D01*
X133693234Y-91134957D01*
X133547161Y-91195462D01*
X133547158Y-91195464D01*
X133421717Y-91291717D01*
X133325464Y-91417158D01*
X133325462Y-91417161D01*
X133307742Y-91459942D01*
X133273917Y-91493767D01*
X133226082Y-91493766D01*
X133192258Y-91459942D01*
X133174537Y-91417161D01*
X133174535Y-91417158D01*
X133078282Y-91291717D01*
X132952841Y-91195464D01*
X132952838Y-91195462D01*
X132806765Y-91134957D01*
X132806755Y-91134954D01*
X132650002Y-91114318D01*
X132649998Y-91114318D01*
X132493244Y-91134954D01*
X132493234Y-91134957D01*
X132347161Y-91195462D01*
X132347158Y-91195464D01*
X132221717Y-91291717D01*
X132125464Y-91417158D01*
X132125462Y-91417161D01*
X132064957Y-91563234D01*
X132064954Y-91563244D01*
X132044318Y-91719998D01*
X132044318Y-91720001D01*
X132064954Y-91876755D01*
X132064957Y-91876765D01*
X132125462Y-92022838D01*
X132125464Y-92022841D01*
X132221717Y-92148282D01*
X132307554Y-92214146D01*
X132347156Y-92244534D01*
X132347158Y-92244535D01*
X132347161Y-92244537D01*
X132389942Y-92262258D01*
X132423767Y-92296083D01*
X132423766Y-92343918D01*
X132389942Y-92377742D01*
X132347161Y-92395462D01*
X132347158Y-92395464D01*
X132221717Y-92491717D01*
X132125464Y-92617158D01*
X132125462Y-92617161D01*
X132064957Y-92763234D01*
X132064954Y-92763244D01*
X132044318Y-92919998D01*
X132044318Y-92920001D01*
X132064954Y-93076755D01*
X132064957Y-93076765D01*
X132125462Y-93222838D01*
X132125464Y-93222841D01*
X132221717Y-93348282D01*
X132347158Y-93444535D01*
X132347161Y-93444537D01*
X132368392Y-93453331D01*
X132493238Y-93505044D01*
X132515952Y-93508034D01*
X132557377Y-93531950D01*
X132569760Y-93578155D01*
X132545843Y-93619582D01*
X132515954Y-93631964D01*
X132493244Y-93634954D01*
X132493234Y-93634957D01*
X132347161Y-93695462D01*
X132347158Y-93695464D01*
X132230061Y-93785316D01*
X132183856Y-93797696D01*
X132147820Y-93779925D01*
X130298494Y-91930600D01*
X125936600Y-91930600D01*
X125892406Y-91912294D01*
X125874100Y-91868100D01*
X125874100Y-90984660D01*
X127644318Y-90984660D01*
X127664954Y-91141414D01*
X127664957Y-91141424D01*
X127725462Y-91287497D01*
X127725464Y-91287500D01*
X127821717Y-91412941D01*
X127884558Y-91461160D01*
X127927051Y-91493766D01*
X127947158Y-91509194D01*
X127947161Y-91509196D01*
X127970038Y-91518672D01*
X128093238Y-91569703D01*
X128093242Y-91569703D01*
X128093244Y-91569704D01*
X128249998Y-91590341D01*
X128250000Y-91590341D01*
X128250002Y-91590341D01*
X128406755Y-91569704D01*
X128406755Y-91569703D01*
X128406762Y-91569703D01*
X128552841Y-91509195D01*
X128678282Y-91412941D01*
X128774536Y-91287500D01*
X128835044Y-91141421D01*
X128855682Y-90984659D01*
X128853724Y-90969790D01*
X128835045Y-90827903D01*
X128835044Y-90827901D01*
X128835044Y-90827897D01*
X128774536Y-90681818D01*
X128740861Y-90637932D01*
X128678282Y-90556376D01*
X128565714Y-90470001D01*
X141344318Y-90470001D01*
X141364954Y-90626755D01*
X141364957Y-90626765D01*
X141425462Y-90772838D01*
X141425464Y-90772841D01*
X141521717Y-90898282D01*
X141599414Y-90957900D01*
X141647159Y-90994536D01*
X141793238Y-91055044D01*
X141793242Y-91055044D01*
X141793244Y-91055045D01*
X141949998Y-91075682D01*
X141950000Y-91075682D01*
X141950002Y-91075682D01*
X142106755Y-91055045D01*
X142106755Y-91055044D01*
X142106762Y-91055044D01*
X142252841Y-90994536D01*
X142378282Y-90898282D01*
X142474536Y-90772841D01*
X142520167Y-90662676D01*
X142553991Y-90628853D01*
X142586064Y-90624630D01*
X142659874Y-90634348D01*
X142669997Y-90635681D01*
X142669998Y-90635681D01*
X142670000Y-90635681D01*
X142721861Y-90628853D01*
X142761114Y-90623685D01*
X142807319Y-90636065D01*
X142827014Y-90661732D01*
X142885462Y-90802838D01*
X142885464Y-90802841D01*
X142981717Y-90928282D01*
X143055190Y-90984659D01*
X143107159Y-91024536D01*
X143253238Y-91085044D01*
X143253242Y-91085044D01*
X143253244Y-91085045D01*
X143409998Y-91105682D01*
X143410000Y-91105682D01*
X143410002Y-91105682D01*
X143566755Y-91085045D01*
X143566755Y-91085044D01*
X143566762Y-91085044D01*
X143712841Y-91024536D01*
X143838282Y-90928282D01*
X143934536Y-90802841D01*
X143995044Y-90656762D01*
X143998994Y-90626762D01*
X144015682Y-90500001D01*
X144015682Y-90499998D01*
X144006556Y-90430677D01*
X152348936Y-90430677D01*
X152369572Y-90587431D01*
X152369575Y-90587441D01*
X152430080Y-90733514D01*
X152430082Y-90733517D01*
X152526335Y-90858958D01*
X152651776Y-90955211D01*
X152651779Y-90955213D01*
X152686969Y-90969789D01*
X152797856Y-91015720D01*
X152797860Y-91015720D01*
X152797862Y-91015721D01*
X152954616Y-91036358D01*
X152954618Y-91036358D01*
X152954620Y-91036358D01*
X153111373Y-91015721D01*
X153111373Y-91015720D01*
X153111380Y-91015720D01*
X153257459Y-90955212D01*
X153382900Y-90858958D01*
X153394580Y-90843734D01*
X153436005Y-90819817D01*
X153482211Y-90832196D01*
X153493750Y-90843735D01*
X153507490Y-90861642D01*
X153507492Y-90861643D01*
X153507494Y-90861646D01*
X153632935Y-90957900D01*
X153779014Y-91018408D01*
X153779018Y-91018408D01*
X153779020Y-91018409D01*
X153935774Y-91039046D01*
X153935776Y-91039046D01*
X153935778Y-91039046D01*
X154092531Y-91018409D01*
X154092531Y-91018408D01*
X154092538Y-91018408D01*
X154238617Y-90957900D01*
X154364058Y-90861646D01*
X154460312Y-90736205D01*
X154520820Y-90590126D01*
X154521157Y-90587564D01*
X154541458Y-90433365D01*
X154541458Y-90433362D01*
X154525218Y-90310003D01*
X157814355Y-90310003D01*
X157834858Y-90478864D01*
X157834859Y-90478870D01*
X157895182Y-90637931D01*
X157991811Y-90777922D01*
X157991818Y-90777930D01*
X158019937Y-90802841D01*
X158119148Y-90890734D01*
X158269775Y-90969790D01*
X158434944Y-91010500D01*
X158434946Y-91010500D01*
X158605054Y-91010500D01*
X158605056Y-91010500D01*
X158770225Y-90969790D01*
X158920852Y-90890734D01*
X159048183Y-90777929D01*
X159144818Y-90637930D01*
X159158859Y-90600905D01*
X159191647Y-90566074D01*
X159239460Y-90564629D01*
X159268734Y-90587564D01*
X159351811Y-90707922D01*
X159351818Y-90707930D01*
X159458951Y-90802841D01*
X159479148Y-90820734D01*
X159629775Y-90899790D01*
X159794944Y-90940500D01*
X159794946Y-90940500D01*
X159965054Y-90940500D01*
X159965056Y-90940500D01*
X160130225Y-90899790D01*
X160280852Y-90820734D01*
X160358017Y-90752372D01*
X162246527Y-90752372D01*
X162267163Y-90909126D01*
X162267166Y-90909136D01*
X162327671Y-91055209D01*
X162327673Y-91055212D01*
X162423926Y-91180653D01*
X162520180Y-91254510D01*
X162549368Y-91276907D01*
X162695447Y-91337415D01*
X162695451Y-91337415D01*
X162695453Y-91337416D01*
X162852207Y-91358053D01*
X162852209Y-91358053D01*
X162852211Y-91358053D01*
X163008964Y-91337416D01*
X163008964Y-91337415D01*
X163008971Y-91337415D01*
X163155050Y-91276907D01*
X163280491Y-91180653D01*
X163376745Y-91055212D01*
X163437253Y-90909133D01*
X163455196Y-90772841D01*
X163457891Y-90752372D01*
X163457891Y-90752369D01*
X163437254Y-90595615D01*
X163437253Y-90595613D01*
X163437253Y-90595609D01*
X163376745Y-90449530D01*
X163338444Y-90399615D01*
X163280491Y-90324088D01*
X163155050Y-90227835D01*
X163155047Y-90227833D01*
X163008974Y-90167328D01*
X163008964Y-90167325D01*
X162852211Y-90146689D01*
X162852207Y-90146689D01*
X162695453Y-90167325D01*
X162695443Y-90167328D01*
X162549370Y-90227833D01*
X162549367Y-90227835D01*
X162423926Y-90324088D01*
X162327673Y-90449529D01*
X162327671Y-90449532D01*
X162267166Y-90595605D01*
X162267163Y-90595615D01*
X162246527Y-90752369D01*
X162246527Y-90752372D01*
X160358017Y-90752372D01*
X160408183Y-90707929D01*
X160504818Y-90567930D01*
X160565140Y-90408872D01*
X160573109Y-90343244D01*
X160585645Y-90240003D01*
X160585645Y-90239996D01*
X160565141Y-90071135D01*
X160565140Y-90071129D01*
X160564131Y-90068469D01*
X160504818Y-89912070D01*
X160504817Y-89912068D01*
X160408188Y-89772077D01*
X160408181Y-89772069D01*
X160280851Y-89659265D01*
X160130226Y-89580210D01*
X159965059Y-89539500D01*
X159965056Y-89539500D01*
X159794944Y-89539500D01*
X159794940Y-89539500D01*
X159629773Y-89580210D01*
X159479148Y-89659265D01*
X159351818Y-89772069D01*
X159351811Y-89772077D01*
X159255181Y-89912069D01*
X159241139Y-89949095D01*
X159208351Y-89983925D01*
X159160537Y-89985369D01*
X159131265Y-89962436D01*
X159048183Y-89842071D01*
X158929305Y-89736755D01*
X158920851Y-89729265D01*
X158770226Y-89650210D01*
X158605059Y-89609500D01*
X158605056Y-89609500D01*
X158434944Y-89609500D01*
X158434940Y-89609500D01*
X158269773Y-89650210D01*
X158119148Y-89729265D01*
X157991818Y-89842069D01*
X157991811Y-89842077D01*
X157895182Y-89982068D01*
X157834859Y-90141129D01*
X157834858Y-90141135D01*
X157814355Y-90309996D01*
X157814355Y-90310003D01*
X154525218Y-90310003D01*
X154520821Y-90276608D01*
X154520820Y-90276606D01*
X154520820Y-90276602D01*
X154460312Y-90130523D01*
X154416209Y-90073047D01*
X154364058Y-90005081D01*
X154238617Y-89908828D01*
X154238614Y-89908826D01*
X154092541Y-89848321D01*
X154092531Y-89848318D01*
X153935778Y-89827682D01*
X153935774Y-89827682D01*
X153779020Y-89848318D01*
X153779010Y-89848321D01*
X153632938Y-89908826D01*
X153632935Y-89908827D01*
X153632935Y-89908828D01*
X153507494Y-90005082D01*
X153507492Y-90005083D01*
X153507491Y-90005085D01*
X153495810Y-90020307D01*
X153454382Y-90044223D01*
X153408177Y-90031840D01*
X153396645Y-90020307D01*
X153382900Y-90002394D01*
X153382898Y-90002393D01*
X153382898Y-90002392D01*
X153257459Y-89906140D01*
X153257456Y-89906138D01*
X153111383Y-89845633D01*
X153111373Y-89845630D01*
X152954620Y-89824994D01*
X152954616Y-89824994D01*
X152797862Y-89845630D01*
X152797852Y-89845633D01*
X152651779Y-89906138D01*
X152651776Y-89906140D01*
X152526335Y-90002393D01*
X152430082Y-90127834D01*
X152430080Y-90127837D01*
X152369575Y-90273910D01*
X152369572Y-90273920D01*
X152348936Y-90430674D01*
X152348936Y-90430677D01*
X144006556Y-90430677D01*
X143995045Y-90343244D01*
X143995044Y-90343242D01*
X143995044Y-90343238D01*
X143934536Y-90197159D01*
X143838282Y-90071718D01*
X143838279Y-90071715D01*
X143838277Y-90071713D01*
X143838180Y-90071616D01*
X143838153Y-90071551D01*
X143835788Y-90068469D01*
X143836613Y-90067835D01*
X143819874Y-90027422D01*
X143832789Y-89989375D01*
X143914536Y-89882841D01*
X143975044Y-89736762D01*
X143976031Y-89729265D01*
X143995682Y-89580001D01*
X143995682Y-89579998D01*
X143975045Y-89423244D01*
X143975044Y-89423242D01*
X143975044Y-89423238D01*
X143922820Y-89297158D01*
X143914537Y-89277161D01*
X143914535Y-89277158D01*
X143818282Y-89151717D01*
X143692841Y-89055464D01*
X143692838Y-89055462D01*
X143546765Y-88994957D01*
X143546755Y-88994954D01*
X143390002Y-88974318D01*
X143389998Y-88974318D01*
X143233244Y-88994954D01*
X143233234Y-88994957D01*
X143087161Y-89055462D01*
X143087158Y-89055464D01*
X142961717Y-89151717D01*
X142865464Y-89277158D01*
X142865462Y-89277161D01*
X142815905Y-89396802D01*
X142782080Y-89430627D01*
X142750006Y-89434849D01*
X142670001Y-89424317D01*
X142669995Y-89424317D01*
X142582137Y-89435883D01*
X142535932Y-89423502D01*
X142516238Y-89397837D01*
X142474536Y-89297159D01*
X142410682Y-89213942D01*
X142378282Y-89171717D01*
X142252841Y-89075464D01*
X142252838Y-89075462D01*
X142106765Y-89014957D01*
X142106755Y-89014954D01*
X141950002Y-88994318D01*
X141949998Y-88994318D01*
X141793244Y-89014954D01*
X141793234Y-89014957D01*
X141647161Y-89075462D01*
X141647158Y-89075464D01*
X141521717Y-89171717D01*
X141425464Y-89297158D01*
X141425462Y-89297161D01*
X141364957Y-89443234D01*
X141364954Y-89443244D01*
X141344318Y-89599998D01*
X141344318Y-89600001D01*
X141364954Y-89756755D01*
X141364957Y-89756765D01*
X141425462Y-89902838D01*
X141425464Y-89902841D01*
X141497678Y-89996953D01*
X141510058Y-90043158D01*
X141497678Y-90073047D01*
X141425464Y-90167158D01*
X141425462Y-90167161D01*
X141364957Y-90313234D01*
X141364954Y-90313244D01*
X141344318Y-90469998D01*
X141344318Y-90470001D01*
X128565714Y-90470001D01*
X128552841Y-90460123D01*
X128552838Y-90460121D01*
X128406765Y-90399616D01*
X128406755Y-90399613D01*
X128250002Y-90378977D01*
X128249998Y-90378977D01*
X128093244Y-90399613D01*
X128093234Y-90399616D01*
X127947161Y-90460121D01*
X127947158Y-90460123D01*
X127821717Y-90556376D01*
X127725464Y-90681817D01*
X127725462Y-90681820D01*
X127664957Y-90827893D01*
X127664954Y-90827903D01*
X127644318Y-90984657D01*
X127644318Y-90984660D01*
X125874100Y-90984660D01*
X125874100Y-88628901D01*
X138124318Y-88628901D01*
X138144954Y-88785655D01*
X138144957Y-88785665D01*
X138205462Y-88931738D01*
X138205464Y-88931741D01*
X138301717Y-89057182D01*
X138397971Y-89131039D01*
X138427159Y-89153436D01*
X138573238Y-89213944D01*
X138573242Y-89213944D01*
X138573244Y-89213945D01*
X138729998Y-89234582D01*
X138730000Y-89234582D01*
X138730002Y-89234582D01*
X138886755Y-89213945D01*
X138886755Y-89213944D01*
X138886762Y-89213944D01*
X139032841Y-89153436D01*
X139158282Y-89057182D01*
X139254536Y-88931741D01*
X139315044Y-88785662D01*
X139325574Y-88705682D01*
X139335682Y-88628901D01*
X139335682Y-88628898D01*
X139315045Y-88472144D01*
X139315044Y-88472142D01*
X139315044Y-88472138D01*
X139254536Y-88326059D01*
X139201363Y-88256762D01*
X139158282Y-88200617D01*
X139032841Y-88104364D01*
X139032838Y-88104362D01*
X138886765Y-88043857D01*
X138886755Y-88043854D01*
X138730002Y-88023218D01*
X138729998Y-88023218D01*
X138573244Y-88043854D01*
X138573234Y-88043857D01*
X138427161Y-88104362D01*
X138427158Y-88104364D01*
X138301717Y-88200617D01*
X138205464Y-88326058D01*
X138205462Y-88326061D01*
X138144957Y-88472134D01*
X138144954Y-88472144D01*
X138124318Y-88628898D01*
X138124318Y-88628901D01*
X125874100Y-88628901D01*
X125874100Y-87603601D01*
X126241815Y-87603601D01*
X126260870Y-87748347D01*
X126260873Y-87748357D01*
X126294897Y-87830499D01*
X126316745Y-87883243D01*
X126405626Y-87999074D01*
X126521457Y-88087955D01*
X126656346Y-88143828D01*
X126656350Y-88143828D01*
X126656352Y-88143829D01*
X126801098Y-88162885D01*
X126801100Y-88162885D01*
X126801102Y-88162885D01*
X126945847Y-88143829D01*
X126945847Y-88143828D01*
X126945854Y-88143828D01*
X127080743Y-88087955D01*
X127196574Y-87999074D01*
X127285455Y-87883243D01*
X127341328Y-87748354D01*
X127360385Y-87603600D01*
X127359638Y-87597929D01*
X127341329Y-87458852D01*
X127341328Y-87458850D01*
X127341328Y-87458846D01*
X127285455Y-87323958D01*
X127196574Y-87208126D01*
X127196572Y-87208125D01*
X127196572Y-87208124D01*
X127160259Y-87180260D01*
X127080743Y-87119245D01*
X127080739Y-87119243D01*
X126945857Y-87063373D01*
X126945847Y-87063370D01*
X126801102Y-87044315D01*
X126801098Y-87044315D01*
X126656352Y-87063370D01*
X126656342Y-87063373D01*
X126521460Y-87119243D01*
X126405625Y-87208125D01*
X126316743Y-87323960D01*
X126260873Y-87458842D01*
X126260870Y-87458852D01*
X126241815Y-87603598D01*
X126241815Y-87603601D01*
X125874100Y-87603601D01*
X125874100Y-86620001D01*
X146764318Y-86620001D01*
X146784954Y-86776755D01*
X146784957Y-86776765D01*
X146845462Y-86922838D01*
X146845464Y-86922841D01*
X146941717Y-87048282D01*
X147004902Y-87096765D01*
X147041756Y-87125044D01*
X147067158Y-87144535D01*
X147067161Y-87144537D01*
X147115852Y-87164705D01*
X147213238Y-87205044D01*
X147213242Y-87205044D01*
X147213244Y-87205045D01*
X147369998Y-87225682D01*
X147370000Y-87225682D01*
X147370002Y-87225682D01*
X147526755Y-87205045D01*
X147526755Y-87205044D01*
X147526762Y-87205044D01*
X147672841Y-87144536D01*
X147691781Y-87130003D01*
X153034355Y-87130003D01*
X153054858Y-87298864D01*
X153054859Y-87298870D01*
X153115182Y-87457931D01*
X153211811Y-87597922D01*
X153211816Y-87597928D01*
X153211817Y-87597929D01*
X153339148Y-87710734D01*
X153489775Y-87789790D01*
X153654944Y-87830500D01*
X153654946Y-87830500D01*
X153825054Y-87830500D01*
X153825056Y-87830500D01*
X153990225Y-87789790D01*
X154140852Y-87710734D01*
X154268183Y-87597929D01*
X154285568Y-87572743D01*
X154364817Y-87457932D01*
X154366105Y-87454536D01*
X154412937Y-87331048D01*
X154445724Y-87296218D01*
X154493537Y-87294773D01*
X154520960Y-87315165D01*
X154561717Y-87368282D01*
X154613486Y-87408005D01*
X154649585Y-87435704D01*
X154673503Y-87477131D01*
X154661123Y-87523336D01*
X154635456Y-87543031D01*
X154557162Y-87575462D01*
X154557158Y-87575464D01*
X154431717Y-87671717D01*
X154335464Y-87797158D01*
X154335462Y-87797161D01*
X154274957Y-87943234D01*
X154274954Y-87943244D01*
X154254318Y-88099998D01*
X154254318Y-88100001D01*
X154274954Y-88256755D01*
X154274957Y-88256765D01*
X154335462Y-88402838D01*
X154335464Y-88402841D01*
X154431717Y-88528282D01*
X154557158Y-88624535D01*
X154557161Y-88624537D01*
X154567697Y-88628901D01*
X154703238Y-88685044D01*
X154703242Y-88685044D01*
X154703244Y-88685045D01*
X154859998Y-88705682D01*
X154860000Y-88705682D01*
X154860002Y-88705682D01*
X155016755Y-88685045D01*
X155016755Y-88685044D01*
X155016762Y-88685044D01*
X155162841Y-88624536D01*
X155288282Y-88528282D01*
X155384536Y-88402841D01*
X155445044Y-88256762D01*
X155445045Y-88256755D01*
X155465682Y-88100001D01*
X155864318Y-88100001D01*
X155884954Y-88256755D01*
X155884957Y-88256765D01*
X155945462Y-88402838D01*
X155945464Y-88402841D01*
X156041717Y-88528282D01*
X156167158Y-88624535D01*
X156167161Y-88624537D01*
X156177697Y-88628901D01*
X156313238Y-88685044D01*
X156313242Y-88685044D01*
X156313244Y-88685045D01*
X156469998Y-88705682D01*
X156470000Y-88705682D01*
X156470002Y-88705682D01*
X156626755Y-88685045D01*
X156626755Y-88685044D01*
X156626762Y-88685044D01*
X156772841Y-88624536D01*
X156898282Y-88528282D01*
X156994536Y-88402841D01*
X157055044Y-88256762D01*
X157055045Y-88256755D01*
X157075682Y-88100001D01*
X157404318Y-88100001D01*
X157424954Y-88256755D01*
X157424957Y-88256765D01*
X157485462Y-88402838D01*
X157485464Y-88402841D01*
X157581717Y-88528282D01*
X157707158Y-88624535D01*
X157707161Y-88624537D01*
X157717697Y-88628901D01*
X157853238Y-88685044D01*
X157853242Y-88685044D01*
X157853244Y-88685045D01*
X158009998Y-88705682D01*
X158010000Y-88705682D01*
X158010002Y-88705682D01*
X158166755Y-88685045D01*
X158166755Y-88685044D01*
X158166762Y-88685044D01*
X158312841Y-88624536D01*
X158438282Y-88528282D01*
X158534536Y-88402841D01*
X158595044Y-88256762D01*
X158595045Y-88256755D01*
X158615682Y-88100001D01*
X158615682Y-88099998D01*
X158595045Y-87943244D01*
X158595044Y-87943242D01*
X158595044Y-87943238D01*
X158534536Y-87797159D01*
X158468220Y-87710734D01*
X158438282Y-87671717D01*
X158312841Y-87575464D01*
X158312838Y-87575462D01*
X158166765Y-87514957D01*
X158166755Y-87514954D01*
X158010002Y-87494318D01*
X158009998Y-87494318D01*
X157853244Y-87514954D01*
X157853234Y-87514957D01*
X157707161Y-87575462D01*
X157707158Y-87575464D01*
X157581717Y-87671717D01*
X157485464Y-87797158D01*
X157485462Y-87797161D01*
X157424957Y-87943234D01*
X157424954Y-87943244D01*
X157404318Y-88099998D01*
X157404318Y-88100001D01*
X157075682Y-88100001D01*
X157075682Y-88099998D01*
X157055045Y-87943244D01*
X157055044Y-87943242D01*
X157055044Y-87943238D01*
X156994536Y-87797159D01*
X156928220Y-87710734D01*
X156898282Y-87671717D01*
X156772841Y-87575464D01*
X156772842Y-87575464D01*
X156769429Y-87574050D01*
X156766270Y-87572742D01*
X156732446Y-87538919D01*
X156732445Y-87491083D01*
X156766268Y-87457258D01*
X156772841Y-87454536D01*
X156898282Y-87358282D01*
X156994536Y-87232841D01*
X157055044Y-87086762D01*
X157074365Y-86940001D01*
X157075682Y-86930001D01*
X157075682Y-86929998D01*
X157055045Y-86773244D01*
X157055044Y-86773242D01*
X157055044Y-86773238D01*
X157009000Y-86662077D01*
X156994537Y-86627161D01*
X156994535Y-86627158D01*
X156898282Y-86501717D01*
X156772841Y-86405464D01*
X156772838Y-86405462D01*
X156626765Y-86344957D01*
X156626755Y-86344954D01*
X156470002Y-86324318D01*
X156469998Y-86324318D01*
X156313244Y-86344954D01*
X156313234Y-86344957D01*
X156167161Y-86405462D01*
X156167158Y-86405464D01*
X156041717Y-86501717D01*
X155945464Y-86627158D01*
X155945462Y-86627161D01*
X155884957Y-86773234D01*
X155884954Y-86773244D01*
X155864318Y-86929998D01*
X155864318Y-86930001D01*
X155884954Y-87086755D01*
X155884957Y-87086765D01*
X155945462Y-87232838D01*
X155945464Y-87232841D01*
X156041717Y-87358282D01*
X156167158Y-87454535D01*
X156167159Y-87454536D01*
X156173730Y-87457258D01*
X156207554Y-87491083D01*
X156207553Y-87538919D01*
X156173730Y-87572742D01*
X156167159Y-87575463D01*
X156167158Y-87575464D01*
X156041717Y-87671717D01*
X155945464Y-87797158D01*
X155945462Y-87797161D01*
X155884957Y-87943234D01*
X155884954Y-87943244D01*
X155864318Y-88099998D01*
X155864318Y-88100001D01*
X155465682Y-88100001D01*
X155465682Y-88099998D01*
X155445045Y-87943244D01*
X155445044Y-87943242D01*
X155445044Y-87943238D01*
X155384536Y-87797159D01*
X155318220Y-87710734D01*
X155288282Y-87671717D01*
X155200414Y-87604295D01*
X155176496Y-87562868D01*
X155188876Y-87516663D01*
X155214541Y-87496968D01*
X155292841Y-87464536D01*
X155418282Y-87368282D01*
X155514536Y-87242841D01*
X155575044Y-87096762D01*
X155576361Y-87086762D01*
X155595682Y-86940001D01*
X155595682Y-86939998D01*
X155575045Y-86783244D01*
X155575044Y-86783242D01*
X155575044Y-86783238D01*
X155521944Y-86655044D01*
X155514537Y-86637161D01*
X155514535Y-86637158D01*
X155418282Y-86511717D01*
X155292841Y-86415464D01*
X155292838Y-86415462D01*
X155146765Y-86354957D01*
X155146755Y-86354954D01*
X154990002Y-86334318D01*
X154989998Y-86334318D01*
X154833244Y-86354954D01*
X154833234Y-86354957D01*
X154687161Y-86415462D01*
X154687158Y-86415464D01*
X154561717Y-86511717D01*
X154465464Y-86637158D01*
X154465462Y-86637162D01*
X154428972Y-86725255D01*
X154395147Y-86759080D01*
X154347312Y-86759079D01*
X154319793Y-86736841D01*
X154268184Y-86662072D01*
X154268181Y-86662069D01*
X154140851Y-86549265D01*
X153990226Y-86470210D01*
X153825059Y-86429500D01*
X153825056Y-86429500D01*
X153654944Y-86429500D01*
X153654940Y-86429500D01*
X153489773Y-86470210D01*
X153339148Y-86549265D01*
X153211818Y-86662069D01*
X153211811Y-86662077D01*
X153115182Y-86802068D01*
X153054859Y-86961129D01*
X153054858Y-86961135D01*
X153034355Y-87129996D01*
X153034355Y-87130003D01*
X147691781Y-87130003D01*
X147798282Y-87048282D01*
X147894536Y-86922841D01*
X147955044Y-86776762D01*
X147955508Y-86773238D01*
X147975682Y-86620001D01*
X147975682Y-86619998D01*
X147955045Y-86463244D01*
X147955044Y-86463242D01*
X147955044Y-86463238D01*
X147914705Y-86365851D01*
X147894537Y-86317161D01*
X147894535Y-86317158D01*
X147798282Y-86191717D01*
X147672841Y-86095464D01*
X147672838Y-86095462D01*
X147526765Y-86034957D01*
X147526755Y-86034954D01*
X147370002Y-86014318D01*
X147369998Y-86014318D01*
X147213244Y-86034954D01*
X147213234Y-86034957D01*
X147067161Y-86095462D01*
X147067158Y-86095464D01*
X146941717Y-86191717D01*
X146845464Y-86317158D01*
X146845462Y-86317161D01*
X146784957Y-86463234D01*
X146784954Y-86463244D01*
X146764318Y-86619998D01*
X146764318Y-86620001D01*
X125874100Y-86620001D01*
X125874100Y-84750000D01*
X146479953Y-84750000D01*
X146483758Y-84786198D01*
X146498092Y-84922578D01*
X146551711Y-85087605D01*
X146551713Y-85087609D01*
X146551714Y-85087611D01*
X146638477Y-85237887D01*
X146638476Y-85237887D01*
X146754589Y-85366844D01*
X146754589Y-85366845D01*
X146894971Y-85468839D01*
X146894973Y-85468840D01*
X146894976Y-85468842D01*
X146984540Y-85508718D01*
X147053489Y-85539417D01*
X147053492Y-85539418D01*
X147053501Y-85539422D01*
X147223236Y-85575500D01*
X147396764Y-85575500D01*
X147566499Y-85539422D01*
X147725024Y-85468842D01*
X147865410Y-85366845D01*
X147915931Y-85310735D01*
X152445054Y-85310735D01*
X152465690Y-85467489D01*
X152465693Y-85467499D01*
X152526198Y-85613572D01*
X152526200Y-85613575D01*
X152622453Y-85739016D01*
X152718707Y-85812873D01*
X152747895Y-85835270D01*
X152893974Y-85895778D01*
X152893978Y-85895778D01*
X152893980Y-85895779D01*
X153050734Y-85916416D01*
X153050736Y-85916416D01*
X153050738Y-85916416D01*
X153207491Y-85895779D01*
X153207491Y-85895778D01*
X153207498Y-85895778D01*
X153353577Y-85835270D01*
X153479018Y-85739016D01*
X153575272Y-85613575D01*
X153635780Y-85467496D01*
X153656418Y-85310734D01*
X153654813Y-85298546D01*
X153635781Y-85153978D01*
X153635780Y-85153976D01*
X153635780Y-85153972D01*
X153626307Y-85131101D01*
X154288583Y-85131101D01*
X154309219Y-85287855D01*
X154309222Y-85287865D01*
X154369727Y-85433938D01*
X154369729Y-85433941D01*
X154465982Y-85559382D01*
X154536605Y-85613572D01*
X154591424Y-85655636D01*
X154737503Y-85716144D01*
X154737507Y-85716144D01*
X154737509Y-85716145D01*
X154894263Y-85736782D01*
X154894265Y-85736782D01*
X154894267Y-85736782D01*
X155051020Y-85716145D01*
X155051020Y-85716144D01*
X155051027Y-85716144D01*
X155197106Y-85655636D01*
X155322547Y-85559382D01*
X155418801Y-85433941D01*
X155479309Y-85287862D01*
X155496936Y-85153972D01*
X155499947Y-85131101D01*
X155834318Y-85131101D01*
X155854954Y-85287855D01*
X155854957Y-85287865D01*
X155915462Y-85433938D01*
X155915464Y-85433941D01*
X156011717Y-85559382D01*
X156082340Y-85613572D01*
X156137159Y-85655636D01*
X156283238Y-85716144D01*
X156283242Y-85716144D01*
X156283244Y-85716145D01*
X156439998Y-85736782D01*
X156440000Y-85736782D01*
X156440002Y-85736782D01*
X156596755Y-85716145D01*
X156596755Y-85716144D01*
X156596762Y-85716144D01*
X156742841Y-85655636D01*
X156868282Y-85559382D01*
X156964536Y-85433941D01*
X157020617Y-85298549D01*
X157285770Y-85298549D01*
X157306406Y-85455303D01*
X157306409Y-85455313D01*
X157366914Y-85601386D01*
X157366916Y-85601389D01*
X157463166Y-85726826D01*
X157463168Y-85726827D01*
X157463170Y-85726830D01*
X157538185Y-85784391D01*
X157562102Y-85825817D01*
X157557880Y-85857892D01*
X157534956Y-85913237D01*
X157534954Y-85913244D01*
X157514318Y-86069998D01*
X157514318Y-86070001D01*
X157534954Y-86226755D01*
X157534957Y-86226765D01*
X157595462Y-86372838D01*
X157595464Y-86372841D01*
X157691717Y-86498282D01*
X157758162Y-86549266D01*
X157817159Y-86594536D01*
X157963238Y-86655044D01*
X157963242Y-86655044D01*
X157963244Y-86655045D01*
X158119998Y-86675682D01*
X158120000Y-86675682D01*
X158120002Y-86675682D01*
X158276755Y-86655045D01*
X158276755Y-86655044D01*
X158276762Y-86655044D01*
X158422841Y-86594536D01*
X158493913Y-86540001D01*
X165474318Y-86540001D01*
X165494954Y-86696755D01*
X165494957Y-86696765D01*
X165555462Y-86842838D01*
X165555464Y-86842841D01*
X165651717Y-86968282D01*
X165747970Y-87042139D01*
X165777159Y-87064536D01*
X165923238Y-87125044D01*
X165923242Y-87125044D01*
X165923244Y-87125045D01*
X166079998Y-87145682D01*
X166080000Y-87145682D01*
X166080002Y-87145682D01*
X166236755Y-87125045D01*
X166236755Y-87125044D01*
X166236762Y-87125044D01*
X166382841Y-87064536D01*
X166508282Y-86968282D01*
X166604536Y-86842841D01*
X166665044Y-86696762D01*
X166670537Y-86655042D01*
X166685682Y-86540001D01*
X166685682Y-86539998D01*
X166665045Y-86383244D01*
X166665044Y-86383242D01*
X166665044Y-86383238D01*
X166604536Y-86237159D01*
X166569667Y-86191717D01*
X166508282Y-86111717D01*
X166382841Y-86015464D01*
X166382838Y-86015462D01*
X166236765Y-85954957D01*
X166236755Y-85954954D01*
X166080002Y-85934318D01*
X166079998Y-85934318D01*
X165923244Y-85954954D01*
X165923234Y-85954957D01*
X165777161Y-86015462D01*
X165777158Y-86015464D01*
X165651717Y-86111717D01*
X165555464Y-86237158D01*
X165555462Y-86237161D01*
X165494957Y-86383234D01*
X165494954Y-86383244D01*
X165474318Y-86539998D01*
X165474318Y-86540001D01*
X158493913Y-86540001D01*
X158548282Y-86498282D01*
X158644536Y-86372841D01*
X158705044Y-86226762D01*
X158725682Y-86070000D01*
X158721068Y-86034956D01*
X158705045Y-85913244D01*
X158705044Y-85913242D01*
X158705044Y-85913238D01*
X158644536Y-85767159D01*
X158548282Y-85641718D01*
X158548279Y-85641716D01*
X158548278Y-85641714D01*
X158473266Y-85584156D01*
X158449348Y-85542729D01*
X158453570Y-85510655D01*
X158476496Y-85455310D01*
X158497134Y-85298548D01*
X158495726Y-85287855D01*
X158476497Y-85141792D01*
X158476496Y-85141790D01*
X158476496Y-85141786D01*
X158436157Y-85044399D01*
X158415989Y-84995709D01*
X158415987Y-84995706D01*
X158319734Y-84870265D01*
X158194293Y-84774012D01*
X158194290Y-84774010D01*
X158048217Y-84713505D01*
X158048207Y-84713502D01*
X157891454Y-84692866D01*
X157891450Y-84692866D01*
X157734696Y-84713502D01*
X157734686Y-84713505D01*
X157588613Y-84774010D01*
X157588610Y-84774012D01*
X157463169Y-84870265D01*
X157366916Y-84995706D01*
X157366914Y-84995709D01*
X157306409Y-85141782D01*
X157306406Y-85141792D01*
X157285770Y-85298546D01*
X157285770Y-85298549D01*
X157020617Y-85298549D01*
X157025044Y-85287862D01*
X157042671Y-85153972D01*
X157045682Y-85131101D01*
X157045682Y-85131098D01*
X157025045Y-84974344D01*
X157025044Y-84974342D01*
X157025044Y-84974338D01*
X156981936Y-84870266D01*
X156964537Y-84828261D01*
X156964535Y-84828258D01*
X156868282Y-84702817D01*
X156742841Y-84606564D01*
X156742838Y-84606562D01*
X156596765Y-84546057D01*
X156596755Y-84546054D01*
X156440002Y-84525418D01*
X156439998Y-84525418D01*
X156283244Y-84546054D01*
X156283234Y-84546057D01*
X156137161Y-84606562D01*
X156137158Y-84606564D01*
X156011717Y-84702817D01*
X155915464Y-84828258D01*
X155915462Y-84828261D01*
X155854957Y-84974334D01*
X155854954Y-84974344D01*
X155834318Y-85131098D01*
X155834318Y-85131101D01*
X155499947Y-85131101D01*
X155499947Y-85131098D01*
X155479310Y-84974344D01*
X155479309Y-84974342D01*
X155479309Y-84974338D01*
X155436201Y-84870266D01*
X155418802Y-84828261D01*
X155418800Y-84828258D01*
X155322547Y-84702817D01*
X155197106Y-84606564D01*
X155197103Y-84606562D01*
X155051030Y-84546057D01*
X155051020Y-84546054D01*
X154894267Y-84525418D01*
X154894263Y-84525418D01*
X154737509Y-84546054D01*
X154737499Y-84546057D01*
X154591426Y-84606562D01*
X154591423Y-84606564D01*
X154465982Y-84702817D01*
X154369729Y-84828258D01*
X154369727Y-84828261D01*
X154309222Y-84974334D01*
X154309219Y-84974344D01*
X154288583Y-85131098D01*
X154288583Y-85131101D01*
X153626307Y-85131101D01*
X153575272Y-85007893D01*
X153509808Y-84922578D01*
X153479018Y-84882451D01*
X153353577Y-84786198D01*
X153353574Y-84786196D01*
X153207501Y-84725691D01*
X153207491Y-84725688D01*
X153050738Y-84705052D01*
X153050734Y-84705052D01*
X152893980Y-84725688D01*
X152893970Y-84725691D01*
X152747897Y-84786196D01*
X152747894Y-84786198D01*
X152622453Y-84882451D01*
X152526200Y-85007892D01*
X152526198Y-85007895D01*
X152465693Y-85153968D01*
X152465690Y-85153978D01*
X152445054Y-85310732D01*
X152445054Y-85310735D01*
X147915931Y-85310735D01*
X147981522Y-85237889D01*
X148068286Y-85087611D01*
X148121908Y-84922576D01*
X148140047Y-84750000D01*
X148121908Y-84577424D01*
X148118526Y-84567017D01*
X148068288Y-84412394D01*
X148068287Y-84412392D01*
X148068286Y-84412389D01*
X147981522Y-84262111D01*
X147865410Y-84133155D01*
X147865410Y-84133154D01*
X147793617Y-84080993D01*
X147768623Y-84040207D01*
X147779791Y-83993693D01*
X147804932Y-83973335D01*
X147815024Y-83968842D01*
X147955410Y-83866845D01*
X148071522Y-83737889D01*
X148158286Y-83587611D01*
X148176004Y-83533078D01*
X148207070Y-83496705D01*
X148254758Y-83492951D01*
X148291132Y-83524017D01*
X148297410Y-83560550D01*
X148284318Y-83659998D01*
X148284318Y-83660001D01*
X148304954Y-83816755D01*
X148304957Y-83816765D01*
X148365462Y-83962838D01*
X148365464Y-83962841D01*
X148461717Y-84088282D01*
X148587158Y-84184535D01*
X148587161Y-84184537D01*
X148635852Y-84204705D01*
X148733238Y-84245044D01*
X148733242Y-84245044D01*
X148733244Y-84245045D01*
X148889998Y-84265682D01*
X148890000Y-84265682D01*
X148890002Y-84265682D01*
X149046755Y-84245045D01*
X149046755Y-84245044D01*
X149046762Y-84245044D01*
X149192841Y-84184536D01*
X149318282Y-84088282D01*
X149414536Y-83962841D01*
X149475044Y-83816762D01*
X149491876Y-83688913D01*
X149495682Y-83660001D01*
X149495682Y-83659998D01*
X149487783Y-83600001D01*
X156220053Y-83600001D01*
X156240689Y-83756755D01*
X156240692Y-83756765D01*
X156301197Y-83902838D01*
X156301199Y-83902841D01*
X156397452Y-84028282D01*
X156522893Y-84124535D01*
X156522896Y-84124537D01*
X156543702Y-84133155D01*
X156668973Y-84185044D01*
X156668977Y-84185044D01*
X156668979Y-84185045D01*
X156825733Y-84205682D01*
X156825735Y-84205682D01*
X156825737Y-84205682D01*
X156982490Y-84185045D01*
X156982490Y-84185044D01*
X156982497Y-84185044D01*
X157128576Y-84124536D01*
X157254017Y-84028282D01*
X157350271Y-83902841D01*
X157410779Y-83756762D01*
X157413264Y-83737887D01*
X157431417Y-83600001D01*
X157431417Y-83599998D01*
X157410780Y-83443244D01*
X157410779Y-83443242D01*
X157410779Y-83443238D01*
X157350271Y-83297159D01*
X157314084Y-83249999D01*
X157254017Y-83171717D01*
X157128576Y-83075464D01*
X157128573Y-83075462D01*
X156982500Y-83014957D01*
X156982490Y-83014954D01*
X156825737Y-82994318D01*
X156825733Y-82994318D01*
X156668979Y-83014954D01*
X156668969Y-83014957D01*
X156522896Y-83075462D01*
X156522893Y-83075464D01*
X156397452Y-83171717D01*
X156301199Y-83297158D01*
X156301197Y-83297161D01*
X156240692Y-83443234D01*
X156240689Y-83443244D01*
X156220053Y-83599998D01*
X156220053Y-83600001D01*
X149487783Y-83600001D01*
X149475045Y-83503244D01*
X149475044Y-83503242D01*
X149475044Y-83503238D01*
X149414536Y-83357159D01*
X149368496Y-83297158D01*
X149318282Y-83231717D01*
X149192841Y-83135464D01*
X149192838Y-83135462D01*
X149046765Y-83074957D01*
X149046755Y-83074954D01*
X148890002Y-83054318D01*
X148889998Y-83054318D01*
X148733244Y-83074954D01*
X148733234Y-83074957D01*
X148587161Y-83135462D01*
X148587158Y-83135464D01*
X148461717Y-83231717D01*
X148365464Y-83357158D01*
X148365462Y-83357162D01*
X148333865Y-83433442D01*
X148300040Y-83467267D01*
X148252205Y-83467266D01*
X148218380Y-83433441D01*
X148213965Y-83402996D01*
X148230047Y-83250000D01*
X148211908Y-83077424D01*
X148190655Y-83012012D01*
X148158288Y-82912394D01*
X148158287Y-82912392D01*
X148158286Y-82912389D01*
X148071522Y-82762111D01*
X147955410Y-82633155D01*
X147955410Y-82633154D01*
X147815028Y-82531160D01*
X147815022Y-82531157D01*
X147656510Y-82460582D01*
X147656493Y-82460576D01*
X147486764Y-82424500D01*
X147313236Y-82424500D01*
X147143506Y-82460576D01*
X147143489Y-82460582D01*
X146984978Y-82531157D01*
X146844586Y-82633157D01*
X146728477Y-82762112D01*
X146641711Y-82912394D01*
X146588092Y-83077421D01*
X146569953Y-83249999D01*
X146588092Y-83422578D01*
X146641711Y-83587605D01*
X146641713Y-83587609D01*
X146641714Y-83587611D01*
X146728477Y-83737887D01*
X146728476Y-83737887D01*
X146844589Y-83866844D01*
X146844589Y-83866845D01*
X146916382Y-83919006D01*
X146941376Y-83959792D01*
X146930208Y-84006306D01*
X146905068Y-84026665D01*
X146894977Y-84031157D01*
X146754586Y-84133157D01*
X146638477Y-84262112D01*
X146551711Y-84412394D01*
X146498092Y-84577421D01*
X146498092Y-84577424D01*
X146479953Y-84750000D01*
X125874100Y-84750000D01*
X125874100Y-82393066D01*
X125892406Y-82348872D01*
X125936600Y-82330566D01*
X125980794Y-82348872D01*
X125996270Y-82374472D01*
X126018309Y-82445199D01*
X126149907Y-82737595D01*
X126149911Y-82737605D01*
X126315786Y-83011997D01*
X126315797Y-83012012D01*
X126513549Y-83264423D01*
X126740276Y-83491150D01*
X126992687Y-83688902D01*
X126992702Y-83688913D01*
X127267094Y-83854788D01*
X127267097Y-83854789D01*
X127267100Y-83854791D01*
X127559502Y-83986391D01*
X127865634Y-84081786D01*
X128181034Y-84139585D01*
X128501100Y-84158945D01*
X128821166Y-84139585D01*
X129136566Y-84081786D01*
X129442698Y-83986391D01*
X129735100Y-83854791D01*
X129798008Y-83816762D01*
X129902490Y-83753601D01*
X139241815Y-83753601D01*
X139260870Y-83898347D01*
X139260873Y-83898357D01*
X139300362Y-83993693D01*
X139316745Y-84033243D01*
X139405626Y-84149074D01*
X139521457Y-84237955D01*
X139656346Y-84293828D01*
X139656350Y-84293828D01*
X139656352Y-84293829D01*
X139801098Y-84312885D01*
X139801100Y-84312885D01*
X139801102Y-84312885D01*
X139945847Y-84293829D01*
X139945847Y-84293828D01*
X139945854Y-84293828D01*
X140080743Y-84237955D01*
X140196574Y-84149074D01*
X140285455Y-84033243D01*
X140341328Y-83898354D01*
X140360385Y-83753600D01*
X140358316Y-83737887D01*
X140341329Y-83608852D01*
X140341328Y-83608850D01*
X140341328Y-83608846D01*
X140285455Y-83473958D01*
X140196574Y-83358126D01*
X140196572Y-83358125D01*
X140196572Y-83358124D01*
X140161449Y-83331174D01*
X140080743Y-83269245D01*
X140080739Y-83269243D01*
X139945857Y-83213373D01*
X139945847Y-83213370D01*
X139801102Y-83194315D01*
X139801098Y-83194315D01*
X139656352Y-83213370D01*
X139656342Y-83213373D01*
X139521460Y-83269243D01*
X139405625Y-83358125D01*
X139316743Y-83473960D01*
X139260873Y-83608842D01*
X139260870Y-83608852D01*
X139241815Y-83753598D01*
X139241815Y-83753601D01*
X129902490Y-83753601D01*
X130009497Y-83688913D01*
X130009499Y-83688911D01*
X130009508Y-83688906D01*
X130261919Y-83491154D01*
X130488654Y-83264419D01*
X130686406Y-83012008D01*
X130852291Y-82737600D01*
X130983891Y-82445198D01*
X131079286Y-82139066D01*
X131102938Y-82010001D01*
X148164318Y-82010001D01*
X148184954Y-82166755D01*
X148184957Y-82166765D01*
X148245462Y-82312838D01*
X148245464Y-82312841D01*
X148341717Y-82438282D01*
X148437970Y-82512139D01*
X148467159Y-82534536D01*
X148613238Y-82595044D01*
X148613242Y-82595044D01*
X148613244Y-82595045D01*
X148769998Y-82615682D01*
X148770000Y-82615682D01*
X148770002Y-82615682D01*
X148926755Y-82595045D01*
X148926755Y-82595044D01*
X148926762Y-82595044D01*
X149072841Y-82534536D01*
X149198282Y-82438282D01*
X149294536Y-82312841D01*
X149355044Y-82166762D01*
X149371135Y-82044536D01*
X149375682Y-82010001D01*
X149375682Y-82009998D01*
X149355045Y-81853244D01*
X149355044Y-81853242D01*
X149355044Y-81853238D01*
X149294536Y-81707159D01*
X149199144Y-81582841D01*
X149198282Y-81581717D01*
X149117851Y-81520001D01*
X154764318Y-81520001D01*
X154784954Y-81676755D01*
X154784957Y-81676765D01*
X154845462Y-81822838D01*
X154845464Y-81822841D01*
X154941717Y-81948282D01*
X154961369Y-81963361D01*
X155067159Y-82044536D01*
X155213238Y-82105044D01*
X155213242Y-82105044D01*
X155213244Y-82105045D01*
X155369998Y-82125682D01*
X155370000Y-82125682D01*
X155370002Y-82125682D01*
X155526755Y-82105045D01*
X155526755Y-82105044D01*
X155526762Y-82105044D01*
X155672841Y-82044536D01*
X155798282Y-81948282D01*
X155894536Y-81822841D01*
X155955044Y-81676762D01*
X155975682Y-81520000D01*
X155971135Y-81485464D01*
X155955045Y-81363244D01*
X155955044Y-81363242D01*
X155955044Y-81363238D01*
X155920566Y-81280001D01*
X157644318Y-81280001D01*
X157664954Y-81436755D01*
X157664957Y-81436765D01*
X157725462Y-81582838D01*
X157725464Y-81582841D01*
X157821717Y-81708282D01*
X157917970Y-81782139D01*
X157947159Y-81804536D01*
X158093238Y-81865044D01*
X158093242Y-81865044D01*
X158093244Y-81865045D01*
X158249998Y-81885682D01*
X158250000Y-81885682D01*
X158250002Y-81885682D01*
X158406755Y-81865045D01*
X158406755Y-81865044D01*
X158406762Y-81865044D01*
X158552841Y-81804536D01*
X158678282Y-81708282D01*
X158774536Y-81582841D01*
X158835044Y-81436762D01*
X158855682Y-81280000D01*
X158835044Y-81123238D01*
X158774536Y-80977159D01*
X158726317Y-80914318D01*
X158678282Y-80851717D01*
X158552841Y-80755464D01*
X158552838Y-80755462D01*
X158406765Y-80694957D01*
X158406755Y-80694954D01*
X158250002Y-80674318D01*
X158249998Y-80674318D01*
X158093244Y-80694954D01*
X158093234Y-80694957D01*
X157947161Y-80755462D01*
X157947158Y-80755464D01*
X157821717Y-80851717D01*
X157725464Y-80977158D01*
X157725462Y-80977161D01*
X157664957Y-81123234D01*
X157664954Y-81123244D01*
X157644318Y-81279998D01*
X157644318Y-81280001D01*
X155920566Y-81280001D01*
X155894536Y-81217159D01*
X155872139Y-81187971D01*
X155798282Y-81091717D01*
X155672841Y-80995464D01*
X155672838Y-80995462D01*
X155526765Y-80934957D01*
X155526755Y-80934954D01*
X155370002Y-80914318D01*
X155369998Y-80914318D01*
X155213244Y-80934954D01*
X155213234Y-80934957D01*
X155067161Y-80995462D01*
X155067158Y-80995464D01*
X154941717Y-81091717D01*
X154845464Y-81217158D01*
X154845462Y-81217161D01*
X154784957Y-81363234D01*
X154784954Y-81363244D01*
X154764318Y-81519998D01*
X154764318Y-81520001D01*
X149117851Y-81520001D01*
X149072841Y-81485464D01*
X149072838Y-81485462D01*
X148926765Y-81424957D01*
X148926755Y-81424954D01*
X148770002Y-81404318D01*
X148769998Y-81404318D01*
X148613244Y-81424954D01*
X148613234Y-81424957D01*
X148467161Y-81485462D01*
X148467158Y-81485464D01*
X148341717Y-81581717D01*
X148245464Y-81707158D01*
X148245462Y-81707161D01*
X148184957Y-81853234D01*
X148184954Y-81853244D01*
X148164318Y-82009998D01*
X148164318Y-82010001D01*
X131102938Y-82010001D01*
X131137085Y-81823666D01*
X131156445Y-81503600D01*
X131137085Y-81183534D01*
X131079286Y-80868134D01*
X130983891Y-80562002D01*
X130852291Y-80269600D01*
X130852289Y-80269597D01*
X130852288Y-80269594D01*
X130686413Y-79995202D01*
X130686402Y-79995187D01*
X130627845Y-79920444D01*
X130488654Y-79742781D01*
X130488653Y-79742780D01*
X130488650Y-79742776D01*
X130261923Y-79516049D01*
X130009512Y-79318297D01*
X130009497Y-79318286D01*
X129735105Y-79152411D01*
X129735100Y-79152409D01*
X129614669Y-79098207D01*
X129442699Y-79020809D01*
X129400269Y-79007587D01*
X129371971Y-78998769D01*
X129335225Y-78968145D01*
X129330896Y-78920506D01*
X129361521Y-78883759D01*
X129390566Y-78876600D01*
X156318047Y-78876600D01*
X156362241Y-78894906D01*
G37*
%TD.AperFunction*%
%TD*%
%TA.AperFunction,Conductor*%
%TO.N,V+*%
G36*
X129972011Y-92594906D02*
G01*
X132003706Y-94626600D01*
X132426622Y-94626600D01*
X132455524Y-94635085D01*
X132455860Y-94634352D01*
X132459924Y-94636208D01*
X132584881Y-94672900D01*
X132584883Y-94672900D01*
X132715119Y-94672900D01*
X132823446Y-94641091D01*
X132840076Y-94636208D01*
X132840078Y-94636206D01*
X132844140Y-94634352D01*
X132844475Y-94635085D01*
X132873378Y-94626600D01*
X133610926Y-94626600D01*
X133610925Y-94627404D01*
X133644384Y-94627402D01*
X133654262Y-94632569D01*
X133659924Y-94636208D01*
X133784881Y-94672900D01*
X133784883Y-94672900D01*
X133915119Y-94672900D01*
X134023446Y-94641091D01*
X134040076Y-94636208D01*
X134149636Y-94565799D01*
X134234921Y-94467374D01*
X134289023Y-94348909D01*
X134307557Y-94220000D01*
X134303244Y-94190000D01*
X137258028Y-94190000D01*
X137278191Y-94317306D01*
X137278191Y-94317307D01*
X137312311Y-94384270D01*
X137336708Y-94432151D01*
X137427849Y-94523292D01*
X137542694Y-94581809D01*
X137670000Y-94601972D01*
X137797306Y-94581809D01*
X137912151Y-94523292D01*
X138003292Y-94432151D01*
X138011859Y-94415336D01*
X138048231Y-94384270D01*
X138095919Y-94388021D01*
X138123234Y-94415334D01*
X138126707Y-94422150D01*
X138126708Y-94422151D01*
X138217849Y-94513292D01*
X138332694Y-94571809D01*
X138460000Y-94591972D01*
X138587306Y-94571809D01*
X138702151Y-94513292D01*
X138793292Y-94422151D01*
X138851809Y-94307306D01*
X138871972Y-94180000D01*
X138851809Y-94052694D01*
X138793292Y-93937849D01*
X138702151Y-93846708D01*
X138587306Y-93788191D01*
X138460000Y-93768028D01*
X138332693Y-93788191D01*
X138332692Y-93788191D01*
X138217848Y-93846708D01*
X138126707Y-93937849D01*
X138118139Y-93954665D01*
X138081764Y-93985730D01*
X138034076Y-93981976D01*
X138006764Y-93954663D01*
X138003292Y-93947849D01*
X137912151Y-93856708D01*
X137797306Y-93798191D01*
X137670000Y-93778028D01*
X137542693Y-93798191D01*
X137542692Y-93798191D01*
X137427848Y-93856708D01*
X137336708Y-93947848D01*
X137278191Y-94062692D01*
X137278191Y-94062693D01*
X137258028Y-94190000D01*
X134303244Y-94190000D01*
X134289023Y-94091091D01*
X134271487Y-94052693D01*
X134258449Y-94024144D01*
X134256742Y-93976339D01*
X134271104Y-93953989D01*
X135480188Y-92744906D01*
X135524383Y-92726600D01*
X144015600Y-92726600D01*
X144059794Y-92744906D01*
X144078100Y-92789100D01*
X144078100Y-97513639D01*
X144059794Y-97557833D01*
X144023758Y-97575604D01*
X143967475Y-97583013D01*
X143967472Y-97583014D01*
X143832975Y-97638725D01*
X143832972Y-97638727D01*
X143717475Y-97727351D01*
X143628851Y-97842848D01*
X143628849Y-97842851D01*
X143573140Y-97977344D01*
X143573137Y-97977354D01*
X143554137Y-98121682D01*
X143554137Y-98121685D01*
X143573137Y-98266013D01*
X143573140Y-98266023D01*
X143628849Y-98400517D01*
X143628851Y-98400520D01*
X143717474Y-98516017D01*
X143806097Y-98584019D01*
X143832972Y-98604641D01*
X143967472Y-98660353D01*
X143967478Y-98660353D01*
X143967479Y-98660354D01*
X144023757Y-98667763D01*
X144065184Y-98691680D01*
X144078100Y-98729728D01*
X144078100Y-100876600D01*
X148674100Y-100876600D01*
X148674100Y-100490000D01*
X156078028Y-100490000D01*
X156084917Y-100533498D01*
X156098191Y-100617306D01*
X156098191Y-100617307D01*
X156138161Y-100695751D01*
X156156708Y-100732151D01*
X156247849Y-100823292D01*
X156362694Y-100881809D01*
X156490000Y-100901972D01*
X156617306Y-100881809D01*
X156732151Y-100823292D01*
X156795808Y-100759634D01*
X156840000Y-100741330D01*
X156884190Y-100759633D01*
X156947849Y-100823292D01*
X157062694Y-100881809D01*
X157190000Y-100901972D01*
X157317306Y-100881809D01*
X157432151Y-100823292D01*
X157523292Y-100732151D01*
X157581809Y-100617306D01*
X157601972Y-100490000D01*
X157581809Y-100362694D01*
X157523292Y-100247849D01*
X157434637Y-100159193D01*
X157416331Y-100115000D01*
X157434637Y-100070806D01*
X157463815Y-100041628D01*
X157523292Y-99982151D01*
X157581809Y-99867306D01*
X157601972Y-99740000D01*
X157581809Y-99612694D01*
X157523292Y-99497849D01*
X157432151Y-99406708D01*
X157317306Y-99348191D01*
X157190000Y-99328028D01*
X157189999Y-99328028D01*
X157062693Y-99348191D01*
X157062692Y-99348191D01*
X156947848Y-99406708D01*
X156884194Y-99470363D01*
X156840000Y-99488669D01*
X156795806Y-99470363D01*
X156732151Y-99406708D01*
X156617306Y-99348191D01*
X156582302Y-99342647D01*
X156490000Y-99328028D01*
X156489999Y-99328028D01*
X156362693Y-99348191D01*
X156362692Y-99348191D01*
X156247848Y-99406708D01*
X156156708Y-99497848D01*
X156098191Y-99612692D01*
X156098191Y-99612693D01*
X156078028Y-99740000D01*
X156098191Y-99867306D01*
X156098191Y-99867307D01*
X156156708Y-99982151D01*
X156245363Y-100070806D01*
X156263669Y-100115000D01*
X156245363Y-100159194D01*
X156156708Y-100247848D01*
X156098191Y-100362692D01*
X156098191Y-100362693D01*
X156089326Y-100418669D01*
X156078028Y-100490000D01*
X148674100Y-100490000D01*
X148674100Y-99292153D01*
X148692406Y-99247959D01*
X148736600Y-99229653D01*
X148760512Y-99234409D01*
X148878211Y-99283162D01*
X149125978Y-99342646D01*
X149125980Y-99342646D01*
X149125984Y-99342647D01*
X149379996Y-99362638D01*
X149380000Y-99362638D01*
X149380004Y-99362638D01*
X149634015Y-99342647D01*
X149634017Y-99342646D01*
X149634022Y-99342646D01*
X149881789Y-99283162D01*
X150034274Y-99220001D01*
X159592329Y-99220001D01*
X159611329Y-99364329D01*
X159611332Y-99364339D01*
X159667041Y-99498833D01*
X159667043Y-99498836D01*
X159755666Y-99614333D01*
X159844289Y-99682335D01*
X159871164Y-99702957D01*
X160005664Y-99758669D01*
X160005668Y-99758669D01*
X160005670Y-99758670D01*
X160149998Y-99777671D01*
X160150000Y-99777671D01*
X160150002Y-99777671D01*
X160294329Y-99758670D01*
X160294329Y-99758669D01*
X160294336Y-99758669D01*
X160428836Y-99702957D01*
X160544333Y-99614333D01*
X160632957Y-99498836D01*
X160688669Y-99364336D01*
X160707671Y-99220000D01*
X160696579Y-99135750D01*
X160688670Y-99075670D01*
X160688669Y-99075668D01*
X160688669Y-99075664D01*
X160649044Y-98980001D01*
X160802329Y-98980001D01*
X160821329Y-99124329D01*
X160821332Y-99124339D01*
X160877041Y-99258833D01*
X160877043Y-99258836D01*
X160965666Y-99374333D01*
X161081163Y-99462956D01*
X161081166Y-99462958D01*
X161125997Y-99481527D01*
X161215664Y-99518669D01*
X161215668Y-99518669D01*
X161215670Y-99518670D01*
X161359998Y-99537671D01*
X161360000Y-99537671D01*
X161360002Y-99537671D01*
X161504329Y-99518670D01*
X161504329Y-99518669D01*
X161504336Y-99518669D01*
X161638836Y-99462957D01*
X161754333Y-99374333D01*
X161842957Y-99258836D01*
X161898669Y-99124336D01*
X161917671Y-98980000D01*
X161912558Y-98941165D01*
X161898670Y-98835670D01*
X161898669Y-98835668D01*
X161898669Y-98835664D01*
X161842957Y-98701165D01*
X161754333Y-98585667D01*
X161754331Y-98585666D01*
X161754331Y-98585665D01*
X161638836Y-98497043D01*
X161638833Y-98497041D01*
X161504339Y-98441332D01*
X161504329Y-98441329D01*
X161360002Y-98422329D01*
X161359998Y-98422329D01*
X161215670Y-98441329D01*
X161215660Y-98441332D01*
X161081167Y-98497041D01*
X161081164Y-98497043D01*
X160965667Y-98585667D01*
X160877043Y-98701164D01*
X160877041Y-98701167D01*
X160821332Y-98835660D01*
X160821329Y-98835670D01*
X160802329Y-98979998D01*
X160802329Y-98980001D01*
X160649044Y-98980001D01*
X160632957Y-98941165D01*
X160544333Y-98825667D01*
X160544331Y-98825666D01*
X160544331Y-98825665D01*
X160428836Y-98737043D01*
X160428833Y-98737041D01*
X160294339Y-98681332D01*
X160294329Y-98681329D01*
X160150002Y-98662329D01*
X160149998Y-98662329D01*
X160005670Y-98681329D01*
X160005660Y-98681332D01*
X159871167Y-98737041D01*
X159871164Y-98737043D01*
X159755667Y-98825667D01*
X159667043Y-98941164D01*
X159667041Y-98941167D01*
X159611332Y-99075660D01*
X159611329Y-99075670D01*
X159592329Y-99219998D01*
X159592329Y-99220001D01*
X150034274Y-99220001D01*
X150117200Y-99185652D01*
X150334459Y-99052516D01*
X150528216Y-98887032D01*
X150693700Y-98693275D01*
X150826836Y-98476016D01*
X150924346Y-98240605D01*
X150983830Y-97992838D01*
X150983830Y-97992834D01*
X150983831Y-97992832D01*
X150984511Y-97984195D01*
X151006228Y-97941574D01*
X151046818Y-97926600D01*
X163080660Y-97926600D01*
X163124854Y-97944906D01*
X163143160Y-97989100D01*
X163124854Y-98033294D01*
X163109036Y-98044786D01*
X163089295Y-98054845D01*
X163058948Y-98070308D01*
X162967808Y-98161448D01*
X162909291Y-98276292D01*
X162909291Y-98276293D01*
X162889128Y-98403600D01*
X162909291Y-98530906D01*
X162909291Y-98530907D01*
X162937192Y-98585665D01*
X162967808Y-98645751D01*
X163058949Y-98736892D01*
X163173794Y-98795409D01*
X163301100Y-98815572D01*
X163428406Y-98795409D01*
X163543251Y-98736892D01*
X163581905Y-98698237D01*
X163626100Y-98679931D01*
X163670294Y-98698237D01*
X163708949Y-98736892D01*
X163823794Y-98795409D01*
X163951100Y-98815572D01*
X164078406Y-98795409D01*
X164193251Y-98736892D01*
X164284392Y-98645751D01*
X164342909Y-98530906D01*
X164363072Y-98403600D01*
X164342909Y-98276294D01*
X164284392Y-98161449D01*
X164193251Y-98070308D01*
X164143164Y-98044787D01*
X164112099Y-98008413D01*
X164115852Y-97960725D01*
X164152227Y-97929659D01*
X164171540Y-97926600D01*
X165615600Y-97926600D01*
X165659794Y-97944906D01*
X165678100Y-97989099D01*
X165678100Y-100826600D01*
X171165600Y-100826600D01*
X171209794Y-100844906D01*
X171228100Y-100889100D01*
X171228100Y-120717303D01*
X171222087Y-120744052D01*
X171092671Y-121017346D01*
X171091239Y-121020024D01*
X170930705Y-121288191D01*
X170929020Y-121290718D01*
X170743237Y-121542037D01*
X170741315Y-121544388D01*
X170532021Y-121776508D01*
X170529880Y-121778662D01*
X170299062Y-121989377D01*
X170296723Y-121991313D01*
X170046553Y-122178645D01*
X170044036Y-122180346D01*
X169776862Y-122342532D01*
X169774193Y-122343980D01*
X169492964Y-122479282D01*
X169490387Y-122480383D01*
X165515321Y-123971032D01*
X165513462Y-123970979D01*
X165490805Y-123980226D01*
X165484274Y-123982676D01*
X165482056Y-123983805D01*
X165391342Y-124020918D01*
X165391332Y-124020923D01*
X165203605Y-124128390D01*
X165203601Y-124128392D01*
X165031686Y-124259674D01*
X165031674Y-124259684D01*
X164878577Y-124412484D01*
X164878569Y-124412493D01*
X164746950Y-124584159D01*
X164639116Y-124771684D01*
X164639109Y-124771697D01*
X164556950Y-124971795D01*
X164556948Y-124971801D01*
X164501891Y-125180994D01*
X164474900Y-125395625D01*
X164475600Y-125503627D01*
X164475600Y-130502237D01*
X164475481Y-130504962D01*
X164461271Y-130667373D01*
X164459379Y-130678102D01*
X164418245Y-130831617D01*
X164414519Y-130841855D01*
X164347354Y-130985890D01*
X164341907Y-130995324D01*
X164265849Y-131103948D01*
X164225506Y-131129650D01*
X164214652Y-131130600D01*
X132787548Y-131130600D01*
X132743354Y-131112294D01*
X132736351Y-131103948D01*
X132660292Y-130995324D01*
X132654845Y-130985890D01*
X132632817Y-130938650D01*
X132587676Y-130841845D01*
X132583956Y-130831624D01*
X132542819Y-130678098D01*
X132540928Y-130667373D01*
X132534449Y-130593320D01*
X132526718Y-130504958D01*
X132526600Y-130502237D01*
X132526600Y-128503604D01*
X133906029Y-128503604D01*
X133924673Y-128704811D01*
X133924675Y-128704822D01*
X133979976Y-128899185D01*
X133979977Y-128899185D01*
X134070052Y-129080081D01*
X134191833Y-129241345D01*
X134279698Y-129321445D01*
X134341170Y-129377485D01*
X134341172Y-129377486D01*
X134512985Y-129483867D01*
X134701420Y-129556867D01*
X134900060Y-129594000D01*
X134900063Y-129594000D01*
X135102137Y-129594000D01*
X135102140Y-129594000D01*
X135300780Y-129556867D01*
X135489215Y-129483867D01*
X135661028Y-129377486D01*
X135810367Y-129241345D01*
X135932148Y-129080081D01*
X136022223Y-128899185D01*
X136077525Y-128704819D01*
X136096171Y-128503604D01*
X144906029Y-128503604D01*
X144924673Y-128704811D01*
X144924675Y-128704822D01*
X144979976Y-128899185D01*
X144979977Y-128899185D01*
X145070052Y-129080081D01*
X145191833Y-129241345D01*
X145279698Y-129321445D01*
X145341170Y-129377485D01*
X145341172Y-129377486D01*
X145512985Y-129483867D01*
X145701420Y-129556867D01*
X145900060Y-129594000D01*
X145900063Y-129594000D01*
X146102137Y-129594000D01*
X146102140Y-129594000D01*
X146300780Y-129556867D01*
X146489215Y-129483867D01*
X146661028Y-129377486D01*
X146810367Y-129241345D01*
X146932148Y-129080081D01*
X147022223Y-128899185D01*
X147077525Y-128704819D01*
X147096171Y-128503604D01*
X149906029Y-128503604D01*
X149924673Y-128704811D01*
X149924675Y-128704822D01*
X149979976Y-128899185D01*
X149979977Y-128899185D01*
X150070052Y-129080081D01*
X150191833Y-129241345D01*
X150279698Y-129321445D01*
X150341170Y-129377485D01*
X150341172Y-129377486D01*
X150512985Y-129483867D01*
X150701420Y-129556867D01*
X150900060Y-129594000D01*
X150900063Y-129594000D01*
X151102137Y-129594000D01*
X151102140Y-129594000D01*
X151300780Y-129556867D01*
X151489215Y-129483867D01*
X151661028Y-129377486D01*
X151810367Y-129241345D01*
X151932148Y-129080081D01*
X152022223Y-128899185D01*
X152077525Y-128704819D01*
X152096171Y-128503604D01*
X160906029Y-128503604D01*
X160924673Y-128704811D01*
X160924675Y-128704822D01*
X160979976Y-128899185D01*
X160979977Y-128899185D01*
X161070052Y-129080081D01*
X161191833Y-129241345D01*
X161279698Y-129321445D01*
X161341170Y-129377485D01*
X161341172Y-129377486D01*
X161512985Y-129483867D01*
X161701420Y-129556867D01*
X161900060Y-129594000D01*
X161900063Y-129594000D01*
X162102137Y-129594000D01*
X162102140Y-129594000D01*
X162300780Y-129556867D01*
X162489215Y-129483867D01*
X162661028Y-129377486D01*
X162810367Y-129241345D01*
X162932148Y-129080081D01*
X163022223Y-128899185D01*
X163077525Y-128704819D01*
X163096171Y-128503600D01*
X163077525Y-128302381D01*
X163022223Y-128108015D01*
X162932148Y-127927119D01*
X162810367Y-127765855D01*
X162729099Y-127691769D01*
X162661029Y-127629714D01*
X162489213Y-127523332D01*
X162300777Y-127450332D01*
X162102142Y-127413200D01*
X162102140Y-127413200D01*
X161900060Y-127413200D01*
X161900057Y-127413200D01*
X161701422Y-127450332D01*
X161512986Y-127523332D01*
X161341170Y-127629714D01*
X161191831Y-127765857D01*
X161191829Y-127765859D01*
X161070052Y-127927119D01*
X160979977Y-128108014D01*
X160924675Y-128302377D01*
X160924673Y-128302388D01*
X160906029Y-128503595D01*
X160906029Y-128503604D01*
X152096171Y-128503604D01*
X152096171Y-128503600D01*
X152077525Y-128302381D01*
X152022223Y-128108015D01*
X151932148Y-127927119D01*
X151810367Y-127765855D01*
X151729099Y-127691769D01*
X151661029Y-127629714D01*
X151489213Y-127523332D01*
X151300777Y-127450332D01*
X151102142Y-127413200D01*
X151102140Y-127413200D01*
X150900060Y-127413200D01*
X150900057Y-127413200D01*
X150701422Y-127450332D01*
X150512986Y-127523332D01*
X150341170Y-127629714D01*
X150191831Y-127765857D01*
X150191829Y-127765859D01*
X150070052Y-127927119D01*
X149979977Y-128108014D01*
X149924675Y-128302377D01*
X149924673Y-128302388D01*
X149906029Y-128503595D01*
X149906029Y-128503604D01*
X147096171Y-128503604D01*
X147096171Y-128503600D01*
X147077525Y-128302381D01*
X147022223Y-128108015D01*
X146932148Y-127927119D01*
X146810367Y-127765855D01*
X146729099Y-127691769D01*
X146661029Y-127629714D01*
X146489213Y-127523332D01*
X146300777Y-127450332D01*
X146102142Y-127413200D01*
X146102140Y-127413200D01*
X145900060Y-127413200D01*
X145900057Y-127413200D01*
X145701422Y-127450332D01*
X145512986Y-127523332D01*
X145341170Y-127629714D01*
X145191831Y-127765857D01*
X145191829Y-127765859D01*
X145070052Y-127927119D01*
X144979977Y-128108014D01*
X144924675Y-128302377D01*
X144924673Y-128302388D01*
X144906029Y-128503595D01*
X144906029Y-128503604D01*
X136096171Y-128503604D01*
X136096171Y-128503600D01*
X136077525Y-128302381D01*
X136022223Y-128108015D01*
X135932148Y-127927119D01*
X135810367Y-127765855D01*
X135729099Y-127691769D01*
X135661029Y-127629714D01*
X135489213Y-127523332D01*
X135300777Y-127450332D01*
X135102142Y-127413200D01*
X135102140Y-127413200D01*
X134900060Y-127413200D01*
X134900057Y-127413200D01*
X134701422Y-127450332D01*
X134512986Y-127523332D01*
X134341170Y-127629714D01*
X134191831Y-127765857D01*
X134191829Y-127765859D01*
X134070052Y-127927119D01*
X133979977Y-128108014D01*
X133924675Y-128302377D01*
X133924673Y-128302388D01*
X133906029Y-128503595D01*
X133906029Y-128503604D01*
X132526600Y-128503604D01*
X132526600Y-125498843D01*
X132527269Y-125395625D01*
X132500278Y-125180999D01*
X132445221Y-124971806D01*
X132363058Y-124771701D01*
X132255225Y-124584177D01*
X132123606Y-124412511D01*
X131970498Y-124259701D01*
X131798577Y-124128415D01*
X131798574Y-124128413D01*
X131798568Y-124128409D01*
X131756626Y-124104399D01*
X144830443Y-124104399D01*
X144848976Y-124233308D01*
X144864337Y-124266943D01*
X144903079Y-124351774D01*
X144988364Y-124450199D01*
X145097924Y-124520608D01*
X145097926Y-124520608D01*
X145097927Y-124520609D01*
X145222881Y-124557300D01*
X145222883Y-124557300D01*
X145353119Y-124557300D01*
X145449444Y-124529015D01*
X145478076Y-124520608D01*
X145587636Y-124450199D01*
X145672921Y-124351774D01*
X145727023Y-124233309D01*
X145745557Y-124104400D01*
X145727023Y-123975491D01*
X145672921Y-123857026D01*
X145587636Y-123758601D01*
X145478076Y-123688192D01*
X145478074Y-123688191D01*
X145478072Y-123688190D01*
X145353119Y-123651500D01*
X145353117Y-123651500D01*
X145222883Y-123651500D01*
X145222881Y-123651500D01*
X145097927Y-123688190D01*
X144988364Y-123758601D01*
X144903078Y-123857027D01*
X144848976Y-123975491D01*
X144830443Y-124104399D01*
X131756626Y-124104399D01*
X131610856Y-124020952D01*
X131610853Y-124020950D01*
X131610845Y-124020946D01*
X131572708Y-124005343D01*
X131520334Y-123983916D01*
X131517837Y-123982643D01*
X131510420Y-123979861D01*
X131496803Y-123974302D01*
X131493886Y-123973660D01*
X128308622Y-122779186D01*
X127512127Y-122480500D01*
X127509553Y-122479401D01*
X127228023Y-122343953D01*
X127225354Y-122342506D01*
X126996530Y-122203600D01*
X148267183Y-122203600D01*
X148284759Y-122325847D01*
X148284760Y-122325850D01*
X148336064Y-122438190D01*
X148336066Y-122438194D01*
X148416945Y-122531534D01*
X148433548Y-122542203D01*
X148440229Y-122546496D01*
X148443801Y-122549375D01*
X148443902Y-122549238D01*
X148447874Y-122552124D01*
X148447878Y-122552126D01*
X148447880Y-122552128D01*
X148451868Y-122554159D01*
X148454540Y-122555694D01*
X148520844Y-122598305D01*
X148530736Y-122601209D01*
X148556950Y-122608907D01*
X148567718Y-122613188D01*
X148567974Y-122613319D01*
X148574690Y-122614382D01*
X148578586Y-122615258D01*
X148611934Y-122625050D01*
X148639345Y-122633100D01*
X148639347Y-122633100D01*
X148687950Y-122633100D01*
X148697727Y-122633869D01*
X148701100Y-122634404D01*
X148704472Y-122633869D01*
X148714250Y-122633100D01*
X148762854Y-122633100D01*
X148772881Y-122630155D01*
X148823617Y-122615257D01*
X148827506Y-122614382D01*
X148834226Y-122613319D01*
X148834488Y-122613185D01*
X148845246Y-122608907D01*
X148881356Y-122598305D01*
X148947656Y-122555695D01*
X148950335Y-122554157D01*
X148954320Y-122552128D01*
X148954325Y-122552122D01*
X148958305Y-122549232D01*
X148958406Y-122549372D01*
X148961972Y-122546495D01*
X148985255Y-122531533D01*
X149066134Y-122438193D01*
X149117440Y-122325849D01*
X149135017Y-122203600D01*
X149117440Y-122081351D01*
X149066134Y-121969007D01*
X149066133Y-121969005D01*
X148985256Y-121875668D01*
X148985255Y-121875667D01*
X148961969Y-121860702D01*
X148958403Y-121857828D01*
X148958304Y-121857966D01*
X148954324Y-121855074D01*
X148954104Y-121854962D01*
X148950334Y-121853041D01*
X148947643Y-121851495D01*
X148921150Y-121834469D01*
X148881360Y-121808897D01*
X148881351Y-121808893D01*
X148845250Y-121798293D01*
X148834490Y-121794015D01*
X148834226Y-121793881D01*
X148834223Y-121793880D01*
X148834222Y-121793880D01*
X148834221Y-121793879D01*
X148827511Y-121792816D01*
X148823594Y-121791935D01*
X148762855Y-121774100D01*
X148762853Y-121774100D01*
X148714250Y-121774100D01*
X148704472Y-121773330D01*
X148701100Y-121772796D01*
X148697727Y-121773330D01*
X148687950Y-121774100D01*
X148639345Y-121774100D01*
X148578598Y-121791937D01*
X148574680Y-121792818D01*
X148574101Y-121792910D01*
X148567974Y-121793880D01*
X148567968Y-121793882D01*
X148567693Y-121794023D01*
X148556950Y-121798292D01*
X148520845Y-121808894D01*
X148454552Y-121851496D01*
X148451849Y-121853048D01*
X148447880Y-121855071D01*
X148443907Y-121857958D01*
X148443807Y-121857821D01*
X148440238Y-121860696D01*
X148416945Y-121875666D01*
X148416944Y-121875667D01*
X148336066Y-121969005D01*
X148336064Y-121969009D01*
X148284760Y-122081349D01*
X148284759Y-122081352D01*
X148267183Y-122203600D01*
X126996530Y-122203600D01*
X126958182Y-122180321D01*
X126955675Y-122178628D01*
X126825765Y-122081349D01*
X126705497Y-121991290D01*
X126703157Y-121989354D01*
X126622335Y-121915571D01*
X126472331Y-121778631D01*
X126470206Y-121776493D01*
X126468048Y-121774100D01*
X126400993Y-121699731D01*
X126260905Y-121544363D01*
X126258983Y-121542012D01*
X126230587Y-121503600D01*
X126073204Y-121290700D01*
X126071520Y-121288174D01*
X126028792Y-121216799D01*
X125910981Y-121020000D01*
X125909556Y-121017331D01*
X125880113Y-120955153D01*
X125874100Y-120928405D01*
X125874100Y-119598530D01*
X125892406Y-119554336D01*
X125936600Y-119536030D01*
X125980794Y-119554336D01*
X125998976Y-119594604D01*
X126003354Y-119664179D01*
X126013026Y-119817920D01*
X126013027Y-119817924D01*
X126072039Y-120127276D01*
X126169359Y-120426796D01*
X126169361Y-120426801D01*
X126231524Y-120558904D01*
X126303455Y-120711765D01*
X126303465Y-120711783D01*
X126472204Y-120977673D01*
X126472206Y-120977675D01*
X126535471Y-121054149D01*
X126672957Y-121220341D01*
X126902537Y-121435931D01*
X127157327Y-121621047D01*
X127157333Y-121621050D01*
X127157337Y-121621053D01*
X127175260Y-121630906D01*
X127433310Y-121772770D01*
X127497774Y-121798293D01*
X127726126Y-121888704D01*
X127726145Y-121888710D01*
X127952605Y-121946854D01*
X128031172Y-121967027D01*
X128031173Y-121967027D01*
X128031176Y-121967028D01*
X128343631Y-122006500D01*
X128343632Y-122006500D01*
X128658568Y-122006500D01*
X128658569Y-122006500D01*
X128971024Y-121967028D01*
X129081355Y-121938699D01*
X129276054Y-121888710D01*
X129276060Y-121888707D01*
X129276068Y-121888706D01*
X129568890Y-121772770D01*
X129844873Y-121621047D01*
X130006525Y-121503600D01*
X134089128Y-121503600D01*
X134095584Y-121544363D01*
X134109291Y-121630906D01*
X134109291Y-121630907D01*
X134167808Y-121745750D01*
X134167808Y-121745751D01*
X134258949Y-121836892D01*
X134373794Y-121895409D01*
X134501100Y-121915572D01*
X134628406Y-121895409D01*
X134743251Y-121836892D01*
X134834392Y-121745751D01*
X134892909Y-121630906D01*
X134913072Y-121503600D01*
X136689128Y-121503600D01*
X136709291Y-121630906D01*
X136709291Y-121630907D01*
X136767808Y-121745750D01*
X136767808Y-121745751D01*
X136858949Y-121836892D01*
X136973794Y-121895409D01*
X137101100Y-121915572D01*
X137228406Y-121895409D01*
X137343251Y-121836892D01*
X137434392Y-121745751D01*
X137492909Y-121630906D01*
X137513072Y-121503600D01*
X137492909Y-121376294D01*
X137434392Y-121261449D01*
X137343251Y-121170308D01*
X137228406Y-121111791D01*
X137101100Y-121091628D01*
X136973793Y-121111791D01*
X136973792Y-121111791D01*
X136858948Y-121170308D01*
X136767808Y-121261448D01*
X136709291Y-121376292D01*
X136709291Y-121376293D01*
X136689128Y-121503600D01*
X134913072Y-121503600D01*
X134892909Y-121376294D01*
X134834392Y-121261449D01*
X134743251Y-121170308D01*
X134628406Y-121111791D01*
X134501100Y-121091628D01*
X134501099Y-121091628D01*
X134373793Y-121111791D01*
X134373792Y-121111791D01*
X134258948Y-121170308D01*
X134167808Y-121261448D01*
X134109291Y-121376292D01*
X134109291Y-121376293D01*
X134099846Y-121435931D01*
X134089128Y-121503600D01*
X130006525Y-121503600D01*
X130099663Y-121435931D01*
X130329243Y-121220341D01*
X130529992Y-120977677D01*
X130544287Y-120955153D01*
X130698734Y-120711783D01*
X130698736Y-120711777D01*
X130698745Y-120711765D01*
X130702587Y-120703600D01*
X148167183Y-120703600D01*
X148184759Y-120825847D01*
X148184760Y-120825850D01*
X148236064Y-120938190D01*
X148236066Y-120938194D01*
X148316945Y-121031534D01*
X148333548Y-121042203D01*
X148340229Y-121046496D01*
X148343801Y-121049375D01*
X148343902Y-121049238D01*
X148347874Y-121052124D01*
X148347878Y-121052126D01*
X148347880Y-121052128D01*
X148351868Y-121054159D01*
X148354540Y-121055694D01*
X148420844Y-121098305D01*
X148430736Y-121101209D01*
X148456950Y-121108907D01*
X148467718Y-121113188D01*
X148467974Y-121113319D01*
X148474690Y-121114382D01*
X148478586Y-121115258D01*
X148511934Y-121125050D01*
X148539345Y-121133100D01*
X148539347Y-121133100D01*
X148587950Y-121133100D01*
X148597727Y-121133869D01*
X148601100Y-121134404D01*
X148604472Y-121133869D01*
X148614250Y-121133100D01*
X148662854Y-121133100D01*
X148672881Y-121130155D01*
X148723617Y-121115257D01*
X148727506Y-121114382D01*
X148734226Y-121113319D01*
X148734488Y-121113185D01*
X148745246Y-121108907D01*
X148781356Y-121098305D01*
X148847656Y-121055695D01*
X148850335Y-121054157D01*
X148854320Y-121052128D01*
X148854325Y-121052122D01*
X148858305Y-121049232D01*
X148858406Y-121049372D01*
X148861972Y-121046495D01*
X148885255Y-121031533D01*
X148966134Y-120938193D01*
X149017440Y-120825849D01*
X149035017Y-120703600D01*
X149017440Y-120581351D01*
X148982894Y-120505706D01*
X148966135Y-120469009D01*
X148966133Y-120469005D01*
X148885256Y-120375668D01*
X148885255Y-120375667D01*
X148861969Y-120360702D01*
X148858403Y-120357828D01*
X148858304Y-120357966D01*
X148854324Y-120355074D01*
X148854104Y-120354962D01*
X148850334Y-120353041D01*
X148847643Y-120351495D01*
X148821150Y-120334469D01*
X148781360Y-120308897D01*
X148781351Y-120308893D01*
X148745250Y-120298293D01*
X148734490Y-120294015D01*
X148734226Y-120293881D01*
X148734223Y-120293880D01*
X148734222Y-120293880D01*
X148734221Y-120293879D01*
X148727511Y-120292816D01*
X148723594Y-120291935D01*
X148662855Y-120274100D01*
X148662853Y-120274100D01*
X148614250Y-120274100D01*
X148604472Y-120273330D01*
X148601100Y-120272796D01*
X148597727Y-120273330D01*
X148587950Y-120274100D01*
X148539345Y-120274100D01*
X148478598Y-120291937D01*
X148474680Y-120292818D01*
X148474101Y-120292910D01*
X148467974Y-120293880D01*
X148467968Y-120293882D01*
X148467693Y-120294023D01*
X148456950Y-120298292D01*
X148420845Y-120308894D01*
X148354552Y-120351496D01*
X148351849Y-120353048D01*
X148347880Y-120355071D01*
X148343907Y-120357958D01*
X148343807Y-120357821D01*
X148340238Y-120360696D01*
X148316945Y-120375666D01*
X148316944Y-120375667D01*
X148236066Y-120469005D01*
X148236064Y-120469009D01*
X148184760Y-120581349D01*
X148184759Y-120581352D01*
X148167183Y-120703600D01*
X130702587Y-120703600D01*
X130832839Y-120426801D01*
X130930160Y-120127277D01*
X130989174Y-119817917D01*
X131008949Y-119503600D01*
X130989174Y-119189283D01*
X130930160Y-118879923D01*
X130832839Y-118580399D01*
X130796702Y-118503604D01*
X136343089Y-118503604D01*
X136363500Y-118762963D01*
X136363501Y-118762967D01*
X136363502Y-118762970D01*
X136424238Y-119015954D01*
X136523801Y-119256321D01*
X136523802Y-119256322D01*
X136659738Y-119478150D01*
X136659739Y-119478152D01*
X136659741Y-119478154D01*
X136681583Y-119503728D01*
X136828708Y-119675991D01*
X136925780Y-119758897D01*
X137026546Y-119844959D01*
X137248379Y-119980899D01*
X137488746Y-120080462D01*
X137741730Y-120141198D01*
X137741732Y-120141198D01*
X137741736Y-120141199D01*
X138001096Y-120161611D01*
X138001100Y-120161611D01*
X138001104Y-120161611D01*
X138102893Y-120153600D01*
X146167183Y-120153600D01*
X146184759Y-120275847D01*
X146184760Y-120275850D01*
X146236064Y-120388190D01*
X146236066Y-120388194D01*
X146316945Y-120481534D01*
X146333548Y-120492203D01*
X146340229Y-120496496D01*
X146343801Y-120499375D01*
X146343902Y-120499238D01*
X146347874Y-120502124D01*
X146347878Y-120502126D01*
X146347880Y-120502128D01*
X146351868Y-120504159D01*
X146354540Y-120505694D01*
X146420844Y-120548305D01*
X146430736Y-120551209D01*
X146456950Y-120558907D01*
X146467718Y-120563188D01*
X146467974Y-120563319D01*
X146474690Y-120564382D01*
X146478586Y-120565258D01*
X146511934Y-120575050D01*
X146539345Y-120583100D01*
X146539347Y-120583100D01*
X146587950Y-120583100D01*
X146597727Y-120583869D01*
X146601100Y-120584404D01*
X146604472Y-120583869D01*
X146614250Y-120583100D01*
X146662854Y-120583100D01*
X146672881Y-120580155D01*
X146723617Y-120565257D01*
X146727506Y-120564382D01*
X146734226Y-120563319D01*
X146734488Y-120563185D01*
X146745246Y-120558907D01*
X146781356Y-120548305D01*
X146847656Y-120505695D01*
X146850335Y-120504157D01*
X146854320Y-120502128D01*
X146854325Y-120502122D01*
X146858305Y-120499232D01*
X146858406Y-120499372D01*
X146861972Y-120496495D01*
X146885255Y-120481533D01*
X146966134Y-120388193D01*
X147017440Y-120275849D01*
X147035017Y-120153600D01*
X147017440Y-120031351D01*
X146966134Y-119919007D01*
X146966133Y-119919005D01*
X146885256Y-119825668D01*
X146885255Y-119825667D01*
X146861969Y-119810702D01*
X146858403Y-119807828D01*
X146858304Y-119807966D01*
X146854324Y-119805074D01*
X146854104Y-119804962D01*
X146850334Y-119803041D01*
X146847643Y-119801495D01*
X146821150Y-119784469D01*
X146781360Y-119758897D01*
X146781351Y-119758893D01*
X146745250Y-119748293D01*
X146734490Y-119744015D01*
X146734226Y-119743881D01*
X146734223Y-119743880D01*
X146734222Y-119743880D01*
X146734221Y-119743879D01*
X146727511Y-119742816D01*
X146723594Y-119741935D01*
X146662855Y-119724100D01*
X146662853Y-119724100D01*
X146614250Y-119724100D01*
X146604472Y-119723330D01*
X146601100Y-119722796D01*
X146597727Y-119723330D01*
X146587950Y-119724100D01*
X146539345Y-119724100D01*
X146478598Y-119741937D01*
X146474680Y-119742818D01*
X146474101Y-119742910D01*
X146467974Y-119743880D01*
X146467968Y-119743882D01*
X146467693Y-119744023D01*
X146456950Y-119748292D01*
X146420845Y-119758894D01*
X146354552Y-119801496D01*
X146351849Y-119803048D01*
X146347880Y-119805071D01*
X146343907Y-119807958D01*
X146343807Y-119807821D01*
X146340238Y-119810696D01*
X146316945Y-119825666D01*
X146316944Y-119825667D01*
X146236066Y-119919005D01*
X146236064Y-119919009D01*
X146184760Y-120031349D01*
X146184759Y-120031352D01*
X146167183Y-120153600D01*
X138102893Y-120153600D01*
X138260463Y-120141199D01*
X138260465Y-120141198D01*
X138260470Y-120141198D01*
X138513454Y-120080462D01*
X138753821Y-119980899D01*
X138975654Y-119844959D01*
X139173491Y-119675991D01*
X139342459Y-119478154D01*
X139478399Y-119256321D01*
X139577962Y-119015954D01*
X139638698Y-118762970D01*
X139653067Y-118580403D01*
X139659111Y-118503604D01*
X152343089Y-118503604D01*
X152363500Y-118762963D01*
X152363501Y-118762967D01*
X152363502Y-118762970D01*
X152424238Y-119015954D01*
X152523801Y-119256321D01*
X152523802Y-119256322D01*
X152659738Y-119478150D01*
X152659739Y-119478152D01*
X152659741Y-119478154D01*
X152681583Y-119503728D01*
X152828708Y-119675991D01*
X152925780Y-119758897D01*
X153026546Y-119844959D01*
X153248379Y-119980899D01*
X153488746Y-120080462D01*
X153741730Y-120141198D01*
X153741732Y-120141198D01*
X153741736Y-120141199D01*
X154001096Y-120161611D01*
X154001100Y-120161611D01*
X154001104Y-120161611D01*
X154260463Y-120141199D01*
X154260465Y-120141198D01*
X154260470Y-120141198D01*
X154513454Y-120080462D01*
X154753821Y-119980899D01*
X154975654Y-119844959D01*
X155173491Y-119675991D01*
X155320726Y-119503600D01*
X165993251Y-119503600D01*
X166013026Y-119817920D01*
X166013027Y-119817924D01*
X166072039Y-120127276D01*
X166169359Y-120426796D01*
X166169361Y-120426801D01*
X166231524Y-120558904D01*
X166303455Y-120711765D01*
X166303465Y-120711783D01*
X166472204Y-120977673D01*
X166472206Y-120977675D01*
X166535471Y-121054149D01*
X166672957Y-121220341D01*
X166902537Y-121435931D01*
X167157327Y-121621047D01*
X167157333Y-121621050D01*
X167157337Y-121621053D01*
X167175260Y-121630906D01*
X167433310Y-121772770D01*
X167497774Y-121798293D01*
X167726126Y-121888704D01*
X167726145Y-121888710D01*
X167952605Y-121946854D01*
X168031172Y-121967027D01*
X168031173Y-121967027D01*
X168031176Y-121967028D01*
X168343631Y-122006500D01*
X168343632Y-122006500D01*
X168658568Y-122006500D01*
X168658569Y-122006500D01*
X168971024Y-121967028D01*
X169081355Y-121938699D01*
X169276054Y-121888710D01*
X169276060Y-121888707D01*
X169276068Y-121888706D01*
X169568890Y-121772770D01*
X169844873Y-121621047D01*
X170099663Y-121435931D01*
X170329243Y-121220341D01*
X170529992Y-120977677D01*
X170544287Y-120955153D01*
X170698734Y-120711783D01*
X170698736Y-120711777D01*
X170698745Y-120711765D01*
X170832839Y-120426801D01*
X170930160Y-120127277D01*
X170989174Y-119817917D01*
X171008949Y-119503600D01*
X170989174Y-119189283D01*
X170930160Y-118879923D01*
X170832839Y-118580399D01*
X170698745Y-118295435D01*
X170698741Y-118295429D01*
X170698734Y-118295416D01*
X170529995Y-118029526D01*
X170529993Y-118029524D01*
X170329242Y-117786858D01*
X170213484Y-117678154D01*
X170099663Y-117571269D01*
X169844873Y-117386153D01*
X169844867Y-117386150D01*
X169844862Y-117386146D01*
X169657458Y-117283120D01*
X169568890Y-117234430D01*
X169568888Y-117234429D01*
X169568886Y-117234428D01*
X169276073Y-117118495D01*
X169276054Y-117118489D01*
X168971026Y-117040172D01*
X168971028Y-117040172D01*
X168721059Y-117008594D01*
X168658569Y-117000700D01*
X168343631Y-117000700D01*
X168281139Y-117008594D01*
X168031172Y-117040172D01*
X167726145Y-117118489D01*
X167726126Y-117118495D01*
X167433313Y-117234428D01*
X167433308Y-117234431D01*
X167157337Y-117386146D01*
X167157330Y-117386151D01*
X166902538Y-117571268D01*
X166672957Y-117786858D01*
X166472206Y-118029524D01*
X166472204Y-118029526D01*
X166303465Y-118295416D01*
X166303455Y-118295434D01*
X166169362Y-118580396D01*
X166169359Y-118580403D01*
X166072039Y-118879923D01*
X166013027Y-119189275D01*
X166013026Y-119189279D01*
X165993251Y-119503600D01*
X155320726Y-119503600D01*
X155342459Y-119478154D01*
X155478399Y-119256321D01*
X155577962Y-119015954D01*
X155638698Y-118762970D01*
X155653067Y-118580403D01*
X155659111Y-118503604D01*
X155659111Y-118503595D01*
X155638699Y-118244236D01*
X155638698Y-118244232D01*
X155623493Y-118180899D01*
X155577962Y-117991246D01*
X155478399Y-117750879D01*
X155342459Y-117529046D01*
X155275385Y-117450512D01*
X155173491Y-117331208D01*
X154975650Y-117162238D01*
X154776456Y-117040172D01*
X154753821Y-117026301D01*
X154513454Y-116926738D01*
X154513448Y-116926736D01*
X154513447Y-116926736D01*
X154260467Y-116866001D01*
X154260463Y-116866000D01*
X154001104Y-116845589D01*
X154001096Y-116845589D01*
X153741736Y-116866000D01*
X153741732Y-116866001D01*
X153488752Y-116926736D01*
X153488748Y-116926737D01*
X153488746Y-116926738D01*
X153248379Y-117026301D01*
X153248377Y-117026302D01*
X153026549Y-117162238D01*
X152828708Y-117331208D01*
X152659738Y-117529049D01*
X152523802Y-117750877D01*
X152424236Y-117991252D01*
X152363501Y-118244232D01*
X152363500Y-118244236D01*
X152343089Y-118503595D01*
X152343089Y-118503604D01*
X139659111Y-118503604D01*
X139659111Y-118503595D01*
X139638699Y-118244236D01*
X139638698Y-118244232D01*
X139623493Y-118180899D01*
X139577962Y-117991246D01*
X139478399Y-117750879D01*
X139342459Y-117529046D01*
X139275385Y-117450512D01*
X139173491Y-117331208D01*
X138975650Y-117162238D01*
X138776456Y-117040172D01*
X138753821Y-117026301D01*
X138513454Y-116926738D01*
X138513448Y-116926736D01*
X138513447Y-116926736D01*
X138260467Y-116866001D01*
X138260463Y-116866000D01*
X138001104Y-116845589D01*
X138001096Y-116845589D01*
X137741736Y-116866000D01*
X137741732Y-116866001D01*
X137488752Y-116926736D01*
X137488748Y-116926737D01*
X137488746Y-116926738D01*
X137248379Y-117026301D01*
X137248377Y-117026302D01*
X137026549Y-117162238D01*
X136828708Y-117331208D01*
X136659738Y-117529049D01*
X136523802Y-117750877D01*
X136424236Y-117991252D01*
X136363501Y-118244232D01*
X136363500Y-118244236D01*
X136343089Y-118503595D01*
X136343089Y-118503604D01*
X130796702Y-118503604D01*
X130698745Y-118295435D01*
X130698741Y-118295429D01*
X130698734Y-118295416D01*
X130529995Y-118029526D01*
X130529993Y-118029524D01*
X130329242Y-117786858D01*
X130213484Y-117678154D01*
X130099663Y-117571269D01*
X129844873Y-117386153D01*
X129844867Y-117386150D01*
X129844862Y-117386146D01*
X129657458Y-117283120D01*
X129568890Y-117234430D01*
X129568888Y-117234429D01*
X129568886Y-117234428D01*
X129276073Y-117118495D01*
X129276054Y-117118489D01*
X128971026Y-117040172D01*
X128971028Y-117040172D01*
X128721059Y-117008594D01*
X128658569Y-117000700D01*
X128343631Y-117000700D01*
X128281139Y-117008594D01*
X128031172Y-117040172D01*
X127726145Y-117118489D01*
X127726126Y-117118495D01*
X127433313Y-117234428D01*
X127433308Y-117234431D01*
X127157337Y-117386146D01*
X127157330Y-117386151D01*
X126902538Y-117571268D01*
X126672957Y-117786858D01*
X126472206Y-118029524D01*
X126472204Y-118029526D01*
X126303465Y-118295416D01*
X126303455Y-118295434D01*
X126169362Y-118580396D01*
X126169359Y-118580403D01*
X126072039Y-118879923D01*
X126013027Y-119189275D01*
X126013026Y-119189279D01*
X125998977Y-119412593D01*
X125977932Y-119455551D01*
X125932676Y-119471046D01*
X125889718Y-119450001D01*
X125874100Y-119408669D01*
X125874100Y-116703604D01*
X132343089Y-116703604D01*
X132363500Y-116962963D01*
X132363501Y-116962967D01*
X132411342Y-117162241D01*
X132424238Y-117215954D01*
X132523801Y-117456321D01*
X132523802Y-117456322D01*
X132659738Y-117678150D01*
X132828708Y-117875991D01*
X132948012Y-117977885D01*
X133026546Y-118044959D01*
X133248379Y-118180899D01*
X133488746Y-118280462D01*
X133741730Y-118341198D01*
X133741732Y-118341198D01*
X133741736Y-118341199D01*
X134001096Y-118361611D01*
X134001100Y-118361611D01*
X134001104Y-118361611D01*
X134260463Y-118341199D01*
X134260465Y-118341198D01*
X134260470Y-118341198D01*
X134513454Y-118280462D01*
X134753821Y-118180899D01*
X134975654Y-118044959D01*
X135173491Y-117875991D01*
X135342459Y-117678154D01*
X135478399Y-117456321D01*
X135577962Y-117215954D01*
X135638698Y-116962970D01*
X135647937Y-116845589D01*
X135659111Y-116703604D01*
X146843089Y-116703604D01*
X146863500Y-116962963D01*
X146863501Y-116962967D01*
X146911342Y-117162241D01*
X146924238Y-117215954D01*
X147023801Y-117456321D01*
X147023802Y-117456322D01*
X147159738Y-117678150D01*
X147328708Y-117875991D01*
X147448012Y-117977885D01*
X147526546Y-118044959D01*
X147748379Y-118180899D01*
X147988746Y-118280462D01*
X148241730Y-118341198D01*
X148241732Y-118341198D01*
X148241736Y-118341199D01*
X148501096Y-118361611D01*
X148501100Y-118361611D01*
X148501104Y-118361611D01*
X148760463Y-118341199D01*
X148760465Y-118341198D01*
X148760470Y-118341198D01*
X149013454Y-118280462D01*
X149253821Y-118180899D01*
X149475654Y-118044959D01*
X149641165Y-117903600D01*
X151189128Y-117903600D01*
X151209291Y-118030906D01*
X151209291Y-118030907D01*
X151216451Y-118044959D01*
X151267808Y-118145751D01*
X151358949Y-118236892D01*
X151473794Y-118295409D01*
X151601100Y-118315572D01*
X151728406Y-118295409D01*
X151843251Y-118236892D01*
X151934392Y-118145751D01*
X151992909Y-118030906D01*
X152013072Y-117903600D01*
X151992909Y-117776294D01*
X151934392Y-117661449D01*
X151843251Y-117570308D01*
X151728406Y-117511791D01*
X151601100Y-117491628D01*
X151601099Y-117491628D01*
X151473793Y-117511791D01*
X151473792Y-117511791D01*
X151358948Y-117570308D01*
X151267808Y-117661448D01*
X151209291Y-117776292D01*
X151209291Y-117776293D01*
X151189128Y-117903600D01*
X149641165Y-117903600D01*
X149673491Y-117875991D01*
X149842459Y-117678154D01*
X149978399Y-117456321D01*
X150077962Y-117215954D01*
X150138698Y-116962970D01*
X150147937Y-116845589D01*
X150159111Y-116703604D01*
X161343089Y-116703604D01*
X161363500Y-116962963D01*
X161363501Y-116962967D01*
X161411342Y-117162241D01*
X161424238Y-117215954D01*
X161523801Y-117456321D01*
X161523802Y-117456322D01*
X161659738Y-117678150D01*
X161828708Y-117875991D01*
X161948012Y-117977885D01*
X162026546Y-118044959D01*
X162248379Y-118180899D01*
X162488746Y-118280462D01*
X162741730Y-118341198D01*
X162741732Y-118341198D01*
X162741736Y-118341199D01*
X163001096Y-118361611D01*
X163001100Y-118361611D01*
X163001104Y-118361611D01*
X163260463Y-118341199D01*
X163260465Y-118341198D01*
X163260470Y-118341198D01*
X163513454Y-118280462D01*
X163753821Y-118180899D01*
X163975654Y-118044959D01*
X164173491Y-117875991D01*
X164342459Y-117678154D01*
X164478399Y-117456321D01*
X164577962Y-117215954D01*
X164638698Y-116962970D01*
X164647937Y-116845589D01*
X164659111Y-116703604D01*
X164659111Y-116703595D01*
X164638699Y-116444236D01*
X164638698Y-116444232D01*
X164577963Y-116191252D01*
X164577962Y-116191246D01*
X164478399Y-115950879D01*
X164342459Y-115729046D01*
X164275385Y-115650512D01*
X164173491Y-115531208D01*
X163975650Y-115362238D01*
X163845587Y-115282535D01*
X163753821Y-115226301D01*
X163513454Y-115126738D01*
X163513448Y-115126736D01*
X163513447Y-115126736D01*
X163260467Y-115066001D01*
X163260463Y-115066000D01*
X163001104Y-115045589D01*
X163001096Y-115045589D01*
X162741736Y-115066000D01*
X162741732Y-115066001D01*
X162488752Y-115126736D01*
X162488748Y-115126737D01*
X162488746Y-115126738D01*
X162248379Y-115226301D01*
X162248377Y-115226302D01*
X162026549Y-115362238D01*
X161828708Y-115531208D01*
X161659738Y-115729049D01*
X161523802Y-115950877D01*
X161523801Y-115950879D01*
X161428276Y-116181499D01*
X161424236Y-116191252D01*
X161363501Y-116444232D01*
X161363500Y-116444236D01*
X161343089Y-116703595D01*
X161343089Y-116703604D01*
X150159111Y-116703604D01*
X150159111Y-116703595D01*
X150138699Y-116444236D01*
X150138698Y-116444232D01*
X150077963Y-116191252D01*
X150077962Y-116191246D01*
X149978399Y-115950879D01*
X149842459Y-115729046D01*
X149775385Y-115650512D01*
X149673491Y-115531208D01*
X149641169Y-115503603D01*
X157418221Y-115503603D01*
X157438062Y-115667016D01*
X157438064Y-115667027D01*
X157496440Y-115820949D01*
X157589955Y-115956430D01*
X157589958Y-115956433D01*
X157713181Y-116065598D01*
X157858948Y-116142103D01*
X158018788Y-116181500D01*
X158183412Y-116181500D01*
X158343252Y-116142103D01*
X158489019Y-116065598D01*
X158612242Y-115956433D01*
X158705759Y-115820950D01*
X158764136Y-115667024D01*
X158783979Y-115503600D01*
X158764136Y-115340176D01*
X158764135Y-115340174D01*
X158764135Y-115340172D01*
X158705759Y-115186250D01*
X158612244Y-115050769D01*
X158612240Y-115050765D01*
X158489018Y-114941601D01*
X158343253Y-114865097D01*
X158183415Y-114825700D01*
X158183412Y-114825700D01*
X158018788Y-114825700D01*
X158018784Y-114825700D01*
X157858946Y-114865097D01*
X157713181Y-114941601D01*
X157589959Y-115050765D01*
X157589955Y-115050769D01*
X157496440Y-115186250D01*
X157438064Y-115340172D01*
X157438062Y-115340183D01*
X157418221Y-115503596D01*
X157418221Y-115503603D01*
X149641169Y-115503603D01*
X149475650Y-115362238D01*
X149345587Y-115282535D01*
X149253821Y-115226301D01*
X149013454Y-115126738D01*
X149013448Y-115126736D01*
X149013447Y-115126736D01*
X148760467Y-115066001D01*
X148760463Y-115066000D01*
X148501104Y-115045589D01*
X148501096Y-115045589D01*
X148241736Y-115066000D01*
X148241732Y-115066001D01*
X147988752Y-115126736D01*
X147988748Y-115126737D01*
X147988746Y-115126738D01*
X147748379Y-115226301D01*
X147748377Y-115226302D01*
X147526549Y-115362238D01*
X147328708Y-115531208D01*
X147159738Y-115729049D01*
X147023802Y-115950877D01*
X147023801Y-115950879D01*
X146928276Y-116181499D01*
X146924236Y-116191252D01*
X146863501Y-116444232D01*
X146863500Y-116444236D01*
X146843089Y-116703595D01*
X146843089Y-116703604D01*
X135659111Y-116703604D01*
X135659111Y-116703595D01*
X135638699Y-116444236D01*
X135638698Y-116444232D01*
X135577963Y-116191252D01*
X135577962Y-116191246D01*
X135478399Y-115950879D01*
X135342459Y-115729046D01*
X135275385Y-115650512D01*
X135173491Y-115531208D01*
X135141169Y-115503603D01*
X139618221Y-115503603D01*
X139638062Y-115667016D01*
X139638064Y-115667027D01*
X139696440Y-115820949D01*
X139789955Y-115956430D01*
X139789958Y-115956433D01*
X139913181Y-116065598D01*
X140058948Y-116142103D01*
X140218788Y-116181500D01*
X140383412Y-116181500D01*
X140543252Y-116142103D01*
X140689019Y-116065598D01*
X140812242Y-115956433D01*
X140905759Y-115820950D01*
X140964136Y-115667024D01*
X140983979Y-115503603D01*
X144918221Y-115503603D01*
X144938062Y-115667016D01*
X144938064Y-115667027D01*
X144996440Y-115820949D01*
X145089955Y-115956430D01*
X145089958Y-115956433D01*
X145213181Y-116065598D01*
X145358948Y-116142103D01*
X145518788Y-116181500D01*
X145683412Y-116181500D01*
X145843252Y-116142103D01*
X145989019Y-116065598D01*
X146112242Y-115956433D01*
X146205759Y-115820950D01*
X146264136Y-115667024D01*
X146283979Y-115503600D01*
X146264136Y-115340176D01*
X146264135Y-115340174D01*
X146264135Y-115340172D01*
X146205759Y-115186250D01*
X146112244Y-115050769D01*
X146112240Y-115050765D01*
X145989018Y-114941601D01*
X145843253Y-114865097D01*
X145683415Y-114825700D01*
X145683412Y-114825700D01*
X145518788Y-114825700D01*
X145518784Y-114825700D01*
X145358946Y-114865097D01*
X145213181Y-114941601D01*
X145089959Y-115050765D01*
X145089955Y-115050769D01*
X144996440Y-115186250D01*
X144938064Y-115340172D01*
X144938062Y-115340183D01*
X144918221Y-115503596D01*
X144918221Y-115503603D01*
X140983979Y-115503603D01*
X140983979Y-115503600D01*
X140964136Y-115340176D01*
X140964135Y-115340174D01*
X140964135Y-115340172D01*
X140905759Y-115186250D01*
X140812244Y-115050769D01*
X140812240Y-115050765D01*
X140689018Y-114941601D01*
X140543253Y-114865097D01*
X140383415Y-114825700D01*
X140383412Y-114825700D01*
X140218788Y-114825700D01*
X140218784Y-114825700D01*
X140058946Y-114865097D01*
X139913181Y-114941601D01*
X139789959Y-115050765D01*
X139789955Y-115050769D01*
X139696440Y-115186250D01*
X139638064Y-115340172D01*
X139638062Y-115340183D01*
X139618221Y-115503596D01*
X139618221Y-115503603D01*
X135141169Y-115503603D01*
X134975650Y-115362238D01*
X134845587Y-115282535D01*
X134753821Y-115226301D01*
X134513454Y-115126738D01*
X134513448Y-115126736D01*
X134513447Y-115126736D01*
X134260467Y-115066001D01*
X134260463Y-115066000D01*
X134001104Y-115045589D01*
X134001096Y-115045589D01*
X133741736Y-115066000D01*
X133741732Y-115066001D01*
X133488752Y-115126736D01*
X133488748Y-115126737D01*
X133488746Y-115126738D01*
X133248379Y-115226301D01*
X133248377Y-115226302D01*
X133026549Y-115362238D01*
X132828708Y-115531208D01*
X132659738Y-115729049D01*
X132523802Y-115950877D01*
X132523801Y-115950879D01*
X132428276Y-116181499D01*
X132424236Y-116191252D01*
X132363501Y-116444232D01*
X132363500Y-116444236D01*
X132343089Y-116703595D01*
X132343089Y-116703604D01*
X125874100Y-116703604D01*
X125874100Y-114103599D01*
X128589128Y-114103599D01*
X128609291Y-114230906D01*
X128609291Y-114230907D01*
X128634768Y-114280907D01*
X128667808Y-114345751D01*
X128758949Y-114436892D01*
X128873794Y-114495409D01*
X129001100Y-114515572D01*
X129128406Y-114495409D01*
X129243251Y-114436892D01*
X129281907Y-114398235D01*
X129326098Y-114379931D01*
X129370293Y-114398236D01*
X129408949Y-114436892D01*
X129523794Y-114495409D01*
X129651100Y-114515572D01*
X129778406Y-114495409D01*
X129893251Y-114436892D01*
X129906905Y-114423237D01*
X129951100Y-114404931D01*
X129995294Y-114423237D01*
X130008949Y-114436892D01*
X130123794Y-114495409D01*
X130251100Y-114515572D01*
X130378406Y-114495409D01*
X130493251Y-114436892D01*
X130584392Y-114345751D01*
X130642909Y-114230906D01*
X130663072Y-114103600D01*
X130642909Y-113976294D01*
X130584392Y-113861449D01*
X130493251Y-113770308D01*
X130378406Y-113711791D01*
X130251100Y-113691628D01*
X130251099Y-113691628D01*
X130123793Y-113711791D01*
X130123792Y-113711791D01*
X130008948Y-113770308D01*
X129995294Y-113783963D01*
X129951100Y-113802269D01*
X129906906Y-113783963D01*
X129893251Y-113770308D01*
X129778406Y-113711791D01*
X129651100Y-113691628D01*
X129523793Y-113711791D01*
X129523792Y-113711791D01*
X129408950Y-113770307D01*
X129370294Y-113808963D01*
X129326099Y-113827268D01*
X129281906Y-113808963D01*
X129275212Y-113802269D01*
X129243251Y-113770308D01*
X129128406Y-113711791D01*
X129001100Y-113691628D01*
X129001099Y-113691628D01*
X128873793Y-113711791D01*
X128873792Y-113711791D01*
X128758948Y-113770308D01*
X128667808Y-113861448D01*
X128609291Y-113976292D01*
X128609291Y-113976293D01*
X128589128Y-114103599D01*
X125874100Y-114103599D01*
X125874100Y-113569999D01*
X154182443Y-113569999D01*
X154200976Y-113698908D01*
X154233584Y-113770307D01*
X154255079Y-113817374D01*
X154340364Y-113915799D01*
X154449924Y-113986208D01*
X154449926Y-113986208D01*
X154449927Y-113986209D01*
X154574881Y-114022900D01*
X154574883Y-114022900D01*
X154705119Y-114022900D01*
X154801444Y-113994615D01*
X154830076Y-113986208D01*
X154939636Y-113915799D01*
X154993531Y-113853600D01*
X166289128Y-113853600D01*
X166309291Y-113980906D01*
X166309291Y-113980907D01*
X166367807Y-114095750D01*
X166367808Y-114095751D01*
X166458949Y-114186892D01*
X166573794Y-114245409D01*
X166701100Y-114265572D01*
X166749133Y-114257964D01*
X166795646Y-114269131D01*
X166814597Y-114291320D01*
X166859295Y-114379043D01*
X166867808Y-114395751D01*
X166958949Y-114486892D01*
X167073794Y-114545409D01*
X167201100Y-114565572D01*
X167328406Y-114545409D01*
X167443251Y-114486892D01*
X167534392Y-114395751D01*
X167587603Y-114291319D01*
X167623975Y-114260254D01*
X167653064Y-114257964D01*
X167701100Y-114265572D01*
X167749133Y-114257964D01*
X167795646Y-114269131D01*
X167814597Y-114291320D01*
X167859295Y-114379043D01*
X167867808Y-114395751D01*
X167958949Y-114486892D01*
X168073794Y-114545409D01*
X168201100Y-114565572D01*
X168328406Y-114545409D01*
X168443251Y-114486892D01*
X168534392Y-114395751D01*
X168592909Y-114280906D01*
X168613072Y-114153600D01*
X168592909Y-114026294D01*
X168534392Y-113911449D01*
X168443251Y-113820308D01*
X168328406Y-113761791D01*
X168201100Y-113741628D01*
X168201099Y-113741628D01*
X168153066Y-113749235D01*
X168106552Y-113738067D01*
X168087602Y-113715879D01*
X168085519Y-113711791D01*
X168034392Y-113611449D01*
X167943251Y-113520308D01*
X167828406Y-113461791D01*
X167701100Y-113441628D01*
X167573793Y-113461791D01*
X167573792Y-113461791D01*
X167458948Y-113520308D01*
X167367808Y-113611448D01*
X167314597Y-113715879D01*
X167278222Y-113746945D01*
X167249133Y-113749235D01*
X167201100Y-113741628D01*
X167153066Y-113749235D01*
X167106552Y-113738067D01*
X167087602Y-113715879D01*
X167085519Y-113711791D01*
X167034392Y-113611449D01*
X166943251Y-113520308D01*
X166828406Y-113461791D01*
X166701100Y-113441628D01*
X166701099Y-113441628D01*
X166573793Y-113461791D01*
X166573792Y-113461791D01*
X166458948Y-113520308D01*
X166367808Y-113611448D01*
X166309291Y-113726292D01*
X166309291Y-113726293D01*
X166289128Y-113853600D01*
X154993531Y-113853600D01*
X155024921Y-113817374D01*
X155079023Y-113698909D01*
X155097557Y-113570000D01*
X155079023Y-113441091D01*
X155024921Y-113322626D01*
X154939636Y-113224201D01*
X154830076Y-113153792D01*
X154830074Y-113153791D01*
X154830072Y-113153790D01*
X154705119Y-113117100D01*
X154705117Y-113117100D01*
X154574883Y-113117100D01*
X154574881Y-113117100D01*
X154449927Y-113153790D01*
X154340364Y-113224201D01*
X154255078Y-113322627D01*
X154200976Y-113441091D01*
X154182443Y-113569999D01*
X125874100Y-113569999D01*
X125874100Y-109703599D01*
X128589128Y-109703599D01*
X128609291Y-109830906D01*
X128609291Y-109830907D01*
X128650297Y-109911385D01*
X128667808Y-109945751D01*
X128758949Y-110036892D01*
X128873794Y-110095409D01*
X129001100Y-110115572D01*
X129128406Y-110095409D01*
X129243251Y-110036892D01*
X129264955Y-110015187D01*
X129309150Y-109996881D01*
X129353344Y-110015187D01*
X129374049Y-110035892D01*
X129488894Y-110094409D01*
X129616200Y-110114572D01*
X129743506Y-110094409D01*
X129858351Y-110035892D01*
X129863955Y-110030287D01*
X129908146Y-110011981D01*
X129952341Y-110030284D01*
X129952343Y-110030287D01*
X129958946Y-110036890D01*
X129958948Y-110036891D01*
X129958949Y-110036892D01*
X130073794Y-110095409D01*
X130201100Y-110115572D01*
X130328406Y-110095409D01*
X130443251Y-110036892D01*
X130534392Y-109945751D01*
X130551903Y-109911385D01*
X161801329Y-109911385D01*
X161819862Y-110040294D01*
X161854241Y-110115571D01*
X161873965Y-110158760D01*
X161959250Y-110257185D01*
X162068810Y-110327594D01*
X162068812Y-110327594D01*
X162068813Y-110327595D01*
X162193767Y-110364286D01*
X162193769Y-110364286D01*
X162324005Y-110364286D01*
X162420330Y-110336001D01*
X162448962Y-110327594D01*
X162558522Y-110257185D01*
X162643807Y-110158760D01*
X162697909Y-110040295D01*
X162716443Y-109911386D01*
X162697909Y-109782477D01*
X162661887Y-109703600D01*
X166389128Y-109703600D01*
X166409291Y-109830906D01*
X166409291Y-109830907D01*
X166450297Y-109911385D01*
X166467808Y-109945751D01*
X166558949Y-110036892D01*
X166673794Y-110095409D01*
X166801100Y-110115572D01*
X166928406Y-110095409D01*
X167043251Y-110036892D01*
X167081905Y-109998237D01*
X167126100Y-109979931D01*
X167170294Y-109998236D01*
X167208949Y-110036892D01*
X167323794Y-110095409D01*
X167451100Y-110115572D01*
X167578406Y-110095409D01*
X167693251Y-110036892D01*
X167731906Y-109998236D01*
X167776100Y-109979931D01*
X167820294Y-109998236D01*
X167858949Y-110036892D01*
X167973794Y-110095409D01*
X168101100Y-110115572D01*
X168228406Y-110095409D01*
X168343251Y-110036892D01*
X168434392Y-109945751D01*
X168492909Y-109830906D01*
X168513072Y-109703600D01*
X168492909Y-109576294D01*
X168434392Y-109461449D01*
X168343251Y-109370308D01*
X168228406Y-109311791D01*
X168101100Y-109291628D01*
X167973793Y-109311791D01*
X167973792Y-109311791D01*
X167858948Y-109370308D01*
X167820294Y-109408963D01*
X167776100Y-109427269D01*
X167731906Y-109408963D01*
X167693251Y-109370308D01*
X167578406Y-109311791D01*
X167572092Y-109310791D01*
X167451100Y-109291628D01*
X167451099Y-109291628D01*
X167323793Y-109311791D01*
X167323792Y-109311791D01*
X167208948Y-109370308D01*
X167170294Y-109408963D01*
X167126100Y-109427269D01*
X167081906Y-109408963D01*
X167043251Y-109370308D01*
X166928406Y-109311791D01*
X166801100Y-109291628D01*
X166673793Y-109311791D01*
X166673792Y-109311791D01*
X166558948Y-109370308D01*
X166467808Y-109461448D01*
X166409291Y-109576292D01*
X166409291Y-109576293D01*
X166389128Y-109703600D01*
X162661887Y-109703600D01*
X162643807Y-109664012D01*
X162558522Y-109565587D01*
X162448962Y-109495178D01*
X162448960Y-109495177D01*
X162448958Y-109495176D01*
X162324005Y-109458486D01*
X162324003Y-109458486D01*
X162193769Y-109458486D01*
X162193767Y-109458486D01*
X162068813Y-109495176D01*
X161959250Y-109565587D01*
X161873964Y-109664013D01*
X161819862Y-109782477D01*
X161801329Y-109911385D01*
X130551903Y-109911385D01*
X130592909Y-109830906D01*
X130613072Y-109703600D01*
X130592909Y-109576294D01*
X130534392Y-109461449D01*
X130443251Y-109370308D01*
X130328406Y-109311791D01*
X130201100Y-109291628D01*
X130201099Y-109291628D01*
X130073793Y-109311791D01*
X130073792Y-109311791D01*
X129958948Y-109370308D01*
X129953344Y-109375913D01*
X129909150Y-109394219D01*
X129864956Y-109375913D01*
X129858351Y-109369308D01*
X129743506Y-109310791D01*
X129743506Y-109310790D01*
X129616200Y-109290628D01*
X129616199Y-109290628D01*
X129488893Y-109310791D01*
X129488892Y-109310791D01*
X129374048Y-109369308D01*
X129352344Y-109391013D01*
X129308150Y-109409319D01*
X129263956Y-109391013D01*
X129243251Y-109370308D01*
X129128406Y-109311791D01*
X129122092Y-109310791D01*
X129001100Y-109291628D01*
X129001099Y-109291628D01*
X128873793Y-109311791D01*
X128873792Y-109311791D01*
X128758948Y-109370308D01*
X128667808Y-109461448D01*
X128609291Y-109576292D01*
X128609291Y-109576293D01*
X128589128Y-109703599D01*
X125874100Y-109703599D01*
X125874100Y-109140000D01*
X147872443Y-109140000D01*
X147890976Y-109268908D01*
X147936828Y-109369308D01*
X147945079Y-109387374D01*
X148030364Y-109485799D01*
X148139924Y-109556208D01*
X148139926Y-109556208D01*
X148139927Y-109556209D01*
X148264881Y-109592900D01*
X148264883Y-109592900D01*
X148395119Y-109592900D01*
X148491444Y-109564615D01*
X148520076Y-109556208D01*
X148629636Y-109485799D01*
X148714921Y-109387374D01*
X148769023Y-109268909D01*
X148787557Y-109140000D01*
X148769023Y-109011091D01*
X148714921Y-108892626D01*
X148629636Y-108794201D01*
X148520076Y-108723792D01*
X148520074Y-108723791D01*
X148520072Y-108723790D01*
X148395119Y-108687100D01*
X148395117Y-108687100D01*
X148264883Y-108687100D01*
X148264881Y-108687100D01*
X148139927Y-108723790D01*
X148030364Y-108794201D01*
X147945078Y-108892627D01*
X147890976Y-109011091D01*
X147872443Y-109140000D01*
X125874100Y-109140000D01*
X125874100Y-106153600D01*
X142939128Y-106153600D01*
X142959291Y-106280906D01*
X142959291Y-106280907D01*
X143017807Y-106395751D01*
X143017808Y-106395751D01*
X143108949Y-106486892D01*
X143223794Y-106545409D01*
X143351100Y-106565572D01*
X143478406Y-106545409D01*
X143593251Y-106486892D01*
X143684392Y-106395751D01*
X143742909Y-106280906D01*
X143763072Y-106153600D01*
X143742909Y-106026294D01*
X143684392Y-105911449D01*
X143665687Y-105892744D01*
X143647381Y-105848550D01*
X143665687Y-105804356D01*
X143672187Y-105797856D01*
X143690892Y-105779151D01*
X143749409Y-105664306D01*
X143769572Y-105537000D01*
X143749409Y-105409694D01*
X143690892Y-105294849D01*
X143599751Y-105203708D01*
X143484906Y-105145191D01*
X143357600Y-105125028D01*
X143230293Y-105145191D01*
X143230292Y-105145191D01*
X143115448Y-105203708D01*
X143024308Y-105294848D01*
X142965791Y-105409692D01*
X142965791Y-105409693D01*
X142945628Y-105536999D01*
X142965791Y-105664306D01*
X142965791Y-105664307D01*
X143024308Y-105779151D01*
X143043013Y-105797856D01*
X143061319Y-105842050D01*
X143043013Y-105886244D01*
X143017808Y-105911448D01*
X142959291Y-106026292D01*
X142959291Y-106026293D01*
X142939128Y-106153600D01*
X125874100Y-106153600D01*
X125874100Y-103853600D01*
X128389128Y-103853600D01*
X128409291Y-103980906D01*
X128409291Y-103980907D01*
X128446859Y-104054637D01*
X128467808Y-104095751D01*
X128558949Y-104186892D01*
X128673794Y-104245409D01*
X128801100Y-104265572D01*
X128928406Y-104245409D01*
X129043251Y-104186892D01*
X129134392Y-104095751D01*
X129167763Y-104030257D01*
X129204135Y-103999192D01*
X129233222Y-103996902D01*
X129351100Y-104015572D01*
X129478406Y-103995409D01*
X129478414Y-103995404D01*
X129482330Y-103994133D01*
X129530018Y-103997883D01*
X129557336Y-104025199D01*
X129563007Y-104036330D01*
X129567808Y-104045751D01*
X129658949Y-104136892D01*
X129773794Y-104195409D01*
X129901100Y-104215572D01*
X130028406Y-104195409D01*
X130143251Y-104136892D01*
X130234392Y-104045751D01*
X130244863Y-104025198D01*
X130281236Y-103994133D01*
X130319867Y-103994133D01*
X130323790Y-103995408D01*
X130323792Y-103995408D01*
X130323794Y-103995409D01*
X130451100Y-104015572D01*
X130451101Y-104015571D01*
X130451103Y-104015572D01*
X130451104Y-104015572D01*
X130568973Y-103996903D01*
X130615486Y-104008069D01*
X130634438Y-104030259D01*
X130664692Y-104089637D01*
X130667808Y-104095751D01*
X130758949Y-104186892D01*
X130873794Y-104245409D01*
X131001100Y-104265572D01*
X131128406Y-104245409D01*
X131243251Y-104186892D01*
X131334392Y-104095751D01*
X131367763Y-104030257D01*
X131404135Y-103999192D01*
X131433222Y-103996902D01*
X131551100Y-104015572D01*
X131551101Y-104015571D01*
X131551103Y-104015572D01*
X131551104Y-104015572D01*
X131668973Y-103996903D01*
X131715486Y-104008069D01*
X131734438Y-104030259D01*
X131764692Y-104089637D01*
X131767808Y-104095751D01*
X131858949Y-104186892D01*
X131973794Y-104245409D01*
X132101100Y-104265572D01*
X132228406Y-104245409D01*
X132343251Y-104186892D01*
X132434392Y-104095751D01*
X132467763Y-104030257D01*
X132504135Y-103999192D01*
X132533222Y-103996902D01*
X132651100Y-104015572D01*
X132750459Y-103999835D01*
X132796972Y-104011003D01*
X132815923Y-104033191D01*
X132864308Y-104128151D01*
X132955449Y-104219292D01*
X133070294Y-104277809D01*
X133197600Y-104297972D01*
X133324906Y-104277809D01*
X133439751Y-104219292D01*
X133530892Y-104128151D01*
X133579799Y-104032165D01*
X133616173Y-104001099D01*
X133645262Y-103998809D01*
X133751100Y-104015572D01*
X133878406Y-103995409D01*
X133892797Y-103988075D01*
X133940485Y-103984321D01*
X133976860Y-104015387D01*
X134017808Y-104095751D01*
X134108949Y-104186892D01*
X134223794Y-104245409D01*
X134351100Y-104265572D01*
X134426689Y-104253600D01*
X142289128Y-104253600D01*
X142309291Y-104380906D01*
X142309291Y-104380907D01*
X142357894Y-104476294D01*
X142367808Y-104495751D01*
X142458949Y-104586892D01*
X142573794Y-104645409D01*
X142701100Y-104665572D01*
X142828406Y-104645409D01*
X142943251Y-104586892D01*
X142981908Y-104548234D01*
X143026099Y-104529930D01*
X143070290Y-104548233D01*
X143108949Y-104586892D01*
X143223794Y-104645409D01*
X143351100Y-104665572D01*
X143478406Y-104645409D01*
X143560462Y-104603599D01*
X144839128Y-104603599D01*
X144859291Y-104730906D01*
X144859291Y-104730907D01*
X144908443Y-104827372D01*
X144917808Y-104845751D01*
X145008949Y-104936892D01*
X145123794Y-104995409D01*
X145251100Y-105015572D01*
X145378406Y-104995409D01*
X145493251Y-104936892D01*
X145506906Y-104923236D01*
X145551098Y-104904930D01*
X145595291Y-104923234D01*
X145608949Y-104936892D01*
X145723794Y-104995409D01*
X145851100Y-105015572D01*
X145978406Y-104995409D01*
X146093251Y-104936892D01*
X146184392Y-104845751D01*
X146242909Y-104730906D01*
X146263072Y-104603600D01*
X146259334Y-104579999D01*
X163832443Y-104579999D01*
X163850976Y-104708908D01*
X163861023Y-104730907D01*
X163905079Y-104827374D01*
X163990364Y-104925799D01*
X164099924Y-104996208D01*
X164099926Y-104996208D01*
X164099927Y-104996209D01*
X164224881Y-105032900D01*
X164224883Y-105032900D01*
X164355119Y-105032900D01*
X164451444Y-105004615D01*
X164480076Y-104996208D01*
X164589636Y-104925799D01*
X164674921Y-104827374D01*
X164729023Y-104708909D01*
X164747557Y-104580000D01*
X164729023Y-104451091D01*
X164674921Y-104332626D01*
X164589636Y-104234201D01*
X164480076Y-104163792D01*
X164480074Y-104163791D01*
X164480072Y-104163790D01*
X164355119Y-104127100D01*
X164355117Y-104127100D01*
X164224883Y-104127100D01*
X164224881Y-104127100D01*
X164099927Y-104163790D01*
X163990364Y-104234201D01*
X163905078Y-104332627D01*
X163850976Y-104451091D01*
X163832443Y-104579999D01*
X146259334Y-104579999D01*
X146242909Y-104476294D01*
X146184392Y-104361449D01*
X146093251Y-104270308D01*
X145978406Y-104211791D01*
X145851100Y-104191628D01*
X145723793Y-104211791D01*
X145723792Y-104211791D01*
X145608946Y-104270309D01*
X145595292Y-104283963D01*
X145551097Y-104302268D01*
X145506905Y-104283962D01*
X145493251Y-104270308D01*
X145378406Y-104211791D01*
X145315381Y-104201809D01*
X145251100Y-104191628D01*
X145251099Y-104191628D01*
X145123793Y-104211791D01*
X145123792Y-104211791D01*
X145008948Y-104270308D01*
X144917808Y-104361448D01*
X144859291Y-104476292D01*
X144859291Y-104476293D01*
X144839128Y-104603599D01*
X143560462Y-104603599D01*
X143593251Y-104586892D01*
X143684392Y-104495751D01*
X143742909Y-104380906D01*
X143763072Y-104253600D01*
X143742909Y-104126294D01*
X143684392Y-104011449D01*
X143670737Y-103997794D01*
X143652431Y-103953600D01*
X143670737Y-103909406D01*
X143684392Y-103895751D01*
X143742907Y-103780910D01*
X143742908Y-103780907D01*
X143742909Y-103780906D01*
X143763072Y-103653600D01*
X143742909Y-103526294D01*
X143684392Y-103411449D01*
X143593251Y-103320308D01*
X143478406Y-103261791D01*
X143351100Y-103241628D01*
X143351099Y-103241628D01*
X143223793Y-103261791D01*
X143223792Y-103261791D01*
X143108950Y-103320307D01*
X143070293Y-103358964D01*
X143026098Y-103377269D01*
X142981906Y-103358964D01*
X142943251Y-103320308D01*
X142828406Y-103261791D01*
X142701100Y-103241628D01*
X142573793Y-103261791D01*
X142573792Y-103261791D01*
X142458948Y-103320308D01*
X142367808Y-103411448D01*
X142309291Y-103526292D01*
X142309291Y-103526293D01*
X142295453Y-103613668D01*
X142289128Y-103653600D01*
X142301372Y-103730906D01*
X142309291Y-103780906D01*
X142309291Y-103780907D01*
X142367808Y-103895751D01*
X142381462Y-103909405D01*
X142399768Y-103953599D01*
X142381465Y-103997791D01*
X142367807Y-104011449D01*
X142309291Y-104126292D01*
X142309291Y-104126293D01*
X142289128Y-104253600D01*
X134426689Y-104253600D01*
X134478406Y-104245409D01*
X134593251Y-104186892D01*
X134684392Y-104095751D01*
X134717763Y-104030257D01*
X134754135Y-103999192D01*
X134783222Y-103996902D01*
X134901100Y-104015572D01*
X135028406Y-103995409D01*
X135143251Y-103936892D01*
X135234392Y-103845751D01*
X135292909Y-103730906D01*
X135313072Y-103603600D01*
X135292909Y-103476294D01*
X135234392Y-103361449D01*
X135143251Y-103270308D01*
X135028406Y-103211791D01*
X134901100Y-103191628D01*
X134773793Y-103211791D01*
X134773792Y-103211791D01*
X134658948Y-103270308D01*
X134567808Y-103361448D01*
X134546331Y-103403599D01*
X134534439Y-103426940D01*
X134534438Y-103426941D01*
X134498063Y-103458007D01*
X134468973Y-103460297D01*
X134444418Y-103456408D01*
X134351100Y-103441628D01*
X134223793Y-103461791D01*
X134209397Y-103469126D01*
X134161709Y-103472876D01*
X134125338Y-103441810D01*
X134125245Y-103441628D01*
X134084392Y-103361449D01*
X133993251Y-103270308D01*
X133878406Y-103211791D01*
X133751100Y-103191628D01*
X133623793Y-103211791D01*
X133623792Y-103211791D01*
X133508948Y-103270308D01*
X133417808Y-103361448D01*
X133368900Y-103457435D01*
X133332525Y-103488501D01*
X133303437Y-103490790D01*
X133197600Y-103474028D01*
X133197599Y-103474028D01*
X133168752Y-103478597D01*
X133098240Y-103489764D01*
X133051727Y-103478597D01*
X133032776Y-103456408D01*
X133029067Y-103449129D01*
X132984392Y-103361449D01*
X132893251Y-103270308D01*
X132778406Y-103211791D01*
X132651100Y-103191628D01*
X132651099Y-103191628D01*
X132523793Y-103211791D01*
X132523792Y-103211791D01*
X132408948Y-103270308D01*
X132317808Y-103361448D01*
X132296331Y-103403599D01*
X132284439Y-103426940D01*
X132284438Y-103426941D01*
X132248063Y-103458007D01*
X132218973Y-103460297D01*
X132101100Y-103441628D01*
X132101099Y-103441628D01*
X131983226Y-103460297D01*
X131936712Y-103449129D01*
X131917762Y-103426941D01*
X131884392Y-103361449D01*
X131793251Y-103270308D01*
X131678406Y-103211791D01*
X131551100Y-103191628D01*
X131551099Y-103191628D01*
X131423793Y-103211791D01*
X131423792Y-103211791D01*
X131308948Y-103270308D01*
X131217808Y-103361448D01*
X131196331Y-103403599D01*
X131184439Y-103426940D01*
X131184438Y-103426941D01*
X131148063Y-103458007D01*
X131118973Y-103460297D01*
X131001100Y-103441628D01*
X131001099Y-103441628D01*
X130883226Y-103460297D01*
X130836712Y-103449129D01*
X130817762Y-103426941D01*
X130784392Y-103361449D01*
X130693251Y-103270308D01*
X130578406Y-103211791D01*
X130451100Y-103191628D01*
X130323793Y-103211791D01*
X130323792Y-103211791D01*
X130208948Y-103270308D01*
X130117808Y-103361448D01*
X130107334Y-103382003D01*
X130070958Y-103413068D01*
X130032335Y-103413068D01*
X130028406Y-103411791D01*
X129901100Y-103391628D01*
X129773794Y-103411791D01*
X129773793Y-103411791D01*
X129773789Y-103411792D01*
X129769859Y-103413069D01*
X129722171Y-103409311D01*
X129694863Y-103382000D01*
X129692452Y-103377269D01*
X129684392Y-103361449D01*
X129593251Y-103270308D01*
X129478406Y-103211791D01*
X129351100Y-103191628D01*
X129223793Y-103211791D01*
X129223792Y-103211791D01*
X129108948Y-103270308D01*
X129017808Y-103361448D01*
X128996331Y-103403599D01*
X128984439Y-103426940D01*
X128984438Y-103426941D01*
X128948063Y-103458007D01*
X128918973Y-103460297D01*
X128894418Y-103456408D01*
X128801100Y-103441628D01*
X128673793Y-103461791D01*
X128673792Y-103461791D01*
X128558948Y-103520308D01*
X128467808Y-103611448D01*
X128409291Y-103726292D01*
X128409291Y-103726293D01*
X128389128Y-103853600D01*
X125874100Y-103853600D01*
X125874100Y-102003600D01*
X133139128Y-102003600D01*
X133159291Y-102130906D01*
X133159291Y-102130907D01*
X133213294Y-102236891D01*
X133217808Y-102245751D01*
X133308949Y-102336892D01*
X133423794Y-102395409D01*
X133551100Y-102415572D01*
X133678406Y-102395409D01*
X133793251Y-102336892D01*
X133884392Y-102245751D01*
X133920412Y-102175057D01*
X133956786Y-102143991D01*
X134004474Y-102147744D01*
X134031788Y-102175058D01*
X134063293Y-102236891D01*
X134067808Y-102245751D01*
X134158949Y-102336892D01*
X134273794Y-102395409D01*
X134401100Y-102415572D01*
X134528406Y-102395409D01*
X134643251Y-102336892D01*
X134734392Y-102245751D01*
X134792909Y-102130906D01*
X134792909Y-102130905D01*
X134795142Y-102126523D01*
X134797617Y-102127784D01*
X134822705Y-102098388D01*
X134870392Y-102094618D01*
X134906778Y-102125671D01*
X134907447Y-102127286D01*
X134909290Y-102130904D01*
X134909291Y-102130906D01*
X134967808Y-102245751D01*
X135058949Y-102336892D01*
X135173794Y-102395409D01*
X135301100Y-102415572D01*
X135428406Y-102395409D01*
X135543251Y-102336892D01*
X135626543Y-102253600D01*
X145589128Y-102253600D01*
X145609291Y-102380906D01*
X145609291Y-102380907D01*
X145645384Y-102451742D01*
X145667808Y-102495751D01*
X145758949Y-102586892D01*
X145873794Y-102645409D01*
X146001100Y-102665572D01*
X146128406Y-102645409D01*
X146243251Y-102586892D01*
X146256906Y-102573237D01*
X146301100Y-102554931D01*
X146345294Y-102573237D01*
X146358949Y-102586892D01*
X146473794Y-102645409D01*
X146601100Y-102665572D01*
X146728406Y-102645409D01*
X146843251Y-102586892D01*
X146881907Y-102548234D01*
X146926099Y-102529930D01*
X146970291Y-102548233D01*
X147007244Y-102585187D01*
X147025549Y-102629381D01*
X147018737Y-102657754D01*
X147009292Y-102676289D01*
X147009291Y-102676293D01*
X146989128Y-102803599D01*
X147009291Y-102930906D01*
X147009291Y-102930907D01*
X147067808Y-103045751D01*
X147081463Y-103059406D01*
X147099769Y-103103600D01*
X147081463Y-103147794D01*
X147067808Y-103161448D01*
X147009291Y-103276292D01*
X147009291Y-103276293D01*
X146990011Y-103398028D01*
X146989128Y-103403600D01*
X147003393Y-103493668D01*
X147009291Y-103530906D01*
X147009291Y-103530907D01*
X147053591Y-103617849D01*
X147067808Y-103645751D01*
X147158949Y-103736892D01*
X147273794Y-103795409D01*
X147401100Y-103815572D01*
X147528406Y-103795409D01*
X147617525Y-103750000D01*
X149238028Y-103750000D01*
X149258191Y-103877306D01*
X149258191Y-103877307D01*
X149297065Y-103953600D01*
X149316708Y-103992151D01*
X149407849Y-104083292D01*
X149522694Y-104141809D01*
X149650000Y-104161972D01*
X149777306Y-104141809D01*
X149892151Y-104083292D01*
X149920807Y-104054635D01*
X149964997Y-104036330D01*
X150009190Y-104054633D01*
X150067849Y-104113292D01*
X150182694Y-104171809D01*
X150310000Y-104191972D01*
X150437306Y-104171809D01*
X150552151Y-104113292D01*
X150600807Y-104064635D01*
X150644998Y-104046331D01*
X150689193Y-104064636D01*
X150747849Y-104123292D01*
X150862694Y-104181809D01*
X150990000Y-104201972D01*
X151117306Y-104181809D01*
X151232151Y-104123292D01*
X151323292Y-104032151D01*
X151381809Y-103917306D01*
X151398804Y-103810000D01*
X151678028Y-103810000D01*
X151685947Y-103860000D01*
X151698191Y-103937306D01*
X151698191Y-103937307D01*
X151737976Y-104015388D01*
X151756708Y-104052151D01*
X151847849Y-104143292D01*
X151962694Y-104201809D01*
X152090000Y-104221972D01*
X152217306Y-104201809D01*
X152332151Y-104143292D01*
X152385806Y-104089636D01*
X152430000Y-104071331D01*
X152474194Y-104089636D01*
X152517849Y-104133292D01*
X152632694Y-104191809D01*
X152760000Y-104211972D01*
X152887306Y-104191809D01*
X153002151Y-104133292D01*
X153020806Y-104114636D01*
X153065000Y-104096331D01*
X153109194Y-104114637D01*
X153147849Y-104153292D01*
X153262694Y-104211809D01*
X153390000Y-104231972D01*
X153517306Y-104211809D01*
X153632151Y-104153292D01*
X153723292Y-104062151D01*
X153781809Y-103947306D01*
X153795637Y-103860000D01*
X156348028Y-103860000D01*
X156368191Y-103987306D01*
X156368191Y-103987307D01*
X156402498Y-104054637D01*
X156426708Y-104102151D01*
X156517849Y-104193292D01*
X156632694Y-104251809D01*
X156760000Y-104271972D01*
X156887306Y-104251809D01*
X157002151Y-104193292D01*
X157040806Y-104154635D01*
X157084998Y-104136330D01*
X157129192Y-104154634D01*
X157197849Y-104223292D01*
X157312694Y-104281809D01*
X157440000Y-104301972D01*
X157567306Y-104281809D01*
X157682151Y-104223292D01*
X157773292Y-104132151D01*
X157831809Y-104017306D01*
X157832508Y-104012895D01*
X167132443Y-104012895D01*
X167132828Y-104015571D01*
X167150976Y-104141803D01*
X167199071Y-104247114D01*
X167205079Y-104260269D01*
X167290364Y-104358694D01*
X167399924Y-104429103D01*
X167399926Y-104429103D01*
X167399927Y-104429104D01*
X167524881Y-104465795D01*
X167524883Y-104465795D01*
X167655119Y-104465795D01*
X167751444Y-104437510D01*
X167780076Y-104429103D01*
X167889636Y-104358694D01*
X167967765Y-104268526D01*
X168010541Y-104247114D01*
X168055928Y-104262220D01*
X168062231Y-104268523D01*
X168140364Y-104358694D01*
X168249924Y-104429103D01*
X168249926Y-104429103D01*
X168249927Y-104429104D01*
X168374881Y-104465795D01*
X168374883Y-104465795D01*
X168505119Y-104465795D01*
X168601444Y-104437510D01*
X168630076Y-104429103D01*
X168739636Y-104358694D01*
X168824921Y-104260269D01*
X168879023Y-104141804D01*
X168897557Y-104012895D01*
X168884201Y-103920000D01*
X169462443Y-103920000D01*
X169480976Y-104048908D01*
X169524080Y-104143291D01*
X169535079Y-104167374D01*
X169620364Y-104265799D01*
X169729924Y-104336208D01*
X169729926Y-104336208D01*
X169729927Y-104336209D01*
X169854881Y-104372900D01*
X169854883Y-104372900D01*
X169985119Y-104372900D01*
X170081444Y-104344615D01*
X170110076Y-104336208D01*
X170219636Y-104265799D01*
X170304921Y-104167374D01*
X170359023Y-104048909D01*
X170377557Y-103920000D01*
X170359023Y-103791091D01*
X170304921Y-103672626D01*
X170219636Y-103574201D01*
X170110076Y-103503792D01*
X170110074Y-103503791D01*
X170110072Y-103503790D01*
X169985119Y-103467100D01*
X169985117Y-103467100D01*
X169854883Y-103467100D01*
X169854881Y-103467100D01*
X169729927Y-103503790D01*
X169620364Y-103574201D01*
X169535078Y-103672627D01*
X169480976Y-103791091D01*
X169462443Y-103920000D01*
X168884201Y-103920000D01*
X168879023Y-103883986D01*
X168824921Y-103765521D01*
X168739636Y-103667096D01*
X168630076Y-103596687D01*
X168630074Y-103596686D01*
X168630072Y-103596685D01*
X168505119Y-103559995D01*
X168505117Y-103559995D01*
X168374883Y-103559995D01*
X168374881Y-103559995D01*
X168249927Y-103596685D01*
X168140362Y-103667097D01*
X168062234Y-103757263D01*
X168019459Y-103778675D01*
X167974071Y-103763568D01*
X167967766Y-103757263D01*
X167889637Y-103667097D01*
X167889636Y-103667096D01*
X167780076Y-103596687D01*
X167780074Y-103596686D01*
X167780072Y-103596685D01*
X167655119Y-103559995D01*
X167655117Y-103559995D01*
X167524883Y-103559995D01*
X167524881Y-103559995D01*
X167399927Y-103596685D01*
X167290364Y-103667096D01*
X167205078Y-103765522D01*
X167150976Y-103883986D01*
X167133137Y-104008069D01*
X167132443Y-104012895D01*
X157832508Y-104012895D01*
X157851972Y-103890000D01*
X157831809Y-103762694D01*
X157773292Y-103647849D01*
X157682151Y-103556708D01*
X157567306Y-103498191D01*
X157440000Y-103478028D01*
X157312693Y-103498191D01*
X157312692Y-103498191D01*
X157197848Y-103556708D01*
X157159192Y-103595363D01*
X157114998Y-103613668D01*
X157070805Y-103595362D01*
X157002151Y-103526708D01*
X156887306Y-103468191D01*
X156760000Y-103448028D01*
X156632693Y-103468191D01*
X156632692Y-103468191D01*
X156517848Y-103526708D01*
X156426708Y-103617848D01*
X156368191Y-103732692D01*
X156368191Y-103732693D01*
X156348028Y-103860000D01*
X153795637Y-103860000D01*
X153801972Y-103820000D01*
X153781809Y-103692694D01*
X153723292Y-103577849D01*
X153632151Y-103486708D01*
X153517306Y-103428191D01*
X153390000Y-103408028D01*
X153262693Y-103428191D01*
X153262692Y-103428191D01*
X153147846Y-103486709D01*
X153129192Y-103505363D01*
X153084998Y-103523668D01*
X153040805Y-103505362D01*
X153002151Y-103466708D01*
X152887306Y-103408191D01*
X152760000Y-103388028D01*
X152632693Y-103408191D01*
X152632692Y-103408191D01*
X152517848Y-103466708D01*
X152464194Y-103520363D01*
X152420000Y-103538669D01*
X152375806Y-103520363D01*
X152332151Y-103476708D01*
X152217306Y-103418191D01*
X152217305Y-103418190D01*
X152090000Y-103398028D01*
X152089999Y-103398028D01*
X151962693Y-103418191D01*
X151962692Y-103418191D01*
X151847848Y-103476708D01*
X151756708Y-103567848D01*
X151698191Y-103682692D01*
X151698191Y-103682693D01*
X151681196Y-103790000D01*
X151678028Y-103810000D01*
X151398804Y-103810000D01*
X151401972Y-103790000D01*
X151381809Y-103662694D01*
X151323292Y-103547849D01*
X151232151Y-103456708D01*
X151117306Y-103398191D01*
X150990000Y-103378028D01*
X150989999Y-103378028D01*
X150862693Y-103398191D01*
X150862692Y-103398191D01*
X150747850Y-103456707D01*
X150699194Y-103505363D01*
X150654999Y-103523668D01*
X150610806Y-103505363D01*
X150581735Y-103476292D01*
X150552151Y-103446708D01*
X150437306Y-103388191D01*
X150310000Y-103368028D01*
X150182693Y-103388191D01*
X150182692Y-103388191D01*
X150067848Y-103446708D01*
X150039193Y-103475363D01*
X149994999Y-103493668D01*
X149950806Y-103475363D01*
X149922150Y-103446707D01*
X149892151Y-103416708D01*
X149777306Y-103358191D01*
X149650000Y-103338028D01*
X149649999Y-103338028D01*
X149522693Y-103358191D01*
X149522692Y-103358191D01*
X149407848Y-103416708D01*
X149316708Y-103507848D01*
X149258191Y-103622692D01*
X149258191Y-103622693D01*
X149238028Y-103750000D01*
X147617525Y-103750000D01*
X147643251Y-103736892D01*
X147734392Y-103645751D01*
X147792909Y-103530906D01*
X147813072Y-103403600D01*
X147792909Y-103276294D01*
X147734392Y-103161449D01*
X147720736Y-103147794D01*
X147702431Y-103103600D01*
X147720737Y-103059406D01*
X147734392Y-103045751D01*
X147792909Y-102930906D01*
X147813072Y-102803600D01*
X147792909Y-102676294D01*
X147734392Y-102561449D01*
X147644956Y-102472012D01*
X147626650Y-102427819D01*
X147633462Y-102399446D01*
X147642909Y-102380906D01*
X147663072Y-102253600D01*
X147642909Y-102126294D01*
X147584392Y-102011449D01*
X147493251Y-101920308D01*
X147453397Y-101900001D01*
X154372329Y-101900001D01*
X154391329Y-102044329D01*
X154391332Y-102044339D01*
X154447041Y-102178833D01*
X154447043Y-102178836D01*
X154535666Y-102294333D01*
X154614640Y-102354931D01*
X154651164Y-102382957D01*
X154785664Y-102438669D01*
X154785668Y-102438669D01*
X154785670Y-102438670D01*
X154929998Y-102457671D01*
X154930000Y-102457671D01*
X154930002Y-102457671D01*
X155074329Y-102438670D01*
X155074329Y-102438669D01*
X155074336Y-102438669D01*
X155208836Y-102382957D01*
X155324333Y-102294333D01*
X155412957Y-102178836D01*
X155468669Y-102044336D01*
X155485251Y-101918378D01*
X155509168Y-101876952D01*
X155555373Y-101864571D01*
X155575590Y-101870848D01*
X155623789Y-101895407D01*
X155623791Y-101895407D01*
X155623794Y-101895409D01*
X155751100Y-101915572D01*
X155777092Y-101911455D01*
X155823605Y-101922621D01*
X155848600Y-101963407D01*
X155850796Y-101977269D01*
X155859291Y-102030906D01*
X155859291Y-102030907D01*
X155916911Y-102143991D01*
X155917808Y-102145751D01*
X156008949Y-102236892D01*
X156123794Y-102295409D01*
X156251100Y-102315572D01*
X156378406Y-102295409D01*
X156493251Y-102236892D01*
X156584392Y-102145751D01*
X156642909Y-102030906D01*
X156654823Y-101955680D01*
X156679816Y-101914897D01*
X156726328Y-101903729D01*
X156801100Y-101915572D01*
X156827092Y-101911455D01*
X156873605Y-101922621D01*
X156898600Y-101963407D01*
X156900796Y-101977269D01*
X156909291Y-102030906D01*
X156909291Y-102030907D01*
X156966911Y-102143991D01*
X156967808Y-102145751D01*
X157058949Y-102236892D01*
X157173794Y-102295409D01*
X157301100Y-102315572D01*
X157428406Y-102295409D01*
X157543251Y-102236892D01*
X157634392Y-102145751D01*
X157655869Y-102103600D01*
X162789128Y-102103600D01*
X162809291Y-102230906D01*
X162809291Y-102230907D01*
X162842157Y-102295409D01*
X162867808Y-102345751D01*
X162958949Y-102436892D01*
X163073794Y-102495409D01*
X163201100Y-102515572D01*
X163328406Y-102495409D01*
X163443251Y-102436892D01*
X163506906Y-102373236D01*
X163551100Y-102354931D01*
X163595294Y-102373237D01*
X163658949Y-102436892D01*
X163773794Y-102495409D01*
X163901100Y-102515572D01*
X164028406Y-102495409D01*
X164143251Y-102436892D01*
X164181907Y-102398235D01*
X164226098Y-102379931D01*
X164270293Y-102398236D01*
X164308949Y-102436892D01*
X164423794Y-102495409D01*
X164551100Y-102515572D01*
X164678406Y-102495409D01*
X164793251Y-102436892D01*
X164884392Y-102345751D01*
X164942909Y-102230906D01*
X164963072Y-102103600D01*
X164942909Y-101976294D01*
X164884392Y-101861449D01*
X164793251Y-101770308D01*
X164775864Y-101761449D01*
X164688820Y-101717097D01*
X164657754Y-101680722D01*
X164655464Y-101651634D01*
X164663072Y-101603600D01*
X164642909Y-101476294D01*
X164584392Y-101361449D01*
X164493251Y-101270308D01*
X164378406Y-101211791D01*
X164251100Y-101191628D01*
X164251099Y-101191628D01*
X164123793Y-101211791D01*
X164123792Y-101211791D01*
X164008950Y-101270307D01*
X163945294Y-101333963D01*
X163901100Y-101352268D01*
X163856906Y-101333963D01*
X163829677Y-101306734D01*
X163793251Y-101270308D01*
X163678406Y-101211791D01*
X163551100Y-101191628D01*
X163551099Y-101191628D01*
X163423793Y-101211791D01*
X163423792Y-101211791D01*
X163308948Y-101270308D01*
X163217808Y-101361448D01*
X163159291Y-101476292D01*
X163159291Y-101476293D01*
X163139128Y-101603600D01*
X163144468Y-101637319D01*
X163133300Y-101683833D01*
X163092515Y-101708825D01*
X163073797Y-101711789D01*
X163073795Y-101711790D01*
X162958948Y-101770308D01*
X162867808Y-101861448D01*
X162809291Y-101976292D01*
X162809291Y-101976293D01*
X162789128Y-102103600D01*
X157655869Y-102103600D01*
X157692909Y-102030906D01*
X157704823Y-101955680D01*
X157729816Y-101914897D01*
X157776328Y-101903729D01*
X157851100Y-101915572D01*
X157978406Y-101895409D01*
X158093251Y-101836892D01*
X158184392Y-101745751D01*
X158242909Y-101630906D01*
X158263072Y-101503600D01*
X158242909Y-101376294D01*
X158184392Y-101261449D01*
X158093251Y-101170308D01*
X157978406Y-101111791D01*
X157851100Y-101091628D01*
X157723793Y-101111791D01*
X157723792Y-101111791D01*
X157608948Y-101170308D01*
X157517808Y-101261448D01*
X157459291Y-101376292D01*
X157459289Y-101376298D01*
X157447376Y-101451517D01*
X157422382Y-101492303D01*
X157375869Y-101503470D01*
X157301100Y-101491628D01*
X157301099Y-101491628D01*
X157286424Y-101493952D01*
X157275104Y-101495744D01*
X157228591Y-101484577D01*
X157203599Y-101443792D01*
X157192909Y-101376294D01*
X157134392Y-101261449D01*
X157043251Y-101170308D01*
X156928406Y-101111791D01*
X156801100Y-101091628D01*
X156801099Y-101091628D01*
X156673793Y-101111791D01*
X156673792Y-101111791D01*
X156558948Y-101170308D01*
X156467808Y-101261448D01*
X156409291Y-101376292D01*
X156409289Y-101376298D01*
X156397376Y-101451517D01*
X156372382Y-101492303D01*
X156325869Y-101503470D01*
X156251100Y-101491628D01*
X156251099Y-101491628D01*
X156236424Y-101493952D01*
X156225104Y-101495744D01*
X156178591Y-101484577D01*
X156153599Y-101443792D01*
X156142909Y-101376294D01*
X156084392Y-101261449D01*
X155993251Y-101170308D01*
X155878406Y-101111791D01*
X155751100Y-101091628D01*
X155623793Y-101111791D01*
X155623792Y-101111791D01*
X155508948Y-101170308D01*
X155417808Y-101261448D01*
X155359291Y-101376292D01*
X155359289Y-101376299D01*
X155353666Y-101411805D01*
X155328672Y-101452592D01*
X155282159Y-101463758D01*
X155253889Y-101451613D01*
X155208836Y-101417043D01*
X155208833Y-101417041D01*
X155074339Y-101361332D01*
X155074329Y-101361329D01*
X154930002Y-101342329D01*
X154929998Y-101342329D01*
X154785670Y-101361329D01*
X154785660Y-101361332D01*
X154651167Y-101417041D01*
X154651164Y-101417043D01*
X154535667Y-101505667D01*
X154447043Y-101621164D01*
X154447041Y-101621167D01*
X154391332Y-101755660D01*
X154391329Y-101755670D01*
X154372329Y-101899998D01*
X154372329Y-101900001D01*
X147453397Y-101900001D01*
X147378406Y-101861791D01*
X147251100Y-101841628D01*
X147123793Y-101861791D01*
X147123792Y-101861791D01*
X147008948Y-101920308D01*
X146970294Y-101958963D01*
X146926100Y-101977269D01*
X146881906Y-101958963D01*
X146843251Y-101920308D01*
X146810460Y-101903600D01*
X146762102Y-101878960D01*
X146731037Y-101842586D01*
X146728747Y-101813499D01*
X146741972Y-101730000D01*
X146721809Y-101602694D01*
X146663292Y-101487849D01*
X146572151Y-101396708D01*
X146457306Y-101338191D01*
X146330000Y-101318028D01*
X146329999Y-101318028D01*
X146202693Y-101338191D01*
X146202692Y-101338191D01*
X146087848Y-101396708D01*
X145996708Y-101487848D01*
X145938191Y-101602692D01*
X145938191Y-101602693D01*
X145918028Y-101730000D01*
X145927531Y-101790000D01*
X145916363Y-101836514D01*
X145878327Y-101859825D01*
X145878472Y-101860271D01*
X145876618Y-101860873D01*
X145875586Y-101861506D01*
X145873799Y-101861789D01*
X145873795Y-101861790D01*
X145758948Y-101920308D01*
X145667808Y-102011448D01*
X145609291Y-102126292D01*
X145609291Y-102126293D01*
X145589128Y-102253600D01*
X135626543Y-102253600D01*
X135634392Y-102245751D01*
X135692909Y-102130906D01*
X135713072Y-102003600D01*
X135692909Y-101876294D01*
X135634392Y-101761449D01*
X135543251Y-101670308D01*
X135428406Y-101611791D01*
X135428404Y-101611790D01*
X135428403Y-101611790D01*
X135359251Y-101600837D01*
X135318465Y-101575843D01*
X135307299Y-101548888D01*
X135291209Y-101447294D01*
X135232692Y-101332449D01*
X135207375Y-101307131D01*
X135189069Y-101262938D01*
X135207375Y-101218744D01*
X135241790Y-101201208D01*
X135278406Y-101195409D01*
X135393251Y-101136892D01*
X135420144Y-101109999D01*
X138202443Y-101109999D01*
X138220976Y-101238908D01*
X138254104Y-101311446D01*
X138275079Y-101357374D01*
X138360364Y-101455799D01*
X138469924Y-101526208D01*
X138469926Y-101526208D01*
X138469927Y-101526209D01*
X138594881Y-101562900D01*
X138594883Y-101562900D01*
X138725119Y-101562900D01*
X138835459Y-101530500D01*
X138850076Y-101526208D01*
X138959636Y-101455799D01*
X139044921Y-101357374D01*
X139099023Y-101238909D01*
X139117557Y-101110000D01*
X139099023Y-100981091D01*
X139044921Y-100862626D01*
X138959636Y-100764201D01*
X138850076Y-100693792D01*
X138850074Y-100693791D01*
X138850072Y-100693790D01*
X138725119Y-100657100D01*
X138725117Y-100657100D01*
X138594883Y-100657100D01*
X138594881Y-100657100D01*
X138469927Y-100693790D01*
X138360364Y-100764201D01*
X138275078Y-100862627D01*
X138220976Y-100981091D01*
X138202443Y-101109999D01*
X135420144Y-101109999D01*
X135484392Y-101045751D01*
X135542909Y-100930906D01*
X135563072Y-100803600D01*
X135542909Y-100676294D01*
X135484392Y-100561449D01*
X135420737Y-100497794D01*
X135402431Y-100453600D01*
X135420737Y-100409406D01*
X135434392Y-100395751D01*
X135484392Y-100345751D01*
X135542909Y-100230906D01*
X135563072Y-100103600D01*
X135542909Y-99976294D01*
X135493845Y-99880001D01*
X137572329Y-99880001D01*
X137591329Y-100024329D01*
X137591332Y-100024339D01*
X137647041Y-100158833D01*
X137647043Y-100158836D01*
X137735666Y-100274333D01*
X137808124Y-100329931D01*
X137851164Y-100362957D01*
X137985664Y-100418669D01*
X137985668Y-100418669D01*
X137985670Y-100418670D01*
X138129998Y-100437671D01*
X138130000Y-100437671D01*
X138130002Y-100437671D01*
X138274329Y-100418670D01*
X138274329Y-100418669D01*
X138274336Y-100418669D01*
X138408836Y-100362957D01*
X138524333Y-100274333D01*
X138612957Y-100158836D01*
X138668669Y-100024336D01*
X138687671Y-99880000D01*
X138687311Y-99877268D01*
X138668670Y-99735670D01*
X138668669Y-99735668D01*
X138668669Y-99735664D01*
X138631527Y-99645997D01*
X138612958Y-99601167D01*
X138612956Y-99601164D01*
X138524333Y-99485667D01*
X138524331Y-99485666D01*
X138524331Y-99485665D01*
X138408836Y-99397043D01*
X138408833Y-99397041D01*
X138274339Y-99341332D01*
X138274329Y-99341329D01*
X138130002Y-99322329D01*
X138129998Y-99322329D01*
X137985670Y-99341329D01*
X137985660Y-99341332D01*
X137851167Y-99397041D01*
X137851164Y-99397043D01*
X137735667Y-99485667D01*
X137647043Y-99601164D01*
X137647041Y-99601167D01*
X137591332Y-99735660D01*
X137591329Y-99735670D01*
X137572329Y-99879998D01*
X137572329Y-99880001D01*
X135493845Y-99880001D01*
X135484392Y-99861449D01*
X135393251Y-99770308D01*
X135278406Y-99711791D01*
X135151100Y-99691628D01*
X135151099Y-99691628D01*
X135023793Y-99711791D01*
X135023792Y-99711791D01*
X134908950Y-99770307D01*
X134820293Y-99858963D01*
X134776098Y-99877268D01*
X134731905Y-99858962D01*
X134643251Y-99770308D01*
X134528406Y-99711791D01*
X134528405Y-99711790D01*
X134401100Y-99691628D01*
X134401099Y-99691628D01*
X134273793Y-99711791D01*
X134273792Y-99711791D01*
X134158948Y-99770308D01*
X134067808Y-99861448D01*
X134009291Y-99976292D01*
X134009291Y-99976293D01*
X133989128Y-100103600D01*
X134009291Y-100230906D01*
X134009291Y-100230907D01*
X134067808Y-100345751D01*
X134131463Y-100409406D01*
X134149769Y-100453600D01*
X134131463Y-100497794D01*
X134067808Y-100561448D01*
X134009291Y-100676292D01*
X134009291Y-100676293D01*
X133989128Y-100803599D01*
X134009291Y-100930906D01*
X134009291Y-100930907D01*
X134067809Y-101045753D01*
X134070698Y-101049729D01*
X134069683Y-101050465D01*
X134085982Y-101089813D01*
X134067676Y-101134007D01*
X134023482Y-101152313D01*
X134013711Y-101151544D01*
X133951100Y-101141628D01*
X133823793Y-101161791D01*
X133823792Y-101161791D01*
X133708948Y-101220308D01*
X133617808Y-101311448D01*
X133559291Y-101426292D01*
X133559289Y-101426298D01*
X133539744Y-101549701D01*
X133514750Y-101590487D01*
X133487792Y-101601653D01*
X133423797Y-101611789D01*
X133423795Y-101611790D01*
X133308948Y-101670308D01*
X133217808Y-101761448D01*
X133159291Y-101876292D01*
X133159291Y-101876293D01*
X133139128Y-102003600D01*
X125874100Y-102003600D01*
X125874100Y-100153600D01*
X128339128Y-100153600D01*
X128359291Y-100280906D01*
X128359291Y-100280907D01*
X128393598Y-100348237D01*
X128417808Y-100395751D01*
X128508949Y-100486892D01*
X128623794Y-100545409D01*
X128751100Y-100565572D01*
X128751101Y-100565571D01*
X128751103Y-100565572D01*
X128751104Y-100565572D01*
X128845398Y-100550637D01*
X128891911Y-100561803D01*
X128910863Y-100583992D01*
X128957894Y-100676294D01*
X128967808Y-100695751D01*
X129058949Y-100786892D01*
X129173794Y-100845409D01*
X129301100Y-100865572D01*
X129428406Y-100845409D01*
X129543251Y-100786892D01*
X129634392Y-100695751D01*
X129691336Y-100583992D01*
X129727711Y-100552926D01*
X129756797Y-100550636D01*
X129851100Y-100565572D01*
X129851101Y-100565571D01*
X129851103Y-100565572D01*
X129851104Y-100565572D01*
X129945398Y-100550637D01*
X129991911Y-100561803D01*
X130010863Y-100583992D01*
X130057894Y-100676294D01*
X130067808Y-100695751D01*
X130158949Y-100786892D01*
X130273794Y-100845409D01*
X130401100Y-100865572D01*
X130528406Y-100845409D01*
X130643251Y-100786892D01*
X130734392Y-100695751D01*
X130791336Y-100583992D01*
X130827711Y-100552926D01*
X130856797Y-100550636D01*
X130951100Y-100565572D01*
X130951101Y-100565571D01*
X130951103Y-100565572D01*
X130951104Y-100565572D01*
X131045398Y-100550637D01*
X131091911Y-100561803D01*
X131110863Y-100583992D01*
X131157894Y-100676294D01*
X131167808Y-100695751D01*
X131258949Y-100786892D01*
X131373794Y-100845409D01*
X131501100Y-100865572D01*
X131628406Y-100845409D01*
X131743251Y-100786892D01*
X131834392Y-100695751D01*
X131891336Y-100583992D01*
X131927711Y-100552926D01*
X131956797Y-100550636D01*
X132051100Y-100565572D01*
X132051101Y-100565571D01*
X132051103Y-100565572D01*
X132051104Y-100565572D01*
X132145398Y-100550637D01*
X132191911Y-100561803D01*
X132210863Y-100583992D01*
X132257894Y-100676294D01*
X132267808Y-100695751D01*
X132358949Y-100786892D01*
X132473794Y-100845409D01*
X132601100Y-100865572D01*
X132728406Y-100845409D01*
X132843251Y-100786892D01*
X132934392Y-100695751D01*
X132991336Y-100583992D01*
X133027711Y-100552926D01*
X133056797Y-100550636D01*
X133151100Y-100565572D01*
X133278406Y-100545409D01*
X133393251Y-100486892D01*
X133484392Y-100395751D01*
X133542909Y-100280906D01*
X133563072Y-100153600D01*
X133542909Y-100026294D01*
X133484392Y-99911449D01*
X133393251Y-99820308D01*
X133278406Y-99761791D01*
X133151100Y-99741628D01*
X133151099Y-99741628D01*
X133023793Y-99761791D01*
X133023792Y-99761791D01*
X132908948Y-99820308D01*
X132817808Y-99911448D01*
X132760863Y-100023207D01*
X132724488Y-100054273D01*
X132695398Y-100056563D01*
X132624884Y-100045395D01*
X132601100Y-100041628D01*
X132601099Y-100041628D01*
X132506801Y-100056563D01*
X132460287Y-100045395D01*
X132441336Y-100023207D01*
X132417431Y-99976292D01*
X132384392Y-99911449D01*
X132293251Y-99820308D01*
X132178406Y-99761791D01*
X132051100Y-99741628D01*
X132051099Y-99741628D01*
X131923793Y-99761791D01*
X131923792Y-99761791D01*
X131808948Y-99820308D01*
X131717808Y-99911448D01*
X131660863Y-100023207D01*
X131624488Y-100054273D01*
X131595398Y-100056563D01*
X131524884Y-100045395D01*
X131501100Y-100041628D01*
X131501099Y-100041628D01*
X131406801Y-100056563D01*
X131360287Y-100045395D01*
X131341336Y-100023207D01*
X131317431Y-99976292D01*
X131284392Y-99911449D01*
X131193251Y-99820308D01*
X131078406Y-99761791D01*
X130951100Y-99741628D01*
X130951099Y-99741628D01*
X130823793Y-99761791D01*
X130823792Y-99761791D01*
X130708948Y-99820308D01*
X130617808Y-99911448D01*
X130560863Y-100023207D01*
X130524488Y-100054273D01*
X130495398Y-100056563D01*
X130424884Y-100045395D01*
X130401100Y-100041628D01*
X130401099Y-100041628D01*
X130306801Y-100056563D01*
X130260287Y-100045395D01*
X130241336Y-100023207D01*
X130217431Y-99976292D01*
X130184392Y-99911449D01*
X130093251Y-99820308D01*
X129978406Y-99761791D01*
X129851100Y-99741628D01*
X129851099Y-99741628D01*
X129723793Y-99761791D01*
X129723792Y-99761791D01*
X129608948Y-99820308D01*
X129517808Y-99911448D01*
X129460863Y-100023207D01*
X129424488Y-100054273D01*
X129395398Y-100056563D01*
X129324884Y-100045395D01*
X129301100Y-100041628D01*
X129301099Y-100041628D01*
X129206801Y-100056563D01*
X129160287Y-100045395D01*
X129141336Y-100023207D01*
X129117431Y-99976292D01*
X129084392Y-99911449D01*
X128993251Y-99820308D01*
X128878406Y-99761791D01*
X128751100Y-99741628D01*
X128751099Y-99741628D01*
X128623793Y-99761791D01*
X128623792Y-99761791D01*
X128508948Y-99820308D01*
X128417808Y-99911448D01*
X128359291Y-100026292D01*
X128359291Y-100026293D01*
X128339128Y-100153600D01*
X125874100Y-100153600D01*
X125874100Y-97690007D01*
X140032326Y-97690007D01*
X140051326Y-97834335D01*
X140051329Y-97834345D01*
X140107038Y-97968839D01*
X140107040Y-97968842D01*
X140195663Y-98084339D01*
X140251610Y-98127268D01*
X140311161Y-98172963D01*
X140445661Y-98228675D01*
X140445665Y-98228675D01*
X140445667Y-98228676D01*
X140589995Y-98247677D01*
X140589997Y-98247677D01*
X140589999Y-98247677D01*
X140734326Y-98228676D01*
X140734326Y-98228675D01*
X140734333Y-98228675D01*
X140868833Y-98172963D01*
X140984330Y-98084339D01*
X141072954Y-97968842D01*
X141128666Y-97834342D01*
X141141242Y-97738816D01*
X141147668Y-97690007D01*
X141147668Y-97690004D01*
X141128667Y-97545676D01*
X141128666Y-97545674D01*
X141128666Y-97545670D01*
X141072954Y-97411171D01*
X140984330Y-97295673D01*
X140984328Y-97295672D01*
X140984328Y-97295671D01*
X140868833Y-97207049D01*
X140868830Y-97207047D01*
X140734336Y-97151338D01*
X140734326Y-97151335D01*
X140589999Y-97132335D01*
X140589995Y-97132335D01*
X140445667Y-97151335D01*
X140445657Y-97151338D01*
X140311164Y-97207047D01*
X140311161Y-97207049D01*
X140195664Y-97295673D01*
X140107040Y-97411170D01*
X140107038Y-97411173D01*
X140051329Y-97545666D01*
X140051326Y-97545676D01*
X140032326Y-97690004D01*
X140032326Y-97690007D01*
X125874100Y-97690007D01*
X125874100Y-95320000D01*
X132192443Y-95320000D01*
X132210976Y-95448908D01*
X132247028Y-95527848D01*
X132265079Y-95567374D01*
X132350364Y-95665799D01*
X132459924Y-95736208D01*
X132459926Y-95736208D01*
X132459927Y-95736209D01*
X132584881Y-95772900D01*
X132584883Y-95772900D01*
X132715119Y-95772900D01*
X132827162Y-95740000D01*
X132840076Y-95736208D01*
X132949636Y-95665799D01*
X133034921Y-95567374D01*
X133089023Y-95448909D01*
X133107557Y-95320000D01*
X133392443Y-95320000D01*
X133410976Y-95448908D01*
X133447028Y-95527848D01*
X133465079Y-95567374D01*
X133550364Y-95665799D01*
X133659924Y-95736208D01*
X133659926Y-95736208D01*
X133659927Y-95736209D01*
X133784881Y-95772900D01*
X133784883Y-95772900D01*
X133915119Y-95772900D01*
X134027162Y-95740000D01*
X137268028Y-95740000D01*
X137288191Y-95867306D01*
X137288191Y-95867307D01*
X137333331Y-95955897D01*
X137346708Y-95982151D01*
X137437849Y-96073292D01*
X137552694Y-96131809D01*
X137680000Y-96151972D01*
X137807306Y-96131809D01*
X137922151Y-96073292D01*
X138013292Y-95982151D01*
X138026669Y-95955896D01*
X138063043Y-95924830D01*
X138110731Y-95928583D01*
X138138045Y-95955897D01*
X138156099Y-95991331D01*
X138166708Y-96012151D01*
X138257849Y-96103292D01*
X138372694Y-96161809D01*
X138500000Y-96181972D01*
X138627306Y-96161809D01*
X138742151Y-96103292D01*
X138833292Y-96012151D01*
X138891809Y-95897306D01*
X138911972Y-95770000D01*
X138891809Y-95642694D01*
X138833292Y-95527849D01*
X138742151Y-95436708D01*
X138627306Y-95378191D01*
X138500000Y-95358028D01*
X138372693Y-95378191D01*
X138372692Y-95378191D01*
X138257848Y-95436708D01*
X138166707Y-95527849D01*
X138153329Y-95554104D01*
X138116954Y-95585170D01*
X138069266Y-95581415D01*
X138041955Y-95554103D01*
X138013292Y-95497849D01*
X137922151Y-95406708D01*
X137807306Y-95348191D01*
X137680000Y-95328028D01*
X137552693Y-95348191D01*
X137552692Y-95348191D01*
X137437848Y-95406708D01*
X137346708Y-95497848D01*
X137288191Y-95612692D01*
X137288191Y-95612693D01*
X137268028Y-95740000D01*
X134027162Y-95740000D01*
X134040076Y-95736208D01*
X134149636Y-95665799D01*
X134234921Y-95567374D01*
X134289023Y-95448909D01*
X134307557Y-95320000D01*
X134289023Y-95191091D01*
X134234921Y-95072626D01*
X134149636Y-94974201D01*
X134040076Y-94903792D01*
X134040074Y-94903791D01*
X134040072Y-94903790D01*
X133915119Y-94867100D01*
X133915117Y-94867100D01*
X133784883Y-94867100D01*
X133784881Y-94867100D01*
X133659927Y-94903790D01*
X133550364Y-94974201D01*
X133465078Y-95072627D01*
X133410976Y-95191091D01*
X133392443Y-95320000D01*
X133107557Y-95320000D01*
X133089023Y-95191091D01*
X133034921Y-95072626D01*
X132949636Y-94974201D01*
X132840076Y-94903792D01*
X132840074Y-94903791D01*
X132840072Y-94903790D01*
X132715119Y-94867100D01*
X132715117Y-94867100D01*
X132584883Y-94867100D01*
X132584881Y-94867100D01*
X132459927Y-94903790D01*
X132350364Y-94974201D01*
X132265078Y-95072627D01*
X132210976Y-95191091D01*
X132192443Y-95320000D01*
X125874100Y-95320000D01*
X125874100Y-92639100D01*
X125892406Y-92594906D01*
X125936600Y-92576600D01*
X129927817Y-92576600D01*
X129972011Y-92594906D01*
G37*
%TD.AperFunction*%
%TD*%
M02*
