%TF.GenerationSoftware,KiCad,Pcbnew,7.0.6*%
%TF.CreationDate,2023-08-06T04:21:24+10:00*%
%TF.ProjectId,controller,636f6e74-726f-46c6-9c65-722e6b696361,rev?*%
%TF.SameCoordinates,Original*%
%TF.FileFunction,Soldermask,Bot*%
%TF.FilePolarity,Negative*%
%FSLAX46Y46*%
G04 Gerber Fmt 4.6, Leading zero omitted, Abs format (unit mm)*
G04 Created by KiCad (PCBNEW 7.0.6) date 2023-08-06 04:21:24*
%MOMM*%
%LPD*%
G01*
G04 APERTURE LIST*
G04 Aperture macros list*
%AMRoundRect*
0 Rectangle with rounded corners*
0 $1 Rounding radius*
0 $2 $3 $4 $5 $6 $7 $8 $9 X,Y pos of 4 corners*
0 Add a 4 corners polygon primitive as box body*
4,1,4,$2,$3,$4,$5,$6,$7,$8,$9,$2,$3,0*
0 Add four circle primitives for the rounded corners*
1,1,$1+$1,$2,$3*
1,1,$1+$1,$4,$5*
1,1,$1+$1,$6,$7*
1,1,$1+$1,$8,$9*
0 Add four rect primitives between the rounded corners*
20,1,$1+$1,$2,$3,$4,$5,0*
20,1,$1+$1,$4,$5,$6,$7,0*
20,1,$1+$1,$6,$7,$8,$9,0*
20,1,$1+$1,$8,$9,$2,$3,0*%
G04 Aperture macros list end*
%ADD10R,0.700000X1.550000*%
%ADD11C,1.151600*%
%ADD12C,4.700000*%
%ADD13C,3.101600*%
%ADD14C,1.976600*%
%ADD15RoundRect,0.050800X-0.800000X0.450000X-0.800000X-0.450000X0.800000X-0.450000X0.800000X0.450000X0*%
%ADD16RoundRect,0.050800X-0.500000X-1.750000X0.500000X-1.750000X0.500000X1.750000X-0.500000X1.750000X0*%
%ADD17RoundRect,0.050800X-0.750000X-1.700000X0.750000X-1.700000X0.750000X1.700000X-0.750000X1.700000X0*%
%ADD18RoundRect,0.050800X0.425000X-3.500000X0.425000X3.500000X-0.425000X3.500000X-0.425000X-3.500000X0*%
G04 APERTURE END LIST*
D10*
%TO.C,IC4*%
X147476184Y-95013816D03*
X148746184Y-95013816D03*
X150016184Y-95013816D03*
X151286184Y-95013816D03*
X151286184Y-100463816D03*
X150016184Y-100463816D03*
X148746184Y-100463816D03*
X147476184Y-100463816D03*
%TD*%
D11*
%TO.C,DG2*%
X157060000Y-79430000D03*
%TD*%
D12*
%TO.C,M1*%
X128501100Y-81503600D03*
%TD*%
D13*
%TO.C,C0*%
X163001100Y-116703600D03*
%TD*%
%TO.C,J1*%
X159001100Y-118503600D03*
X154001100Y-118503600D03*
D14*
X162001100Y-128503600D03*
X151001100Y-128503600D03*
%TD*%
D13*
%TO.C,J2*%
X143001100Y-118503600D03*
X138001100Y-118503600D03*
D14*
X146001100Y-128503600D03*
X135001100Y-128503600D03*
%TD*%
D13*
%TO.C,B0*%
X148501100Y-116703600D03*
%TD*%
D11*
%TO.C,TEMP1*%
X147490000Y-81570000D03*
%TD*%
%TO.C,DA0*%
X140301100Y-115503600D03*
%TD*%
%TO.C,DBG1*%
X147400000Y-83250000D03*
%TD*%
D12*
%TO.C,M2*%
X168501100Y-81503600D03*
%TD*%
D11*
%TO.C,DC0*%
X158101100Y-115503600D03*
%TD*%
D13*
%TO.C,A0*%
X134001100Y-116703600D03*
%TD*%
D11*
%TO.C,TEMP2*%
X162701100Y-79303600D03*
%TD*%
D12*
%TO.C,M3*%
X128501100Y-119503600D03*
%TD*%
D11*
%TO.C,DBG2*%
X147310000Y-84750000D03*
%TD*%
%TO.C,D33*%
X128001100Y-85403600D03*
%TD*%
%TO.C,DAC0*%
X150280000Y-92180000D03*
%TD*%
D12*
%TO.C,M4*%
X168501100Y-119503600D03*
%TD*%
D11*
%TO.C,DB0*%
X145601100Y-115503600D03*
%TD*%
D15*
%TO.C,C47*%
X151701100Y-105753600D03*
X151701100Y-102853600D03*
%TD*%
D16*
%TO.C,CAN1*%
X142501100Y-123923600D03*
X140501100Y-123923600D03*
X138501100Y-123923600D03*
D17*
X136151100Y-129473600D03*
X144851100Y-129473600D03*
%TD*%
D15*
%TO.C,C43*%
X160501100Y-105753600D03*
X160501100Y-102853600D03*
%TD*%
%TO.C,C40*%
X167101100Y-105753600D03*
X167101100Y-102853600D03*
%TD*%
D18*
%TO.C,ENC0*%
X136151100Y-83353600D03*
X137651100Y-83353600D03*
X139151100Y-83353600D03*
X140651100Y-83353600D03*
X142151100Y-83353600D03*
X143651100Y-83353600D03*
%TD*%
D15*
%TO.C,C48*%
X149501100Y-105753600D03*
X149501100Y-102853600D03*
%TD*%
D16*
%TO.C,CAN2*%
X158501100Y-123923600D03*
X156501100Y-123923600D03*
X154501100Y-123923600D03*
D17*
X152151100Y-129473600D03*
X160851100Y-129473600D03*
%TD*%
D15*
%TO.C,C53*%
X132301100Y-105753600D03*
X132301100Y-102853600D03*
%TD*%
%TO.C,C51*%
X136701100Y-105753600D03*
X136701100Y-102853600D03*
%TD*%
%TO.C,C42*%
X162701100Y-105753600D03*
X162701100Y-102853600D03*
%TD*%
%TO.C,C45*%
X156101100Y-105753600D03*
X156101100Y-102853600D03*
%TD*%
%TO.C,C49*%
X141101100Y-105753600D03*
X141101100Y-102853600D03*
%TD*%
%TO.C,C54*%
X130101100Y-105753600D03*
X130101100Y-102853600D03*
%TD*%
%TO.C,C52*%
X134501100Y-105753600D03*
X134501100Y-102853600D03*
%TD*%
%TO.C,C44*%
X158301100Y-105753600D03*
X158301100Y-102853600D03*
%TD*%
%TO.C,C41*%
X164901100Y-105753600D03*
X164901100Y-102853600D03*
%TD*%
%TO.C,C50*%
X138901100Y-105753600D03*
X138901100Y-102853600D03*
%TD*%
%TO.C,C46*%
X153901100Y-105753600D03*
X153901100Y-102853600D03*
%TD*%
M02*
